G75*
G70*
%OFA0B0*%
%FSLAX24Y24*%
%IPPOS*%
%LPD*%
%AMOC8*
5,1,8,0,0,1.08239X$1,22.5*
%
%ADD10C,0.0000*%
%ADD11R,0.0098X0.2165*%
%ADD12R,0.0098X0.1890*%
%ADD13OC8,0.0827*%
%ADD14C,0.0850*%
%ADD15R,0.0650X0.0650*%
%ADD16R,0.0594X0.0594*%
%ADD17R,0.0984X0.1575*%
%ADD18R,0.0520X0.0520*%
%ADD19C,0.0520*%
%ADD20C,0.0650*%
%ADD21C,0.0160*%
%ADD22OC8,0.0240*%
%ADD23C,0.0080*%
D10*
X002587Y001755D02*
X002587Y030101D01*
X003531Y030101D02*
X003533Y030151D01*
X003539Y030201D01*
X003549Y030250D01*
X003563Y030298D01*
X003580Y030345D01*
X003601Y030390D01*
X003626Y030434D01*
X003654Y030475D01*
X003686Y030514D01*
X003720Y030551D01*
X003757Y030585D01*
X003797Y030615D01*
X003839Y030642D01*
X003883Y030666D01*
X003929Y030687D01*
X003976Y030703D01*
X004024Y030716D01*
X004074Y030725D01*
X004123Y030730D01*
X004174Y030731D01*
X004224Y030728D01*
X004273Y030721D01*
X004322Y030710D01*
X004370Y030695D01*
X004416Y030677D01*
X004461Y030655D01*
X004504Y030629D01*
X004545Y030600D01*
X004584Y030568D01*
X004620Y030533D01*
X004652Y030495D01*
X004682Y030455D01*
X004709Y030412D01*
X004732Y030368D01*
X004751Y030322D01*
X004767Y030274D01*
X004779Y030225D01*
X004787Y030176D01*
X004791Y030126D01*
X004791Y030076D01*
X004787Y030026D01*
X004779Y029977D01*
X004767Y029928D01*
X004751Y029880D01*
X004732Y029834D01*
X004709Y029790D01*
X004682Y029747D01*
X004652Y029707D01*
X004620Y029669D01*
X004584Y029634D01*
X004545Y029602D01*
X004504Y029573D01*
X004461Y029547D01*
X004416Y029525D01*
X004370Y029507D01*
X004322Y029492D01*
X004273Y029481D01*
X004224Y029474D01*
X004174Y029471D01*
X004123Y029472D01*
X004074Y029477D01*
X004024Y029486D01*
X003976Y029499D01*
X003929Y029515D01*
X003883Y029536D01*
X003839Y029560D01*
X003797Y029587D01*
X003757Y029617D01*
X003720Y029651D01*
X003686Y029688D01*
X003654Y029727D01*
X003626Y029768D01*
X003601Y029812D01*
X003580Y029857D01*
X003563Y029904D01*
X003549Y029952D01*
X003539Y030001D01*
X003533Y030051D01*
X003531Y030101D01*
X002586Y030101D02*
X002588Y030178D01*
X002594Y030255D01*
X002603Y030332D01*
X002616Y030408D01*
X002633Y030484D01*
X002654Y030558D01*
X002678Y030632D01*
X002706Y030704D01*
X002737Y030774D01*
X002772Y030843D01*
X002810Y030911D01*
X002851Y030976D01*
X002896Y031039D01*
X002944Y031100D01*
X002994Y031159D01*
X003047Y031215D01*
X003103Y031268D01*
X003162Y031318D01*
X003223Y031366D01*
X003286Y031411D01*
X003351Y031452D01*
X003419Y031490D01*
X003488Y031525D01*
X003558Y031556D01*
X003630Y031584D01*
X003704Y031608D01*
X003778Y031629D01*
X003854Y031646D01*
X003930Y031659D01*
X004007Y031668D01*
X004084Y031674D01*
X004161Y031676D01*
X040382Y031676D01*
X039752Y030101D02*
X039754Y030151D01*
X039760Y030201D01*
X039770Y030250D01*
X039784Y030298D01*
X039801Y030345D01*
X039822Y030390D01*
X039847Y030434D01*
X039875Y030475D01*
X039907Y030514D01*
X039941Y030551D01*
X039978Y030585D01*
X040018Y030615D01*
X040060Y030642D01*
X040104Y030666D01*
X040150Y030687D01*
X040197Y030703D01*
X040245Y030716D01*
X040295Y030725D01*
X040344Y030730D01*
X040395Y030731D01*
X040445Y030728D01*
X040494Y030721D01*
X040543Y030710D01*
X040591Y030695D01*
X040637Y030677D01*
X040682Y030655D01*
X040725Y030629D01*
X040766Y030600D01*
X040805Y030568D01*
X040841Y030533D01*
X040873Y030495D01*
X040903Y030455D01*
X040930Y030412D01*
X040953Y030368D01*
X040972Y030322D01*
X040988Y030274D01*
X041000Y030225D01*
X041008Y030176D01*
X041012Y030126D01*
X041012Y030076D01*
X041008Y030026D01*
X041000Y029977D01*
X040988Y029928D01*
X040972Y029880D01*
X040953Y029834D01*
X040930Y029790D01*
X040903Y029747D01*
X040873Y029707D01*
X040841Y029669D01*
X040805Y029634D01*
X040766Y029602D01*
X040725Y029573D01*
X040682Y029547D01*
X040637Y029525D01*
X040591Y029507D01*
X040543Y029492D01*
X040494Y029481D01*
X040445Y029474D01*
X040395Y029471D01*
X040344Y029472D01*
X040295Y029477D01*
X040245Y029486D01*
X040197Y029499D01*
X040150Y029515D01*
X040104Y029536D01*
X040060Y029560D01*
X040018Y029587D01*
X039978Y029617D01*
X039941Y029651D01*
X039907Y029688D01*
X039875Y029727D01*
X039847Y029768D01*
X039822Y029812D01*
X039801Y029857D01*
X039784Y029904D01*
X039770Y029952D01*
X039760Y030001D01*
X039754Y030051D01*
X039752Y030101D01*
X040382Y031676D02*
X040459Y031674D01*
X040536Y031668D01*
X040613Y031659D01*
X040689Y031646D01*
X040765Y031629D01*
X040839Y031608D01*
X040913Y031584D01*
X040985Y031556D01*
X041055Y031525D01*
X041124Y031490D01*
X041192Y031452D01*
X041257Y031411D01*
X041320Y031366D01*
X041381Y031318D01*
X041440Y031268D01*
X041496Y031215D01*
X041549Y031159D01*
X041599Y031100D01*
X041647Y031039D01*
X041692Y030976D01*
X041733Y030911D01*
X041771Y030843D01*
X041806Y030774D01*
X041837Y030704D01*
X041865Y030632D01*
X041889Y030558D01*
X041910Y030484D01*
X041927Y030408D01*
X041940Y030332D01*
X041949Y030255D01*
X041955Y030178D01*
X041957Y030101D01*
X041957Y001755D01*
X039752Y001755D02*
X039754Y001805D01*
X039760Y001855D01*
X039770Y001904D01*
X039784Y001952D01*
X039801Y001999D01*
X039822Y002044D01*
X039847Y002088D01*
X039875Y002129D01*
X039907Y002168D01*
X039941Y002205D01*
X039978Y002239D01*
X040018Y002269D01*
X040060Y002296D01*
X040104Y002320D01*
X040150Y002341D01*
X040197Y002357D01*
X040245Y002370D01*
X040295Y002379D01*
X040344Y002384D01*
X040395Y002385D01*
X040445Y002382D01*
X040494Y002375D01*
X040543Y002364D01*
X040591Y002349D01*
X040637Y002331D01*
X040682Y002309D01*
X040725Y002283D01*
X040766Y002254D01*
X040805Y002222D01*
X040841Y002187D01*
X040873Y002149D01*
X040903Y002109D01*
X040930Y002066D01*
X040953Y002022D01*
X040972Y001976D01*
X040988Y001928D01*
X041000Y001879D01*
X041008Y001830D01*
X041012Y001780D01*
X041012Y001730D01*
X041008Y001680D01*
X041000Y001631D01*
X040988Y001582D01*
X040972Y001534D01*
X040953Y001488D01*
X040930Y001444D01*
X040903Y001401D01*
X040873Y001361D01*
X040841Y001323D01*
X040805Y001288D01*
X040766Y001256D01*
X040725Y001227D01*
X040682Y001201D01*
X040637Y001179D01*
X040591Y001161D01*
X040543Y001146D01*
X040494Y001135D01*
X040445Y001128D01*
X040395Y001125D01*
X040344Y001126D01*
X040295Y001131D01*
X040245Y001140D01*
X040197Y001153D01*
X040150Y001169D01*
X040104Y001190D01*
X040060Y001214D01*
X040018Y001241D01*
X039978Y001271D01*
X039941Y001305D01*
X039907Y001342D01*
X039875Y001381D01*
X039847Y001422D01*
X039822Y001466D01*
X039801Y001511D01*
X039784Y001558D01*
X039770Y001606D01*
X039760Y001655D01*
X039754Y001705D01*
X039752Y001755D01*
X040382Y000180D02*
X040459Y000182D01*
X040536Y000188D01*
X040613Y000197D01*
X040689Y000210D01*
X040765Y000227D01*
X040839Y000248D01*
X040913Y000272D01*
X040985Y000300D01*
X041055Y000331D01*
X041124Y000366D01*
X041192Y000404D01*
X041257Y000445D01*
X041320Y000490D01*
X041381Y000538D01*
X041440Y000588D01*
X041496Y000641D01*
X041549Y000697D01*
X041599Y000756D01*
X041647Y000817D01*
X041692Y000880D01*
X041733Y000945D01*
X041771Y001013D01*
X041806Y001082D01*
X041837Y001152D01*
X041865Y001224D01*
X041889Y001298D01*
X041910Y001372D01*
X041927Y001448D01*
X041940Y001524D01*
X041949Y001601D01*
X041955Y001678D01*
X041957Y001755D01*
X040382Y000180D02*
X004161Y000180D01*
X003531Y001755D02*
X003533Y001805D01*
X003539Y001855D01*
X003549Y001904D01*
X003563Y001952D01*
X003580Y001999D01*
X003601Y002044D01*
X003626Y002088D01*
X003654Y002129D01*
X003686Y002168D01*
X003720Y002205D01*
X003757Y002239D01*
X003797Y002269D01*
X003839Y002296D01*
X003883Y002320D01*
X003929Y002341D01*
X003976Y002357D01*
X004024Y002370D01*
X004074Y002379D01*
X004123Y002384D01*
X004174Y002385D01*
X004224Y002382D01*
X004273Y002375D01*
X004322Y002364D01*
X004370Y002349D01*
X004416Y002331D01*
X004461Y002309D01*
X004504Y002283D01*
X004545Y002254D01*
X004584Y002222D01*
X004620Y002187D01*
X004652Y002149D01*
X004682Y002109D01*
X004709Y002066D01*
X004732Y002022D01*
X004751Y001976D01*
X004767Y001928D01*
X004779Y001879D01*
X004787Y001830D01*
X004791Y001780D01*
X004791Y001730D01*
X004787Y001680D01*
X004779Y001631D01*
X004767Y001582D01*
X004751Y001534D01*
X004732Y001488D01*
X004709Y001444D01*
X004682Y001401D01*
X004652Y001361D01*
X004620Y001323D01*
X004584Y001288D01*
X004545Y001256D01*
X004504Y001227D01*
X004461Y001201D01*
X004416Y001179D01*
X004370Y001161D01*
X004322Y001146D01*
X004273Y001135D01*
X004224Y001128D01*
X004174Y001125D01*
X004123Y001126D01*
X004074Y001131D01*
X004024Y001140D01*
X003976Y001153D01*
X003929Y001169D01*
X003883Y001190D01*
X003839Y001214D01*
X003797Y001241D01*
X003757Y001271D01*
X003720Y001305D01*
X003686Y001342D01*
X003654Y001381D01*
X003626Y001422D01*
X003601Y001466D01*
X003580Y001511D01*
X003563Y001558D01*
X003549Y001606D01*
X003539Y001655D01*
X003533Y001705D01*
X003531Y001755D01*
X002586Y001755D02*
X002588Y001678D01*
X002594Y001601D01*
X002603Y001524D01*
X002616Y001448D01*
X002633Y001372D01*
X002654Y001298D01*
X002678Y001224D01*
X002706Y001152D01*
X002737Y001082D01*
X002772Y001013D01*
X002810Y000945D01*
X002851Y000880D01*
X002896Y000817D01*
X002944Y000756D01*
X002994Y000697D01*
X003047Y000641D01*
X003103Y000588D01*
X003162Y000538D01*
X003223Y000490D01*
X003286Y000445D01*
X003351Y000404D01*
X003419Y000366D01*
X003488Y000331D01*
X003558Y000300D01*
X003630Y000272D01*
X003704Y000248D01*
X003778Y000227D01*
X003854Y000210D01*
X003930Y000197D01*
X004007Y000188D01*
X004084Y000182D01*
X004161Y000180D01*
X003807Y004511D02*
X003809Y004530D01*
X003814Y004549D01*
X003824Y004565D01*
X003836Y004580D01*
X003851Y004592D01*
X003867Y004602D01*
X003886Y004607D01*
X003905Y004609D01*
X003924Y004607D01*
X003943Y004602D01*
X003959Y004592D01*
X003974Y004580D01*
X003986Y004565D01*
X003996Y004549D01*
X004001Y004530D01*
X004003Y004511D01*
X004001Y004492D01*
X003996Y004473D01*
X003986Y004457D01*
X003974Y004442D01*
X003959Y004430D01*
X003943Y004420D01*
X003924Y004415D01*
X003905Y004413D01*
X003886Y004415D01*
X003867Y004420D01*
X003851Y004430D01*
X003836Y004442D01*
X003824Y004457D01*
X003814Y004473D01*
X003809Y004492D01*
X003807Y004511D01*
X003807Y006086D02*
X003809Y006105D01*
X003814Y006124D01*
X003824Y006140D01*
X003836Y006155D01*
X003851Y006167D01*
X003867Y006177D01*
X003886Y006182D01*
X003905Y006184D01*
X003924Y006182D01*
X003943Y006177D01*
X003959Y006167D01*
X003974Y006155D01*
X003986Y006140D01*
X003996Y006124D01*
X004001Y006105D01*
X004003Y006086D01*
X004001Y006067D01*
X003996Y006048D01*
X003986Y006032D01*
X003974Y006017D01*
X003959Y006005D01*
X003943Y005995D01*
X003924Y005990D01*
X003905Y005988D01*
X003886Y005990D01*
X003867Y005995D01*
X003851Y006005D01*
X003836Y006017D01*
X003824Y006032D01*
X003814Y006048D01*
X003809Y006067D01*
X003807Y006086D01*
X016295Y001834D02*
X016297Y001861D01*
X016303Y001888D01*
X016312Y001914D01*
X016325Y001938D01*
X016341Y001961D01*
X016360Y001980D01*
X016382Y001997D01*
X016406Y002011D01*
X016431Y002021D01*
X016458Y002028D01*
X016485Y002031D01*
X016513Y002030D01*
X016540Y002025D01*
X016566Y002017D01*
X016590Y002005D01*
X016613Y001989D01*
X016634Y001971D01*
X016651Y001950D01*
X016666Y001926D01*
X016677Y001901D01*
X016685Y001875D01*
X016689Y001848D01*
X016689Y001820D01*
X016685Y001793D01*
X016677Y001767D01*
X016666Y001742D01*
X016651Y001718D01*
X016634Y001697D01*
X016613Y001679D01*
X016591Y001663D01*
X016566Y001651D01*
X016540Y001643D01*
X016513Y001638D01*
X016485Y001637D01*
X016458Y001640D01*
X016431Y001647D01*
X016406Y001657D01*
X016382Y001671D01*
X016360Y001688D01*
X016341Y001707D01*
X016325Y001730D01*
X016312Y001754D01*
X016303Y001780D01*
X016297Y001807D01*
X016295Y001834D01*
X019445Y001834D02*
X019447Y001861D01*
X019453Y001888D01*
X019462Y001914D01*
X019475Y001938D01*
X019491Y001961D01*
X019510Y001980D01*
X019532Y001997D01*
X019556Y002011D01*
X019581Y002021D01*
X019608Y002028D01*
X019635Y002031D01*
X019663Y002030D01*
X019690Y002025D01*
X019716Y002017D01*
X019740Y002005D01*
X019763Y001989D01*
X019784Y001971D01*
X019801Y001950D01*
X019816Y001926D01*
X019827Y001901D01*
X019835Y001875D01*
X019839Y001848D01*
X019839Y001820D01*
X019835Y001793D01*
X019827Y001767D01*
X019816Y001742D01*
X019801Y001718D01*
X019784Y001697D01*
X019763Y001679D01*
X019741Y001663D01*
X019716Y001651D01*
X019690Y001643D01*
X019663Y001638D01*
X019635Y001637D01*
X019608Y001640D01*
X019581Y001647D01*
X019556Y001657D01*
X019532Y001671D01*
X019510Y001688D01*
X019491Y001707D01*
X019475Y001730D01*
X019462Y001754D01*
X019453Y001780D01*
X019447Y001807D01*
X019445Y001834D01*
X036425Y015416D02*
X036427Y015445D01*
X036433Y015473D01*
X036442Y015501D01*
X036455Y015527D01*
X036472Y015550D01*
X036491Y015572D01*
X036513Y015591D01*
X036538Y015606D01*
X036564Y015619D01*
X036592Y015627D01*
X036620Y015632D01*
X036649Y015633D01*
X036678Y015630D01*
X036706Y015623D01*
X036733Y015613D01*
X036759Y015599D01*
X036782Y015582D01*
X036803Y015562D01*
X036821Y015539D01*
X036836Y015514D01*
X036847Y015487D01*
X036855Y015459D01*
X036859Y015430D01*
X036859Y015402D01*
X036855Y015373D01*
X036847Y015345D01*
X036836Y015318D01*
X036821Y015293D01*
X036803Y015270D01*
X036782Y015250D01*
X036759Y015233D01*
X036733Y015219D01*
X036706Y015209D01*
X036678Y015202D01*
X036649Y015199D01*
X036620Y015200D01*
X036592Y015205D01*
X036564Y015213D01*
X036538Y015226D01*
X036513Y015241D01*
X036491Y015260D01*
X036472Y015282D01*
X036455Y015305D01*
X036442Y015331D01*
X036433Y015359D01*
X036427Y015387D01*
X036425Y015416D01*
X039181Y015416D02*
X039183Y015445D01*
X039189Y015473D01*
X039198Y015501D01*
X039211Y015527D01*
X039228Y015550D01*
X039247Y015572D01*
X039269Y015591D01*
X039294Y015606D01*
X039320Y015619D01*
X039348Y015627D01*
X039376Y015632D01*
X039405Y015633D01*
X039434Y015630D01*
X039462Y015623D01*
X039489Y015613D01*
X039515Y015599D01*
X039538Y015582D01*
X039559Y015562D01*
X039577Y015539D01*
X039592Y015514D01*
X039603Y015487D01*
X039611Y015459D01*
X039615Y015430D01*
X039615Y015402D01*
X039611Y015373D01*
X039603Y015345D01*
X039592Y015318D01*
X039577Y015293D01*
X039559Y015270D01*
X039538Y015250D01*
X039515Y015233D01*
X039489Y015219D01*
X039462Y015209D01*
X039434Y015202D01*
X039405Y015199D01*
X039376Y015200D01*
X039348Y015205D01*
X039320Y015213D01*
X039294Y015226D01*
X039269Y015241D01*
X039247Y015260D01*
X039228Y015282D01*
X039211Y015305D01*
X039198Y015331D01*
X039189Y015359D01*
X039183Y015387D01*
X039181Y015416D01*
X006929Y029758D02*
X006931Y029791D01*
X006937Y029823D01*
X006946Y029854D01*
X006959Y029884D01*
X006976Y029912D01*
X006996Y029938D01*
X007019Y029962D01*
X007044Y029982D01*
X007072Y030000D01*
X007101Y030014D01*
X007132Y030024D01*
X007164Y030031D01*
X007197Y030034D01*
X007230Y030033D01*
X007262Y030028D01*
X007293Y030019D01*
X007324Y030007D01*
X007352Y029991D01*
X007379Y029972D01*
X007403Y029950D01*
X007424Y029925D01*
X007443Y029898D01*
X007458Y029869D01*
X007469Y029839D01*
X007477Y029807D01*
X007481Y029774D01*
X007481Y029742D01*
X007477Y029709D01*
X007469Y029677D01*
X007458Y029647D01*
X007443Y029618D01*
X007424Y029591D01*
X007403Y029566D01*
X007379Y029544D01*
X007352Y029525D01*
X007324Y029509D01*
X007293Y029497D01*
X007262Y029488D01*
X007230Y029483D01*
X007197Y029482D01*
X007164Y029485D01*
X007132Y029492D01*
X007101Y029502D01*
X007072Y029516D01*
X007044Y029534D01*
X007019Y029554D01*
X006996Y029578D01*
X006976Y029604D01*
X006959Y029632D01*
X006946Y029662D01*
X006937Y029693D01*
X006931Y029725D01*
X006929Y029758D01*
X003236Y027149D02*
X003238Y027172D01*
X003244Y027195D01*
X003254Y027216D01*
X003267Y027236D01*
X003283Y027253D01*
X003302Y027267D01*
X003323Y027277D01*
X003345Y027284D01*
X003368Y027287D01*
X003392Y027286D01*
X003414Y027281D01*
X003436Y027272D01*
X003456Y027260D01*
X003474Y027244D01*
X003488Y027226D01*
X003500Y027206D01*
X003508Y027184D01*
X003512Y027161D01*
X003512Y027137D01*
X003508Y027114D01*
X003500Y027092D01*
X003488Y027072D01*
X003474Y027054D01*
X003456Y027038D01*
X003436Y027026D01*
X003414Y027017D01*
X003392Y027012D01*
X003368Y027011D01*
X003345Y027014D01*
X003323Y027021D01*
X003302Y027031D01*
X003283Y027045D01*
X003267Y027062D01*
X003254Y027082D01*
X003244Y027103D01*
X003238Y027126D01*
X003236Y027149D01*
X003236Y025967D02*
X003238Y025990D01*
X003244Y026013D01*
X003254Y026034D01*
X003267Y026054D01*
X003283Y026071D01*
X003302Y026085D01*
X003323Y026095D01*
X003345Y026102D01*
X003368Y026105D01*
X003392Y026104D01*
X003414Y026099D01*
X003436Y026090D01*
X003456Y026078D01*
X003474Y026062D01*
X003488Y026044D01*
X003500Y026024D01*
X003508Y026002D01*
X003512Y025979D01*
X003512Y025955D01*
X003508Y025932D01*
X003500Y025910D01*
X003488Y025890D01*
X003474Y025872D01*
X003456Y025856D01*
X003436Y025844D01*
X003414Y025835D01*
X003392Y025830D01*
X003368Y025829D01*
X003345Y025832D01*
X003323Y025839D01*
X003302Y025849D01*
X003283Y025863D01*
X003267Y025880D01*
X003254Y025900D01*
X003244Y025921D01*
X003238Y025944D01*
X003236Y025967D01*
D11*
X028890Y028203D03*
X031488Y028203D03*
D12*
X031252Y028203D03*
X031016Y028203D03*
X030779Y028203D03*
X030543Y028203D03*
X030307Y028203D03*
X030071Y028203D03*
X029835Y028203D03*
X029598Y028203D03*
X029362Y028203D03*
X029126Y028203D03*
D13*
X022165Y026558D03*
X007205Y026558D03*
D14*
X026602Y011302D03*
X028571Y011302D03*
X030638Y013369D03*
X032114Y011302D03*
X034083Y011302D03*
X035559Y013369D03*
X037626Y011302D03*
X039594Y011302D03*
X035559Y015337D03*
X030638Y015337D03*
X032114Y006381D03*
X034083Y006381D03*
X035559Y004314D03*
X035559Y002345D03*
X030638Y002345D03*
X030638Y004314D03*
X028571Y006381D03*
X026602Y006381D03*
X037626Y006381D03*
X039594Y006381D03*
D15*
X039909Y014156D03*
X039909Y016322D03*
X038728Y016322D03*
X037154Y016322D03*
X036563Y014550D03*
D16*
X010264Y009629D03*
X008295Y009629D03*
X008295Y003920D03*
X009279Y003920D03*
X010264Y003920D03*
D17*
X011740Y006873D03*
X006819Y006873D03*
D18*
X021980Y021782D03*
D19*
X020980Y021782D03*
X019980Y021782D03*
X018980Y021782D03*
X017980Y021782D03*
X016980Y021782D03*
X015980Y021782D03*
X014980Y021782D03*
X013980Y021782D03*
X012980Y021782D03*
X011980Y021782D03*
X010980Y021782D03*
X009980Y021782D03*
X008980Y021782D03*
X008980Y015782D03*
X009980Y015782D03*
X010980Y015782D03*
X011980Y015782D03*
X012980Y015782D03*
X013980Y015782D03*
X014980Y015782D03*
X015980Y015782D03*
X016980Y015782D03*
X017980Y015782D03*
X018980Y015782D03*
X019980Y015782D03*
X020980Y015782D03*
X021980Y015782D03*
D20*
X019516Y012007D03*
X019516Y010007D03*
D21*
X019991Y010007D02*
X041677Y010007D01*
X041677Y009849D02*
X019964Y009849D01*
X019991Y009912D02*
X019918Y009738D01*
X019785Y009604D01*
X019610Y009532D01*
X019421Y009532D01*
X019247Y009604D01*
X019113Y009738D01*
X019041Y009912D01*
X019041Y010101D01*
X019113Y010276D01*
X019247Y010409D01*
X019421Y010482D01*
X019610Y010482D01*
X019785Y010409D01*
X019918Y010276D01*
X019991Y010101D01*
X019991Y009912D01*
X019871Y009690D02*
X041677Y009690D01*
X041677Y009532D02*
X014075Y009532D01*
X013916Y009690D02*
X019161Y009690D01*
X019067Y009849D02*
X013871Y009849D01*
X013880Y009839D02*
X013722Y009997D01*
X013498Y009997D01*
X013340Y009839D01*
X013340Y009615D01*
X013498Y009457D01*
X013612Y009457D01*
X013912Y009156D01*
X013912Y007458D01*
X013832Y007378D01*
X013832Y007155D01*
X013990Y006997D01*
X014214Y006997D01*
X014372Y007155D01*
X014372Y007378D01*
X014292Y007458D01*
X014292Y009314D01*
X013880Y009726D01*
X013880Y009839D01*
X013696Y009373D02*
X010711Y009373D01*
X010711Y009270D02*
X010623Y009182D01*
X009905Y009182D01*
X009817Y009270D01*
X009817Y009988D01*
X009905Y010076D01*
X010623Y010076D01*
X010711Y009988D01*
X010711Y009270D01*
X010655Y009215D02*
X013854Y009215D01*
X013912Y009056D02*
X002867Y009056D01*
X002867Y008898D02*
X013912Y008898D01*
X013912Y008739D02*
X002867Y008739D01*
X002867Y008581D02*
X013912Y008581D01*
X013912Y008422D02*
X002867Y008422D01*
X002867Y008264D02*
X013912Y008264D01*
X013912Y008105D02*
X002867Y008105D01*
X002867Y007947D02*
X013912Y007947D01*
X013912Y007788D02*
X012317Y007788D01*
X012294Y007810D02*
X011186Y007810D01*
X011098Y007722D01*
X011098Y006023D01*
X011186Y005936D01*
X012294Y005936D01*
X012382Y006023D01*
X012382Y007722D01*
X012294Y007810D01*
X012382Y007630D02*
X013912Y007630D01*
X013912Y007471D02*
X012382Y007471D01*
X012382Y007313D02*
X013832Y007313D01*
X013833Y007154D02*
X012382Y007154D01*
X012382Y006996D02*
X041677Y006996D01*
X041677Y007154D02*
X014372Y007154D01*
X014372Y007313D02*
X041677Y007313D01*
X041677Y007471D02*
X016952Y007471D01*
X017030Y007548D02*
X017030Y007662D01*
X017245Y007877D01*
X017245Y008354D01*
X017325Y008434D01*
X017325Y008658D01*
X017313Y008670D01*
X017462Y008670D01*
X017620Y008828D01*
X017620Y009052D01*
X017462Y009210D01*
X017349Y009210D01*
X017232Y009327D01*
X016263Y009327D01*
X016183Y009407D01*
X015959Y009407D01*
X015801Y009249D01*
X015801Y009025D01*
X015959Y008867D01*
X016183Y008867D01*
X016263Y008947D01*
X017075Y008947D01*
X017080Y008941D01*
X017080Y008828D01*
X017092Y008816D01*
X016943Y008816D01*
X016785Y008658D01*
X016785Y008434D01*
X016865Y008354D01*
X016865Y008034D01*
X016761Y007930D01*
X016648Y007930D01*
X016490Y007772D01*
X016490Y007548D01*
X016648Y007390D01*
X016872Y007390D01*
X017030Y007548D01*
X017030Y007630D02*
X041677Y007630D01*
X041677Y007788D02*
X017156Y007788D01*
X017245Y007947D02*
X041677Y007947D01*
X041677Y008105D02*
X017245Y008105D01*
X017245Y008264D02*
X041677Y008264D01*
X041677Y008422D02*
X017313Y008422D01*
X017325Y008581D02*
X041677Y008581D01*
X041677Y008739D02*
X017531Y008739D01*
X017620Y008898D02*
X041677Y008898D01*
X041677Y009056D02*
X017616Y009056D01*
X017344Y009215D02*
X041677Y009215D01*
X041677Y009373D02*
X016216Y009373D01*
X015925Y009373D02*
X014233Y009373D01*
X014292Y009215D02*
X015801Y009215D01*
X015801Y009056D02*
X014292Y009056D01*
X014292Y008898D02*
X015928Y008898D01*
X016213Y008898D02*
X017080Y008898D01*
X016866Y008739D02*
X014292Y008739D01*
X014292Y008581D02*
X016785Y008581D01*
X016797Y008422D02*
X014292Y008422D01*
X014292Y008264D02*
X016865Y008264D01*
X016865Y008105D02*
X014292Y008105D01*
X014292Y007947D02*
X016777Y007947D01*
X016506Y007788D02*
X014292Y007788D01*
X014292Y007630D02*
X016490Y007630D01*
X016567Y007471D02*
X014292Y007471D01*
X012382Y006837D02*
X026203Y006837D01*
X026208Y006842D02*
X026141Y006775D01*
X026085Y006698D01*
X026042Y006613D01*
X026012Y006522D01*
X025997Y006428D01*
X025997Y006419D01*
X026564Y006419D01*
X026564Y006343D01*
X025997Y006343D01*
X025997Y006333D01*
X026012Y006239D01*
X026042Y006149D01*
X026085Y006064D01*
X026141Y005987D01*
X026208Y005919D01*
X026285Y005863D01*
X026370Y005820D01*
X026461Y005791D01*
X026555Y005776D01*
X026564Y005776D01*
X026564Y006343D01*
X026640Y006343D01*
X026640Y005776D01*
X026650Y005776D01*
X026744Y005791D01*
X026835Y005820D01*
X026919Y005863D01*
X026996Y005919D01*
X027064Y005987D01*
X027120Y006064D01*
X027163Y006149D01*
X027192Y006239D01*
X027207Y006333D01*
X027207Y006343D01*
X026640Y006343D01*
X026640Y006419D01*
X026564Y006419D01*
X026564Y006986D01*
X026555Y006986D01*
X026461Y006971D01*
X026370Y006941D01*
X026285Y006898D01*
X026208Y006842D01*
X026075Y006679D02*
X012382Y006679D01*
X012382Y006520D02*
X026012Y006520D01*
X026024Y006203D02*
X012382Y006203D01*
X012382Y006045D02*
X026099Y006045D01*
X026254Y005886D02*
X004232Y005886D01*
X004226Y005871D02*
X004284Y006010D01*
X004284Y006161D01*
X004226Y006300D01*
X004120Y006406D01*
X003981Y006464D01*
X003830Y006464D01*
X003691Y006406D01*
X003585Y006300D01*
X003527Y006161D01*
X003527Y006010D01*
X003585Y005871D01*
X003691Y005765D01*
X003830Y005707D01*
X003981Y005707D01*
X004120Y005765D01*
X004226Y005871D01*
X004284Y006045D02*
X006177Y006045D01*
X006177Y006023D02*
X006265Y005936D01*
X007373Y005936D01*
X007461Y006023D01*
X007461Y007722D01*
X007373Y007810D01*
X006265Y007810D01*
X006177Y007722D01*
X006177Y006023D01*
X006177Y006203D02*
X004266Y006203D01*
X004165Y006362D02*
X006177Y006362D01*
X006177Y006520D02*
X002867Y006520D01*
X002867Y006362D02*
X003646Y006362D01*
X003545Y006203D02*
X002867Y006203D01*
X002867Y006045D02*
X003527Y006045D01*
X003579Y005886D02*
X002867Y005886D01*
X002867Y005728D02*
X003781Y005728D01*
X004030Y005728D02*
X018284Y005728D01*
X018321Y005765D02*
X018163Y005607D01*
X018163Y005383D01*
X018243Y005303D01*
X018243Y002537D01*
X018163Y002457D01*
X018163Y002234D01*
X018321Y002075D01*
X018545Y002075D01*
X018703Y002234D01*
X018703Y002457D01*
X018623Y002537D01*
X018623Y005303D01*
X018703Y005383D01*
X018703Y005607D01*
X018545Y005765D01*
X018321Y005765D01*
X018163Y005569D02*
X002867Y005569D01*
X002867Y005411D02*
X018163Y005411D01*
X018243Y005252D02*
X002867Y005252D01*
X002867Y005094D02*
X018243Y005094D01*
X018243Y004935D02*
X002867Y004935D01*
X002867Y004777D02*
X003636Y004777D01*
X003585Y004725D02*
X003527Y004586D01*
X003527Y004435D01*
X003585Y004296D01*
X003691Y004190D01*
X003830Y004132D01*
X003981Y004132D01*
X004120Y004190D01*
X004226Y004296D01*
X004284Y004435D01*
X004284Y004586D01*
X004226Y004725D01*
X004120Y004832D01*
X003981Y004889D01*
X003830Y004889D01*
X003691Y004832D01*
X003585Y004725D01*
X003540Y004618D02*
X002867Y004618D01*
X002867Y004460D02*
X003527Y004460D01*
X003583Y004301D02*
X002867Y004301D01*
X002867Y004143D02*
X003806Y004143D01*
X004005Y004143D02*
X007848Y004143D01*
X007848Y004279D02*
X007848Y003561D01*
X007936Y003473D01*
X008654Y003473D01*
X008742Y003561D01*
X008742Y004279D01*
X008654Y004367D01*
X007936Y004367D01*
X007848Y004279D01*
X007870Y004301D02*
X004228Y004301D01*
X004284Y004460D02*
X018243Y004460D01*
X018243Y004618D02*
X004271Y004618D01*
X004175Y004777D02*
X018243Y004777D01*
X018623Y004777D02*
X030245Y004777D01*
X030244Y004775D02*
X030176Y004708D01*
X030120Y004631D01*
X030077Y004546D01*
X030048Y004456D01*
X030033Y004361D01*
X030033Y004352D01*
X030600Y004352D01*
X030600Y004919D01*
X030590Y004919D01*
X030496Y004904D01*
X030406Y004875D01*
X030321Y004831D01*
X030244Y004775D01*
X030114Y004618D02*
X018623Y004618D01*
X018623Y004460D02*
X030049Y004460D01*
X030033Y004276D02*
X030033Y004266D01*
X030048Y004172D01*
X030077Y004082D01*
X030120Y003997D01*
X030176Y003920D01*
X030244Y003852D01*
X030321Y003796D01*
X030406Y003753D01*
X030496Y003724D01*
X030590Y003709D01*
X030600Y003709D01*
X030600Y004276D01*
X030676Y004276D01*
X030676Y004352D01*
X031243Y004352D01*
X031243Y004361D01*
X031228Y004456D01*
X031198Y004546D01*
X031155Y004631D01*
X031099Y004708D01*
X031032Y004775D01*
X030955Y004831D01*
X030870Y004875D01*
X030779Y004904D01*
X030685Y004919D01*
X030676Y004919D01*
X030676Y004352D01*
X030600Y004352D01*
X030600Y004276D01*
X030033Y004276D01*
X030057Y004143D02*
X018623Y004143D01*
X018623Y004301D02*
X030600Y004301D01*
X030676Y004301D02*
X035521Y004301D01*
X035521Y004276D02*
X034954Y004276D01*
X034954Y004266D01*
X034969Y004172D01*
X034998Y004082D01*
X035042Y003997D01*
X035098Y003920D01*
X035165Y003852D01*
X035242Y003796D01*
X035327Y003753D01*
X035417Y003724D01*
X035511Y003709D01*
X035521Y003709D01*
X035521Y004276D01*
X035521Y004352D01*
X035521Y004919D01*
X035511Y004919D01*
X035417Y004904D01*
X035327Y004875D01*
X035242Y004831D01*
X035165Y004775D01*
X035098Y004708D01*
X035042Y004631D01*
X034998Y004546D01*
X034969Y004456D01*
X034954Y004361D01*
X034954Y004352D01*
X035521Y004352D01*
X035597Y004352D01*
X035597Y004919D01*
X035607Y004919D01*
X035701Y004904D01*
X035791Y004875D01*
X035876Y004831D01*
X035953Y004775D01*
X036020Y004708D01*
X036076Y004631D01*
X036120Y004546D01*
X036149Y004456D01*
X036164Y004361D01*
X036164Y004352D01*
X035597Y004352D01*
X035597Y004276D01*
X036164Y004276D01*
X036164Y004266D01*
X036149Y004172D01*
X036120Y004082D01*
X036076Y003997D01*
X036020Y003920D01*
X035953Y003852D01*
X035876Y003796D01*
X035791Y003753D01*
X035701Y003724D01*
X035607Y003709D01*
X035597Y003709D01*
X035597Y004276D01*
X035521Y004276D01*
X035597Y004301D02*
X041677Y004301D01*
X041677Y004143D02*
X036139Y004143D01*
X036067Y003984D02*
X041677Y003984D01*
X041677Y003826D02*
X035916Y003826D01*
X035597Y003826D02*
X035521Y003826D01*
X035521Y003984D02*
X035597Y003984D01*
X035597Y004143D02*
X035521Y004143D01*
X035521Y004460D02*
X035597Y004460D01*
X035597Y004618D02*
X035521Y004618D01*
X035521Y004777D02*
X035597Y004777D01*
X035952Y004777D02*
X041677Y004777D01*
X041677Y004935D02*
X018623Y004935D01*
X018623Y005094D02*
X041677Y005094D01*
X041677Y005252D02*
X018623Y005252D01*
X018703Y005411D02*
X041677Y005411D01*
X041677Y005569D02*
X018703Y005569D01*
X018582Y005728D02*
X041677Y005728D01*
X041677Y005886D02*
X039943Y005886D01*
X039912Y005863D02*
X039989Y005919D01*
X040056Y005987D01*
X040112Y006064D01*
X040155Y006149D01*
X040185Y006239D01*
X040199Y006333D01*
X040199Y006343D01*
X039633Y006343D01*
X039633Y006419D01*
X040199Y006419D01*
X040199Y006428D01*
X040185Y006522D01*
X040155Y006613D01*
X040112Y006698D01*
X040056Y006775D01*
X039989Y006842D01*
X039912Y006898D01*
X039827Y006941D01*
X039736Y006971D01*
X039642Y006986D01*
X039633Y006986D01*
X039633Y006419D01*
X039556Y006419D01*
X039556Y006343D01*
X038989Y006343D01*
X038989Y006333D01*
X039004Y006239D01*
X039034Y006149D01*
X039077Y006064D01*
X039133Y005987D01*
X039200Y005919D01*
X039277Y005863D01*
X039362Y005820D01*
X039453Y005791D01*
X039547Y005776D01*
X039556Y005776D01*
X039556Y006343D01*
X039633Y006343D01*
X039633Y005776D01*
X039642Y005776D01*
X039736Y005791D01*
X039827Y005820D01*
X039912Y005863D01*
X040098Y006045D02*
X041677Y006045D01*
X041677Y006203D02*
X040173Y006203D01*
X040185Y006520D02*
X041677Y006520D01*
X041677Y006362D02*
X039633Y006362D01*
X039556Y006362D02*
X038201Y006362D01*
X038201Y006266D02*
X038113Y006055D01*
X037952Y005893D01*
X037740Y005806D01*
X037512Y005806D01*
X037300Y005893D01*
X037138Y006055D01*
X037051Y006266D01*
X037051Y006495D01*
X037138Y006706D01*
X037300Y006868D01*
X037512Y006956D01*
X037740Y006956D01*
X037952Y006868D01*
X038113Y006706D01*
X038201Y006495D01*
X038201Y006266D01*
X038175Y006203D02*
X039016Y006203D01*
X039091Y006045D02*
X038103Y006045D01*
X037934Y005886D02*
X039246Y005886D01*
X039556Y005886D02*
X039633Y005886D01*
X039633Y006045D02*
X039556Y006045D01*
X039556Y006203D02*
X039633Y006203D01*
X039556Y006419D02*
X038989Y006419D01*
X038989Y006428D01*
X039004Y006522D01*
X039034Y006613D01*
X039077Y006698D01*
X039133Y006775D01*
X039200Y006842D01*
X039277Y006898D01*
X039362Y006941D01*
X039453Y006971D01*
X039547Y006986D01*
X039556Y006986D01*
X039556Y006419D01*
X039556Y006520D02*
X039633Y006520D01*
X039633Y006679D02*
X039556Y006679D01*
X039556Y006837D02*
X039633Y006837D01*
X039994Y006837D02*
X041677Y006837D01*
X041677Y006679D02*
X040122Y006679D01*
X039195Y006837D02*
X037983Y006837D01*
X038125Y006679D02*
X039067Y006679D01*
X039004Y006520D02*
X038191Y006520D01*
X037269Y006837D02*
X034482Y006837D01*
X034477Y006842D02*
X034400Y006898D01*
X034315Y006941D01*
X034224Y006971D01*
X034130Y006986D01*
X034121Y006986D01*
X034121Y006419D01*
X034688Y006419D01*
X034688Y006428D01*
X034673Y006522D01*
X034643Y006613D01*
X034600Y006698D01*
X034544Y006775D01*
X034477Y006842D01*
X034610Y006679D02*
X037127Y006679D01*
X037061Y006520D02*
X034673Y006520D01*
X034688Y006343D02*
X034121Y006343D01*
X034121Y006419D01*
X034045Y006419D01*
X034045Y006986D01*
X034035Y006986D01*
X033941Y006971D01*
X033850Y006941D01*
X033766Y006898D01*
X033689Y006842D01*
X033621Y006775D01*
X033565Y006698D01*
X033522Y006613D01*
X033493Y006522D01*
X033478Y006428D01*
X033478Y006419D01*
X034045Y006419D01*
X034045Y006343D01*
X034121Y006343D01*
X034121Y005776D01*
X034130Y005776D01*
X034224Y005791D01*
X034315Y005820D01*
X034400Y005863D01*
X034477Y005919D01*
X034544Y005987D01*
X034600Y006064D01*
X034643Y006149D01*
X034673Y006239D01*
X034688Y006333D01*
X034688Y006343D01*
X034661Y006203D02*
X037077Y006203D01*
X037051Y006362D02*
X034121Y006362D01*
X034045Y006362D02*
X032689Y006362D01*
X032689Y006266D02*
X032602Y006055D01*
X032440Y005893D01*
X032229Y005806D01*
X032000Y005806D01*
X031788Y005893D01*
X031627Y006055D01*
X031539Y006266D01*
X031539Y006495D01*
X031627Y006706D01*
X031788Y006868D01*
X032000Y006956D01*
X032229Y006956D01*
X032440Y006868D01*
X032602Y006706D01*
X032689Y006495D01*
X032689Y006266D01*
X032663Y006203D02*
X033504Y006203D01*
X033493Y006239D02*
X033522Y006149D01*
X033565Y006064D01*
X033621Y005987D01*
X033689Y005919D01*
X033766Y005863D01*
X033850Y005820D01*
X033941Y005791D01*
X034035Y005776D01*
X034045Y005776D01*
X034045Y006343D01*
X033478Y006343D01*
X033478Y006333D01*
X033493Y006239D01*
X033579Y006045D02*
X032591Y006045D01*
X032422Y005886D02*
X033734Y005886D01*
X034045Y005886D02*
X034121Y005886D01*
X034121Y006045D02*
X034045Y006045D01*
X034045Y006203D02*
X034121Y006203D01*
X034121Y006520D02*
X034045Y006520D01*
X034045Y006679D02*
X034121Y006679D01*
X034121Y006837D02*
X034045Y006837D01*
X033683Y006837D02*
X032471Y006837D01*
X032613Y006679D02*
X033555Y006679D01*
X033492Y006520D02*
X032679Y006520D01*
X031757Y006837D02*
X028928Y006837D01*
X028897Y006868D02*
X028685Y006956D01*
X028456Y006956D01*
X028245Y006868D01*
X028083Y006706D01*
X027996Y006495D01*
X027996Y006266D01*
X028083Y006055D01*
X028245Y005893D01*
X028456Y005806D01*
X028685Y005806D01*
X028897Y005893D01*
X029058Y006055D01*
X029146Y006266D01*
X029146Y006495D01*
X029058Y006706D01*
X028897Y006868D01*
X029070Y006679D02*
X031615Y006679D01*
X031549Y006520D02*
X029136Y006520D01*
X029146Y006362D02*
X031539Y006362D01*
X031565Y006203D02*
X029120Y006203D01*
X029048Y006045D02*
X031637Y006045D01*
X031806Y005886D02*
X028879Y005886D01*
X028263Y005886D02*
X026951Y005886D01*
X027106Y006045D02*
X028094Y006045D01*
X028022Y006203D02*
X027181Y006203D01*
X027207Y006419D02*
X026640Y006419D01*
X026640Y006986D01*
X026650Y006986D01*
X026744Y006971D01*
X026835Y006941D01*
X026919Y006898D01*
X026996Y006842D01*
X027064Y006775D01*
X027120Y006698D01*
X027163Y006613D01*
X027192Y006522D01*
X027207Y006428D01*
X027207Y006419D01*
X027193Y006520D02*
X028006Y006520D01*
X027996Y006362D02*
X026640Y006362D01*
X026564Y006362D02*
X012382Y006362D01*
X011098Y006362D02*
X007461Y006362D01*
X007461Y006520D02*
X011098Y006520D01*
X011098Y006679D02*
X007461Y006679D01*
X007461Y006837D02*
X011098Y006837D01*
X011098Y006996D02*
X007461Y006996D01*
X007461Y007154D02*
X011098Y007154D01*
X011098Y007313D02*
X007461Y007313D01*
X007461Y007471D02*
X011098Y007471D01*
X011098Y007630D02*
X007461Y007630D01*
X007395Y007788D02*
X011164Y007788D01*
X009872Y009215D02*
X008729Y009215D01*
X008736Y009221D02*
X008760Y009262D01*
X008772Y009308D01*
X008772Y009610D01*
X008314Y009610D01*
X008314Y009647D01*
X008772Y009647D01*
X008772Y009949D01*
X008760Y009995D01*
X008736Y010036D01*
X008703Y010070D01*
X008662Y010093D01*
X008616Y010106D01*
X008314Y010106D01*
X008314Y009647D01*
X008277Y009647D01*
X008277Y009610D01*
X008314Y009610D01*
X008314Y009152D01*
X008616Y009152D01*
X008662Y009164D01*
X008703Y009188D01*
X008736Y009221D01*
X008772Y009373D02*
X009817Y009373D01*
X009817Y009532D02*
X008772Y009532D01*
X008772Y009690D02*
X009817Y009690D01*
X009817Y009849D02*
X008772Y009849D01*
X008753Y010007D02*
X009836Y010007D01*
X010691Y010007D02*
X019041Y010007D01*
X019067Y010166D02*
X002867Y010166D01*
X002867Y010324D02*
X019161Y010324D01*
X019870Y010324D02*
X041677Y010324D01*
X041677Y010166D02*
X019964Y010166D01*
X019610Y011532D02*
X019785Y011604D01*
X019918Y011738D01*
X019991Y011912D01*
X019991Y012101D01*
X019918Y012276D01*
X019785Y012409D01*
X019610Y012482D01*
X019421Y012482D01*
X019247Y012409D01*
X019113Y012276D01*
X019041Y012101D01*
X019041Y011912D01*
X019113Y011738D01*
X019247Y011604D01*
X019421Y011532D01*
X019610Y011532D01*
X019756Y011592D02*
X026071Y011592D01*
X026085Y011619D02*
X026042Y011534D01*
X026012Y011444D01*
X025997Y011350D01*
X025997Y011340D01*
X026564Y011340D01*
X026564Y011264D01*
X025997Y011264D01*
X025997Y011254D01*
X026012Y011160D01*
X026042Y011070D01*
X026085Y010985D01*
X026141Y010908D01*
X026208Y010841D01*
X026285Y010785D01*
X026370Y010741D01*
X026461Y010712D01*
X026555Y010697D01*
X026564Y010697D01*
X026564Y011264D01*
X026640Y011264D01*
X026640Y010697D01*
X026650Y010697D01*
X026744Y010712D01*
X026835Y010741D01*
X026919Y010785D01*
X026996Y010841D01*
X027064Y010908D01*
X027120Y010985D01*
X027163Y011070D01*
X027192Y011160D01*
X027207Y011254D01*
X027207Y011264D01*
X026640Y011264D01*
X026640Y011340D01*
X026564Y011340D01*
X026564Y011907D01*
X026555Y011907D01*
X026461Y011892D01*
X026370Y011863D01*
X026285Y011819D01*
X026208Y011764D01*
X026141Y011696D01*
X026085Y011619D01*
X026195Y011751D02*
X019924Y011751D01*
X019989Y011909D02*
X041677Y011909D01*
X041677Y011751D02*
X040002Y011751D01*
X039989Y011764D02*
X039912Y011819D01*
X039827Y011863D01*
X039736Y011892D01*
X039642Y011907D01*
X039633Y011907D01*
X039633Y011340D01*
X040199Y011340D01*
X040199Y011350D01*
X040185Y011444D01*
X040155Y011534D01*
X040112Y011619D01*
X040056Y011696D01*
X039989Y011764D01*
X040126Y011592D02*
X041677Y011592D01*
X041677Y011434D02*
X040186Y011434D01*
X040199Y011264D02*
X039633Y011264D01*
X039633Y011340D01*
X039556Y011340D01*
X039556Y011264D01*
X038989Y011264D01*
X038989Y011254D01*
X039004Y011160D01*
X039034Y011070D01*
X039077Y010985D01*
X039133Y010908D01*
X039200Y010841D01*
X039277Y010785D01*
X039362Y010741D01*
X039453Y010712D01*
X039547Y010697D01*
X039556Y010697D01*
X039556Y011264D01*
X039633Y011264D01*
X039633Y010697D01*
X039642Y010697D01*
X039736Y010712D01*
X039827Y010741D01*
X039912Y010785D01*
X039989Y010841D01*
X040056Y010908D01*
X040112Y010985D01*
X040155Y011070D01*
X040185Y011160D01*
X040199Y011254D01*
X040199Y011264D01*
X040170Y011117D02*
X041677Y011117D01*
X041677Y011275D02*
X039633Y011275D01*
X039556Y011275D02*
X038201Y011275D01*
X038201Y011188D02*
X038113Y010976D01*
X037952Y010815D01*
X037740Y010727D01*
X037512Y010727D01*
X037300Y010815D01*
X037138Y010976D01*
X037051Y011188D01*
X037051Y011416D01*
X037138Y011628D01*
X037300Y011790D01*
X037512Y011877D01*
X037740Y011877D01*
X037952Y011790D01*
X038113Y011628D01*
X038201Y011416D01*
X038201Y011188D01*
X038171Y011117D02*
X039019Y011117D01*
X039097Y010958D02*
X038095Y010958D01*
X037915Y010800D02*
X039257Y010800D01*
X039556Y010800D02*
X039633Y010800D01*
X039633Y010958D02*
X039556Y010958D01*
X039556Y011117D02*
X039633Y011117D01*
X039556Y011340D02*
X038989Y011340D01*
X038989Y011350D01*
X039004Y011444D01*
X039034Y011534D01*
X039077Y011619D01*
X039133Y011696D01*
X039200Y011764D01*
X039277Y011819D01*
X039362Y011863D01*
X039453Y011892D01*
X039547Y011907D01*
X039556Y011907D01*
X039556Y011340D01*
X039556Y011434D02*
X039633Y011434D01*
X039633Y011592D02*
X039556Y011592D01*
X039556Y011751D02*
X039633Y011751D01*
X039187Y011751D02*
X037991Y011751D01*
X038128Y011592D02*
X039063Y011592D01*
X039003Y011434D02*
X038194Y011434D01*
X037261Y011751D02*
X034490Y011751D01*
X034477Y011764D02*
X034400Y011819D01*
X034315Y011863D01*
X034224Y011892D01*
X034130Y011907D01*
X034121Y011907D01*
X034121Y011340D01*
X034688Y011340D01*
X034688Y011350D01*
X034673Y011444D01*
X034643Y011534D01*
X034600Y011619D01*
X034544Y011696D01*
X034477Y011764D01*
X034614Y011592D02*
X037124Y011592D01*
X037058Y011434D02*
X034674Y011434D01*
X034688Y011264D02*
X034121Y011264D01*
X034121Y011340D01*
X034045Y011340D01*
X034045Y011907D01*
X034035Y011907D01*
X033941Y011892D01*
X033850Y011863D01*
X033766Y011819D01*
X033689Y011764D01*
X033621Y011696D01*
X033565Y011619D01*
X033522Y011534D01*
X033493Y011444D01*
X033478Y011350D01*
X033478Y011340D01*
X034045Y011340D01*
X034045Y011264D01*
X034121Y011264D01*
X034121Y010697D01*
X034130Y010697D01*
X034224Y010712D01*
X034315Y010741D01*
X034400Y010785D01*
X034477Y010841D01*
X034544Y010908D01*
X034600Y010985D01*
X034643Y011070D01*
X034673Y011160D01*
X034688Y011254D01*
X034688Y011264D01*
X034658Y011117D02*
X037080Y011117D01*
X037051Y011275D02*
X034121Y011275D01*
X034045Y011275D02*
X032689Y011275D01*
X032689Y011188D02*
X032602Y010976D01*
X032440Y010815D01*
X032229Y010727D01*
X032000Y010727D01*
X031788Y010815D01*
X031627Y010976D01*
X031539Y011188D01*
X031539Y011416D01*
X031627Y011628D01*
X031788Y011790D01*
X032000Y011877D01*
X032229Y011877D01*
X032440Y011790D01*
X032602Y011628D01*
X032689Y011416D01*
X032689Y011188D01*
X032660Y011117D02*
X033507Y011117D01*
X033493Y011160D02*
X033522Y011070D01*
X033565Y010985D01*
X033621Y010908D01*
X033689Y010841D01*
X033766Y010785D01*
X033850Y010741D01*
X033941Y010712D01*
X034035Y010697D01*
X034045Y010697D01*
X034045Y011264D01*
X033478Y011264D01*
X033478Y011254D01*
X033493Y011160D01*
X033585Y010958D02*
X032583Y010958D01*
X032403Y010800D02*
X033745Y010800D01*
X034045Y010800D02*
X034121Y010800D01*
X034121Y010958D02*
X034045Y010958D01*
X034045Y011117D02*
X034121Y011117D01*
X034121Y011434D02*
X034045Y011434D01*
X034045Y011592D02*
X034121Y011592D01*
X034121Y011751D02*
X034045Y011751D01*
X033676Y011751D02*
X032479Y011751D01*
X032616Y011592D02*
X033551Y011592D01*
X033491Y011434D02*
X032682Y011434D01*
X031749Y011751D02*
X028936Y011751D01*
X028897Y011790D02*
X029058Y011628D01*
X029146Y011416D01*
X029146Y011188D01*
X029058Y010976D01*
X028897Y010815D01*
X028685Y010727D01*
X028456Y010727D01*
X028245Y010815D01*
X028083Y010976D01*
X027996Y011188D01*
X027996Y011416D01*
X028083Y011628D01*
X028245Y011790D01*
X028456Y011877D01*
X028685Y011877D01*
X028897Y011790D01*
X029073Y011592D02*
X031612Y011592D01*
X031546Y011434D02*
X029139Y011434D01*
X029146Y011275D02*
X031539Y011275D01*
X031569Y011117D02*
X029116Y011117D01*
X029040Y010958D02*
X031645Y010958D01*
X031825Y010800D02*
X028860Y010800D01*
X028282Y010800D02*
X026940Y010800D01*
X027100Y010958D02*
X028102Y010958D01*
X028025Y011117D02*
X027178Y011117D01*
X027207Y011340D02*
X026640Y011340D01*
X026640Y011907D01*
X026650Y011907D01*
X026744Y011892D01*
X026835Y011863D01*
X026919Y011819D01*
X026996Y011764D01*
X027064Y011696D01*
X027120Y011619D01*
X027163Y011534D01*
X027192Y011444D01*
X027207Y011350D01*
X027207Y011340D01*
X027194Y011434D02*
X028003Y011434D01*
X027996Y011275D02*
X026640Y011275D01*
X026564Y011275D02*
X002867Y011275D01*
X002867Y011117D02*
X026026Y011117D01*
X026104Y010958D02*
X002867Y010958D01*
X002867Y010800D02*
X026265Y010800D01*
X026564Y010800D02*
X026640Y010800D01*
X026640Y010958D02*
X026564Y010958D01*
X026564Y011117D02*
X026640Y011117D01*
X026640Y011434D02*
X026564Y011434D01*
X026564Y011592D02*
X026640Y011592D01*
X026640Y011751D02*
X026564Y011751D01*
X027009Y011751D02*
X028206Y011751D01*
X028069Y011592D02*
X027134Y011592D01*
X026011Y011434D02*
X002867Y011434D01*
X002867Y011592D02*
X019276Y011592D01*
X019108Y011751D02*
X002867Y011751D01*
X002867Y011909D02*
X019042Y011909D01*
X019041Y012068D02*
X002867Y012068D01*
X002867Y012226D02*
X019092Y012226D01*
X019222Y012385D02*
X002867Y012385D01*
X002867Y012543D02*
X011594Y012543D01*
X011569Y012568D02*
X011727Y012410D01*
X011950Y012410D01*
X012030Y012490D01*
X014575Y012490D01*
X014686Y012601D01*
X015577Y013493D01*
X015691Y013493D01*
X015849Y013651D01*
X015849Y013875D01*
X015691Y014033D01*
X015467Y014033D01*
X015333Y013898D01*
X015198Y014033D01*
X014975Y014033D01*
X014817Y013875D01*
X014817Y013761D01*
X014122Y013067D01*
X012305Y013067D01*
X012305Y013087D01*
X012147Y013245D01*
X011924Y013245D01*
X011765Y013087D01*
X011765Y012950D01*
X011727Y012950D01*
X011569Y012792D01*
X011569Y012568D01*
X011569Y012702D02*
X002867Y012702D01*
X002867Y012860D02*
X011637Y012860D01*
X011765Y013019D02*
X002867Y013019D01*
X002867Y013177D02*
X011855Y013177D01*
X012215Y013177D02*
X014232Y013177D01*
X014391Y013336D02*
X002867Y013336D01*
X002867Y013494D02*
X014549Y013494D01*
X014708Y013653D02*
X002867Y013653D01*
X002867Y013811D02*
X014817Y013811D01*
X014912Y013970D02*
X002867Y013970D01*
X002867Y014128D02*
X036086Y014128D01*
X036094Y014115D02*
X036128Y014081D01*
X036169Y014058D01*
X036214Y014045D01*
X036535Y014045D01*
X036535Y014522D01*
X036591Y014522D01*
X036591Y014045D01*
X036911Y014045D01*
X036957Y014058D01*
X036998Y014081D01*
X037032Y014115D01*
X037055Y014156D01*
X037068Y014202D01*
X037068Y014522D01*
X036591Y014522D01*
X036591Y014578D01*
X037068Y014578D01*
X037068Y014899D01*
X037055Y014944D01*
X037032Y014985D01*
X036998Y015019D01*
X036966Y015038D01*
X037063Y015135D01*
X037138Y015317D01*
X037138Y015515D01*
X037063Y015697D01*
X036923Y015837D01*
X036899Y015847D01*
X037540Y015847D01*
X037628Y015935D01*
X037628Y016709D01*
X037540Y016797D01*
X036767Y016797D01*
X036679Y016709D01*
X036679Y015935D01*
X036701Y015913D01*
X036543Y015913D01*
X036360Y015837D01*
X036221Y015697D01*
X036145Y015515D01*
X036145Y015491D01*
X036120Y015570D01*
X036076Y015655D01*
X036020Y015732D01*
X035953Y015799D01*
X035876Y015855D01*
X035791Y015898D01*
X035701Y015928D01*
X035607Y015942D01*
X035597Y015942D01*
X035597Y015376D01*
X035521Y015376D01*
X035521Y015942D01*
X035511Y015942D01*
X035417Y015928D01*
X035327Y015898D01*
X035242Y015855D01*
X035165Y015799D01*
X035098Y015732D01*
X035042Y015655D01*
X034998Y015570D01*
X034969Y015479D01*
X034954Y015385D01*
X034954Y015376D01*
X035521Y015376D01*
X035521Y015299D01*
X035597Y015299D01*
X035597Y014732D01*
X035607Y014732D01*
X035701Y014747D01*
X035791Y014777D01*
X035876Y014820D01*
X035953Y014876D01*
X036020Y014943D01*
X036076Y015020D01*
X036120Y015105D01*
X036149Y015196D01*
X036162Y015277D01*
X036221Y015135D01*
X036301Y015055D01*
X036214Y015055D01*
X036169Y015043D01*
X036128Y015019D01*
X036094Y014985D01*
X036070Y014944D01*
X036058Y014899D01*
X036058Y014578D01*
X036535Y014578D01*
X036535Y014522D01*
X036058Y014522D01*
X036058Y014202D01*
X036070Y014156D01*
X036094Y014115D01*
X036058Y014287D02*
X002867Y014287D01*
X002867Y014445D02*
X036058Y014445D01*
X036058Y014604D02*
X002867Y014604D01*
X002867Y014762D02*
X030451Y014762D01*
X030406Y014777D02*
X030496Y014747D01*
X030590Y014732D01*
X030600Y014732D01*
X030600Y015299D01*
X030676Y015299D01*
X030676Y014732D01*
X030685Y014732D01*
X030779Y014747D01*
X030870Y014777D01*
X030955Y014820D01*
X031032Y014876D01*
X031099Y014943D01*
X031155Y015020D01*
X031198Y015105D01*
X031228Y015196D01*
X031243Y015290D01*
X031243Y015299D01*
X030676Y015299D01*
X030676Y015376D01*
X030600Y015376D01*
X030600Y015942D01*
X030590Y015942D01*
X030496Y015928D01*
X030406Y015898D01*
X030321Y015855D01*
X030244Y015799D01*
X030176Y015732D01*
X030120Y015655D01*
X030077Y015570D01*
X030048Y015479D01*
X030033Y015385D01*
X030033Y015376D01*
X030600Y015376D01*
X030600Y015299D01*
X030033Y015299D01*
X030033Y015290D01*
X030048Y015196D01*
X030077Y015105D01*
X030120Y015020D01*
X030176Y014943D01*
X030244Y014876D01*
X030321Y014820D01*
X030406Y014777D01*
X030600Y014762D02*
X030676Y014762D01*
X030825Y014762D02*
X035372Y014762D01*
X035327Y014777D02*
X035417Y014747D01*
X035511Y014732D01*
X035521Y014732D01*
X035521Y015299D01*
X034954Y015299D01*
X034954Y015290D01*
X034969Y015196D01*
X034998Y015105D01*
X035042Y015020D01*
X035098Y014943D01*
X035165Y014876D01*
X035242Y014820D01*
X035327Y014777D01*
X035521Y014762D02*
X035597Y014762D01*
X035746Y014762D02*
X036058Y014762D01*
X036064Y014921D02*
X035998Y014921D01*
X036106Y015079D02*
X036277Y015079D01*
X036178Y015238D02*
X036156Y015238D01*
X036162Y015555D02*
X036125Y015555D01*
X036034Y015713D02*
X036236Y015713D01*
X036443Y015872D02*
X035844Y015872D01*
X035597Y015872D02*
X035521Y015872D01*
X035521Y015713D02*
X035597Y015713D01*
X035597Y015555D02*
X035521Y015555D01*
X035521Y015396D02*
X035597Y015396D01*
X035597Y015238D02*
X035521Y015238D01*
X035521Y015079D02*
X035597Y015079D01*
X035597Y014921D02*
X035521Y014921D01*
X035120Y014921D02*
X031076Y014921D01*
X031185Y015079D02*
X035012Y015079D01*
X034962Y015238D02*
X031234Y015238D01*
X031243Y015376D02*
X030676Y015376D01*
X030676Y015942D01*
X030685Y015942D01*
X030779Y015928D01*
X030870Y015898D01*
X030955Y015855D01*
X031032Y015799D01*
X031099Y015732D01*
X031155Y015655D01*
X031198Y015570D01*
X031228Y015479D01*
X031243Y015385D01*
X031243Y015376D01*
X031241Y015396D02*
X034956Y015396D01*
X034993Y015555D02*
X031203Y015555D01*
X031113Y015713D02*
X035084Y015713D01*
X035275Y015872D02*
X030922Y015872D01*
X030676Y015872D02*
X030600Y015872D01*
X030600Y015713D02*
X030676Y015713D01*
X030676Y015555D02*
X030600Y015555D01*
X030600Y015396D02*
X030676Y015396D01*
X030676Y015238D02*
X030600Y015238D01*
X030600Y015079D02*
X030676Y015079D01*
X030676Y014921D02*
X030600Y014921D01*
X030199Y014921D02*
X002867Y014921D01*
X002867Y015079D02*
X030090Y015079D01*
X030041Y015238D02*
X002867Y015238D01*
X002867Y015396D02*
X008842Y015396D01*
X008899Y015372D02*
X009062Y015372D01*
X009213Y015435D01*
X009328Y015550D01*
X009390Y015701D01*
X009390Y015864D01*
X009328Y016015D01*
X009213Y016130D01*
X009062Y016192D01*
X008899Y016192D01*
X008748Y016130D01*
X008633Y016015D01*
X008570Y015864D01*
X008570Y015701D01*
X008633Y015550D01*
X008748Y015435D01*
X008899Y015372D01*
X009119Y015396D02*
X009842Y015396D01*
X009899Y015372D02*
X010062Y015372D01*
X010213Y015435D01*
X010328Y015550D01*
X010390Y015701D01*
X010390Y015864D01*
X010328Y016015D01*
X010213Y016130D01*
X010062Y016192D01*
X009899Y016192D01*
X009748Y016130D01*
X009633Y016015D01*
X009570Y015864D01*
X009570Y015701D01*
X009633Y015550D01*
X009748Y015435D01*
X009899Y015372D01*
X010119Y015396D02*
X010769Y015396D01*
X010750Y015406D02*
X010811Y015375D01*
X010877Y015353D01*
X010946Y015342D01*
X010980Y015342D01*
X010980Y015782D01*
X010980Y015782D01*
X010540Y015782D01*
X010540Y015748D01*
X010551Y015679D01*
X010573Y015613D01*
X010604Y015552D01*
X010645Y015496D01*
X010694Y015447D01*
X010750Y015406D01*
X010603Y015555D02*
X010330Y015555D01*
X010390Y015713D02*
X010546Y015713D01*
X010540Y015782D02*
X010980Y015782D01*
X010980Y015782D01*
X010980Y015342D01*
X011015Y015342D01*
X011083Y015353D01*
X011149Y015375D01*
X011211Y015406D01*
X011267Y015447D01*
X011316Y015496D01*
X011357Y015552D01*
X011388Y015613D01*
X011409Y015679D01*
X011420Y015748D01*
X011420Y015782D01*
X010980Y015782D01*
X010980Y015782D01*
X010980Y016222D01*
X010946Y016222D01*
X010877Y016212D01*
X010811Y016190D01*
X010750Y016159D01*
X010694Y016118D01*
X010645Y016069D01*
X010604Y016013D01*
X010573Y015951D01*
X010551Y015885D01*
X010540Y015817D01*
X010540Y015782D01*
X010549Y015872D02*
X010387Y015872D01*
X010312Y016030D02*
X010616Y016030D01*
X010808Y016189D02*
X010071Y016189D01*
X009889Y016189D02*
X009071Y016189D01*
X008889Y016189D02*
X008172Y016189D01*
X008172Y016225D02*
X008472Y016525D01*
X008596Y016525D01*
X008676Y016445D01*
X008899Y016445D01*
X009057Y016604D01*
X009057Y016827D01*
X009046Y016839D01*
X009194Y016839D01*
X009353Y016997D01*
X009353Y017221D01*
X009194Y017379D01*
X008971Y017379D01*
X008935Y017343D01*
X008899Y017379D01*
X008676Y017379D01*
X008636Y017339D01*
X007463Y017339D01*
X007423Y017379D01*
X007199Y017379D01*
X007163Y017343D01*
X007128Y017379D01*
X006904Y017379D01*
X006746Y017221D01*
X006746Y016997D01*
X006904Y016839D01*
X007128Y016839D01*
X007163Y016875D01*
X007199Y016839D01*
X007423Y016839D01*
X007463Y016879D01*
X008289Y016879D01*
X007903Y016493D01*
X007790Y016493D01*
X007632Y016335D01*
X007632Y016111D01*
X007790Y015953D01*
X008013Y015953D01*
X008172Y016111D01*
X008172Y016225D01*
X008294Y016347D02*
X012790Y016347D01*
X012790Y016189D02*
X012071Y016189D01*
X012062Y016192D02*
X011899Y016192D01*
X011748Y016130D01*
X011633Y016015D01*
X011570Y015864D01*
X011570Y015701D01*
X011633Y015550D01*
X011748Y015435D01*
X011899Y015372D01*
X012062Y015372D01*
X012213Y015435D01*
X012328Y015550D01*
X012390Y015701D01*
X012390Y015864D01*
X012328Y016015D01*
X012213Y016130D01*
X012062Y016192D01*
X011889Y016189D02*
X011152Y016189D01*
X011149Y016190D02*
X011083Y016212D01*
X011015Y016222D01*
X010980Y016222D01*
X010980Y015782D01*
X010980Y015782D01*
X011420Y015782D01*
X011420Y015817D01*
X011409Y015885D01*
X011388Y015951D01*
X011357Y016013D01*
X011316Y016069D01*
X011267Y016118D01*
X011211Y016159D01*
X011149Y016190D01*
X010980Y016189D02*
X010980Y016189D01*
X010980Y016030D02*
X010980Y016030D01*
X010980Y015872D02*
X010980Y015872D01*
X010980Y015713D02*
X010980Y015713D01*
X010980Y015555D02*
X010980Y015555D01*
X010980Y015396D02*
X010980Y015396D01*
X011191Y015396D02*
X011842Y015396D01*
X011631Y015555D02*
X011358Y015555D01*
X011415Y015713D02*
X011570Y015713D01*
X011573Y015872D02*
X011412Y015872D01*
X011344Y016030D02*
X011648Y016030D01*
X012312Y016030D02*
X012648Y016030D01*
X012633Y016015D02*
X012570Y015864D01*
X012570Y015701D01*
X012633Y015550D01*
X012748Y015435D01*
X012899Y015372D01*
X013062Y015372D01*
X013213Y015435D01*
X013328Y015550D01*
X013390Y015701D01*
X013390Y015864D01*
X013328Y016015D01*
X013213Y016130D01*
X013170Y016147D01*
X013170Y017173D01*
X013290Y017293D01*
X013290Y017516D01*
X013131Y017674D01*
X012908Y017674D01*
X012750Y017516D01*
X012750Y017293D01*
X012790Y017252D01*
X012790Y016147D01*
X012748Y016130D01*
X012633Y016015D01*
X012573Y015872D02*
X012387Y015872D01*
X012390Y015713D02*
X012570Y015713D01*
X012631Y015555D02*
X012330Y015555D01*
X012119Y015396D02*
X012842Y015396D01*
X013119Y015396D02*
X013842Y015396D01*
X013899Y015372D02*
X013748Y015435D01*
X013633Y015550D01*
X013570Y015701D01*
X013570Y015864D01*
X013633Y016015D01*
X013748Y016130D01*
X013899Y016192D01*
X014062Y016192D01*
X014213Y016130D01*
X014328Y016015D01*
X014390Y015864D01*
X014390Y015701D01*
X014328Y015550D01*
X014213Y015435D01*
X014062Y015372D01*
X013899Y015372D01*
X014119Y015396D02*
X014842Y015396D01*
X014899Y015372D02*
X015062Y015372D01*
X015213Y015435D01*
X015328Y015550D01*
X015390Y015701D01*
X015390Y015864D01*
X015328Y016015D01*
X015213Y016130D01*
X015062Y016192D01*
X014899Y016192D01*
X014748Y016130D01*
X014633Y016015D01*
X014570Y015864D01*
X014570Y015701D01*
X014633Y015550D01*
X014748Y015435D01*
X014899Y015372D01*
X015119Y015396D02*
X015842Y015396D01*
X015899Y015372D02*
X016062Y015372D01*
X016213Y015435D01*
X016328Y015550D01*
X016390Y015701D01*
X016390Y015864D01*
X016328Y016015D01*
X016213Y016130D01*
X016062Y016192D01*
X015899Y016192D01*
X015748Y016130D01*
X015633Y016015D01*
X015570Y015864D01*
X015570Y015701D01*
X015633Y015550D01*
X015748Y015435D01*
X015899Y015372D01*
X016119Y015396D02*
X016842Y015396D01*
X016899Y015372D02*
X017062Y015372D01*
X017213Y015435D01*
X017328Y015550D01*
X017390Y015701D01*
X017390Y015864D01*
X017328Y016015D01*
X017213Y016130D01*
X017062Y016192D01*
X016899Y016192D01*
X016748Y016130D01*
X016633Y016015D01*
X016570Y015864D01*
X016570Y015701D01*
X016633Y015550D01*
X016748Y015435D01*
X016899Y015372D01*
X017119Y015396D02*
X017842Y015396D01*
X017899Y015372D02*
X018062Y015372D01*
X018213Y015435D01*
X018328Y015550D01*
X018390Y015701D01*
X018390Y015864D01*
X018328Y016015D01*
X018213Y016130D01*
X018062Y016192D01*
X017899Y016192D01*
X017748Y016130D01*
X017633Y016015D01*
X017570Y015864D01*
X017570Y015701D01*
X017633Y015550D01*
X017748Y015435D01*
X017899Y015372D01*
X018119Y015396D02*
X018842Y015396D01*
X018899Y015372D02*
X019062Y015372D01*
X019213Y015435D01*
X019328Y015550D01*
X019390Y015701D01*
X019390Y015864D01*
X019328Y016015D01*
X019213Y016130D01*
X019062Y016192D01*
X018899Y016192D01*
X018748Y016130D01*
X018633Y016015D01*
X018570Y015864D01*
X018570Y015701D01*
X018633Y015550D01*
X018748Y015435D01*
X018899Y015372D01*
X019119Y015396D02*
X019842Y015396D01*
X019899Y015372D02*
X019748Y015435D01*
X019633Y015550D01*
X019570Y015701D01*
X019570Y015864D01*
X019633Y016015D01*
X019748Y016130D01*
X019899Y016192D01*
X020062Y016192D01*
X020213Y016130D01*
X020328Y016015D01*
X020390Y015864D01*
X020390Y015701D01*
X020328Y015550D01*
X020213Y015435D01*
X020062Y015372D01*
X019899Y015372D01*
X020119Y015396D02*
X020842Y015396D01*
X020899Y015372D02*
X021062Y015372D01*
X021213Y015435D01*
X021328Y015550D01*
X021390Y015701D01*
X021390Y015864D01*
X021328Y016015D01*
X021213Y016130D01*
X021062Y016192D01*
X020899Y016192D01*
X020748Y016130D01*
X020633Y016015D01*
X020570Y015864D01*
X020570Y015701D01*
X020633Y015550D01*
X020748Y015435D01*
X020899Y015372D01*
X021119Y015396D02*
X021842Y015396D01*
X021899Y015372D02*
X022062Y015372D01*
X022213Y015435D01*
X022328Y015550D01*
X022390Y015701D01*
X022390Y015864D01*
X022328Y016015D01*
X022213Y016130D01*
X022062Y016192D01*
X021899Y016192D01*
X021748Y016130D01*
X021633Y016015D01*
X021570Y015864D01*
X021570Y015701D01*
X021633Y015550D01*
X021748Y015435D01*
X021899Y015372D01*
X022119Y015396D02*
X030034Y015396D01*
X030072Y015555D02*
X022330Y015555D01*
X022390Y015713D02*
X030163Y015713D01*
X030353Y015872D02*
X022387Y015872D01*
X022312Y016030D02*
X036679Y016030D01*
X036679Y016189D02*
X022071Y016189D01*
X021889Y016189D02*
X021071Y016189D01*
X020889Y016189D02*
X020071Y016189D01*
X019889Y016189D02*
X019071Y016189D01*
X018889Y016189D02*
X018071Y016189D01*
X017889Y016189D02*
X017071Y016189D01*
X016889Y016189D02*
X016071Y016189D01*
X015889Y016189D02*
X015071Y016189D01*
X014889Y016189D02*
X014071Y016189D01*
X013889Y016189D02*
X013170Y016189D01*
X013170Y016347D02*
X036679Y016347D01*
X036679Y016506D02*
X023133Y016506D01*
X023072Y016445D02*
X023231Y016604D01*
X023231Y016827D01*
X023072Y016985D01*
X022849Y016985D01*
X022769Y016905D01*
X021282Y016905D01*
X021202Y016985D01*
X020979Y016985D01*
X020821Y016827D01*
X020821Y016604D01*
X020979Y016445D01*
X021202Y016445D01*
X021282Y016525D01*
X022769Y016525D01*
X022849Y016445D01*
X023072Y016445D01*
X023231Y016664D02*
X036679Y016664D01*
X037628Y016664D02*
X038254Y016664D01*
X038254Y016709D02*
X038341Y016797D01*
X039115Y016797D01*
X039203Y016709D01*
X039203Y015935D01*
X039115Y015847D01*
X038341Y015847D01*
X038254Y015935D01*
X038254Y016709D01*
X038254Y016506D02*
X037628Y016506D01*
X037628Y016347D02*
X038254Y016347D01*
X038254Y016189D02*
X037628Y016189D01*
X037628Y016030D02*
X038254Y016030D01*
X038317Y015872D02*
X037565Y015872D01*
X037047Y015713D02*
X038992Y015713D01*
X038977Y015697D02*
X038901Y015515D01*
X038901Y015317D01*
X038977Y015135D01*
X039116Y014995D01*
X039299Y014920D01*
X039496Y014920D01*
X039679Y014995D01*
X039819Y015135D01*
X039894Y015317D01*
X039894Y015515D01*
X039819Y015697D01*
X039679Y015837D01*
X039655Y015847D01*
X040296Y015847D01*
X040384Y015935D01*
X040384Y016709D01*
X040296Y016797D01*
X039522Y016797D01*
X039435Y016709D01*
X039435Y015935D01*
X039457Y015913D01*
X039299Y015913D01*
X039116Y015837D01*
X038977Y015697D01*
X038917Y015555D02*
X037122Y015555D01*
X037138Y015396D02*
X038901Y015396D01*
X038934Y015238D02*
X037105Y015238D01*
X037007Y015079D02*
X039033Y015079D01*
X039297Y014921D02*
X037062Y014921D01*
X037068Y014762D02*
X041677Y014762D01*
X041677Y014604D02*
X040324Y014604D01*
X040296Y014631D02*
X039522Y014631D01*
X039435Y014543D01*
X039435Y013769D01*
X039522Y013682D01*
X040296Y013682D01*
X040384Y013769D01*
X040384Y014543D01*
X040296Y014631D01*
X040384Y014445D02*
X041677Y014445D01*
X041677Y014287D02*
X040384Y014287D01*
X040384Y014128D02*
X041677Y014128D01*
X041677Y013970D02*
X040384Y013970D01*
X040384Y013811D02*
X041677Y013811D01*
X041677Y013653D02*
X036064Y013653D01*
X036046Y013695D02*
X035885Y013856D01*
X035673Y013944D01*
X035445Y013944D01*
X035233Y013856D01*
X035072Y013695D01*
X034984Y013483D01*
X034984Y013255D01*
X035072Y013043D01*
X035233Y012882D01*
X035445Y012794D01*
X035673Y012794D01*
X035885Y012882D01*
X036046Y013043D01*
X036134Y013255D01*
X036134Y013483D01*
X036046Y013695D01*
X035930Y013811D02*
X039435Y013811D01*
X039435Y013970D02*
X015754Y013970D01*
X015849Y013811D02*
X030267Y013811D01*
X030312Y013856D02*
X030150Y013695D01*
X030063Y013483D01*
X030063Y013255D01*
X030150Y013043D01*
X030312Y012882D01*
X030523Y012794D01*
X030752Y012794D01*
X030963Y012882D01*
X031125Y013043D01*
X031213Y013255D01*
X031213Y013483D01*
X031125Y013695D01*
X030963Y013856D01*
X030752Y013944D01*
X030523Y013944D01*
X030312Y013856D01*
X030133Y013653D02*
X015849Y013653D01*
X015692Y013494D02*
X030067Y013494D01*
X030063Y013336D02*
X015420Y013336D01*
X015262Y013177D02*
X030095Y013177D01*
X030175Y013019D02*
X015103Y013019D01*
X014945Y012860D02*
X030364Y012860D01*
X030912Y012860D02*
X035285Y012860D01*
X035096Y013019D02*
X031100Y013019D01*
X031181Y013177D02*
X035016Y013177D01*
X034984Y013336D02*
X031213Y013336D01*
X031208Y013494D02*
X034988Y013494D01*
X035054Y013653D02*
X031143Y013653D01*
X031009Y013811D02*
X035188Y013811D01*
X036130Y013494D02*
X041677Y013494D01*
X041677Y013336D02*
X036134Y013336D01*
X036102Y013177D02*
X041677Y013177D01*
X041677Y013019D02*
X036022Y013019D01*
X035833Y012860D02*
X041677Y012860D01*
X041677Y012702D02*
X014786Y012702D01*
X014628Y012543D02*
X041677Y012543D01*
X041677Y012385D02*
X019810Y012385D01*
X019939Y012226D02*
X041677Y012226D01*
X041677Y012068D02*
X019991Y012068D01*
X015404Y013970D02*
X015262Y013970D01*
X015330Y015555D02*
X015631Y015555D01*
X015570Y015713D02*
X015390Y015713D01*
X015387Y015872D02*
X015573Y015872D01*
X015648Y016030D02*
X015312Y016030D01*
X014648Y016030D02*
X014312Y016030D01*
X014387Y015872D02*
X014573Y015872D01*
X014570Y015713D02*
X014390Y015713D01*
X014330Y015555D02*
X014631Y015555D01*
X013631Y015555D02*
X013330Y015555D01*
X013390Y015713D02*
X013570Y015713D01*
X013573Y015872D02*
X013387Y015872D01*
X013312Y016030D02*
X013648Y016030D01*
X013170Y016506D02*
X020919Y016506D01*
X020821Y016664D02*
X013170Y016664D01*
X013170Y016823D02*
X020821Y016823D01*
X020974Y016981D02*
X013170Y016981D01*
X013170Y017140D02*
X041677Y017140D01*
X041677Y017298D02*
X013290Y017298D01*
X013290Y017457D02*
X041677Y017457D01*
X041677Y017615D02*
X013191Y017615D01*
X012848Y017615D02*
X002867Y017615D01*
X002867Y017457D02*
X012750Y017457D01*
X012750Y017298D02*
X009276Y017298D01*
X009353Y017140D02*
X012790Y017140D01*
X012790Y016981D02*
X009336Y016981D01*
X009083Y017109D02*
X007311Y017109D01*
X007016Y017109D01*
X006823Y017298D02*
X002867Y017298D01*
X002867Y017140D02*
X006746Y017140D01*
X006762Y016981D02*
X002867Y016981D01*
X002867Y016823D02*
X008232Y016823D01*
X008074Y016664D02*
X002867Y016664D01*
X002867Y016506D02*
X007915Y016506D01*
X007643Y016347D02*
X002867Y016347D01*
X002867Y016189D02*
X007632Y016189D01*
X007713Y016030D02*
X002867Y016030D01*
X002867Y015872D02*
X008573Y015872D01*
X008570Y015713D02*
X002867Y015713D01*
X002867Y015555D02*
X008631Y015555D01*
X008648Y016030D02*
X008090Y016030D01*
X008452Y016506D02*
X008615Y016506D01*
X008959Y016506D02*
X012790Y016506D01*
X012790Y016664D02*
X009057Y016664D01*
X009057Y016823D02*
X012790Y016823D01*
X009648Y016030D02*
X009312Y016030D01*
X009387Y015872D02*
X009573Y015872D01*
X009570Y015713D02*
X009390Y015713D01*
X009330Y015555D02*
X009631Y015555D01*
X002867Y017774D02*
X041677Y017774D01*
X041677Y017932D02*
X002867Y017932D01*
X002867Y018091D02*
X041677Y018091D01*
X041677Y018249D02*
X002867Y018249D01*
X002867Y018408D02*
X041677Y018408D01*
X041677Y018566D02*
X033165Y018566D01*
X033112Y018512D02*
X033270Y018671D01*
X033270Y018709D01*
X033407Y018709D01*
X033565Y018867D01*
X033565Y019091D01*
X033485Y019171D01*
X033485Y021826D01*
X033491Y021896D01*
X033485Y021903D01*
X033485Y021912D01*
X033435Y021962D01*
X030261Y025718D01*
X030261Y026314D01*
X030346Y026230D01*
X030506Y026069D01*
X030641Y025934D01*
X039639Y025934D01*
X039679Y025894D01*
X039903Y025894D01*
X040061Y026052D01*
X040061Y026276D01*
X039903Y026434D01*
X039679Y026434D01*
X039639Y026394D01*
X030831Y026394D01*
X030671Y026555D01*
X030671Y026815D01*
X030733Y026877D01*
X030733Y027069D01*
X031289Y027069D01*
X031289Y027058D01*
X031377Y026970D01*
X031600Y026970D01*
X031687Y027058D01*
X031687Y027069D01*
X031754Y027069D01*
X031800Y027115D01*
X031800Y029321D01*
X038138Y029321D01*
X039404Y028054D01*
X039516Y027943D01*
X040977Y027943D01*
X041057Y027863D01*
X041281Y027863D01*
X041439Y028021D01*
X041439Y028245D01*
X041281Y028403D01*
X041057Y028403D01*
X040977Y028323D01*
X039673Y028323D01*
X038295Y029701D01*
X031346Y029701D01*
X031235Y029589D01*
X031138Y029492D01*
X028735Y029492D01*
X028688Y029445D01*
X028688Y027115D01*
X028691Y027113D01*
X028691Y027058D01*
X028778Y026970D01*
X029001Y026970D01*
X029089Y027058D01*
X029089Y027069D01*
X029172Y027069D01*
X029172Y025479D01*
X029166Y025408D01*
X029172Y025402D01*
X029172Y025393D01*
X029222Y025342D01*
X032515Y021468D01*
X032515Y019171D01*
X032435Y019091D01*
X032435Y018867D01*
X032593Y018709D01*
X032730Y018709D01*
X032730Y018671D01*
X032888Y018512D01*
X033112Y018512D01*
X032834Y018566D02*
X002867Y018566D01*
X002867Y018725D02*
X032578Y018725D01*
X032435Y018883D02*
X002867Y018883D01*
X002867Y019042D02*
X032435Y019042D01*
X032515Y019200D02*
X022185Y019200D01*
X022246Y019261D02*
X022246Y019485D01*
X022166Y019565D01*
X022166Y021372D01*
X022302Y021372D01*
X022390Y021460D01*
X022390Y022104D01*
X022302Y022192D01*
X021674Y022192D01*
X021674Y022208D01*
X021563Y022319D01*
X021268Y022614D01*
X018059Y022614D01*
X017948Y022503D01*
X017790Y022345D01*
X017790Y022147D01*
X017748Y022130D01*
X017633Y022015D01*
X017570Y021864D01*
X017570Y021701D01*
X017633Y021550D01*
X017748Y021435D01*
X017899Y021372D01*
X018062Y021372D01*
X018213Y021435D01*
X018328Y021550D01*
X018390Y021701D01*
X018390Y021864D01*
X018328Y022015D01*
X018213Y022130D01*
X018170Y022147D01*
X018170Y022188D01*
X018216Y022234D01*
X018959Y022234D01*
X018917Y022192D01*
X018899Y022192D01*
X018748Y022130D01*
X018633Y022015D01*
X018570Y021864D01*
X018570Y021701D01*
X018633Y021550D01*
X018748Y021435D01*
X018899Y021372D01*
X019062Y021372D01*
X019213Y021435D01*
X019328Y021550D01*
X019390Y021701D01*
X019390Y021864D01*
X019328Y022015D01*
X019305Y022037D01*
X019655Y022037D01*
X019633Y022015D01*
X019570Y021864D01*
X019570Y021701D01*
X019633Y021550D01*
X019679Y021503D01*
X019679Y020017D01*
X019639Y019977D01*
X019639Y019753D01*
X019675Y019717D01*
X019639Y019682D01*
X019639Y019458D01*
X019798Y019300D01*
X020021Y019300D01*
X020179Y019458D01*
X020179Y019682D01*
X020144Y019717D01*
X020179Y019753D01*
X020179Y019977D01*
X020139Y020017D01*
X020139Y021404D01*
X020213Y021435D01*
X020310Y021532D01*
X020310Y019565D01*
X020230Y019485D01*
X020230Y019261D01*
X020388Y019103D01*
X020612Y019103D01*
X020770Y019261D01*
X020770Y019485D01*
X020690Y019565D01*
X020690Y021493D01*
X020748Y021435D01*
X020899Y021372D01*
X021062Y021372D01*
X021213Y021435D01*
X021294Y021516D01*
X021294Y019565D01*
X021214Y019485D01*
X021214Y019261D01*
X021372Y019103D01*
X021596Y019103D01*
X021730Y019237D01*
X021865Y019103D01*
X022088Y019103D01*
X022246Y019261D01*
X022246Y019359D02*
X032515Y019359D01*
X032515Y019517D02*
X022214Y019517D01*
X022166Y019676D02*
X032515Y019676D01*
X032515Y019834D02*
X022166Y019834D01*
X022166Y019993D02*
X032515Y019993D01*
X032515Y020151D02*
X022166Y020151D01*
X022166Y020310D02*
X032515Y020310D01*
X032515Y020468D02*
X022166Y020468D01*
X022166Y020627D02*
X032515Y020627D01*
X032515Y020785D02*
X022166Y020785D01*
X022166Y020944D02*
X032515Y020944D01*
X032515Y021102D02*
X022166Y021102D01*
X022166Y021261D02*
X032515Y021261D01*
X032515Y021419D02*
X022349Y021419D01*
X022390Y021578D02*
X032422Y021578D01*
X032287Y021736D02*
X022390Y021736D01*
X022390Y021895D02*
X032153Y021895D01*
X032018Y022053D02*
X022390Y022053D01*
X021670Y022212D02*
X031883Y022212D01*
X031748Y022370D02*
X021512Y022370D01*
X021353Y022529D02*
X031614Y022529D01*
X031479Y022687D02*
X002867Y022687D01*
X002867Y022529D02*
X017974Y022529D01*
X017815Y022370D02*
X002867Y022370D01*
X002867Y022212D02*
X016877Y022212D01*
X016811Y022190D01*
X016750Y022159D01*
X016694Y022118D01*
X016645Y022069D01*
X016604Y022013D01*
X016573Y021951D01*
X016551Y021885D01*
X016540Y021817D01*
X016540Y021782D01*
X016540Y021748D01*
X016551Y021679D01*
X016573Y021613D01*
X016604Y021552D01*
X016645Y021496D01*
X016694Y021447D01*
X016750Y021406D01*
X016811Y021375D01*
X016877Y021353D01*
X016946Y021342D01*
X016980Y021342D01*
X016980Y021782D01*
X016980Y021782D01*
X016540Y021782D01*
X016980Y021782D01*
X016980Y021782D01*
X016980Y021342D01*
X017015Y021342D01*
X017083Y021353D01*
X017149Y021375D01*
X017211Y021406D01*
X017267Y021447D01*
X017316Y021496D01*
X017357Y021552D01*
X017388Y021613D01*
X017409Y021679D01*
X017420Y021748D01*
X017420Y021782D01*
X016980Y021782D01*
X016980Y021782D01*
X016980Y022222D01*
X016946Y022222D01*
X016877Y022212D01*
X016980Y022212D02*
X016980Y022212D01*
X016980Y022222D02*
X016980Y021782D01*
X016980Y021782D01*
X017420Y021782D01*
X017420Y021817D01*
X017409Y021885D01*
X017388Y021951D01*
X017357Y022013D01*
X017316Y022069D01*
X017267Y022118D01*
X017211Y022159D01*
X017149Y022190D01*
X017083Y022212D01*
X017790Y022212D01*
X017671Y022053D02*
X017327Y022053D01*
X017406Y021895D02*
X017583Y021895D01*
X017570Y021736D02*
X017418Y021736D01*
X017370Y021578D02*
X017621Y021578D01*
X017786Y021419D02*
X017229Y021419D01*
X016980Y021419D02*
X016980Y021419D01*
X016980Y021578D02*
X016980Y021578D01*
X016980Y021736D02*
X016980Y021736D01*
X016980Y021895D02*
X016980Y021895D01*
X016980Y022053D02*
X016980Y022053D01*
X016980Y022222D02*
X017015Y022222D01*
X017083Y022212D01*
X016633Y022053D02*
X016289Y022053D01*
X016328Y022015D02*
X016213Y022130D01*
X016062Y022192D01*
X015899Y022192D01*
X015748Y022130D01*
X015633Y022015D01*
X015570Y021864D01*
X015570Y021701D01*
X015633Y021550D01*
X015748Y021435D01*
X015782Y021421D01*
X015782Y020352D01*
X015702Y020272D01*
X015702Y020048D01*
X015861Y019890D01*
X016084Y019890D01*
X016242Y020048D01*
X016242Y020272D01*
X016162Y020352D01*
X016162Y021414D01*
X016213Y021435D01*
X016328Y021550D01*
X016390Y021701D01*
X016390Y021864D01*
X016328Y022015D01*
X016378Y021895D02*
X016554Y021895D01*
X016542Y021736D02*
X016390Y021736D01*
X016339Y021578D02*
X016591Y021578D01*
X016732Y021419D02*
X016175Y021419D01*
X016162Y021261D02*
X019679Y021261D01*
X019679Y021419D02*
X019175Y021419D01*
X019339Y021578D02*
X019621Y021578D01*
X019570Y021736D02*
X019390Y021736D01*
X019378Y021895D02*
X019583Y021895D01*
X019909Y021711D02*
X019980Y021782D01*
X019909Y021711D02*
X019909Y019570D01*
X019739Y019359D02*
X002867Y019359D01*
X002867Y019517D02*
X019639Y019517D01*
X019639Y019676D02*
X002867Y019676D01*
X002867Y019834D02*
X019639Y019834D01*
X019655Y019993D02*
X016186Y019993D01*
X016242Y020151D02*
X019679Y020151D01*
X019679Y020310D02*
X016205Y020310D01*
X016162Y020468D02*
X019679Y020468D01*
X019679Y020627D02*
X016162Y020627D01*
X016162Y020785D02*
X019679Y020785D01*
X019679Y020944D02*
X016162Y020944D01*
X016162Y021102D02*
X019679Y021102D01*
X020139Y021102D02*
X020310Y021102D01*
X020310Y020944D02*
X020139Y020944D01*
X020139Y020785D02*
X020310Y020785D01*
X020310Y020627D02*
X020139Y020627D01*
X020139Y020468D02*
X020310Y020468D01*
X020310Y020310D02*
X020139Y020310D01*
X020139Y020151D02*
X020310Y020151D01*
X020310Y019993D02*
X020164Y019993D01*
X020179Y019834D02*
X020310Y019834D01*
X020310Y019676D02*
X020179Y019676D01*
X020179Y019517D02*
X020262Y019517D01*
X020230Y019359D02*
X020080Y019359D01*
X020291Y019200D02*
X002867Y019200D01*
X002867Y019993D02*
X015758Y019993D01*
X015702Y020151D02*
X002867Y020151D01*
X002867Y020310D02*
X014752Y020310D01*
X014718Y020344D02*
X014876Y020186D01*
X015100Y020186D01*
X015258Y020344D01*
X015258Y020567D01*
X015178Y020647D01*
X015178Y021421D01*
X015213Y021435D01*
X015328Y021550D01*
X015390Y021701D01*
X015390Y021864D01*
X015328Y022015D01*
X015213Y022130D01*
X015062Y022192D01*
X014899Y022192D01*
X014748Y022130D01*
X014633Y022015D01*
X014570Y021864D01*
X014570Y021701D01*
X014633Y021550D01*
X014748Y021435D01*
X014798Y021414D01*
X014798Y020647D01*
X014718Y020567D01*
X014718Y020344D01*
X014718Y020468D02*
X002867Y020468D01*
X002867Y020627D02*
X014777Y020627D01*
X014798Y020785D02*
X002867Y020785D01*
X002867Y020944D02*
X014798Y020944D01*
X014798Y021102D02*
X002867Y021102D01*
X002867Y021261D02*
X014798Y021261D01*
X014786Y021419D02*
X014175Y021419D01*
X014213Y021435D02*
X014328Y021550D01*
X014390Y021701D01*
X014390Y021864D01*
X014328Y022015D01*
X014213Y022130D01*
X014062Y022192D01*
X013899Y022192D01*
X013748Y022130D01*
X013633Y022015D01*
X013570Y021864D01*
X013570Y021701D01*
X013633Y021550D01*
X013748Y021435D01*
X013899Y021372D01*
X014062Y021372D01*
X014213Y021435D01*
X014339Y021578D02*
X014621Y021578D01*
X014570Y021736D02*
X014390Y021736D01*
X014378Y021895D02*
X014583Y021895D01*
X014671Y022053D02*
X014289Y022053D01*
X013671Y022053D02*
X013289Y022053D01*
X013328Y022015D02*
X013213Y022130D01*
X013062Y022192D01*
X012899Y022192D01*
X012748Y022130D01*
X012633Y022015D01*
X012570Y021864D01*
X012570Y021701D01*
X012633Y021550D01*
X012748Y021435D01*
X012899Y021372D01*
X013062Y021372D01*
X013213Y021435D01*
X013328Y021550D01*
X013390Y021701D01*
X013390Y021864D01*
X013328Y022015D01*
X013378Y021895D02*
X013583Y021895D01*
X013570Y021736D02*
X013390Y021736D01*
X013339Y021578D02*
X013621Y021578D01*
X013786Y021419D02*
X013175Y021419D01*
X012786Y021419D02*
X012175Y021419D01*
X012213Y021435D02*
X012328Y021550D01*
X012390Y021701D01*
X012390Y021864D01*
X012328Y022015D01*
X012213Y022130D01*
X012062Y022192D01*
X011899Y022192D01*
X011748Y022130D01*
X011633Y022015D01*
X011570Y021864D01*
X011570Y021701D01*
X011633Y021550D01*
X011748Y021435D01*
X011899Y021372D01*
X012062Y021372D01*
X012213Y021435D01*
X012339Y021578D02*
X012621Y021578D01*
X012570Y021736D02*
X012390Y021736D01*
X012378Y021895D02*
X012583Y021895D01*
X012671Y022053D02*
X012289Y022053D01*
X011671Y022053D02*
X011289Y022053D01*
X011328Y022015D02*
X011213Y022130D01*
X011062Y022192D01*
X010899Y022192D01*
X010748Y022130D01*
X010633Y022015D01*
X010570Y021864D01*
X010570Y021701D01*
X010633Y021550D01*
X010748Y021435D01*
X010899Y021372D01*
X011062Y021372D01*
X011213Y021435D01*
X011328Y021550D01*
X011390Y021701D01*
X011390Y021864D01*
X011328Y022015D01*
X011378Y021895D02*
X011583Y021895D01*
X011570Y021736D02*
X011390Y021736D01*
X011339Y021578D02*
X011621Y021578D01*
X011786Y021419D02*
X011175Y021419D01*
X010786Y021419D02*
X010175Y021419D01*
X010213Y021435D02*
X010328Y021550D01*
X010390Y021701D01*
X010390Y021864D01*
X010328Y022015D01*
X010213Y022130D01*
X010062Y022192D01*
X009899Y022192D01*
X009748Y022130D01*
X009633Y022015D01*
X009570Y021864D01*
X009570Y021701D01*
X009633Y021550D01*
X009748Y021435D01*
X009899Y021372D01*
X010062Y021372D01*
X010213Y021435D01*
X010339Y021578D02*
X010621Y021578D01*
X010570Y021736D02*
X010390Y021736D01*
X010378Y021895D02*
X010583Y021895D01*
X010671Y022053D02*
X010289Y022053D01*
X009671Y022053D02*
X009289Y022053D01*
X009328Y022015D02*
X009213Y022130D01*
X009062Y022192D01*
X008899Y022192D01*
X008748Y022130D01*
X008633Y022015D01*
X008570Y021864D01*
X008570Y021701D01*
X008633Y021550D01*
X008748Y021435D01*
X008899Y021372D01*
X009062Y021372D01*
X009213Y021435D01*
X009328Y021550D01*
X009390Y021701D01*
X009390Y021864D01*
X009328Y022015D01*
X009378Y021895D02*
X009583Y021895D01*
X009570Y021736D02*
X009390Y021736D01*
X009339Y021578D02*
X009621Y021578D01*
X009786Y021419D02*
X009175Y021419D01*
X008786Y021419D02*
X002867Y021419D01*
X002867Y021578D02*
X008621Y021578D01*
X008570Y021736D02*
X002867Y021736D01*
X002867Y021895D02*
X008583Y021895D01*
X008671Y022053D02*
X002867Y022053D01*
X002867Y022846D02*
X031344Y022846D01*
X031210Y023004D02*
X002867Y023004D01*
X002867Y023163D02*
X031075Y023163D01*
X030940Y023321D02*
X002867Y023321D01*
X002867Y023480D02*
X030806Y023480D01*
X030671Y023638D02*
X002867Y023638D01*
X002867Y023797D02*
X030536Y023797D01*
X030401Y023955D02*
X002867Y023955D01*
X002867Y024114D02*
X030267Y024114D01*
X030132Y024272D02*
X002867Y024272D01*
X002867Y024431D02*
X029997Y024431D01*
X029863Y024589D02*
X002867Y024589D01*
X002867Y024748D02*
X029728Y024748D01*
X029593Y024906D02*
X002867Y024906D01*
X002867Y025065D02*
X029459Y025065D01*
X029324Y025223D02*
X002867Y025223D01*
X002867Y025382D02*
X029183Y025382D01*
X029172Y025540D02*
X002867Y025540D01*
X002867Y025699D02*
X003052Y025699D01*
X003020Y025731D02*
X003137Y025613D01*
X003291Y025550D01*
X003457Y025550D01*
X003611Y025613D01*
X003728Y025731D01*
X003792Y025884D01*
X003792Y026051D01*
X003728Y026204D01*
X003611Y026322D01*
X003457Y026385D01*
X003291Y026385D01*
X003137Y026322D01*
X003020Y026204D01*
X002956Y026051D01*
X002956Y025884D01*
X003020Y025731D01*
X002967Y025857D02*
X002867Y025857D01*
X002867Y026016D02*
X002956Y026016D01*
X003007Y026174D02*
X002867Y026174D01*
X002867Y026333D02*
X003164Y026333D01*
X002867Y026491D02*
X006641Y026491D01*
X006641Y026333D02*
X003584Y026333D01*
X003741Y026174D02*
X006792Y026174D01*
X006641Y026325D02*
X006971Y025995D01*
X007438Y025995D01*
X007768Y026325D01*
X007768Y026791D01*
X007438Y027121D01*
X006971Y027121D01*
X006641Y026791D01*
X006641Y026325D01*
X006641Y026650D02*
X002867Y026650D01*
X002867Y026808D02*
X003124Y026808D01*
X003137Y026794D02*
X003291Y026731D01*
X003457Y026731D01*
X003611Y026794D01*
X003728Y026912D01*
X003792Y027065D01*
X003792Y027232D01*
X003728Y027385D01*
X003611Y027503D01*
X003457Y027566D01*
X003291Y027566D01*
X003137Y027503D01*
X003020Y027385D01*
X002956Y027232D01*
X002956Y027065D01*
X003020Y026912D01*
X003137Y026794D01*
X002997Y026967D02*
X002867Y026967D01*
X002867Y027125D02*
X002956Y027125D01*
X002978Y027284D02*
X002867Y027284D01*
X002867Y027442D02*
X003077Y027442D01*
X002867Y027601D02*
X028688Y027601D01*
X028688Y027759D02*
X002867Y027759D01*
X002867Y027918D02*
X028688Y027918D01*
X028688Y028076D02*
X002867Y028076D01*
X002867Y028235D02*
X028688Y028235D01*
X028688Y028393D02*
X002867Y028393D01*
X002867Y028552D02*
X028688Y028552D01*
X028688Y028710D02*
X002867Y028710D01*
X002867Y028869D02*
X028688Y028869D01*
X028688Y029027D02*
X002867Y029027D01*
X002867Y029186D02*
X028688Y029186D01*
X028688Y029344D02*
X007577Y029344D01*
X007519Y029287D02*
X007676Y029443D01*
X007760Y029647D01*
X007760Y029868D01*
X007676Y030073D01*
X007519Y030229D01*
X007315Y030314D01*
X007094Y030314D01*
X006890Y030229D01*
X006734Y030073D01*
X006649Y029868D01*
X006649Y029647D01*
X006734Y029443D01*
X006890Y029287D01*
X007094Y029202D01*
X007315Y029202D01*
X007519Y029287D01*
X007700Y029503D02*
X031148Y029503D01*
X031307Y029661D02*
X007760Y029661D01*
X007760Y029820D02*
X039514Y029820D01*
X039472Y029920D02*
X039610Y029586D01*
X039866Y029330D01*
X040201Y029191D01*
X040563Y029191D01*
X040897Y029330D01*
X041153Y029586D01*
X041292Y029920D01*
X041292Y030282D01*
X041153Y030617D01*
X040897Y030873D01*
X040563Y031011D01*
X040201Y031011D01*
X039866Y030873D01*
X039610Y030617D01*
X039472Y030282D01*
X039472Y029920D01*
X039472Y029978D02*
X007715Y029978D01*
X007612Y030137D02*
X039472Y030137D01*
X039477Y030295D02*
X007360Y030295D01*
X007050Y030295D02*
X005066Y030295D01*
X005071Y030282D02*
X004933Y030617D01*
X004677Y030873D01*
X004342Y031011D01*
X003980Y031011D01*
X003646Y030873D01*
X003390Y030617D01*
X003251Y030282D01*
X003251Y029920D01*
X003390Y029586D01*
X003646Y029330D01*
X003980Y029191D01*
X004342Y029191D01*
X004677Y029330D01*
X004933Y029586D01*
X005071Y029920D01*
X005071Y030282D01*
X005071Y030137D02*
X006798Y030137D01*
X006694Y029978D02*
X005071Y029978D01*
X005030Y029820D02*
X006649Y029820D01*
X006649Y029661D02*
X004964Y029661D01*
X004849Y029503D02*
X006709Y029503D01*
X006833Y029344D02*
X004691Y029344D01*
X003632Y029344D02*
X002867Y029344D01*
X002867Y029503D02*
X003473Y029503D01*
X003359Y029661D02*
X002867Y029661D01*
X002867Y029820D02*
X003293Y029820D01*
X003251Y029978D02*
X002867Y029978D01*
X002867Y030101D02*
X002878Y030270D01*
X002965Y030597D01*
X003134Y030889D01*
X003373Y031128D01*
X003666Y031298D01*
X003992Y031385D01*
X004161Y031396D01*
X040382Y031396D01*
X040551Y031385D01*
X040877Y031298D01*
X041170Y031128D01*
X041409Y030889D01*
X041578Y030597D01*
X041666Y030270D01*
X041677Y030101D01*
X041677Y001755D01*
X041666Y001586D01*
X041578Y001259D01*
X041409Y000967D01*
X041170Y000728D01*
X040877Y000559D01*
X040551Y000471D01*
X040382Y000460D01*
X004161Y000460D01*
X003992Y000471D01*
X003666Y000559D01*
X003373Y000728D01*
X003134Y000967D01*
X002965Y001259D01*
X002878Y001586D01*
X002867Y001755D01*
X002867Y030101D01*
X002869Y030137D02*
X003251Y030137D01*
X003257Y030295D02*
X002884Y030295D01*
X002927Y030454D02*
X003322Y030454D01*
X003388Y030612D02*
X002974Y030612D01*
X003065Y030771D02*
X003544Y030771D01*
X003782Y030929D02*
X003174Y030929D01*
X003332Y031088D02*
X041211Y031088D01*
X041370Y030929D02*
X040761Y030929D01*
X040999Y030771D02*
X041478Y030771D01*
X041569Y030612D02*
X041155Y030612D01*
X041221Y030454D02*
X041616Y030454D01*
X041659Y030295D02*
X041286Y030295D01*
X041292Y030137D02*
X041674Y030137D01*
X041677Y029978D02*
X041292Y029978D01*
X041250Y029820D02*
X041677Y029820D01*
X041677Y029661D02*
X041184Y029661D01*
X041070Y029503D02*
X041677Y029503D01*
X041677Y029344D02*
X040911Y029344D01*
X041677Y029186D02*
X038810Y029186D01*
X038652Y029344D02*
X039852Y029344D01*
X039694Y029503D02*
X038493Y029503D01*
X038335Y029661D02*
X039579Y029661D01*
X039543Y030454D02*
X005000Y030454D01*
X004935Y030612D02*
X039609Y030612D01*
X039764Y030771D02*
X004779Y030771D01*
X004541Y030929D02*
X040003Y030929D01*
X040966Y031246D02*
X003577Y031246D01*
X003671Y027442D02*
X028688Y027442D01*
X028688Y027284D02*
X003770Y027284D01*
X003792Y027125D02*
X021893Y027125D01*
X021920Y027151D02*
X021572Y026804D01*
X021572Y026616D01*
X022108Y026616D01*
X022108Y027151D01*
X021920Y027151D01*
X022108Y027125D02*
X022223Y027125D01*
X022223Y027151D02*
X022411Y027151D01*
X022759Y026804D01*
X022759Y026616D01*
X022223Y026616D01*
X022108Y026616D01*
X022108Y026500D01*
X022223Y026500D01*
X022223Y025965D01*
X022411Y025965D01*
X022759Y026312D01*
X022759Y026500D01*
X022223Y026500D01*
X022223Y026616D01*
X022223Y027151D01*
X022223Y026967D02*
X022108Y026967D01*
X022108Y026808D02*
X022223Y026808D01*
X022223Y026650D02*
X022108Y026650D01*
X022108Y026500D02*
X021572Y026500D01*
X021572Y026312D01*
X021920Y025965D01*
X022108Y025965D01*
X022108Y026500D01*
X022108Y026491D02*
X022223Y026491D01*
X022223Y026333D02*
X022108Y026333D01*
X022108Y026174D02*
X022223Y026174D01*
X022223Y026016D02*
X022108Y026016D01*
X021869Y026016D02*
X007459Y026016D01*
X007618Y026174D02*
X021710Y026174D01*
X021572Y026333D02*
X007768Y026333D01*
X007768Y026491D02*
X021572Y026491D01*
X021572Y026650D02*
X007768Y026650D01*
X007751Y026808D02*
X021576Y026808D01*
X021735Y026967D02*
X007593Y026967D01*
X006817Y026967D02*
X003751Y026967D01*
X003624Y026808D02*
X006658Y026808D01*
X006950Y026016D02*
X003792Y026016D01*
X003780Y025857D02*
X029172Y025857D01*
X029172Y025699D02*
X003696Y025699D01*
X015178Y021419D02*
X015782Y021419D01*
X015782Y021261D02*
X015178Y021261D01*
X015178Y021102D02*
X015782Y021102D01*
X015782Y020944D02*
X015178Y020944D01*
X015178Y020785D02*
X015782Y020785D01*
X015782Y020627D02*
X015199Y020627D01*
X015258Y020468D02*
X015782Y020468D01*
X015740Y020310D02*
X015224Y020310D01*
X015339Y021578D02*
X015621Y021578D01*
X015570Y021736D02*
X015390Y021736D01*
X015378Y021895D02*
X015583Y021895D01*
X015671Y022053D02*
X015289Y022053D01*
X018194Y022212D02*
X018936Y022212D01*
X018671Y022053D02*
X018289Y022053D01*
X018378Y021895D02*
X018583Y021895D01*
X018570Y021736D02*
X018390Y021736D01*
X018339Y021578D02*
X018621Y021578D01*
X018786Y021419D02*
X018175Y021419D01*
X020139Y021261D02*
X020310Y021261D01*
X020310Y021419D02*
X020175Y021419D01*
X020690Y021419D02*
X020786Y021419D01*
X020690Y021261D02*
X021294Y021261D01*
X021294Y021419D02*
X021175Y021419D01*
X021294Y021102D02*
X020690Y021102D01*
X020690Y020944D02*
X021294Y020944D01*
X021294Y020785D02*
X020690Y020785D01*
X020690Y020627D02*
X021294Y020627D01*
X021294Y020468D02*
X020690Y020468D01*
X020690Y020310D02*
X021294Y020310D01*
X021294Y020151D02*
X020690Y020151D01*
X020690Y019993D02*
X021294Y019993D01*
X021294Y019834D02*
X020690Y019834D01*
X020690Y019676D02*
X021294Y019676D01*
X021247Y019517D02*
X020738Y019517D01*
X020770Y019359D02*
X021214Y019359D01*
X021275Y019200D02*
X020709Y019200D01*
X021693Y019200D02*
X021767Y019200D01*
X021207Y016981D02*
X022844Y016981D01*
X023077Y016981D02*
X041677Y016981D01*
X041677Y016823D02*
X023231Y016823D01*
X022789Y016506D02*
X021262Y016506D01*
X021312Y016030D02*
X021648Y016030D01*
X021573Y015872D02*
X021387Y015872D01*
X021390Y015713D02*
X021570Y015713D01*
X021631Y015555D02*
X021330Y015555D01*
X020631Y015555D02*
X020330Y015555D01*
X020390Y015713D02*
X020570Y015713D01*
X020573Y015872D02*
X020387Y015872D01*
X020312Y016030D02*
X020648Y016030D01*
X019648Y016030D02*
X019312Y016030D01*
X019387Y015872D02*
X019573Y015872D01*
X019570Y015713D02*
X019390Y015713D01*
X019330Y015555D02*
X019631Y015555D01*
X018631Y015555D02*
X018330Y015555D01*
X018390Y015713D02*
X018570Y015713D01*
X018573Y015872D02*
X018387Y015872D01*
X018312Y016030D02*
X018648Y016030D01*
X017648Y016030D02*
X017312Y016030D01*
X017387Y015872D02*
X017573Y015872D01*
X017570Y015713D02*
X017390Y015713D01*
X017330Y015555D02*
X017631Y015555D01*
X016631Y015555D02*
X016330Y015555D01*
X016390Y015713D02*
X016570Y015713D01*
X016573Y015872D02*
X016387Y015872D01*
X016312Y016030D02*
X016648Y016030D01*
X008277Y010106D02*
X007975Y010106D01*
X007929Y010093D01*
X007888Y010070D01*
X007854Y010036D01*
X007831Y009995D01*
X007818Y009949D01*
X007818Y009647D01*
X008277Y009647D01*
X008277Y010106D01*
X008277Y010007D02*
X008314Y010007D01*
X008314Y009849D02*
X008277Y009849D01*
X008277Y009690D02*
X008314Y009690D01*
X008277Y009610D02*
X007818Y009610D01*
X007818Y009308D01*
X007831Y009262D01*
X007854Y009221D01*
X007888Y009188D01*
X007929Y009164D01*
X007975Y009152D01*
X008277Y009152D01*
X008277Y009610D01*
X008277Y009532D02*
X008314Y009532D01*
X008314Y009373D02*
X008277Y009373D01*
X008277Y009215D02*
X008314Y009215D01*
X007861Y009215D02*
X002867Y009215D01*
X002867Y009373D02*
X007818Y009373D01*
X007818Y009532D02*
X002867Y009532D01*
X002867Y009690D02*
X007818Y009690D01*
X007818Y009849D02*
X002867Y009849D01*
X002867Y010007D02*
X007838Y010007D01*
X006242Y007788D02*
X002867Y007788D01*
X002867Y007630D02*
X006177Y007630D01*
X006177Y007471D02*
X002867Y007471D01*
X002867Y007313D02*
X006177Y007313D01*
X006177Y007154D02*
X002867Y007154D01*
X002867Y006996D02*
X006177Y006996D01*
X006177Y006837D02*
X002867Y006837D01*
X002867Y006679D02*
X006177Y006679D01*
X007461Y006203D02*
X011098Y006203D01*
X011098Y006045D02*
X007461Y006045D01*
X008720Y004301D02*
X008823Y004301D01*
X008815Y004286D02*
X008803Y004241D01*
X008803Y003939D01*
X009261Y003939D01*
X009261Y004397D01*
X008959Y004397D01*
X008913Y004385D01*
X008872Y004361D01*
X008839Y004328D01*
X008815Y004286D01*
X008803Y004143D02*
X008742Y004143D01*
X008742Y003984D02*
X008803Y003984D01*
X008803Y003902D02*
X008803Y003600D01*
X008815Y003554D01*
X008839Y003513D01*
X008872Y003479D01*
X008913Y003456D01*
X008959Y003443D01*
X009261Y003443D01*
X009261Y003902D01*
X008803Y003902D01*
X008803Y003826D02*
X008742Y003826D01*
X008742Y003667D02*
X008803Y003667D01*
X008843Y003509D02*
X008689Y003509D01*
X007901Y003509D02*
X002867Y003509D01*
X002867Y003667D02*
X007848Y003667D01*
X007848Y003826D02*
X002867Y003826D01*
X002867Y003984D02*
X007848Y003984D01*
X009261Y003984D02*
X009298Y003984D01*
X009298Y003939D02*
X009261Y003939D01*
X009261Y003902D01*
X009298Y003902D01*
X009298Y003939D01*
X009298Y004397D01*
X009600Y004397D01*
X009646Y004385D01*
X009687Y004361D01*
X009720Y004328D01*
X009744Y004286D01*
X009756Y004241D01*
X009756Y003939D01*
X009298Y003939D01*
X009298Y003902D02*
X009756Y003902D01*
X009756Y003600D01*
X009744Y003554D01*
X009720Y003513D01*
X009687Y003479D01*
X009646Y003456D01*
X009600Y003443D01*
X009298Y003443D01*
X009298Y003902D01*
X009298Y003826D02*
X009261Y003826D01*
X009261Y003667D02*
X009298Y003667D01*
X009298Y003509D02*
X009261Y003509D01*
X009716Y003509D02*
X009870Y003509D01*
X009905Y003473D02*
X009817Y003561D01*
X009817Y004279D01*
X009905Y004367D01*
X010623Y004367D01*
X010711Y004279D01*
X010711Y003561D01*
X010623Y003473D01*
X009905Y003473D01*
X009817Y003667D02*
X009756Y003667D01*
X009756Y003826D02*
X009817Y003826D01*
X009817Y003984D02*
X009756Y003984D01*
X009756Y004143D02*
X009817Y004143D01*
X009839Y004301D02*
X009736Y004301D01*
X009298Y004301D02*
X009261Y004301D01*
X009261Y004143D02*
X009298Y004143D01*
X010689Y004301D02*
X012428Y004301D01*
X012356Y004229D02*
X012356Y004005D01*
X012441Y003920D01*
X012356Y003835D01*
X012356Y003611D01*
X012441Y003526D01*
X012356Y003441D01*
X012356Y003218D01*
X012441Y003133D01*
X012356Y003048D01*
X012356Y002824D01*
X012441Y002739D01*
X012356Y002654D01*
X012356Y002430D01*
X012514Y002272D01*
X012738Y002272D01*
X012818Y002352D01*
X014107Y002352D01*
X014187Y002272D01*
X014411Y002272D01*
X014569Y002430D01*
X014569Y002654D01*
X014484Y002739D01*
X014569Y002824D01*
X014569Y003048D01*
X014484Y003133D01*
X014569Y003218D01*
X014569Y003441D01*
X014484Y003526D01*
X014569Y003611D01*
X014569Y003835D01*
X014484Y003920D01*
X014569Y004005D01*
X014569Y004229D01*
X014411Y004387D01*
X014187Y004387D01*
X014107Y004307D01*
X012818Y004307D01*
X012738Y004387D01*
X012514Y004387D01*
X012356Y004229D01*
X012356Y004143D02*
X010711Y004143D01*
X010711Y003984D02*
X012377Y003984D01*
X012356Y003826D02*
X010711Y003826D01*
X010711Y003667D02*
X012356Y003667D01*
X012423Y003509D02*
X010658Y003509D01*
X012356Y003350D02*
X002867Y003350D01*
X002867Y003192D02*
X012382Y003192D01*
X012356Y003033D02*
X002867Y003033D01*
X002867Y002875D02*
X012356Y002875D01*
X012418Y002716D02*
X002867Y002716D01*
X002867Y002558D02*
X003722Y002558D01*
X003646Y002526D02*
X003980Y002665D01*
X004342Y002665D01*
X004677Y002526D01*
X004933Y002270D01*
X005071Y001936D01*
X005071Y001574D01*
X004933Y001239D01*
X004677Y000983D01*
X004342Y000845D01*
X003980Y000845D01*
X003646Y000983D01*
X003390Y001239D01*
X003251Y001574D01*
X003251Y001936D01*
X003390Y002270D01*
X003646Y002526D01*
X003519Y002399D02*
X002867Y002399D01*
X002867Y002241D02*
X003378Y002241D01*
X003312Y002082D02*
X002867Y002082D01*
X002867Y001924D02*
X003251Y001924D01*
X003251Y001765D02*
X002867Y001765D01*
X002876Y001607D02*
X003251Y001607D01*
X003304Y001448D02*
X002915Y001448D01*
X002957Y001290D02*
X003369Y001290D01*
X003498Y001131D02*
X003039Y001131D01*
X003131Y000973D02*
X003672Y000973D01*
X003498Y000656D02*
X041045Y000656D01*
X041257Y000814D02*
X003287Y000814D01*
X003666Y000559D02*
X003666Y000559D01*
X003896Y000497D02*
X040648Y000497D01*
X040563Y000845D02*
X040897Y000983D01*
X041153Y001239D01*
X041292Y001574D01*
X041292Y001936D01*
X041153Y002270D01*
X040897Y002526D01*
X040563Y002665D01*
X040201Y002665D01*
X039866Y002526D01*
X039610Y002270D01*
X039472Y001936D01*
X039472Y001574D01*
X039610Y001239D01*
X039866Y000983D01*
X040201Y000845D01*
X040563Y000845D01*
X040871Y000973D02*
X041413Y000973D01*
X041504Y001131D02*
X041045Y001131D01*
X041174Y001290D02*
X041586Y001290D01*
X041629Y001448D02*
X041240Y001448D01*
X041292Y001607D02*
X041667Y001607D01*
X041677Y001765D02*
X041292Y001765D01*
X041292Y001924D02*
X041677Y001924D01*
X041677Y002082D02*
X041231Y002082D01*
X041166Y002241D02*
X041677Y002241D01*
X041677Y002399D02*
X041024Y002399D01*
X040822Y002558D02*
X041677Y002558D01*
X041677Y002716D02*
X036002Y002716D01*
X036046Y002671D02*
X035885Y002833D01*
X035673Y002920D01*
X035445Y002920D01*
X035233Y002833D01*
X035072Y002671D01*
X034984Y002460D01*
X034984Y002231D01*
X035072Y002020D01*
X035233Y001858D01*
X035445Y001770D01*
X035673Y001770D01*
X035885Y001858D01*
X036046Y002020D01*
X036134Y002231D01*
X036134Y002460D01*
X036046Y002671D01*
X036094Y002558D02*
X039942Y002558D01*
X039739Y002399D02*
X036134Y002399D01*
X036134Y002241D02*
X039598Y002241D01*
X039532Y002082D02*
X036072Y002082D01*
X035950Y001924D02*
X039472Y001924D01*
X039472Y001765D02*
X020119Y001765D01*
X020119Y001739D02*
X020046Y001563D01*
X019912Y001429D01*
X019737Y001357D01*
X019547Y001357D01*
X019372Y001429D01*
X019237Y001563D01*
X019165Y001739D01*
X019165Y001928D01*
X019237Y002104D01*
X019372Y002238D01*
X019547Y002310D01*
X019737Y002310D01*
X019912Y002238D01*
X020046Y002104D01*
X020119Y001928D01*
X020119Y001739D01*
X020064Y001607D02*
X039472Y001607D01*
X039524Y001448D02*
X019931Y001448D01*
X020119Y001924D02*
X030246Y001924D01*
X030312Y001858D02*
X030150Y002020D01*
X030063Y002231D01*
X030063Y002460D01*
X030150Y002671D01*
X030312Y002833D01*
X030523Y002920D01*
X030752Y002920D01*
X030963Y002833D01*
X031125Y002671D01*
X031213Y002460D01*
X031213Y002231D01*
X031125Y002020D01*
X030963Y001858D01*
X030752Y001770D01*
X030523Y001770D01*
X030312Y001858D01*
X030124Y002082D02*
X020055Y002082D01*
X019905Y002241D02*
X030063Y002241D01*
X030063Y002399D02*
X018703Y002399D01*
X018703Y002241D02*
X019378Y002241D01*
X019228Y002082D02*
X018552Y002082D01*
X018315Y002082D02*
X017666Y002082D01*
X017659Y002075D02*
X017817Y002234D01*
X017817Y002457D01*
X017737Y002537D01*
X017737Y003827D01*
X017817Y003907D01*
X017817Y004130D01*
X017659Y004289D01*
X017435Y004289D01*
X017277Y004130D01*
X017277Y003907D01*
X017357Y003827D01*
X017357Y002537D01*
X017277Y002457D01*
X017277Y002234D01*
X017435Y002075D01*
X017659Y002075D01*
X017817Y002241D02*
X018163Y002241D01*
X018163Y002399D02*
X017817Y002399D01*
X017737Y002558D02*
X018243Y002558D01*
X018243Y002716D02*
X017737Y002716D01*
X017737Y002875D02*
X018243Y002875D01*
X018243Y003033D02*
X017737Y003033D01*
X017737Y003192D02*
X018243Y003192D01*
X018243Y003350D02*
X017737Y003350D01*
X017737Y003509D02*
X018243Y003509D01*
X018243Y003667D02*
X017737Y003667D01*
X017737Y003826D02*
X018243Y003826D01*
X018243Y003984D02*
X017817Y003984D01*
X017805Y004143D02*
X018243Y004143D01*
X018243Y004301D02*
X014497Y004301D01*
X014569Y004143D02*
X017289Y004143D01*
X017277Y003984D02*
X014548Y003984D01*
X014569Y003826D02*
X017357Y003826D01*
X017357Y003667D02*
X014569Y003667D01*
X014502Y003509D02*
X017357Y003509D01*
X017357Y003350D02*
X014569Y003350D01*
X014543Y003192D02*
X017357Y003192D01*
X017357Y003033D02*
X014569Y003033D01*
X014569Y002875D02*
X017357Y002875D01*
X017357Y002716D02*
X014507Y002716D01*
X014569Y002558D02*
X017357Y002558D01*
X017277Y002399D02*
X014538Y002399D01*
X016015Y001928D02*
X016015Y001739D01*
X016088Y001563D01*
X016222Y001429D01*
X016397Y001357D01*
X016587Y001357D01*
X016762Y001429D01*
X016896Y001563D01*
X016969Y001739D01*
X016969Y001928D01*
X016896Y002104D01*
X016762Y002238D01*
X016587Y002310D01*
X016397Y002310D01*
X016222Y002238D01*
X016088Y002104D01*
X016015Y001928D01*
X016015Y001924D02*
X005071Y001924D01*
X005071Y001765D02*
X016015Y001765D01*
X016070Y001607D02*
X005071Y001607D01*
X005019Y001448D02*
X016203Y001448D01*
X016781Y001448D02*
X019353Y001448D01*
X019220Y001607D02*
X016914Y001607D01*
X016969Y001765D02*
X019165Y001765D01*
X019165Y001924D02*
X016969Y001924D01*
X016905Y002082D02*
X017429Y002082D01*
X017277Y002241D02*
X016756Y002241D01*
X016229Y002241D02*
X004945Y002241D01*
X005011Y002082D02*
X016079Y002082D01*
X018623Y002558D02*
X030103Y002558D01*
X030195Y002716D02*
X018623Y002716D01*
X018623Y002875D02*
X030413Y002875D01*
X030863Y002875D02*
X035334Y002875D01*
X035117Y002716D02*
X031080Y002716D01*
X031172Y002558D02*
X035025Y002558D01*
X034984Y002399D02*
X031213Y002399D01*
X031213Y002241D02*
X034984Y002241D01*
X035046Y002082D02*
X031151Y002082D01*
X031029Y001924D02*
X035168Y001924D01*
X035784Y002875D02*
X041677Y002875D01*
X041677Y003033D02*
X018623Y003033D01*
X018623Y003192D02*
X041677Y003192D01*
X041677Y003350D02*
X018623Y003350D01*
X018623Y003509D02*
X041677Y003509D01*
X041677Y003667D02*
X018623Y003667D01*
X018623Y003826D02*
X030281Y003826D01*
X030130Y003984D02*
X018623Y003984D01*
X012356Y002558D02*
X004601Y002558D01*
X004804Y002399D02*
X012387Y002399D01*
X004954Y001290D02*
X039590Y001290D01*
X039719Y001131D02*
X004824Y001131D01*
X004650Y000973D02*
X039893Y000973D01*
X041677Y004460D02*
X036148Y004460D01*
X036083Y004618D02*
X041677Y004618D01*
X037318Y005886D02*
X034431Y005886D01*
X034586Y006045D02*
X037149Y006045D01*
X035167Y004777D02*
X031030Y004777D01*
X031162Y004618D02*
X035035Y004618D01*
X034970Y004460D02*
X031227Y004460D01*
X031243Y004276D02*
X030676Y004276D01*
X030676Y003709D01*
X030685Y003709D01*
X030779Y003724D01*
X030870Y003753D01*
X030955Y003796D01*
X031032Y003852D01*
X031099Y003920D01*
X031155Y003997D01*
X031198Y004082D01*
X031228Y004172D01*
X031243Y004266D01*
X031243Y004276D01*
X031218Y004143D02*
X034979Y004143D01*
X035051Y003984D02*
X031146Y003984D01*
X030995Y003826D02*
X035202Y003826D01*
X030676Y003826D02*
X030600Y003826D01*
X030600Y003984D02*
X030676Y003984D01*
X030676Y004143D02*
X030600Y004143D01*
X030600Y004460D02*
X030676Y004460D01*
X030676Y004618D02*
X030600Y004618D01*
X030600Y004777D02*
X030676Y004777D01*
X028072Y006679D02*
X027130Y006679D01*
X027002Y006837D02*
X028214Y006837D01*
X026640Y006837D02*
X026564Y006837D01*
X026564Y006679D02*
X026640Y006679D01*
X026640Y006520D02*
X026564Y006520D01*
X026564Y006203D02*
X026640Y006203D01*
X026640Y006045D02*
X026564Y006045D01*
X026564Y005886D02*
X026640Y005886D01*
X034420Y010800D02*
X037337Y010800D01*
X037157Y010958D02*
X034581Y010958D01*
X036535Y014128D02*
X036591Y014128D01*
X036591Y014287D02*
X036535Y014287D01*
X036535Y014445D02*
X036591Y014445D01*
X037068Y014445D02*
X039435Y014445D01*
X039435Y014287D02*
X037068Y014287D01*
X037039Y014128D02*
X039435Y014128D01*
X039495Y014604D02*
X037068Y014604D01*
X039140Y015872D02*
X039199Y015872D01*
X039203Y016030D02*
X039435Y016030D01*
X039435Y016189D02*
X039203Y016189D01*
X039203Y016347D02*
X039435Y016347D01*
X039435Y016506D02*
X039203Y016506D01*
X039203Y016664D02*
X039435Y016664D01*
X040384Y016664D02*
X041677Y016664D01*
X041677Y016506D02*
X040384Y016506D01*
X040384Y016347D02*
X041677Y016347D01*
X041677Y016189D02*
X040384Y016189D01*
X040384Y016030D02*
X041677Y016030D01*
X041677Y015872D02*
X040321Y015872D01*
X039803Y015713D02*
X041677Y015713D01*
X041677Y015555D02*
X039878Y015555D01*
X039894Y015396D02*
X041677Y015396D01*
X041677Y015238D02*
X039861Y015238D01*
X039763Y015079D02*
X041677Y015079D01*
X041677Y014921D02*
X039498Y014921D01*
X040092Y010958D02*
X041677Y010958D01*
X041677Y010800D02*
X039932Y010800D01*
X041677Y010641D02*
X002867Y010641D01*
X002867Y010483D02*
X041677Y010483D01*
X041677Y018725D02*
X033422Y018725D01*
X033565Y018883D02*
X041677Y018883D01*
X041677Y019042D02*
X033565Y019042D01*
X033485Y019200D02*
X041677Y019200D01*
X041677Y019359D02*
X033485Y019359D01*
X033485Y019517D02*
X041677Y019517D01*
X041677Y019676D02*
X033485Y019676D01*
X033485Y019834D02*
X041677Y019834D01*
X041677Y019993D02*
X033485Y019993D01*
X033485Y020151D02*
X041677Y020151D01*
X041677Y020310D02*
X033485Y020310D01*
X033485Y020468D02*
X041677Y020468D01*
X041677Y020627D02*
X033485Y020627D01*
X033485Y020785D02*
X041677Y020785D01*
X041677Y020944D02*
X033485Y020944D01*
X033485Y021102D02*
X041677Y021102D01*
X041677Y021261D02*
X033485Y021261D01*
X033485Y021419D02*
X041677Y021419D01*
X041677Y021578D02*
X033485Y021578D01*
X033485Y021736D02*
X041677Y021736D01*
X041677Y021895D02*
X033491Y021895D01*
X033359Y022053D02*
X041677Y022053D01*
X041677Y022212D02*
X033225Y022212D01*
X033091Y022370D02*
X041677Y022370D01*
X041677Y022529D02*
X032957Y022529D01*
X032823Y022687D02*
X041677Y022687D01*
X041677Y022846D02*
X032689Y022846D01*
X032555Y023004D02*
X041677Y023004D01*
X041677Y023163D02*
X032421Y023163D01*
X032287Y023321D02*
X041677Y023321D01*
X041677Y023480D02*
X032153Y023480D01*
X032019Y023638D02*
X041677Y023638D01*
X041677Y023797D02*
X031885Y023797D01*
X031751Y023955D02*
X041677Y023955D01*
X041677Y024114D02*
X031617Y024114D01*
X031483Y024272D02*
X041677Y024272D01*
X041677Y024431D02*
X031349Y024431D01*
X031215Y024589D02*
X041677Y024589D01*
X041677Y024748D02*
X031081Y024748D01*
X030947Y024906D02*
X041677Y024906D01*
X041677Y025065D02*
X030813Y025065D01*
X030679Y025223D02*
X041677Y025223D01*
X041677Y025382D02*
X030545Y025382D01*
X030411Y025540D02*
X041677Y025540D01*
X041677Y025699D02*
X030277Y025699D01*
X030261Y025857D02*
X041677Y025857D01*
X041677Y026016D02*
X040024Y026016D01*
X040061Y026174D02*
X041677Y026174D01*
X041677Y026333D02*
X040005Y026333D01*
X039791Y026164D02*
X030736Y026164D01*
X030441Y026460D01*
X030441Y026853D01*
X030671Y026808D02*
X041677Y026808D01*
X041677Y026650D02*
X030671Y026650D01*
X030735Y026491D02*
X041677Y026491D01*
X041677Y026967D02*
X030733Y026967D01*
X030346Y026230D02*
X030346Y026230D01*
X030401Y026174D02*
X030261Y026174D01*
X030261Y026016D02*
X030560Y026016D01*
X029172Y026016D02*
X022462Y026016D01*
X022621Y026174D02*
X029172Y026174D01*
X029172Y026333D02*
X022759Y026333D01*
X022759Y026491D02*
X029172Y026491D01*
X029172Y026650D02*
X022759Y026650D01*
X022754Y026808D02*
X029172Y026808D01*
X029172Y026967D02*
X022596Y026967D01*
X022437Y027125D02*
X028688Y027125D01*
X031800Y027125D02*
X041677Y027125D01*
X041677Y027284D02*
X031800Y027284D01*
X031800Y027442D02*
X041677Y027442D01*
X041677Y027601D02*
X031800Y027601D01*
X031800Y027759D02*
X041677Y027759D01*
X041677Y027918D02*
X041336Y027918D01*
X041439Y028076D02*
X041677Y028076D01*
X041677Y028235D02*
X041439Y028235D01*
X041291Y028393D02*
X041677Y028393D01*
X041677Y028552D02*
X039444Y028552D01*
X039286Y028710D02*
X041677Y028710D01*
X041677Y028869D02*
X039127Y028869D01*
X038969Y029027D02*
X041677Y029027D01*
X041048Y028393D02*
X039603Y028393D01*
X039382Y028076D02*
X031800Y028076D01*
X031800Y027918D02*
X041003Y027918D01*
X039224Y028235D02*
X031800Y028235D01*
X031800Y028393D02*
X039065Y028393D01*
X038907Y028552D02*
X031800Y028552D01*
X031800Y028710D02*
X038748Y028710D01*
X038590Y028869D02*
X031800Y028869D01*
X031800Y029027D02*
X038431Y029027D01*
X038273Y029186D02*
X031800Y029186D01*
X013350Y009849D02*
X010711Y009849D01*
X010711Y009690D02*
X013340Y009690D01*
X013424Y009532D02*
X010711Y009532D01*
D22*
X012783Y010711D03*
X013709Y010711D03*
X013610Y009727D03*
X013118Y009334D03*
X015185Y009137D03*
X016071Y009137D03*
X017055Y008546D03*
X017350Y008940D03*
X018433Y008940D03*
X016760Y007660D03*
X016169Y007857D03*
X017154Y007267D03*
X017154Y005495D03*
X018433Y005495D03*
X017547Y004019D03*
X017547Y002345D03*
X018433Y002345D03*
X021287Y004904D03*
X021169Y006696D03*
X021169Y008704D03*
X022173Y008743D03*
X022272Y010908D03*
X018335Y011302D03*
X017154Y011400D03*
X015579Y012877D03*
X015579Y013763D03*
X015087Y013763D03*
X013709Y013271D03*
X012724Y013271D03*
X012035Y012975D03*
X011839Y012680D03*
X011445Y013074D03*
X010953Y013566D03*
X007902Y016223D03*
X008787Y016715D03*
X008787Y017109D03*
X009083Y017109D03*
X007311Y017109D03*
X007016Y017109D03*
X005146Y016814D03*
X004457Y016322D03*
X005146Y015830D03*
X004949Y018881D03*
X005342Y019274D03*
X007213Y019471D03*
X003571Y023015D03*
X004260Y023605D03*
X003571Y024196D03*
X013020Y017404D03*
X015972Y020160D03*
X014988Y020456D03*
X019909Y019865D03*
X019909Y019570D03*
X020500Y019373D03*
X021484Y019373D03*
X021976Y019373D03*
X024240Y018782D03*
X022961Y016715D03*
X024240Y016420D03*
X021091Y016715D03*
X017409Y014255D03*
X017055Y013861D03*
X018630Y013861D03*
X015185Y010318D03*
X014102Y007267D03*
X014299Y004117D03*
X014299Y003723D03*
X014299Y003330D03*
X014299Y002936D03*
X014299Y002542D03*
X012626Y002542D03*
X012626Y002936D03*
X012626Y003330D03*
X012626Y003723D03*
X012626Y004117D03*
X006524Y001853D03*
X004358Y004215D03*
X004358Y004511D03*
X005047Y004806D03*
X005342Y010908D03*
X005342Y012483D03*
X028669Y013566D03*
X029063Y016322D03*
X032705Y018979D03*
X033000Y018782D03*
X033295Y018979D03*
X039791Y026164D03*
X041169Y028133D03*
X030874Y026971D03*
X030894Y029570D03*
X029594Y029609D03*
D23*
X029594Y029282D01*
X029598Y028203D01*
X029362Y028203D02*
X029362Y025471D01*
X032705Y021538D01*
X032705Y018979D01*
X033000Y018782D02*
X033000Y021735D01*
X029835Y025491D01*
X029835Y028203D01*
X030071Y028203D02*
X030071Y025649D01*
X033295Y021834D01*
X033295Y018979D01*
X022961Y016715D02*
X021091Y016715D01*
X021484Y019373D02*
X021484Y022129D01*
X021189Y022424D01*
X018138Y022424D01*
X017980Y022267D01*
X017980Y021782D01*
X018980Y021782D02*
X018980Y021987D01*
X019220Y022227D01*
X020402Y022227D01*
X020500Y022129D01*
X020500Y019373D01*
X021976Y019373D02*
X021976Y021778D01*
X021980Y021782D01*
X015980Y021782D02*
X015972Y021676D01*
X015972Y020160D01*
X014988Y020456D02*
X014988Y021774D01*
X014980Y021782D01*
X013020Y017404D02*
X012980Y017365D01*
X012980Y015782D01*
X015087Y013763D02*
X014201Y012877D01*
X012134Y012877D01*
X012035Y012975D01*
X011839Y012680D02*
X014496Y012680D01*
X015579Y013763D01*
X013610Y009727D02*
X014102Y009235D01*
X014102Y007267D01*
X016760Y007660D02*
X017055Y007956D01*
X017055Y008546D01*
X017350Y008940D02*
X017154Y009137D01*
X016071Y009137D01*
X018433Y005495D02*
X018433Y002345D01*
X017547Y002345D02*
X017547Y004019D01*
X014299Y004117D02*
X012626Y004117D01*
X012626Y003723D02*
X014299Y003723D01*
X014299Y003330D02*
X012626Y003330D01*
X012626Y002936D02*
X014299Y002936D01*
X014299Y002542D02*
X012626Y002542D01*
X007902Y016223D02*
X008394Y016715D01*
X008787Y016715D01*
X030307Y026987D02*
X030441Y026853D01*
X030543Y026956D01*
X030543Y028203D01*
X030307Y028203D02*
X030307Y026987D01*
X030779Y026731D02*
X030779Y028203D01*
X030779Y029357D01*
X030894Y029570D01*
X031016Y029349D01*
X031016Y028203D01*
X031016Y026837D01*
X031252Y028203D02*
X031252Y029337D01*
X031425Y029511D01*
X038217Y029511D01*
X039594Y028133D01*
X041169Y028133D01*
M02*
