G75*
G70*
%OFA0B0*%
%FSLAX24Y24*%
%IPPOS*%
%LPD*%
%AMOC8*
5,1,8,0,0,1.08239X$1,22.5*
%
%ADD10C,0.0000*%
%ADD11R,0.0098X0.2165*%
%ADD12R,0.0098X0.1890*%
D10*
X002587Y001755D02*
X002587Y030101D01*
X003531Y030101D02*
X003533Y030151D01*
X003539Y030201D01*
X003549Y030250D01*
X003563Y030298D01*
X003580Y030345D01*
X003601Y030390D01*
X003626Y030434D01*
X003654Y030475D01*
X003686Y030514D01*
X003720Y030551D01*
X003757Y030585D01*
X003797Y030615D01*
X003839Y030642D01*
X003883Y030666D01*
X003929Y030687D01*
X003976Y030703D01*
X004024Y030716D01*
X004074Y030725D01*
X004123Y030730D01*
X004174Y030731D01*
X004224Y030728D01*
X004273Y030721D01*
X004322Y030710D01*
X004370Y030695D01*
X004416Y030677D01*
X004461Y030655D01*
X004504Y030629D01*
X004545Y030600D01*
X004584Y030568D01*
X004620Y030533D01*
X004652Y030495D01*
X004682Y030455D01*
X004709Y030412D01*
X004732Y030368D01*
X004751Y030322D01*
X004767Y030274D01*
X004779Y030225D01*
X004787Y030176D01*
X004791Y030126D01*
X004791Y030076D01*
X004787Y030026D01*
X004779Y029977D01*
X004767Y029928D01*
X004751Y029880D01*
X004732Y029834D01*
X004709Y029790D01*
X004682Y029747D01*
X004652Y029707D01*
X004620Y029669D01*
X004584Y029634D01*
X004545Y029602D01*
X004504Y029573D01*
X004461Y029547D01*
X004416Y029525D01*
X004370Y029507D01*
X004322Y029492D01*
X004273Y029481D01*
X004224Y029474D01*
X004174Y029471D01*
X004123Y029472D01*
X004074Y029477D01*
X004024Y029486D01*
X003976Y029499D01*
X003929Y029515D01*
X003883Y029536D01*
X003839Y029560D01*
X003797Y029587D01*
X003757Y029617D01*
X003720Y029651D01*
X003686Y029688D01*
X003654Y029727D01*
X003626Y029768D01*
X003601Y029812D01*
X003580Y029857D01*
X003563Y029904D01*
X003549Y029952D01*
X003539Y030001D01*
X003533Y030051D01*
X003531Y030101D01*
X002586Y030101D02*
X002588Y030178D01*
X002594Y030255D01*
X002603Y030332D01*
X002616Y030408D01*
X002633Y030484D01*
X002654Y030558D01*
X002678Y030632D01*
X002706Y030704D01*
X002737Y030774D01*
X002772Y030843D01*
X002810Y030911D01*
X002851Y030976D01*
X002896Y031039D01*
X002944Y031100D01*
X002994Y031159D01*
X003047Y031215D01*
X003103Y031268D01*
X003162Y031318D01*
X003223Y031366D01*
X003286Y031411D01*
X003351Y031452D01*
X003419Y031490D01*
X003488Y031525D01*
X003558Y031556D01*
X003630Y031584D01*
X003704Y031608D01*
X003778Y031629D01*
X003854Y031646D01*
X003930Y031659D01*
X004007Y031668D01*
X004084Y031674D01*
X004161Y031676D01*
X040382Y031676D01*
X039752Y030101D02*
X039754Y030151D01*
X039760Y030201D01*
X039770Y030250D01*
X039784Y030298D01*
X039801Y030345D01*
X039822Y030390D01*
X039847Y030434D01*
X039875Y030475D01*
X039907Y030514D01*
X039941Y030551D01*
X039978Y030585D01*
X040018Y030615D01*
X040060Y030642D01*
X040104Y030666D01*
X040150Y030687D01*
X040197Y030703D01*
X040245Y030716D01*
X040295Y030725D01*
X040344Y030730D01*
X040395Y030731D01*
X040445Y030728D01*
X040494Y030721D01*
X040543Y030710D01*
X040591Y030695D01*
X040637Y030677D01*
X040682Y030655D01*
X040725Y030629D01*
X040766Y030600D01*
X040805Y030568D01*
X040841Y030533D01*
X040873Y030495D01*
X040903Y030455D01*
X040930Y030412D01*
X040953Y030368D01*
X040972Y030322D01*
X040988Y030274D01*
X041000Y030225D01*
X041008Y030176D01*
X041012Y030126D01*
X041012Y030076D01*
X041008Y030026D01*
X041000Y029977D01*
X040988Y029928D01*
X040972Y029880D01*
X040953Y029834D01*
X040930Y029790D01*
X040903Y029747D01*
X040873Y029707D01*
X040841Y029669D01*
X040805Y029634D01*
X040766Y029602D01*
X040725Y029573D01*
X040682Y029547D01*
X040637Y029525D01*
X040591Y029507D01*
X040543Y029492D01*
X040494Y029481D01*
X040445Y029474D01*
X040395Y029471D01*
X040344Y029472D01*
X040295Y029477D01*
X040245Y029486D01*
X040197Y029499D01*
X040150Y029515D01*
X040104Y029536D01*
X040060Y029560D01*
X040018Y029587D01*
X039978Y029617D01*
X039941Y029651D01*
X039907Y029688D01*
X039875Y029727D01*
X039847Y029768D01*
X039822Y029812D01*
X039801Y029857D01*
X039784Y029904D01*
X039770Y029952D01*
X039760Y030001D01*
X039754Y030051D01*
X039752Y030101D01*
X040382Y031676D02*
X040459Y031674D01*
X040536Y031668D01*
X040613Y031659D01*
X040689Y031646D01*
X040765Y031629D01*
X040839Y031608D01*
X040913Y031584D01*
X040985Y031556D01*
X041055Y031525D01*
X041124Y031490D01*
X041192Y031452D01*
X041257Y031411D01*
X041320Y031366D01*
X041381Y031318D01*
X041440Y031268D01*
X041496Y031215D01*
X041549Y031159D01*
X041599Y031100D01*
X041647Y031039D01*
X041692Y030976D01*
X041733Y030911D01*
X041771Y030843D01*
X041806Y030774D01*
X041837Y030704D01*
X041865Y030632D01*
X041889Y030558D01*
X041910Y030484D01*
X041927Y030408D01*
X041940Y030332D01*
X041949Y030255D01*
X041955Y030178D01*
X041957Y030101D01*
X041957Y001755D01*
X039752Y001755D02*
X039754Y001805D01*
X039760Y001855D01*
X039770Y001904D01*
X039784Y001952D01*
X039801Y001999D01*
X039822Y002044D01*
X039847Y002088D01*
X039875Y002129D01*
X039907Y002168D01*
X039941Y002205D01*
X039978Y002239D01*
X040018Y002269D01*
X040060Y002296D01*
X040104Y002320D01*
X040150Y002341D01*
X040197Y002357D01*
X040245Y002370D01*
X040295Y002379D01*
X040344Y002384D01*
X040395Y002385D01*
X040445Y002382D01*
X040494Y002375D01*
X040543Y002364D01*
X040591Y002349D01*
X040637Y002331D01*
X040682Y002309D01*
X040725Y002283D01*
X040766Y002254D01*
X040805Y002222D01*
X040841Y002187D01*
X040873Y002149D01*
X040903Y002109D01*
X040930Y002066D01*
X040953Y002022D01*
X040972Y001976D01*
X040988Y001928D01*
X041000Y001879D01*
X041008Y001830D01*
X041012Y001780D01*
X041012Y001730D01*
X041008Y001680D01*
X041000Y001631D01*
X040988Y001582D01*
X040972Y001534D01*
X040953Y001488D01*
X040930Y001444D01*
X040903Y001401D01*
X040873Y001361D01*
X040841Y001323D01*
X040805Y001288D01*
X040766Y001256D01*
X040725Y001227D01*
X040682Y001201D01*
X040637Y001179D01*
X040591Y001161D01*
X040543Y001146D01*
X040494Y001135D01*
X040445Y001128D01*
X040395Y001125D01*
X040344Y001126D01*
X040295Y001131D01*
X040245Y001140D01*
X040197Y001153D01*
X040150Y001169D01*
X040104Y001190D01*
X040060Y001214D01*
X040018Y001241D01*
X039978Y001271D01*
X039941Y001305D01*
X039907Y001342D01*
X039875Y001381D01*
X039847Y001422D01*
X039822Y001466D01*
X039801Y001511D01*
X039784Y001558D01*
X039770Y001606D01*
X039760Y001655D01*
X039754Y001705D01*
X039752Y001755D01*
X040382Y000180D02*
X040459Y000182D01*
X040536Y000188D01*
X040613Y000197D01*
X040689Y000210D01*
X040765Y000227D01*
X040839Y000248D01*
X040913Y000272D01*
X040985Y000300D01*
X041055Y000331D01*
X041124Y000366D01*
X041192Y000404D01*
X041257Y000445D01*
X041320Y000490D01*
X041381Y000538D01*
X041440Y000588D01*
X041496Y000641D01*
X041549Y000697D01*
X041599Y000756D01*
X041647Y000817D01*
X041692Y000880D01*
X041733Y000945D01*
X041771Y001013D01*
X041806Y001082D01*
X041837Y001152D01*
X041865Y001224D01*
X041889Y001298D01*
X041910Y001372D01*
X041927Y001448D01*
X041940Y001524D01*
X041949Y001601D01*
X041955Y001678D01*
X041957Y001755D01*
X040382Y000180D02*
X004161Y000180D01*
X003531Y001755D02*
X003533Y001805D01*
X003539Y001855D01*
X003549Y001904D01*
X003563Y001952D01*
X003580Y001999D01*
X003601Y002044D01*
X003626Y002088D01*
X003654Y002129D01*
X003686Y002168D01*
X003720Y002205D01*
X003757Y002239D01*
X003797Y002269D01*
X003839Y002296D01*
X003883Y002320D01*
X003929Y002341D01*
X003976Y002357D01*
X004024Y002370D01*
X004074Y002379D01*
X004123Y002384D01*
X004174Y002385D01*
X004224Y002382D01*
X004273Y002375D01*
X004322Y002364D01*
X004370Y002349D01*
X004416Y002331D01*
X004461Y002309D01*
X004504Y002283D01*
X004545Y002254D01*
X004584Y002222D01*
X004620Y002187D01*
X004652Y002149D01*
X004682Y002109D01*
X004709Y002066D01*
X004732Y002022D01*
X004751Y001976D01*
X004767Y001928D01*
X004779Y001879D01*
X004787Y001830D01*
X004791Y001780D01*
X004791Y001730D01*
X004787Y001680D01*
X004779Y001631D01*
X004767Y001582D01*
X004751Y001534D01*
X004732Y001488D01*
X004709Y001444D01*
X004682Y001401D01*
X004652Y001361D01*
X004620Y001323D01*
X004584Y001288D01*
X004545Y001256D01*
X004504Y001227D01*
X004461Y001201D01*
X004416Y001179D01*
X004370Y001161D01*
X004322Y001146D01*
X004273Y001135D01*
X004224Y001128D01*
X004174Y001125D01*
X004123Y001126D01*
X004074Y001131D01*
X004024Y001140D01*
X003976Y001153D01*
X003929Y001169D01*
X003883Y001190D01*
X003839Y001214D01*
X003797Y001241D01*
X003757Y001271D01*
X003720Y001305D01*
X003686Y001342D01*
X003654Y001381D01*
X003626Y001422D01*
X003601Y001466D01*
X003580Y001511D01*
X003563Y001558D01*
X003549Y001606D01*
X003539Y001655D01*
X003533Y001705D01*
X003531Y001755D01*
X002586Y001755D02*
X002588Y001678D01*
X002594Y001601D01*
X002603Y001524D01*
X002616Y001448D01*
X002633Y001372D01*
X002654Y001298D01*
X002678Y001224D01*
X002706Y001152D01*
X002737Y001082D01*
X002772Y001013D01*
X002810Y000945D01*
X002851Y000880D01*
X002896Y000817D01*
X002944Y000756D01*
X002994Y000697D01*
X003047Y000641D01*
X003103Y000588D01*
X003162Y000538D01*
X003223Y000490D01*
X003286Y000445D01*
X003351Y000404D01*
X003419Y000366D01*
X003488Y000331D01*
X003558Y000300D01*
X003630Y000272D01*
X003704Y000248D01*
X003778Y000227D01*
X003854Y000210D01*
X003930Y000197D01*
X004007Y000188D01*
X004084Y000182D01*
X004161Y000180D01*
X003807Y004511D02*
X003809Y004530D01*
X003814Y004549D01*
X003824Y004565D01*
X003836Y004580D01*
X003851Y004592D01*
X003867Y004602D01*
X003886Y004607D01*
X003905Y004609D01*
X003924Y004607D01*
X003943Y004602D01*
X003959Y004592D01*
X003974Y004580D01*
X003986Y004565D01*
X003996Y004549D01*
X004001Y004530D01*
X004003Y004511D01*
X004001Y004492D01*
X003996Y004473D01*
X003986Y004457D01*
X003974Y004442D01*
X003959Y004430D01*
X003943Y004420D01*
X003924Y004415D01*
X003905Y004413D01*
X003886Y004415D01*
X003867Y004420D01*
X003851Y004430D01*
X003836Y004442D01*
X003824Y004457D01*
X003814Y004473D01*
X003809Y004492D01*
X003807Y004511D01*
X003807Y006086D02*
X003809Y006105D01*
X003814Y006124D01*
X003824Y006140D01*
X003836Y006155D01*
X003851Y006167D01*
X003867Y006177D01*
X003886Y006182D01*
X003905Y006184D01*
X003924Y006182D01*
X003943Y006177D01*
X003959Y006167D01*
X003974Y006155D01*
X003986Y006140D01*
X003996Y006124D01*
X004001Y006105D01*
X004003Y006086D01*
X004001Y006067D01*
X003996Y006048D01*
X003986Y006032D01*
X003974Y006017D01*
X003959Y006005D01*
X003943Y005995D01*
X003924Y005990D01*
X003905Y005988D01*
X003886Y005990D01*
X003867Y005995D01*
X003851Y006005D01*
X003836Y006017D01*
X003824Y006032D01*
X003814Y006048D01*
X003809Y006067D01*
X003807Y006086D01*
X016295Y001834D02*
X016297Y001861D01*
X016303Y001888D01*
X016312Y001914D01*
X016325Y001938D01*
X016341Y001961D01*
X016360Y001980D01*
X016382Y001997D01*
X016406Y002011D01*
X016431Y002021D01*
X016458Y002028D01*
X016485Y002031D01*
X016513Y002030D01*
X016540Y002025D01*
X016566Y002017D01*
X016590Y002005D01*
X016613Y001989D01*
X016634Y001971D01*
X016651Y001950D01*
X016666Y001926D01*
X016677Y001901D01*
X016685Y001875D01*
X016689Y001848D01*
X016689Y001820D01*
X016685Y001793D01*
X016677Y001767D01*
X016666Y001742D01*
X016651Y001718D01*
X016634Y001697D01*
X016613Y001679D01*
X016591Y001663D01*
X016566Y001651D01*
X016540Y001643D01*
X016513Y001638D01*
X016485Y001637D01*
X016458Y001640D01*
X016431Y001647D01*
X016406Y001657D01*
X016382Y001671D01*
X016360Y001688D01*
X016341Y001707D01*
X016325Y001730D01*
X016312Y001754D01*
X016303Y001780D01*
X016297Y001807D01*
X016295Y001834D01*
X019445Y001834D02*
X019447Y001861D01*
X019453Y001888D01*
X019462Y001914D01*
X019475Y001938D01*
X019491Y001961D01*
X019510Y001980D01*
X019532Y001997D01*
X019556Y002011D01*
X019581Y002021D01*
X019608Y002028D01*
X019635Y002031D01*
X019663Y002030D01*
X019690Y002025D01*
X019716Y002017D01*
X019740Y002005D01*
X019763Y001989D01*
X019784Y001971D01*
X019801Y001950D01*
X019816Y001926D01*
X019827Y001901D01*
X019835Y001875D01*
X019839Y001848D01*
X019839Y001820D01*
X019835Y001793D01*
X019827Y001767D01*
X019816Y001742D01*
X019801Y001718D01*
X019784Y001697D01*
X019763Y001679D01*
X019741Y001663D01*
X019716Y001651D01*
X019690Y001643D01*
X019663Y001638D01*
X019635Y001637D01*
X019608Y001640D01*
X019581Y001647D01*
X019556Y001657D01*
X019532Y001671D01*
X019510Y001688D01*
X019491Y001707D01*
X019475Y001730D01*
X019462Y001754D01*
X019453Y001780D01*
X019447Y001807D01*
X019445Y001834D01*
X036425Y015416D02*
X036427Y015445D01*
X036433Y015473D01*
X036442Y015501D01*
X036455Y015527D01*
X036472Y015550D01*
X036491Y015572D01*
X036513Y015591D01*
X036538Y015606D01*
X036564Y015619D01*
X036592Y015627D01*
X036620Y015632D01*
X036649Y015633D01*
X036678Y015630D01*
X036706Y015623D01*
X036733Y015613D01*
X036759Y015599D01*
X036782Y015582D01*
X036803Y015562D01*
X036821Y015539D01*
X036836Y015514D01*
X036847Y015487D01*
X036855Y015459D01*
X036859Y015430D01*
X036859Y015402D01*
X036855Y015373D01*
X036847Y015345D01*
X036836Y015318D01*
X036821Y015293D01*
X036803Y015270D01*
X036782Y015250D01*
X036759Y015233D01*
X036733Y015219D01*
X036706Y015209D01*
X036678Y015202D01*
X036649Y015199D01*
X036620Y015200D01*
X036592Y015205D01*
X036564Y015213D01*
X036538Y015226D01*
X036513Y015241D01*
X036491Y015260D01*
X036472Y015282D01*
X036455Y015305D01*
X036442Y015331D01*
X036433Y015359D01*
X036427Y015387D01*
X036425Y015416D01*
X039181Y015416D02*
X039183Y015445D01*
X039189Y015473D01*
X039198Y015501D01*
X039211Y015527D01*
X039228Y015550D01*
X039247Y015572D01*
X039269Y015591D01*
X039294Y015606D01*
X039320Y015619D01*
X039348Y015627D01*
X039376Y015632D01*
X039405Y015633D01*
X039434Y015630D01*
X039462Y015623D01*
X039489Y015613D01*
X039515Y015599D01*
X039538Y015582D01*
X039559Y015562D01*
X039577Y015539D01*
X039592Y015514D01*
X039603Y015487D01*
X039611Y015459D01*
X039615Y015430D01*
X039615Y015402D01*
X039611Y015373D01*
X039603Y015345D01*
X039592Y015318D01*
X039577Y015293D01*
X039559Y015270D01*
X039538Y015250D01*
X039515Y015233D01*
X039489Y015219D01*
X039462Y015209D01*
X039434Y015202D01*
X039405Y015199D01*
X039376Y015200D01*
X039348Y015205D01*
X039320Y015213D01*
X039294Y015226D01*
X039269Y015241D01*
X039247Y015260D01*
X039228Y015282D01*
X039211Y015305D01*
X039198Y015331D01*
X039189Y015359D01*
X039183Y015387D01*
X039181Y015416D01*
X006929Y029758D02*
X006931Y029791D01*
X006937Y029823D01*
X006946Y029854D01*
X006959Y029884D01*
X006976Y029912D01*
X006996Y029938D01*
X007019Y029962D01*
X007044Y029982D01*
X007072Y030000D01*
X007101Y030014D01*
X007132Y030024D01*
X007164Y030031D01*
X007197Y030034D01*
X007230Y030033D01*
X007262Y030028D01*
X007293Y030019D01*
X007324Y030007D01*
X007352Y029991D01*
X007379Y029972D01*
X007403Y029950D01*
X007424Y029925D01*
X007443Y029898D01*
X007458Y029869D01*
X007469Y029839D01*
X007477Y029807D01*
X007481Y029774D01*
X007481Y029742D01*
X007477Y029709D01*
X007469Y029677D01*
X007458Y029647D01*
X007443Y029618D01*
X007424Y029591D01*
X007403Y029566D01*
X007379Y029544D01*
X007352Y029525D01*
X007324Y029509D01*
X007293Y029497D01*
X007262Y029488D01*
X007230Y029483D01*
X007197Y029482D01*
X007164Y029485D01*
X007132Y029492D01*
X007101Y029502D01*
X007072Y029516D01*
X007044Y029534D01*
X007019Y029554D01*
X006996Y029578D01*
X006976Y029604D01*
X006959Y029632D01*
X006946Y029662D01*
X006937Y029693D01*
X006931Y029725D01*
X006929Y029758D01*
X003236Y027149D02*
X003238Y027172D01*
X003244Y027195D01*
X003254Y027216D01*
X003267Y027236D01*
X003283Y027253D01*
X003302Y027267D01*
X003323Y027277D01*
X003345Y027284D01*
X003368Y027287D01*
X003392Y027286D01*
X003414Y027281D01*
X003436Y027272D01*
X003456Y027260D01*
X003474Y027244D01*
X003488Y027226D01*
X003500Y027206D01*
X003508Y027184D01*
X003512Y027161D01*
X003512Y027137D01*
X003508Y027114D01*
X003500Y027092D01*
X003488Y027072D01*
X003474Y027054D01*
X003456Y027038D01*
X003436Y027026D01*
X003414Y027017D01*
X003392Y027012D01*
X003368Y027011D01*
X003345Y027014D01*
X003323Y027021D01*
X003302Y027031D01*
X003283Y027045D01*
X003267Y027062D01*
X003254Y027082D01*
X003244Y027103D01*
X003238Y027126D01*
X003236Y027149D01*
X003236Y025967D02*
X003238Y025990D01*
X003244Y026013D01*
X003254Y026034D01*
X003267Y026054D01*
X003283Y026071D01*
X003302Y026085D01*
X003323Y026095D01*
X003345Y026102D01*
X003368Y026105D01*
X003392Y026104D01*
X003414Y026099D01*
X003436Y026090D01*
X003456Y026078D01*
X003474Y026062D01*
X003488Y026044D01*
X003500Y026024D01*
X003508Y026002D01*
X003512Y025979D01*
X003512Y025955D01*
X003508Y025932D01*
X003500Y025910D01*
X003488Y025890D01*
X003474Y025872D01*
X003456Y025856D01*
X003436Y025844D01*
X003414Y025835D01*
X003392Y025830D01*
X003368Y025829D01*
X003345Y025832D01*
X003323Y025839D01*
X003302Y025849D01*
X003283Y025863D01*
X003267Y025880D01*
X003254Y025900D01*
X003244Y025921D01*
X003238Y025944D01*
X003236Y025967D01*
D11*
X028890Y028203D03*
X031488Y028203D03*
D12*
X031252Y028203D03*
X031016Y028203D03*
X030779Y028203D03*
X030543Y028203D03*
X030307Y028203D03*
X030071Y028203D03*
X029835Y028203D03*
X029598Y028203D03*
X029362Y028203D03*
X029126Y028203D03*
M02*
