G75*
G70*
%OFA0B0*%
%FSLAX24Y24*%
%IPPOS*%
%LPD*%
%AMOC8*
5,1,8,0,0,1.08239X$1,22.5*
%
%ADD10C,0.0080*%
%ADD11C,0.1783*%
%ADD12C,0.0050*%
%ADD13C,0.0060*%
%ADD14C,0.0000*%
%ADD15C,0.0090*%
%ADD16C,0.0315*%
%ADD17C,0.0197*%
%ADD18C,0.0394*%
%ADD19C,0.0120*%
%ADD20C,0.0276*%
%ADD21C,0.0030*%
%ADD22C,0.0040*%
%ADD23C,0.0300*%
%ADD24C,0.0079*%
%ADD25C,0.0180*%
%ADD26C,0.0070*%
%ADD27C,0.0100*%
%ADD28R,0.0118X0.0236*%
%ADD29R,0.0551X0.0039*%
%ADD30R,0.0551X0.0079*%
%ADD31R,0.0039X0.0079*%
%ADD32C,0.0200*%
%ADD33C,0.0140*%
D10*
X003167Y009815D02*
X005747Y009815D01*
X005747Y011215D01*
X003167Y011215D01*
X003167Y009815D01*
X013591Y010101D02*
X013591Y010259D01*
X013591Y013723D01*
X013748Y013881D01*
X017213Y013881D01*
X017370Y013723D01*
X017370Y010259D01*
X017213Y010101D01*
X013748Y010101D01*
X013591Y010101D01*
X013748Y010101D02*
X013591Y010259D01*
X018616Y009657D02*
X018616Y012357D01*
X018618Y012416D01*
X018624Y012474D01*
X018633Y012533D01*
X018647Y012590D01*
X018664Y012646D01*
X018685Y012701D01*
X018709Y012755D01*
X018737Y012807D01*
X018768Y012857D01*
X018802Y012905D01*
X018839Y012950D01*
X018880Y012993D01*
X018923Y013034D01*
X018968Y013071D01*
X019016Y013105D01*
X019066Y013136D01*
X019118Y013164D01*
X019172Y013188D01*
X019227Y013209D01*
X019283Y013226D01*
X019340Y013240D01*
X019399Y013249D01*
X019457Y013255D01*
X019516Y013257D01*
X019575Y013255D01*
X019633Y013249D01*
X019692Y013240D01*
X019749Y013226D01*
X019805Y013209D01*
X019860Y013188D01*
X019914Y013164D01*
X019966Y013136D01*
X020016Y013105D01*
X020064Y013071D01*
X020109Y013034D01*
X020152Y012993D01*
X020193Y012950D01*
X020230Y012905D01*
X020264Y012857D01*
X020295Y012807D01*
X020323Y012755D01*
X020347Y012701D01*
X020368Y012646D01*
X020385Y012590D01*
X020399Y012533D01*
X020408Y012474D01*
X020414Y012416D01*
X020416Y012357D01*
X020416Y009657D01*
X020414Y009598D01*
X020408Y009540D01*
X020399Y009481D01*
X020385Y009424D01*
X020368Y009368D01*
X020347Y009313D01*
X020323Y009259D01*
X020295Y009207D01*
X020264Y009157D01*
X020230Y009109D01*
X020193Y009064D01*
X020152Y009021D01*
X020109Y008980D01*
X020064Y008943D01*
X020016Y008909D01*
X019966Y008878D01*
X019914Y008850D01*
X019860Y008826D01*
X019805Y008805D01*
X019749Y008788D01*
X019692Y008774D01*
X019633Y008765D01*
X019575Y008759D01*
X019516Y008757D01*
X019457Y008759D01*
X019399Y008765D01*
X019340Y008774D01*
X019283Y008788D01*
X019227Y008805D01*
X019172Y008826D01*
X019118Y008850D01*
X019066Y008878D01*
X019016Y008909D01*
X018968Y008943D01*
X018923Y008980D01*
X018880Y009021D01*
X018839Y009064D01*
X018802Y009109D01*
X018768Y009157D01*
X018737Y009207D01*
X018709Y009259D01*
X018685Y009313D01*
X018664Y009368D01*
X018647Y009424D01*
X018633Y009481D01*
X018624Y009540D01*
X018618Y009598D01*
X018616Y009657D01*
X025224Y010810D02*
X025224Y006873D01*
X025226Y006834D01*
X025232Y006796D01*
X025241Y006759D01*
X025254Y006722D01*
X025271Y006687D01*
X025290Y006654D01*
X025313Y006623D01*
X025339Y006594D01*
X025368Y006568D01*
X025399Y006545D01*
X025432Y006526D01*
X025467Y006509D01*
X025504Y006496D01*
X025541Y006487D01*
X025579Y006481D01*
X025618Y006479D01*
X026012Y006479D01*
X027193Y006479D02*
X027980Y006479D01*
X029161Y006479D02*
X029555Y006479D01*
X029594Y006481D01*
X029632Y006487D01*
X029669Y006496D01*
X029706Y006509D01*
X029741Y006526D01*
X029774Y006545D01*
X029805Y006568D01*
X029834Y006594D01*
X029860Y006623D01*
X029883Y006654D01*
X029902Y006687D01*
X029919Y006722D01*
X029932Y006759D01*
X029941Y006796D01*
X029947Y006834D01*
X029949Y006873D01*
X029949Y010810D01*
X029947Y010849D01*
X029941Y010887D01*
X029932Y010924D01*
X029919Y010961D01*
X029902Y010996D01*
X029883Y011029D01*
X029860Y011060D01*
X029834Y011089D01*
X029805Y011115D01*
X029774Y011138D01*
X029741Y011157D01*
X029706Y011174D01*
X029669Y011187D01*
X029632Y011196D01*
X029594Y011202D01*
X029555Y011204D01*
X029161Y011204D01*
X027980Y011204D02*
X027193Y011204D01*
X026012Y011204D02*
X025618Y011204D01*
X025579Y011202D01*
X025541Y011196D01*
X025504Y011187D01*
X025467Y011174D01*
X025432Y011157D01*
X025399Y011138D01*
X025368Y011115D01*
X025339Y011089D01*
X025313Y011060D01*
X025290Y011029D01*
X025271Y010996D01*
X025254Y010961D01*
X025241Y010924D01*
X025232Y010887D01*
X025226Y010849D01*
X025224Y010810D01*
X026949Y009286D02*
X028472Y009286D01*
X028472Y009208D02*
X026870Y009208D01*
X026792Y009129D02*
X028472Y009129D01*
X028472Y009051D02*
X026713Y009051D01*
X026635Y008972D02*
X028472Y008972D01*
X028472Y008894D02*
X026556Y008894D01*
X026504Y008841D02*
X027390Y007956D01*
X027390Y008251D01*
X028472Y008251D01*
X028472Y009432D01*
X027390Y009432D01*
X027390Y009727D01*
X026504Y008841D01*
X026530Y008815D02*
X028472Y008815D01*
X028472Y008737D02*
X026609Y008737D01*
X026687Y008658D02*
X028472Y008658D01*
X028472Y008580D02*
X026766Y008580D01*
X026844Y008501D02*
X028472Y008501D01*
X028472Y008423D02*
X026923Y008423D01*
X027001Y008344D02*
X028472Y008344D01*
X028472Y008266D02*
X027080Y008266D01*
X027158Y008187D02*
X027390Y008187D01*
X027390Y008109D02*
X027237Y008109D01*
X027315Y008030D02*
X027390Y008030D01*
X026209Y008841D02*
X026211Y008915D01*
X026217Y008989D01*
X026227Y009062D01*
X026241Y009135D01*
X026258Y009207D01*
X026280Y009277D01*
X026305Y009347D01*
X026334Y009415D01*
X026367Y009481D01*
X026403Y009546D01*
X026443Y009608D01*
X026485Y009669D01*
X026531Y009727D01*
X026580Y009782D01*
X026632Y009835D01*
X026687Y009885D01*
X026744Y009931D01*
X026804Y009975D01*
X026866Y010015D01*
X026930Y010052D01*
X026996Y010086D01*
X027064Y010116D01*
X027133Y010142D01*
X027204Y010165D01*
X027275Y010183D01*
X027348Y010198D01*
X027421Y010209D01*
X027495Y010216D01*
X027569Y010219D01*
X027642Y010218D01*
X027716Y010213D01*
X027790Y010204D01*
X027863Y010191D01*
X027935Y010174D01*
X028006Y010154D01*
X028076Y010129D01*
X028144Y010101D01*
X028211Y010070D01*
X028276Y010034D01*
X028339Y009996D01*
X028400Y009954D01*
X028459Y009908D01*
X028515Y009860D01*
X028568Y009809D01*
X028618Y009755D01*
X028666Y009698D01*
X028710Y009639D01*
X028752Y009577D01*
X028790Y009514D01*
X028824Y009448D01*
X028855Y009381D01*
X028882Y009312D01*
X028905Y009242D01*
X028925Y009171D01*
X028941Y009098D01*
X028953Y009025D01*
X028961Y008952D01*
X028965Y008878D01*
X028965Y008804D01*
X028961Y008730D01*
X028953Y008657D01*
X028941Y008584D01*
X028925Y008511D01*
X028905Y008440D01*
X028882Y008370D01*
X028855Y008301D01*
X028824Y008234D01*
X028790Y008168D01*
X028752Y008105D01*
X028710Y008043D01*
X028666Y007984D01*
X028618Y007927D01*
X028568Y007873D01*
X028515Y007822D01*
X028459Y007774D01*
X028400Y007728D01*
X028339Y007686D01*
X028276Y007648D01*
X028211Y007612D01*
X028144Y007581D01*
X028076Y007553D01*
X028006Y007528D01*
X027935Y007508D01*
X027863Y007491D01*
X027790Y007478D01*
X027716Y007469D01*
X027642Y007464D01*
X027569Y007463D01*
X027495Y007466D01*
X027421Y007473D01*
X027348Y007484D01*
X027275Y007499D01*
X027204Y007517D01*
X027133Y007540D01*
X027064Y007566D01*
X026996Y007596D01*
X026930Y007630D01*
X026866Y007667D01*
X026804Y007707D01*
X026744Y007751D01*
X026687Y007797D01*
X026632Y007847D01*
X026580Y007900D01*
X026531Y007955D01*
X026485Y008013D01*
X026443Y008074D01*
X026403Y008136D01*
X026367Y008201D01*
X026334Y008267D01*
X026305Y008335D01*
X026280Y008405D01*
X026258Y008475D01*
X026241Y008547D01*
X026227Y008620D01*
X026217Y008693D01*
X026211Y008767D01*
X026209Y008841D01*
X027027Y009365D02*
X028472Y009365D01*
X027390Y009443D02*
X027106Y009443D01*
X027184Y009522D02*
X027390Y009522D01*
X027390Y009600D02*
X027263Y009600D01*
X027341Y009679D02*
X027390Y009679D01*
X030736Y010810D02*
X030736Y006873D01*
X030738Y006834D01*
X030744Y006796D01*
X030753Y006759D01*
X030766Y006722D01*
X030783Y006687D01*
X030802Y006654D01*
X030825Y006623D01*
X030851Y006594D01*
X030880Y006568D01*
X030911Y006545D01*
X030944Y006526D01*
X030979Y006509D01*
X031016Y006496D01*
X031053Y006487D01*
X031091Y006481D01*
X031130Y006479D01*
X031524Y006479D01*
X032705Y006479D02*
X033492Y006479D01*
X034673Y006479D02*
X035067Y006479D01*
X035106Y006481D01*
X035144Y006487D01*
X035181Y006496D01*
X035218Y006509D01*
X035253Y006526D01*
X035286Y006545D01*
X035317Y006568D01*
X035346Y006594D01*
X035372Y006623D01*
X035395Y006654D01*
X035414Y006687D01*
X035431Y006722D01*
X035444Y006759D01*
X035453Y006796D01*
X035459Y006834D01*
X035461Y006873D01*
X035461Y010810D01*
X035459Y010849D01*
X035453Y010887D01*
X035444Y010924D01*
X035431Y010961D01*
X035414Y010996D01*
X035395Y011029D01*
X035372Y011060D01*
X035346Y011089D01*
X035317Y011115D01*
X035286Y011138D01*
X035253Y011157D01*
X035218Y011174D01*
X035181Y011187D01*
X035144Y011196D01*
X035106Y011202D01*
X035067Y011204D01*
X034673Y011204D01*
X035067Y011991D02*
X031130Y011991D01*
X031091Y011993D01*
X031053Y011999D01*
X031016Y012008D01*
X030979Y012021D01*
X030944Y012038D01*
X030911Y012057D01*
X030880Y012080D01*
X030851Y012106D01*
X030825Y012135D01*
X030802Y012166D01*
X030783Y012199D01*
X030766Y012234D01*
X030753Y012271D01*
X030744Y012308D01*
X030738Y012346D01*
X030736Y012385D01*
X030736Y012778D01*
X030736Y013960D02*
X030736Y014747D01*
X032213Y014550D02*
X032508Y014550D01*
X032508Y013467D01*
X033689Y013467D01*
X033689Y014550D01*
X033984Y014550D01*
X033098Y015436D01*
X032213Y014550D01*
X032287Y014624D02*
X033910Y014624D01*
X033832Y014703D02*
X032365Y014703D01*
X032444Y014781D02*
X033753Y014781D01*
X033675Y014860D02*
X032522Y014860D01*
X032601Y014938D02*
X033596Y014938D01*
X033518Y015017D02*
X032679Y015017D01*
X032758Y015095D02*
X033439Y015095D01*
X033361Y015174D02*
X032836Y015174D01*
X032915Y015252D02*
X033282Y015252D01*
X033204Y015331D02*
X032993Y015331D01*
X033072Y015409D02*
X033125Y015409D01*
X033689Y014546D02*
X032508Y014546D01*
X032508Y014467D02*
X033689Y014467D01*
X033689Y014389D02*
X032508Y014389D01*
X032508Y014310D02*
X033689Y014310D01*
X033689Y014232D02*
X032508Y014232D01*
X032508Y014153D02*
X033689Y014153D01*
X033689Y014075D02*
X032508Y014075D01*
X032508Y013996D02*
X033689Y013996D01*
X033689Y013918D02*
X032508Y013918D01*
X032508Y013839D02*
X033689Y013839D01*
X033689Y013761D02*
X032508Y013761D01*
X032508Y013682D02*
X033689Y013682D01*
X033689Y013604D02*
X032508Y013604D01*
X032508Y013525D02*
X033689Y013525D01*
X031720Y014353D02*
X031722Y014427D01*
X031728Y014501D01*
X031738Y014574D01*
X031752Y014647D01*
X031769Y014719D01*
X031791Y014789D01*
X031816Y014859D01*
X031845Y014927D01*
X031878Y014993D01*
X031914Y015058D01*
X031954Y015120D01*
X031996Y015181D01*
X032042Y015239D01*
X032091Y015294D01*
X032143Y015347D01*
X032198Y015397D01*
X032255Y015443D01*
X032315Y015487D01*
X032377Y015527D01*
X032441Y015564D01*
X032507Y015598D01*
X032575Y015628D01*
X032644Y015654D01*
X032715Y015677D01*
X032786Y015695D01*
X032859Y015710D01*
X032932Y015721D01*
X033006Y015728D01*
X033080Y015731D01*
X033153Y015730D01*
X033227Y015725D01*
X033301Y015716D01*
X033374Y015703D01*
X033446Y015686D01*
X033517Y015666D01*
X033587Y015641D01*
X033655Y015613D01*
X033722Y015582D01*
X033787Y015546D01*
X033850Y015508D01*
X033911Y015466D01*
X033970Y015420D01*
X034026Y015372D01*
X034079Y015321D01*
X034129Y015267D01*
X034177Y015210D01*
X034221Y015151D01*
X034263Y015089D01*
X034301Y015026D01*
X034335Y014960D01*
X034366Y014893D01*
X034393Y014824D01*
X034416Y014754D01*
X034436Y014683D01*
X034452Y014610D01*
X034464Y014537D01*
X034472Y014464D01*
X034476Y014390D01*
X034476Y014316D01*
X034472Y014242D01*
X034464Y014169D01*
X034452Y014096D01*
X034436Y014023D01*
X034416Y013952D01*
X034393Y013882D01*
X034366Y013813D01*
X034335Y013746D01*
X034301Y013680D01*
X034263Y013617D01*
X034221Y013555D01*
X034177Y013496D01*
X034129Y013439D01*
X034079Y013385D01*
X034026Y013334D01*
X033970Y013286D01*
X033911Y013240D01*
X033850Y013198D01*
X033787Y013160D01*
X033722Y013124D01*
X033655Y013093D01*
X033587Y013065D01*
X033517Y013040D01*
X033446Y013020D01*
X033374Y013003D01*
X033301Y012990D01*
X033227Y012981D01*
X033153Y012976D01*
X033080Y012975D01*
X033006Y012978D01*
X032932Y012985D01*
X032859Y012996D01*
X032786Y013011D01*
X032715Y013029D01*
X032644Y013052D01*
X032575Y013078D01*
X032507Y013108D01*
X032441Y013142D01*
X032377Y013179D01*
X032315Y013219D01*
X032255Y013263D01*
X032198Y013309D01*
X032143Y013359D01*
X032091Y013412D01*
X032042Y013467D01*
X031996Y013525D01*
X031954Y013586D01*
X031914Y013648D01*
X031878Y013713D01*
X031845Y013779D01*
X031816Y013847D01*
X031791Y013917D01*
X031769Y013987D01*
X031752Y014059D01*
X031738Y014132D01*
X031728Y014205D01*
X031722Y014279D01*
X031720Y014353D01*
X030736Y015928D02*
X030736Y016322D01*
X030738Y016361D01*
X030744Y016399D01*
X030753Y016436D01*
X030766Y016473D01*
X030783Y016508D01*
X030802Y016541D01*
X030825Y016572D01*
X030851Y016601D01*
X030880Y016627D01*
X030911Y016650D01*
X030944Y016669D01*
X030979Y016686D01*
X031016Y016699D01*
X031053Y016708D01*
X031091Y016714D01*
X031130Y016716D01*
X031130Y016715D02*
X035067Y016715D01*
X035067Y016716D02*
X035106Y016714D01*
X035144Y016708D01*
X035181Y016699D01*
X035218Y016686D01*
X035253Y016669D01*
X035286Y016650D01*
X035317Y016627D01*
X035346Y016601D01*
X035372Y016572D01*
X035395Y016541D01*
X035414Y016508D01*
X035431Y016473D01*
X035444Y016436D01*
X035453Y016399D01*
X035459Y016361D01*
X035461Y016322D01*
X035461Y015928D01*
X035461Y014747D02*
X035461Y013960D01*
X035461Y012778D02*
X035461Y012385D01*
X035459Y012346D01*
X035453Y012308D01*
X035444Y012271D01*
X035431Y012234D01*
X035414Y012199D01*
X035395Y012166D01*
X035372Y012135D01*
X035346Y012106D01*
X035317Y012080D01*
X035286Y012057D01*
X035253Y012038D01*
X035218Y012021D01*
X035181Y012008D01*
X035144Y011999D01*
X035106Y011993D01*
X035067Y011991D01*
X033492Y011204D02*
X032705Y011204D01*
X031524Y011204D02*
X031130Y011204D01*
X031091Y011202D01*
X031053Y011196D01*
X031016Y011187D01*
X030979Y011174D01*
X030944Y011157D01*
X030911Y011138D01*
X030880Y011115D01*
X030851Y011089D01*
X030825Y011060D01*
X030802Y011029D01*
X030783Y010996D01*
X030766Y010961D01*
X030753Y010924D01*
X030744Y010887D01*
X030738Y010849D01*
X030736Y010810D01*
X031720Y008841D02*
X031722Y008915D01*
X031728Y008989D01*
X031738Y009062D01*
X031752Y009135D01*
X031769Y009207D01*
X031791Y009277D01*
X031816Y009347D01*
X031845Y009415D01*
X031878Y009481D01*
X031914Y009546D01*
X031954Y009608D01*
X031996Y009669D01*
X032042Y009727D01*
X032091Y009782D01*
X032143Y009835D01*
X032198Y009885D01*
X032255Y009931D01*
X032315Y009975D01*
X032377Y010015D01*
X032441Y010052D01*
X032507Y010086D01*
X032575Y010116D01*
X032644Y010142D01*
X032715Y010165D01*
X032786Y010183D01*
X032859Y010198D01*
X032932Y010209D01*
X033006Y010216D01*
X033080Y010219D01*
X033153Y010218D01*
X033227Y010213D01*
X033301Y010204D01*
X033374Y010191D01*
X033446Y010174D01*
X033517Y010154D01*
X033587Y010129D01*
X033655Y010101D01*
X033722Y010070D01*
X033787Y010034D01*
X033850Y009996D01*
X033911Y009954D01*
X033970Y009908D01*
X034026Y009860D01*
X034079Y009809D01*
X034129Y009755D01*
X034177Y009698D01*
X034221Y009639D01*
X034263Y009577D01*
X034301Y009514D01*
X034335Y009448D01*
X034366Y009381D01*
X034393Y009312D01*
X034416Y009242D01*
X034436Y009171D01*
X034452Y009098D01*
X034464Y009025D01*
X034472Y008952D01*
X034476Y008878D01*
X034476Y008804D01*
X034472Y008730D01*
X034464Y008657D01*
X034452Y008584D01*
X034436Y008511D01*
X034416Y008440D01*
X034393Y008370D01*
X034366Y008301D01*
X034335Y008234D01*
X034301Y008168D01*
X034263Y008105D01*
X034221Y008043D01*
X034177Y007984D01*
X034129Y007927D01*
X034079Y007873D01*
X034026Y007822D01*
X033970Y007774D01*
X033911Y007728D01*
X033850Y007686D01*
X033787Y007648D01*
X033722Y007612D01*
X033655Y007581D01*
X033587Y007553D01*
X033517Y007528D01*
X033446Y007508D01*
X033374Y007491D01*
X033301Y007478D01*
X033227Y007469D01*
X033153Y007464D01*
X033080Y007463D01*
X033006Y007466D01*
X032932Y007473D01*
X032859Y007484D01*
X032786Y007499D01*
X032715Y007517D01*
X032644Y007540D01*
X032575Y007566D01*
X032507Y007596D01*
X032441Y007630D01*
X032377Y007667D01*
X032315Y007707D01*
X032255Y007751D01*
X032198Y007797D01*
X032143Y007847D01*
X032091Y007900D01*
X032042Y007955D01*
X031996Y008013D01*
X031954Y008074D01*
X031914Y008136D01*
X031878Y008201D01*
X031845Y008267D01*
X031816Y008335D01*
X031791Y008405D01*
X031769Y008475D01*
X031752Y008547D01*
X031738Y008620D01*
X031728Y008693D01*
X031722Y008767D01*
X031720Y008841D01*
X031130Y005692D02*
X035067Y005692D01*
X035106Y005690D01*
X035144Y005684D01*
X035181Y005675D01*
X035218Y005662D01*
X035253Y005645D01*
X035286Y005626D01*
X035317Y005603D01*
X035346Y005577D01*
X035372Y005548D01*
X035395Y005517D01*
X035414Y005484D01*
X035431Y005449D01*
X035444Y005412D01*
X035453Y005375D01*
X035459Y005337D01*
X035461Y005298D01*
X035461Y004904D01*
X035461Y003723D02*
X035461Y002936D01*
X033984Y003133D02*
X033689Y003133D01*
X033689Y004215D01*
X032508Y004215D01*
X032508Y003133D01*
X032213Y003133D01*
X033098Y002247D01*
X033984Y003133D01*
X033936Y003085D02*
X032261Y003085D01*
X032339Y003006D02*
X033857Y003006D01*
X033779Y002928D02*
X032418Y002928D01*
X032496Y002849D02*
X033700Y002849D01*
X033622Y002771D02*
X032575Y002771D01*
X032653Y002692D02*
X033543Y002692D01*
X033465Y002614D02*
X032732Y002614D01*
X032810Y002535D02*
X033386Y002535D01*
X033308Y002457D02*
X032889Y002457D01*
X032967Y002378D02*
X033229Y002378D01*
X033151Y002300D02*
X033046Y002300D01*
X032508Y003163D02*
X033689Y003163D01*
X033689Y003242D02*
X032508Y003242D01*
X032508Y003320D02*
X033689Y003320D01*
X033689Y003399D02*
X032508Y003399D01*
X032508Y003477D02*
X033689Y003477D01*
X033689Y003556D02*
X032508Y003556D01*
X032508Y003634D02*
X033689Y003634D01*
X033689Y003713D02*
X032508Y003713D01*
X032508Y003791D02*
X033689Y003791D01*
X033689Y003870D02*
X032508Y003870D01*
X032508Y003948D02*
X033689Y003948D01*
X033689Y004027D02*
X032508Y004027D01*
X032508Y004105D02*
X033689Y004105D01*
X033689Y004184D02*
X032508Y004184D01*
X031720Y003330D02*
X031722Y003404D01*
X031728Y003478D01*
X031738Y003551D01*
X031752Y003624D01*
X031769Y003696D01*
X031791Y003766D01*
X031816Y003836D01*
X031845Y003904D01*
X031878Y003970D01*
X031914Y004035D01*
X031954Y004097D01*
X031996Y004158D01*
X032042Y004216D01*
X032091Y004271D01*
X032143Y004324D01*
X032198Y004374D01*
X032255Y004420D01*
X032315Y004464D01*
X032377Y004504D01*
X032441Y004541D01*
X032507Y004575D01*
X032575Y004605D01*
X032644Y004631D01*
X032715Y004654D01*
X032786Y004672D01*
X032859Y004687D01*
X032932Y004698D01*
X033006Y004705D01*
X033080Y004708D01*
X033153Y004707D01*
X033227Y004702D01*
X033301Y004693D01*
X033374Y004680D01*
X033446Y004663D01*
X033517Y004643D01*
X033587Y004618D01*
X033655Y004590D01*
X033722Y004559D01*
X033787Y004523D01*
X033850Y004485D01*
X033911Y004443D01*
X033970Y004397D01*
X034026Y004349D01*
X034079Y004298D01*
X034129Y004244D01*
X034177Y004187D01*
X034221Y004128D01*
X034263Y004066D01*
X034301Y004003D01*
X034335Y003937D01*
X034366Y003870D01*
X034393Y003801D01*
X034416Y003731D01*
X034436Y003660D01*
X034452Y003587D01*
X034464Y003514D01*
X034472Y003441D01*
X034476Y003367D01*
X034476Y003293D01*
X034472Y003219D01*
X034464Y003146D01*
X034452Y003073D01*
X034436Y003000D01*
X034416Y002929D01*
X034393Y002859D01*
X034366Y002790D01*
X034335Y002723D01*
X034301Y002657D01*
X034263Y002594D01*
X034221Y002532D01*
X034177Y002473D01*
X034129Y002416D01*
X034079Y002362D01*
X034026Y002311D01*
X033970Y002263D01*
X033911Y002217D01*
X033850Y002175D01*
X033787Y002137D01*
X033722Y002101D01*
X033655Y002070D01*
X033587Y002042D01*
X033517Y002017D01*
X033446Y001997D01*
X033374Y001980D01*
X033301Y001967D01*
X033227Y001958D01*
X033153Y001953D01*
X033080Y001952D01*
X033006Y001955D01*
X032932Y001962D01*
X032859Y001973D01*
X032786Y001988D01*
X032715Y002006D01*
X032644Y002029D01*
X032575Y002055D01*
X032507Y002085D01*
X032441Y002119D01*
X032377Y002156D01*
X032315Y002196D01*
X032255Y002240D01*
X032198Y002286D01*
X032143Y002336D01*
X032091Y002389D01*
X032042Y002444D01*
X031996Y002502D01*
X031954Y002563D01*
X031914Y002625D01*
X031878Y002690D01*
X031845Y002756D01*
X031816Y002824D01*
X031791Y002894D01*
X031769Y002964D01*
X031752Y003036D01*
X031738Y003109D01*
X031728Y003182D01*
X031722Y003256D01*
X031720Y003330D01*
X030736Y002936D02*
X030736Y003723D01*
X030736Y004904D02*
X030736Y005298D01*
X030738Y005337D01*
X030744Y005375D01*
X030753Y005412D01*
X030766Y005449D01*
X030783Y005484D01*
X030802Y005517D01*
X030825Y005548D01*
X030851Y005577D01*
X030880Y005603D01*
X030911Y005626D01*
X030944Y005645D01*
X030979Y005662D01*
X031016Y005675D01*
X031053Y005684D01*
X031091Y005690D01*
X031130Y005692D01*
X036248Y006873D02*
X036248Y010810D01*
X036250Y010849D01*
X036256Y010887D01*
X036265Y010924D01*
X036278Y010961D01*
X036295Y010996D01*
X036314Y011029D01*
X036337Y011060D01*
X036363Y011089D01*
X036392Y011115D01*
X036423Y011138D01*
X036456Y011157D01*
X036491Y011174D01*
X036528Y011187D01*
X036565Y011196D01*
X036603Y011202D01*
X036642Y011204D01*
X037035Y011204D01*
X038217Y011204D02*
X039004Y011204D01*
X040185Y011204D02*
X040579Y011204D01*
X040618Y011202D01*
X040656Y011196D01*
X040693Y011187D01*
X040730Y011174D01*
X040765Y011157D01*
X040798Y011138D01*
X040829Y011115D01*
X040858Y011089D01*
X040884Y011060D01*
X040907Y011029D01*
X040926Y010996D01*
X040943Y010961D01*
X040956Y010924D01*
X040965Y010887D01*
X040971Y010849D01*
X040973Y010810D01*
X040972Y010810D02*
X040972Y006873D01*
X040973Y006873D02*
X040971Y006834D01*
X040965Y006796D01*
X040956Y006759D01*
X040943Y006722D01*
X040926Y006687D01*
X040907Y006654D01*
X040884Y006623D01*
X040858Y006594D01*
X040829Y006568D01*
X040798Y006545D01*
X040765Y006526D01*
X040730Y006509D01*
X040693Y006496D01*
X040656Y006487D01*
X040618Y006481D01*
X040579Y006479D01*
X040185Y006479D01*
X039004Y006479D02*
X038217Y006479D01*
X037035Y006479D02*
X036642Y006479D01*
X036603Y006481D01*
X036565Y006487D01*
X036528Y006496D01*
X036491Y006509D01*
X036456Y006526D01*
X036423Y006545D01*
X036392Y006568D01*
X036363Y006594D01*
X036337Y006623D01*
X036314Y006654D01*
X036295Y006687D01*
X036278Y006722D01*
X036265Y006759D01*
X036256Y006796D01*
X036250Y006834D01*
X036248Y006873D01*
X037724Y008251D02*
X038807Y008251D01*
X038807Y007956D01*
X039693Y008841D01*
X038807Y009727D01*
X038807Y009432D01*
X037724Y009432D01*
X037724Y008251D01*
X037724Y008266D02*
X039117Y008266D01*
X039195Y008344D02*
X037724Y008344D01*
X037724Y008423D02*
X039274Y008423D01*
X039352Y008501D02*
X037724Y008501D01*
X037724Y008580D02*
X039431Y008580D01*
X039509Y008658D02*
X037724Y008658D01*
X037724Y008737D02*
X039588Y008737D01*
X039666Y008815D02*
X037724Y008815D01*
X037724Y008894D02*
X039641Y008894D01*
X039562Y008972D02*
X037724Y008972D01*
X037724Y009051D02*
X039484Y009051D01*
X039405Y009129D02*
X037724Y009129D01*
X037724Y009208D02*
X039327Y009208D01*
X039248Y009286D02*
X037724Y009286D01*
X037724Y009365D02*
X039170Y009365D01*
X039091Y009443D02*
X038807Y009443D01*
X038807Y009522D02*
X039013Y009522D01*
X038934Y009600D02*
X038807Y009600D01*
X038807Y009679D02*
X038856Y009679D01*
X037232Y008841D02*
X037234Y008915D01*
X037240Y008989D01*
X037250Y009062D01*
X037264Y009135D01*
X037281Y009207D01*
X037303Y009277D01*
X037328Y009347D01*
X037357Y009415D01*
X037390Y009481D01*
X037426Y009546D01*
X037466Y009608D01*
X037508Y009669D01*
X037554Y009727D01*
X037603Y009782D01*
X037655Y009835D01*
X037710Y009885D01*
X037767Y009931D01*
X037827Y009975D01*
X037889Y010015D01*
X037953Y010052D01*
X038019Y010086D01*
X038087Y010116D01*
X038156Y010142D01*
X038227Y010165D01*
X038298Y010183D01*
X038371Y010198D01*
X038444Y010209D01*
X038518Y010216D01*
X038592Y010219D01*
X038665Y010218D01*
X038739Y010213D01*
X038813Y010204D01*
X038886Y010191D01*
X038958Y010174D01*
X039029Y010154D01*
X039099Y010129D01*
X039167Y010101D01*
X039234Y010070D01*
X039299Y010034D01*
X039362Y009996D01*
X039423Y009954D01*
X039482Y009908D01*
X039538Y009860D01*
X039591Y009809D01*
X039641Y009755D01*
X039689Y009698D01*
X039733Y009639D01*
X039775Y009577D01*
X039813Y009514D01*
X039847Y009448D01*
X039878Y009381D01*
X039905Y009312D01*
X039928Y009242D01*
X039948Y009171D01*
X039964Y009098D01*
X039976Y009025D01*
X039984Y008952D01*
X039988Y008878D01*
X039988Y008804D01*
X039984Y008730D01*
X039976Y008657D01*
X039964Y008584D01*
X039948Y008511D01*
X039928Y008440D01*
X039905Y008370D01*
X039878Y008301D01*
X039847Y008234D01*
X039813Y008168D01*
X039775Y008105D01*
X039733Y008043D01*
X039689Y007984D01*
X039641Y007927D01*
X039591Y007873D01*
X039538Y007822D01*
X039482Y007774D01*
X039423Y007728D01*
X039362Y007686D01*
X039299Y007648D01*
X039234Y007612D01*
X039167Y007581D01*
X039099Y007553D01*
X039029Y007528D01*
X038958Y007508D01*
X038886Y007491D01*
X038813Y007478D01*
X038739Y007469D01*
X038665Y007464D01*
X038592Y007463D01*
X038518Y007466D01*
X038444Y007473D01*
X038371Y007484D01*
X038298Y007499D01*
X038227Y007517D01*
X038156Y007540D01*
X038087Y007566D01*
X038019Y007596D01*
X037953Y007630D01*
X037889Y007667D01*
X037827Y007707D01*
X037767Y007751D01*
X037710Y007797D01*
X037655Y007847D01*
X037603Y007900D01*
X037554Y007955D01*
X037508Y008013D01*
X037466Y008074D01*
X037426Y008136D01*
X037390Y008201D01*
X037357Y008267D01*
X037328Y008335D01*
X037303Y008405D01*
X037281Y008475D01*
X037264Y008547D01*
X037250Y008620D01*
X037240Y008693D01*
X037234Y008767D01*
X037232Y008841D01*
X038807Y008187D02*
X039038Y008187D01*
X038960Y008109D02*
X038807Y008109D01*
X038807Y008030D02*
X038881Y008030D01*
X035461Y001755D02*
X035461Y001361D01*
X035459Y001322D01*
X035453Y001284D01*
X035444Y001247D01*
X035431Y001210D01*
X035414Y001175D01*
X035395Y001142D01*
X035372Y001111D01*
X035346Y001082D01*
X035317Y001056D01*
X035286Y001033D01*
X035253Y001014D01*
X035218Y000997D01*
X035181Y000984D01*
X035144Y000975D01*
X035106Y000969D01*
X035067Y000967D01*
X031130Y000967D01*
X031091Y000969D01*
X031053Y000975D01*
X031016Y000984D01*
X030979Y000997D01*
X030944Y001014D01*
X030911Y001033D01*
X030880Y001056D01*
X030851Y001082D01*
X030825Y001111D01*
X030802Y001142D01*
X030783Y001175D01*
X030766Y001210D01*
X030753Y001247D01*
X030744Y001284D01*
X030738Y001322D01*
X030736Y001361D01*
X030736Y001755D01*
X040872Y017648D02*
X041072Y017798D01*
X040872Y017948D01*
X040872Y017648D01*
X041072Y017648D02*
X041072Y017798D01*
X041072Y017948D01*
X041072Y018534D02*
X041072Y018684D01*
X040872Y018534D01*
X040872Y018834D01*
X041072Y018684D01*
X041072Y018834D01*
X041072Y019420D02*
X041072Y019570D01*
X040872Y019420D01*
X040872Y019720D01*
X041072Y019570D01*
X041072Y019720D01*
X041072Y020306D02*
X041072Y020456D01*
X040872Y020306D01*
X040872Y020606D01*
X041072Y020456D01*
X041072Y020606D01*
X041072Y021191D02*
X041072Y021341D01*
X040872Y021191D01*
X040872Y021491D01*
X041072Y021341D01*
X041072Y021491D01*
X041072Y022077D02*
X041072Y022227D01*
X040872Y022077D01*
X040872Y022377D01*
X041072Y022227D01*
X041072Y022377D01*
X041072Y022963D02*
X041072Y023113D01*
X040872Y022963D01*
X040872Y023263D01*
X041072Y023113D01*
X041072Y023263D01*
X041072Y023849D02*
X041072Y023999D01*
X040872Y023849D01*
X040872Y024149D01*
X041072Y023999D01*
X041072Y024149D01*
X016417Y026411D02*
X016417Y026778D01*
X016234Y026961D01*
X016050Y026778D01*
X016050Y026411D01*
X015837Y026503D02*
X015745Y026411D01*
X015562Y026411D01*
X015470Y026503D01*
X015257Y026411D02*
X014890Y026411D01*
X015257Y026778D01*
X015257Y026870D01*
X015165Y026961D01*
X014982Y026961D01*
X014890Y026870D01*
X014494Y026961D02*
X014494Y026411D01*
X014677Y026411D02*
X014310Y026411D01*
X014097Y026411D02*
X013914Y026594D01*
X014005Y026594D02*
X013730Y026594D01*
X013730Y026411D02*
X013730Y026961D01*
X014005Y026961D01*
X014097Y026870D01*
X014097Y026686D01*
X014005Y026594D01*
X014310Y026778D02*
X014494Y026961D01*
X015470Y026870D02*
X015562Y026961D01*
X015745Y026961D01*
X015837Y026870D01*
X015837Y026778D01*
X015745Y026686D01*
X015837Y026594D01*
X015837Y026503D01*
X015745Y026686D02*
X015654Y026686D01*
X016050Y026686D02*
X016417Y026686D01*
X013517Y026503D02*
X013425Y026411D01*
X013242Y026411D01*
X013150Y026503D01*
X013150Y026870D01*
X013242Y026961D01*
X013425Y026961D01*
X013517Y026870D01*
X003571Y018490D02*
X003177Y018490D01*
X003374Y018097D01*
X003571Y018097D01*
X003374Y018097D02*
X003177Y018097D01*
X003374Y018097D02*
X003571Y018490D01*
D11*
X033098Y008841D03*
D12*
X036366Y013841D02*
X039516Y013841D01*
X040303Y013841D02*
X040776Y013841D01*
X040776Y016637D01*
X040303Y016637D01*
X039516Y016637D02*
X039122Y016637D01*
X038335Y016637D02*
X037547Y016637D01*
X036760Y016637D02*
X036366Y016637D01*
X036366Y014944D01*
X036366Y014156D02*
X036366Y013841D01*
X038917Y017424D02*
X024917Y017424D01*
X024917Y029924D01*
X038917Y029924D01*
X038917Y017424D01*
X021591Y006086D02*
X021591Y000475D01*
X019327Y000475D01*
X018933Y000869D01*
X015291Y000869D01*
X015291Y006086D01*
X021591Y006086D01*
X007964Y012705D02*
X007964Y013128D01*
X007682Y013128D02*
X007682Y012705D01*
X007823Y012846D01*
X007964Y012705D01*
X007529Y012775D02*
X007529Y013057D01*
X007459Y013128D01*
X007318Y013128D01*
X007247Y013057D01*
X007247Y012775D01*
X007318Y012705D01*
X007459Y012705D01*
X007529Y012775D01*
X007094Y012916D02*
X007024Y012846D01*
X006812Y012846D01*
X006812Y012705D02*
X006812Y013128D01*
X007024Y013128D01*
X007094Y013057D01*
X007094Y012916D01*
X006224Y012846D02*
X006224Y012775D01*
X006154Y012705D01*
X005942Y012705D01*
X005942Y013128D01*
X006154Y013128D01*
X006224Y013057D01*
X006224Y012987D01*
X006154Y012916D01*
X005942Y012916D01*
X005789Y012846D02*
X005789Y012775D01*
X005719Y012705D01*
X005578Y012705D01*
X005507Y012775D01*
X005354Y012775D02*
X005354Y013128D01*
X005507Y013057D02*
X005507Y012987D01*
X005578Y012916D01*
X005719Y012916D01*
X005789Y012846D01*
X005789Y013057D02*
X005719Y013128D01*
X005578Y013128D01*
X005507Y013057D01*
X005354Y012775D02*
X005284Y012705D01*
X005143Y012705D01*
X005072Y012775D01*
X005072Y013128D01*
X005072Y013788D02*
X005284Y013788D01*
X005354Y013858D01*
X005354Y013929D01*
X005284Y013999D01*
X005072Y013999D01*
X005072Y013788D02*
X005072Y014210D01*
X005284Y014210D01*
X005354Y014140D01*
X005354Y014070D01*
X005284Y013999D01*
X005507Y013999D02*
X005789Y013999D01*
X005789Y014070D02*
X005789Y013788D01*
X005789Y014070D02*
X005648Y014210D01*
X005507Y014070D01*
X005507Y013788D01*
X005942Y014210D02*
X006224Y014210D01*
X006083Y014210D02*
X006083Y013788D01*
X006812Y013788D02*
X006812Y014210D01*
X007024Y014210D01*
X007094Y014140D01*
X007094Y013999D01*
X007024Y013929D01*
X006812Y013929D01*
X007247Y013858D02*
X007247Y014140D01*
X007318Y014210D01*
X007459Y014210D01*
X007529Y014140D01*
X007529Y013858D01*
X007459Y013788D01*
X007318Y013788D01*
X007247Y013858D01*
X007682Y013788D02*
X007682Y014210D01*
X007964Y014210D02*
X007964Y013788D01*
X007823Y013929D01*
X007682Y013788D01*
X006224Y012846D02*
X006154Y012916D01*
X004752Y019724D02*
X004752Y020099D01*
X004725Y020101D01*
X004699Y020107D01*
X004674Y020116D01*
X004650Y020129D01*
X004629Y020145D01*
X004610Y020164D01*
X004594Y020185D01*
X004581Y020209D01*
X004572Y020234D01*
X004566Y020260D01*
X004564Y020287D01*
X004566Y020314D01*
X004572Y020340D01*
X004581Y020365D01*
X004594Y020389D01*
X004610Y020410D01*
X004629Y020429D01*
X004650Y020445D01*
X004674Y020458D01*
X004699Y020467D01*
X004725Y020473D01*
X004752Y020475D01*
X004752Y020474D02*
X004725Y020476D01*
X004699Y020482D01*
X004674Y020491D01*
X004650Y020504D01*
X004629Y020520D01*
X004610Y020539D01*
X004594Y020560D01*
X004581Y020584D01*
X004572Y020609D01*
X004566Y020635D01*
X004564Y020662D01*
X004566Y020689D01*
X004572Y020715D01*
X004581Y020740D01*
X004594Y020764D01*
X004610Y020785D01*
X004629Y020804D01*
X004650Y020820D01*
X004674Y020833D01*
X004699Y020842D01*
X004725Y020848D01*
X004752Y020850D01*
X004752Y020849D02*
X004725Y020851D01*
X004699Y020857D01*
X004674Y020866D01*
X004650Y020879D01*
X004629Y020895D01*
X004610Y020914D01*
X004594Y020935D01*
X004581Y020959D01*
X004572Y020984D01*
X004566Y021010D01*
X004564Y021037D01*
X004566Y021064D01*
X004572Y021090D01*
X004581Y021115D01*
X004594Y021139D01*
X004610Y021160D01*
X004629Y021179D01*
X004650Y021195D01*
X004674Y021208D01*
X004699Y021217D01*
X004725Y021223D01*
X004752Y021225D01*
X004752Y021224D02*
X004725Y021226D01*
X004699Y021232D01*
X004674Y021241D01*
X004650Y021254D01*
X004629Y021270D01*
X004610Y021289D01*
X004594Y021310D01*
X004581Y021334D01*
X004572Y021359D01*
X004566Y021385D01*
X004564Y021412D01*
X004566Y021439D01*
X004572Y021465D01*
X004581Y021490D01*
X004594Y021514D01*
X004610Y021535D01*
X004629Y021554D01*
X004650Y021570D01*
X004674Y021583D01*
X004699Y021592D01*
X004725Y021598D01*
X004752Y021600D01*
X004752Y021599D02*
X004752Y021849D01*
X003610Y025180D02*
X003138Y025180D01*
X002862Y025377D02*
X002862Y025889D01*
X002390Y025889D01*
X002272Y026007D01*
X002272Y026361D01*
X002390Y026479D01*
X002862Y026479D01*
X002862Y025889D01*
X002862Y026479D02*
X002862Y027739D01*
X003138Y027936D02*
X003610Y027936D01*
X003886Y027739D02*
X003886Y027621D01*
X003886Y027267D02*
X003886Y026440D01*
X003886Y026086D02*
X003886Y025849D01*
X003886Y025495D02*
X003886Y025377D01*
D13*
X003217Y022227D02*
X006012Y022227D01*
X006287Y021952D01*
X006287Y019471D01*
X003492Y019471D01*
X003217Y019747D01*
X003217Y022227D01*
X005972Y019196D02*
X006681Y019196D01*
X006681Y017778D01*
X005972Y017778D01*
X005972Y019196D01*
X005256Y019047D02*
X004641Y019047D01*
X004641Y017927D01*
X005256Y017927D01*
X005256Y019047D01*
X006957Y019196D02*
X006957Y017778D01*
X007665Y017778D01*
X007665Y019196D01*
X006957Y019196D01*
X006681Y017227D02*
X005972Y017227D01*
X005972Y015810D01*
X006681Y015810D01*
X006681Y017227D01*
X008480Y016132D02*
X008480Y021432D01*
X022480Y021432D01*
X022480Y019182D01*
X022441Y019180D01*
X022402Y019174D01*
X022364Y019165D01*
X022327Y019152D01*
X022291Y019135D01*
X022258Y019115D01*
X022226Y019091D01*
X022197Y019065D01*
X022171Y019036D01*
X022147Y019004D01*
X022127Y018971D01*
X022110Y018935D01*
X022097Y018898D01*
X022088Y018860D01*
X022082Y018821D01*
X022080Y018782D01*
X022082Y018743D01*
X022088Y018704D01*
X022097Y018666D01*
X022110Y018629D01*
X022127Y018593D01*
X022147Y018560D01*
X022171Y018528D01*
X022197Y018499D01*
X022226Y018473D01*
X022258Y018449D01*
X022291Y018429D01*
X022327Y018412D01*
X022364Y018399D01*
X022402Y018390D01*
X022441Y018384D01*
X022480Y018382D01*
X022480Y016132D01*
X008480Y016132D01*
X008492Y015097D02*
X008492Y014997D01*
X007783Y015101D02*
X009201Y015101D01*
X009201Y014393D01*
X007783Y014393D01*
X007783Y015101D01*
X007134Y014786D02*
X007134Y015495D01*
X005717Y015495D01*
X005717Y014786D01*
X007134Y014786D01*
X006425Y014791D02*
X006425Y014891D01*
X006425Y015391D02*
X006425Y015491D01*
X008492Y014497D02*
X008492Y014397D01*
X011130Y013920D02*
X011130Y013211D01*
X012547Y013211D01*
X012547Y013920D01*
X011130Y013920D01*
X006878Y011322D02*
X006169Y011322D01*
X006169Y009904D01*
X006878Y009904D01*
X006878Y011322D01*
X012272Y010436D02*
X012272Y009019D01*
X012980Y009019D01*
X012980Y010436D01*
X012272Y010436D01*
X015067Y008802D02*
X016484Y008802D01*
X016484Y008093D01*
X015067Y008093D01*
X015067Y008802D01*
X017488Y008625D02*
X018197Y008625D01*
X018197Y010042D01*
X017488Y010042D01*
X017488Y008625D01*
X020087Y008507D02*
X020087Y007798D01*
X021504Y007798D01*
X021504Y008507D01*
X020087Y008507D01*
X020087Y007621D02*
X021504Y007621D01*
X021504Y006912D01*
X020087Y006912D01*
X020087Y007621D01*
X022449Y007897D02*
X022449Y008605D01*
X023866Y008605D01*
X023866Y007897D01*
X022449Y007897D01*
X022449Y008782D02*
X022449Y009491D01*
X023866Y009491D01*
X023866Y008782D01*
X022449Y008782D01*
X022449Y009668D02*
X022449Y010377D01*
X023866Y010377D01*
X023866Y009668D01*
X022449Y009668D01*
X021445Y009609D02*
X020736Y009609D01*
X020736Y011026D01*
X021445Y011026D01*
X021445Y009609D01*
X022449Y010554D02*
X022449Y011263D01*
X023866Y011263D01*
X023866Y010554D01*
X022449Y010554D01*
X022449Y011440D02*
X022449Y012149D01*
X023866Y012149D01*
X023866Y011440D01*
X022449Y011440D01*
X021445Y011282D02*
X020736Y011282D01*
X020736Y012700D01*
X021445Y012700D01*
X021445Y011282D01*
X022449Y012326D02*
X022449Y013034D01*
X023866Y013034D01*
X023866Y012326D01*
X022449Y012326D01*
X022449Y013211D02*
X022449Y013920D01*
X023866Y013920D01*
X023866Y013211D01*
X022449Y013211D01*
X025657Y013881D02*
X025657Y012463D01*
X026366Y012463D01*
X026366Y013881D01*
X025657Y013881D01*
X025657Y014137D02*
X026366Y014137D01*
X026366Y015554D01*
X025657Y015554D01*
X025657Y014137D01*
X027030Y014611D02*
X027030Y013111D01*
X028930Y013111D01*
X028930Y014611D01*
X027030Y014611D01*
X027114Y015967D02*
X025697Y015967D01*
X025697Y016676D01*
X027114Y016676D01*
X027114Y015967D01*
X027370Y015967D02*
X027370Y016676D01*
X028787Y016676D01*
X028787Y015967D01*
X027370Y015967D01*
X026405Y015972D02*
X026405Y016072D01*
X026405Y016572D02*
X026405Y016672D01*
X024004Y016007D02*
X023295Y016007D01*
X023295Y017424D01*
X024004Y017424D01*
X024004Y016007D01*
X024004Y017582D02*
X023295Y017582D01*
X023295Y018999D01*
X024004Y018999D01*
X024004Y017582D01*
X023945Y019334D02*
X023354Y019334D01*
X023354Y020593D01*
X023945Y020593D01*
X023945Y019334D01*
X023945Y021105D02*
X023354Y021105D01*
X023354Y022365D01*
X023945Y022365D01*
X023945Y021105D01*
X018945Y014806D02*
X017528Y014806D01*
X017528Y014097D01*
X018945Y014097D01*
X018945Y014806D01*
X022475Y003221D02*
X022400Y003146D01*
X022400Y003071D01*
X022475Y002995D01*
X022626Y002995D01*
X022702Y002920D01*
X022702Y002844D01*
X022626Y002769D01*
X022475Y002769D01*
X022400Y002844D01*
X022702Y003146D02*
X022626Y003221D01*
X022475Y003221D01*
X022871Y003071D02*
X022947Y003071D01*
X023022Y002995D01*
X023097Y003071D01*
X023173Y002995D01*
X023173Y002769D01*
X023022Y002769D02*
X023022Y002995D01*
X022871Y003071D02*
X022871Y002769D01*
X023343Y002844D02*
X023418Y002920D01*
X023644Y002920D01*
X023644Y002995D02*
X023644Y002769D01*
X023418Y002769D01*
X023343Y002844D01*
X023418Y003071D02*
X023569Y003071D01*
X023644Y002995D01*
X023814Y002769D02*
X023965Y002769D01*
X023889Y002769D02*
X023889Y003221D01*
X023814Y003221D01*
X024128Y003221D02*
X024203Y003221D01*
X024203Y002769D01*
X024128Y002769D02*
X024279Y002769D01*
X024442Y002769D02*
X024442Y003221D01*
X024668Y003221D01*
X024744Y003146D01*
X024744Y002995D01*
X024668Y002920D01*
X024442Y002920D01*
X024593Y002920D02*
X024744Y002769D01*
X024913Y002844D02*
X024989Y002769D01*
X025140Y002769D01*
X025215Y002844D01*
X025215Y002995D01*
X025140Y003071D01*
X024989Y003071D01*
X024913Y002995D01*
X024913Y002844D01*
X025385Y002844D02*
X025385Y002995D01*
X025460Y003071D01*
X025611Y003071D01*
X025686Y002995D01*
X025686Y002844D01*
X025611Y002769D01*
X025460Y002769D01*
X025385Y002844D01*
X025856Y002769D02*
X025856Y003071D01*
X025931Y003071D01*
X026007Y002995D01*
X026082Y003071D01*
X026157Y002995D01*
X026157Y002769D01*
X026007Y002769D02*
X026007Y002995D01*
X026327Y002769D02*
X026629Y002769D01*
X026799Y002844D02*
X026874Y002920D01*
X027100Y002920D01*
X027100Y002995D02*
X027100Y002769D01*
X026874Y002769D01*
X026799Y002844D01*
X026874Y003071D02*
X027025Y003071D01*
X027100Y002995D01*
X027270Y003071D02*
X027496Y003071D01*
X027571Y002995D01*
X027571Y002844D01*
X027496Y002769D01*
X027270Y002769D01*
X027270Y003221D01*
X027741Y002995D02*
X027816Y003071D01*
X028043Y003071D01*
X027967Y002920D02*
X027816Y002920D01*
X027741Y002995D01*
X027741Y002769D02*
X027967Y002769D01*
X028043Y002844D01*
X027967Y002920D01*
X028212Y002844D02*
X028288Y002844D01*
X028288Y002769D01*
X028212Y002769D01*
X028212Y002844D01*
X028448Y002844D02*
X028523Y002769D01*
X028749Y002769D01*
X028919Y002844D02*
X028995Y002769D01*
X029145Y002769D01*
X029221Y002844D01*
X029221Y002995D01*
X029145Y003071D01*
X028995Y003071D01*
X028919Y002995D01*
X028919Y002844D01*
X028749Y003071D02*
X028523Y003071D01*
X028448Y002995D01*
X028448Y002844D01*
X029391Y002769D02*
X029391Y003071D01*
X029466Y003071D01*
X029541Y002995D01*
X029617Y003071D01*
X029692Y002995D01*
X029692Y002769D01*
X029541Y002769D02*
X029541Y002995D01*
X026327Y003221D02*
X026327Y002769D01*
X040264Y017444D02*
X040264Y018152D01*
X041681Y018152D01*
X041681Y017444D01*
X040264Y017444D01*
X039806Y017523D02*
X039806Y017605D01*
X040134Y017933D01*
X040134Y018015D01*
X039806Y018015D01*
X039888Y018409D02*
X040052Y018409D01*
X040134Y018491D01*
X040134Y018573D01*
X040052Y018655D01*
X039806Y018655D01*
X039806Y018491D01*
X039888Y018409D01*
X039806Y018655D02*
X039970Y018818D01*
X040134Y018900D01*
X040264Y019038D02*
X040264Y018330D01*
X041681Y018330D01*
X041681Y019038D01*
X040264Y019038D01*
X040264Y019215D02*
X040264Y019924D01*
X041681Y019924D01*
X041681Y019215D01*
X040264Y019215D01*
X040134Y019377D02*
X040134Y019540D01*
X040052Y019622D01*
X039970Y019622D01*
X039806Y019540D01*
X039806Y019786D01*
X040134Y019786D01*
X040264Y020101D02*
X040264Y020810D01*
X041681Y020810D01*
X041681Y020101D01*
X040264Y020101D01*
X040052Y020180D02*
X040052Y020672D01*
X039806Y020426D01*
X040134Y020426D01*
X040264Y020987D02*
X040264Y021696D01*
X041681Y021696D01*
X041681Y020987D01*
X040264Y020987D01*
X040134Y021148D02*
X040052Y021066D01*
X039888Y021066D01*
X039806Y021148D01*
X039970Y021312D02*
X040052Y021312D01*
X040134Y021230D01*
X040134Y021148D01*
X040052Y021312D02*
X040134Y021394D01*
X040134Y021476D01*
X040052Y021558D01*
X039888Y021558D01*
X039806Y021476D01*
X039806Y021952D02*
X040134Y022280D01*
X040134Y022362D01*
X040052Y022444D01*
X039888Y022444D01*
X039806Y022362D01*
X039806Y022838D02*
X040134Y022838D01*
X040264Y022759D02*
X040264Y023467D01*
X041681Y023467D01*
X041681Y022759D01*
X040264Y022759D01*
X040264Y022582D02*
X040264Y021873D01*
X041681Y021873D01*
X041681Y022582D01*
X040264Y022582D01*
X039970Y022838D02*
X039970Y023330D01*
X039806Y023166D01*
X039888Y023724D02*
X039806Y023806D01*
X040134Y024133D01*
X040134Y023806D01*
X040052Y023724D01*
X039888Y023724D01*
X039806Y023806D02*
X039806Y024133D01*
X039888Y024215D01*
X040052Y024215D01*
X040134Y024133D01*
X040264Y024353D02*
X040264Y023645D01*
X041681Y023645D01*
X041681Y024353D01*
X040264Y024353D01*
X040067Y025416D02*
X040067Y026125D01*
X041484Y026125D01*
X041484Y025416D01*
X040067Y025416D01*
X040067Y026302D02*
X040067Y027011D01*
X041484Y027011D01*
X041484Y026302D01*
X040067Y026302D01*
X040067Y027188D02*
X040067Y027897D01*
X041484Y027897D01*
X041484Y027188D01*
X040067Y027188D01*
X040134Y021952D02*
X039806Y021952D01*
X039806Y019377D02*
X039888Y019295D01*
X040052Y019295D01*
X040134Y019377D01*
D14*
X002587Y030101D02*
X002587Y001755D01*
X003531Y001755D02*
X003533Y001805D01*
X003539Y001855D01*
X003549Y001904D01*
X003563Y001952D01*
X003580Y001999D01*
X003601Y002044D01*
X003626Y002088D01*
X003654Y002129D01*
X003686Y002168D01*
X003720Y002205D01*
X003757Y002239D01*
X003797Y002269D01*
X003839Y002296D01*
X003883Y002320D01*
X003929Y002341D01*
X003976Y002357D01*
X004024Y002370D01*
X004074Y002379D01*
X004123Y002384D01*
X004174Y002385D01*
X004224Y002382D01*
X004273Y002375D01*
X004322Y002364D01*
X004370Y002349D01*
X004416Y002331D01*
X004461Y002309D01*
X004504Y002283D01*
X004545Y002254D01*
X004584Y002222D01*
X004620Y002187D01*
X004652Y002149D01*
X004682Y002109D01*
X004709Y002066D01*
X004732Y002022D01*
X004751Y001976D01*
X004767Y001928D01*
X004779Y001879D01*
X004787Y001830D01*
X004791Y001780D01*
X004791Y001730D01*
X004787Y001680D01*
X004779Y001631D01*
X004767Y001582D01*
X004751Y001534D01*
X004732Y001488D01*
X004709Y001444D01*
X004682Y001401D01*
X004652Y001361D01*
X004620Y001323D01*
X004584Y001288D01*
X004545Y001256D01*
X004504Y001227D01*
X004461Y001201D01*
X004416Y001179D01*
X004370Y001161D01*
X004322Y001146D01*
X004273Y001135D01*
X004224Y001128D01*
X004174Y001125D01*
X004123Y001126D01*
X004074Y001131D01*
X004024Y001140D01*
X003976Y001153D01*
X003929Y001169D01*
X003883Y001190D01*
X003839Y001214D01*
X003797Y001241D01*
X003757Y001271D01*
X003720Y001305D01*
X003686Y001342D01*
X003654Y001381D01*
X003626Y001422D01*
X003601Y001466D01*
X003580Y001511D01*
X003563Y001558D01*
X003549Y001606D01*
X003539Y001655D01*
X003533Y001705D01*
X003531Y001755D01*
X002586Y001755D02*
X002588Y001678D01*
X002594Y001601D01*
X002603Y001524D01*
X002616Y001448D01*
X002633Y001372D01*
X002654Y001298D01*
X002678Y001224D01*
X002706Y001152D01*
X002737Y001082D01*
X002772Y001013D01*
X002810Y000945D01*
X002851Y000880D01*
X002896Y000817D01*
X002944Y000756D01*
X002994Y000697D01*
X003047Y000641D01*
X003103Y000588D01*
X003162Y000538D01*
X003223Y000490D01*
X003286Y000445D01*
X003351Y000404D01*
X003419Y000366D01*
X003488Y000331D01*
X003558Y000300D01*
X003630Y000272D01*
X003704Y000248D01*
X003778Y000227D01*
X003854Y000210D01*
X003930Y000197D01*
X004007Y000188D01*
X004084Y000182D01*
X004161Y000180D01*
X040382Y000180D01*
X039752Y001755D02*
X039754Y001805D01*
X039760Y001855D01*
X039770Y001904D01*
X039784Y001952D01*
X039801Y001999D01*
X039822Y002044D01*
X039847Y002088D01*
X039875Y002129D01*
X039907Y002168D01*
X039941Y002205D01*
X039978Y002239D01*
X040018Y002269D01*
X040060Y002296D01*
X040104Y002320D01*
X040150Y002341D01*
X040197Y002357D01*
X040245Y002370D01*
X040295Y002379D01*
X040344Y002384D01*
X040395Y002385D01*
X040445Y002382D01*
X040494Y002375D01*
X040543Y002364D01*
X040591Y002349D01*
X040637Y002331D01*
X040682Y002309D01*
X040725Y002283D01*
X040766Y002254D01*
X040805Y002222D01*
X040841Y002187D01*
X040873Y002149D01*
X040903Y002109D01*
X040930Y002066D01*
X040953Y002022D01*
X040972Y001976D01*
X040988Y001928D01*
X041000Y001879D01*
X041008Y001830D01*
X041012Y001780D01*
X041012Y001730D01*
X041008Y001680D01*
X041000Y001631D01*
X040988Y001582D01*
X040972Y001534D01*
X040953Y001488D01*
X040930Y001444D01*
X040903Y001401D01*
X040873Y001361D01*
X040841Y001323D01*
X040805Y001288D01*
X040766Y001256D01*
X040725Y001227D01*
X040682Y001201D01*
X040637Y001179D01*
X040591Y001161D01*
X040543Y001146D01*
X040494Y001135D01*
X040445Y001128D01*
X040395Y001125D01*
X040344Y001126D01*
X040295Y001131D01*
X040245Y001140D01*
X040197Y001153D01*
X040150Y001169D01*
X040104Y001190D01*
X040060Y001214D01*
X040018Y001241D01*
X039978Y001271D01*
X039941Y001305D01*
X039907Y001342D01*
X039875Y001381D01*
X039847Y001422D01*
X039822Y001466D01*
X039801Y001511D01*
X039784Y001558D01*
X039770Y001606D01*
X039760Y001655D01*
X039754Y001705D01*
X039752Y001755D01*
X040382Y000180D02*
X040459Y000182D01*
X040536Y000188D01*
X040613Y000197D01*
X040689Y000210D01*
X040765Y000227D01*
X040839Y000248D01*
X040913Y000272D01*
X040985Y000300D01*
X041055Y000331D01*
X041124Y000366D01*
X041192Y000404D01*
X041257Y000445D01*
X041320Y000490D01*
X041381Y000538D01*
X041440Y000588D01*
X041496Y000641D01*
X041549Y000697D01*
X041599Y000756D01*
X041647Y000817D01*
X041692Y000880D01*
X041733Y000945D01*
X041771Y001013D01*
X041806Y001082D01*
X041837Y001152D01*
X041865Y001224D01*
X041889Y001298D01*
X041910Y001372D01*
X041927Y001448D01*
X041940Y001524D01*
X041949Y001601D01*
X041955Y001678D01*
X041957Y001755D01*
X041957Y030101D01*
X039752Y030101D02*
X039754Y030151D01*
X039760Y030201D01*
X039770Y030250D01*
X039784Y030298D01*
X039801Y030345D01*
X039822Y030390D01*
X039847Y030434D01*
X039875Y030475D01*
X039907Y030514D01*
X039941Y030551D01*
X039978Y030585D01*
X040018Y030615D01*
X040060Y030642D01*
X040104Y030666D01*
X040150Y030687D01*
X040197Y030703D01*
X040245Y030716D01*
X040295Y030725D01*
X040344Y030730D01*
X040395Y030731D01*
X040445Y030728D01*
X040494Y030721D01*
X040543Y030710D01*
X040591Y030695D01*
X040637Y030677D01*
X040682Y030655D01*
X040725Y030629D01*
X040766Y030600D01*
X040805Y030568D01*
X040841Y030533D01*
X040873Y030495D01*
X040903Y030455D01*
X040930Y030412D01*
X040953Y030368D01*
X040972Y030322D01*
X040988Y030274D01*
X041000Y030225D01*
X041008Y030176D01*
X041012Y030126D01*
X041012Y030076D01*
X041008Y030026D01*
X041000Y029977D01*
X040988Y029928D01*
X040972Y029880D01*
X040953Y029834D01*
X040930Y029790D01*
X040903Y029747D01*
X040873Y029707D01*
X040841Y029669D01*
X040805Y029634D01*
X040766Y029602D01*
X040725Y029573D01*
X040682Y029547D01*
X040637Y029525D01*
X040591Y029507D01*
X040543Y029492D01*
X040494Y029481D01*
X040445Y029474D01*
X040395Y029471D01*
X040344Y029472D01*
X040295Y029477D01*
X040245Y029486D01*
X040197Y029499D01*
X040150Y029515D01*
X040104Y029536D01*
X040060Y029560D01*
X040018Y029587D01*
X039978Y029617D01*
X039941Y029651D01*
X039907Y029688D01*
X039875Y029727D01*
X039847Y029768D01*
X039822Y029812D01*
X039801Y029857D01*
X039784Y029904D01*
X039770Y029952D01*
X039760Y030001D01*
X039754Y030051D01*
X039752Y030101D01*
X040382Y031676D02*
X040459Y031674D01*
X040536Y031668D01*
X040613Y031659D01*
X040689Y031646D01*
X040765Y031629D01*
X040839Y031608D01*
X040913Y031584D01*
X040985Y031556D01*
X041055Y031525D01*
X041124Y031490D01*
X041192Y031452D01*
X041257Y031411D01*
X041320Y031366D01*
X041381Y031318D01*
X041440Y031268D01*
X041496Y031215D01*
X041549Y031159D01*
X041599Y031100D01*
X041647Y031039D01*
X041692Y030976D01*
X041733Y030911D01*
X041771Y030843D01*
X041806Y030774D01*
X041837Y030704D01*
X041865Y030632D01*
X041889Y030558D01*
X041910Y030484D01*
X041927Y030408D01*
X041940Y030332D01*
X041949Y030255D01*
X041955Y030178D01*
X041957Y030101D01*
X040382Y031676D02*
X004161Y031676D01*
X003531Y030101D02*
X003533Y030151D01*
X003539Y030201D01*
X003549Y030250D01*
X003563Y030298D01*
X003580Y030345D01*
X003601Y030390D01*
X003626Y030434D01*
X003654Y030475D01*
X003686Y030514D01*
X003720Y030551D01*
X003757Y030585D01*
X003797Y030615D01*
X003839Y030642D01*
X003883Y030666D01*
X003929Y030687D01*
X003976Y030703D01*
X004024Y030716D01*
X004074Y030725D01*
X004123Y030730D01*
X004174Y030731D01*
X004224Y030728D01*
X004273Y030721D01*
X004322Y030710D01*
X004370Y030695D01*
X004416Y030677D01*
X004461Y030655D01*
X004504Y030629D01*
X004545Y030600D01*
X004584Y030568D01*
X004620Y030533D01*
X004652Y030495D01*
X004682Y030455D01*
X004709Y030412D01*
X004732Y030368D01*
X004751Y030322D01*
X004767Y030274D01*
X004779Y030225D01*
X004787Y030176D01*
X004791Y030126D01*
X004791Y030076D01*
X004787Y030026D01*
X004779Y029977D01*
X004767Y029928D01*
X004751Y029880D01*
X004732Y029834D01*
X004709Y029790D01*
X004682Y029747D01*
X004652Y029707D01*
X004620Y029669D01*
X004584Y029634D01*
X004545Y029602D01*
X004504Y029573D01*
X004461Y029547D01*
X004416Y029525D01*
X004370Y029507D01*
X004322Y029492D01*
X004273Y029481D01*
X004224Y029474D01*
X004174Y029471D01*
X004123Y029472D01*
X004074Y029477D01*
X004024Y029486D01*
X003976Y029499D01*
X003929Y029515D01*
X003883Y029536D01*
X003839Y029560D01*
X003797Y029587D01*
X003757Y029617D01*
X003720Y029651D01*
X003686Y029688D01*
X003654Y029727D01*
X003626Y029768D01*
X003601Y029812D01*
X003580Y029857D01*
X003563Y029904D01*
X003549Y029952D01*
X003539Y030001D01*
X003533Y030051D01*
X003531Y030101D01*
X002586Y030101D02*
X002588Y030178D01*
X002594Y030255D01*
X002603Y030332D01*
X002616Y030408D01*
X002633Y030484D01*
X002654Y030558D01*
X002678Y030632D01*
X002706Y030704D01*
X002737Y030774D01*
X002772Y030843D01*
X002810Y030911D01*
X002851Y030976D01*
X002896Y031039D01*
X002944Y031100D01*
X002994Y031159D01*
X003047Y031215D01*
X003103Y031268D01*
X003162Y031318D01*
X003223Y031366D01*
X003286Y031411D01*
X003351Y031452D01*
X003419Y031490D01*
X003488Y031525D01*
X003558Y031556D01*
X003630Y031584D01*
X003704Y031608D01*
X003778Y031629D01*
X003854Y031646D01*
X003930Y031659D01*
X004007Y031668D01*
X004084Y031674D01*
X004161Y031676D01*
X006929Y029758D02*
X006931Y029791D01*
X006937Y029823D01*
X006946Y029854D01*
X006959Y029884D01*
X006976Y029912D01*
X006996Y029938D01*
X007019Y029962D01*
X007044Y029982D01*
X007072Y030000D01*
X007101Y030014D01*
X007132Y030024D01*
X007164Y030031D01*
X007197Y030034D01*
X007230Y030033D01*
X007262Y030028D01*
X007293Y030019D01*
X007324Y030007D01*
X007352Y029991D01*
X007379Y029972D01*
X007403Y029950D01*
X007424Y029925D01*
X007443Y029898D01*
X007458Y029869D01*
X007469Y029839D01*
X007477Y029807D01*
X007481Y029774D01*
X007481Y029742D01*
X007477Y029709D01*
X007469Y029677D01*
X007458Y029647D01*
X007443Y029618D01*
X007424Y029591D01*
X007403Y029566D01*
X007379Y029544D01*
X007352Y029525D01*
X007324Y029509D01*
X007293Y029497D01*
X007262Y029488D01*
X007230Y029483D01*
X007197Y029482D01*
X007164Y029485D01*
X007132Y029492D01*
X007101Y029502D01*
X007072Y029516D01*
X007044Y029534D01*
X007019Y029554D01*
X006996Y029578D01*
X006976Y029604D01*
X006959Y029632D01*
X006946Y029662D01*
X006937Y029693D01*
X006931Y029725D01*
X006929Y029758D01*
X003236Y027149D02*
X003238Y027172D01*
X003244Y027195D01*
X003254Y027216D01*
X003267Y027236D01*
X003283Y027253D01*
X003302Y027267D01*
X003323Y027277D01*
X003345Y027284D01*
X003368Y027287D01*
X003392Y027286D01*
X003414Y027281D01*
X003436Y027272D01*
X003456Y027260D01*
X003474Y027244D01*
X003488Y027226D01*
X003500Y027206D01*
X003508Y027184D01*
X003512Y027161D01*
X003512Y027137D01*
X003508Y027114D01*
X003500Y027092D01*
X003488Y027072D01*
X003474Y027054D01*
X003456Y027038D01*
X003436Y027026D01*
X003414Y027017D01*
X003392Y027012D01*
X003368Y027011D01*
X003345Y027014D01*
X003323Y027021D01*
X003302Y027031D01*
X003283Y027045D01*
X003267Y027062D01*
X003254Y027082D01*
X003244Y027103D01*
X003238Y027126D01*
X003236Y027149D01*
X003236Y025967D02*
X003238Y025990D01*
X003244Y026013D01*
X003254Y026034D01*
X003267Y026054D01*
X003283Y026071D01*
X003302Y026085D01*
X003323Y026095D01*
X003345Y026102D01*
X003368Y026105D01*
X003392Y026104D01*
X003414Y026099D01*
X003436Y026090D01*
X003456Y026078D01*
X003474Y026062D01*
X003488Y026044D01*
X003500Y026024D01*
X003508Y026002D01*
X003512Y025979D01*
X003512Y025955D01*
X003508Y025932D01*
X003500Y025910D01*
X003488Y025890D01*
X003474Y025872D01*
X003456Y025856D01*
X003436Y025844D01*
X003414Y025835D01*
X003392Y025830D01*
X003368Y025829D01*
X003345Y025832D01*
X003323Y025839D01*
X003302Y025849D01*
X003283Y025863D01*
X003267Y025880D01*
X003254Y025900D01*
X003244Y025921D01*
X003238Y025944D01*
X003236Y025967D01*
X003807Y006086D02*
X003809Y006105D01*
X003814Y006124D01*
X003824Y006140D01*
X003836Y006155D01*
X003851Y006167D01*
X003867Y006177D01*
X003886Y006182D01*
X003905Y006184D01*
X003924Y006182D01*
X003943Y006177D01*
X003959Y006167D01*
X003974Y006155D01*
X003986Y006140D01*
X003996Y006124D01*
X004001Y006105D01*
X004003Y006086D01*
X004001Y006067D01*
X003996Y006048D01*
X003986Y006032D01*
X003974Y006017D01*
X003959Y006005D01*
X003943Y005995D01*
X003924Y005990D01*
X003905Y005988D01*
X003886Y005990D01*
X003867Y005995D01*
X003851Y006005D01*
X003836Y006017D01*
X003824Y006032D01*
X003814Y006048D01*
X003809Y006067D01*
X003807Y006086D01*
X003807Y004511D02*
X003809Y004530D01*
X003814Y004549D01*
X003824Y004565D01*
X003836Y004580D01*
X003851Y004592D01*
X003867Y004602D01*
X003886Y004607D01*
X003905Y004609D01*
X003924Y004607D01*
X003943Y004602D01*
X003959Y004592D01*
X003974Y004580D01*
X003986Y004565D01*
X003996Y004549D01*
X004001Y004530D01*
X004003Y004511D01*
X004001Y004492D01*
X003996Y004473D01*
X003986Y004457D01*
X003974Y004442D01*
X003959Y004430D01*
X003943Y004420D01*
X003924Y004415D01*
X003905Y004413D01*
X003886Y004415D01*
X003867Y004420D01*
X003851Y004430D01*
X003836Y004442D01*
X003824Y004457D01*
X003814Y004473D01*
X003809Y004492D01*
X003807Y004511D01*
X016295Y001834D02*
X016297Y001861D01*
X016303Y001888D01*
X016312Y001914D01*
X016325Y001938D01*
X016341Y001961D01*
X016360Y001980D01*
X016382Y001997D01*
X016406Y002011D01*
X016431Y002021D01*
X016458Y002028D01*
X016485Y002031D01*
X016513Y002030D01*
X016540Y002025D01*
X016566Y002017D01*
X016590Y002005D01*
X016613Y001989D01*
X016634Y001971D01*
X016651Y001950D01*
X016666Y001926D01*
X016677Y001901D01*
X016685Y001875D01*
X016689Y001848D01*
X016689Y001820D01*
X016685Y001793D01*
X016677Y001767D01*
X016666Y001742D01*
X016651Y001718D01*
X016634Y001697D01*
X016613Y001679D01*
X016591Y001663D01*
X016566Y001651D01*
X016540Y001643D01*
X016513Y001638D01*
X016485Y001637D01*
X016458Y001640D01*
X016431Y001647D01*
X016406Y001657D01*
X016382Y001671D01*
X016360Y001688D01*
X016341Y001707D01*
X016325Y001730D01*
X016312Y001754D01*
X016303Y001780D01*
X016297Y001807D01*
X016295Y001834D01*
X019445Y001834D02*
X019447Y001861D01*
X019453Y001888D01*
X019462Y001914D01*
X019475Y001938D01*
X019491Y001961D01*
X019510Y001980D01*
X019532Y001997D01*
X019556Y002011D01*
X019581Y002021D01*
X019608Y002028D01*
X019635Y002031D01*
X019663Y002030D01*
X019690Y002025D01*
X019716Y002017D01*
X019740Y002005D01*
X019763Y001989D01*
X019784Y001971D01*
X019801Y001950D01*
X019816Y001926D01*
X019827Y001901D01*
X019835Y001875D01*
X019839Y001848D01*
X019839Y001820D01*
X019835Y001793D01*
X019827Y001767D01*
X019816Y001742D01*
X019801Y001718D01*
X019784Y001697D01*
X019763Y001679D01*
X019741Y001663D01*
X019716Y001651D01*
X019690Y001643D01*
X019663Y001638D01*
X019635Y001637D01*
X019608Y001640D01*
X019581Y001647D01*
X019556Y001657D01*
X019532Y001671D01*
X019510Y001688D01*
X019491Y001707D01*
X019475Y001730D01*
X019462Y001754D01*
X019453Y001780D01*
X019447Y001807D01*
X019445Y001834D01*
X036425Y015416D02*
X036427Y015445D01*
X036433Y015473D01*
X036442Y015501D01*
X036455Y015527D01*
X036472Y015550D01*
X036491Y015572D01*
X036513Y015591D01*
X036538Y015606D01*
X036564Y015619D01*
X036592Y015627D01*
X036620Y015632D01*
X036649Y015633D01*
X036678Y015630D01*
X036706Y015623D01*
X036733Y015613D01*
X036759Y015599D01*
X036782Y015582D01*
X036803Y015562D01*
X036821Y015539D01*
X036836Y015514D01*
X036847Y015487D01*
X036855Y015459D01*
X036859Y015430D01*
X036859Y015402D01*
X036855Y015373D01*
X036847Y015345D01*
X036836Y015318D01*
X036821Y015293D01*
X036803Y015270D01*
X036782Y015250D01*
X036759Y015233D01*
X036733Y015219D01*
X036706Y015209D01*
X036678Y015202D01*
X036649Y015199D01*
X036620Y015200D01*
X036592Y015205D01*
X036564Y015213D01*
X036538Y015226D01*
X036513Y015241D01*
X036491Y015260D01*
X036472Y015282D01*
X036455Y015305D01*
X036442Y015331D01*
X036433Y015359D01*
X036427Y015387D01*
X036425Y015416D01*
X039181Y015416D02*
X039183Y015445D01*
X039189Y015473D01*
X039198Y015501D01*
X039211Y015527D01*
X039228Y015550D01*
X039247Y015572D01*
X039269Y015591D01*
X039294Y015606D01*
X039320Y015619D01*
X039348Y015627D01*
X039376Y015632D01*
X039405Y015633D01*
X039434Y015630D01*
X039462Y015623D01*
X039489Y015613D01*
X039515Y015599D01*
X039538Y015582D01*
X039559Y015562D01*
X039577Y015539D01*
X039592Y015514D01*
X039603Y015487D01*
X039611Y015459D01*
X039615Y015430D01*
X039615Y015402D01*
X039611Y015373D01*
X039603Y015345D01*
X039592Y015318D01*
X039577Y015293D01*
X039559Y015270D01*
X039538Y015250D01*
X039515Y015233D01*
X039489Y015219D01*
X039462Y015209D01*
X039434Y015202D01*
X039405Y015199D01*
X039376Y015200D01*
X039348Y015205D01*
X039320Y015213D01*
X039294Y015226D01*
X039269Y015241D01*
X039247Y015260D01*
X039228Y015282D01*
X039211Y015305D01*
X039198Y015331D01*
X039189Y015359D01*
X039183Y015387D01*
X039181Y015416D01*
D15*
X026767Y029319D02*
X026493Y029319D01*
X026630Y029319D02*
X026630Y029730D01*
X026493Y029593D01*
X026306Y029661D02*
X026238Y029730D01*
X026033Y029730D01*
X026033Y029319D01*
X026238Y029319D01*
X026306Y029388D01*
X026306Y029661D01*
X025846Y029661D02*
X025777Y029730D01*
X025641Y029730D01*
X025572Y029661D01*
X025572Y029388D01*
X025641Y029319D01*
X025777Y029319D01*
X025846Y029388D01*
X025385Y029319D02*
X025112Y029319D01*
X025112Y029730D01*
D16*
X022953Y030101D02*
X022953Y023015D01*
X006417Y023015D01*
X006417Y030101D01*
X022953Y030101D01*
D17*
X021772Y028920D02*
X008386Y028920D01*
X008386Y027345D01*
X007598Y027345D01*
X007598Y025771D01*
X008386Y025771D01*
X008386Y024196D01*
X021772Y024196D01*
X021772Y028920D01*
D18*
X021378Y026558D02*
X019803Y026558D01*
X009961Y026558D02*
X008386Y026558D01*
X009173Y027345D02*
X009173Y025771D01*
D19*
X011995Y026702D02*
X012440Y026702D01*
X012218Y026925D02*
X012218Y026479D01*
X016995Y026702D02*
X017440Y026702D01*
D20*
X031209Y016125D02*
X031211Y016146D01*
X031217Y016166D01*
X031226Y016186D01*
X031238Y016203D01*
X031253Y016217D01*
X031271Y016229D01*
X031291Y016237D01*
X031311Y016242D01*
X031332Y016243D01*
X031353Y016240D01*
X031373Y016234D01*
X031392Y016223D01*
X031409Y016210D01*
X031422Y016194D01*
X031433Y016176D01*
X031441Y016156D01*
X031445Y016136D01*
X031445Y016114D01*
X031441Y016094D01*
X031433Y016074D01*
X031422Y016056D01*
X031409Y016040D01*
X031392Y016027D01*
X031373Y016016D01*
X031353Y016010D01*
X031332Y016007D01*
X031311Y016008D01*
X031291Y016013D01*
X031271Y016021D01*
X031253Y016033D01*
X031238Y016047D01*
X031226Y016064D01*
X031217Y016084D01*
X031211Y016104D01*
X031209Y016125D01*
X034752Y016125D02*
X034754Y016146D01*
X034760Y016166D01*
X034769Y016186D01*
X034781Y016203D01*
X034796Y016217D01*
X034814Y016229D01*
X034834Y016237D01*
X034854Y016242D01*
X034875Y016243D01*
X034896Y016240D01*
X034916Y016234D01*
X034935Y016223D01*
X034952Y016210D01*
X034965Y016194D01*
X034976Y016176D01*
X034984Y016156D01*
X034988Y016136D01*
X034988Y016114D01*
X034984Y016094D01*
X034976Y016074D01*
X034965Y016056D01*
X034952Y016040D01*
X034935Y016027D01*
X034916Y016016D01*
X034896Y016010D01*
X034875Y016007D01*
X034854Y016008D01*
X034834Y016013D01*
X034814Y016021D01*
X034796Y016033D01*
X034781Y016047D01*
X034769Y016064D01*
X034760Y016084D01*
X034754Y016104D01*
X034752Y016125D01*
X034752Y012582D02*
X034754Y012603D01*
X034760Y012623D01*
X034769Y012643D01*
X034781Y012660D01*
X034796Y012674D01*
X034814Y012686D01*
X034834Y012694D01*
X034854Y012699D01*
X034875Y012700D01*
X034896Y012697D01*
X034916Y012691D01*
X034935Y012680D01*
X034952Y012667D01*
X034965Y012651D01*
X034976Y012633D01*
X034984Y012613D01*
X034988Y012593D01*
X034988Y012571D01*
X034984Y012551D01*
X034976Y012531D01*
X034965Y012513D01*
X034952Y012497D01*
X034935Y012484D01*
X034916Y012473D01*
X034896Y012467D01*
X034875Y012464D01*
X034854Y012465D01*
X034834Y012470D01*
X034814Y012478D01*
X034796Y012490D01*
X034781Y012504D01*
X034769Y012521D01*
X034760Y012541D01*
X034754Y012561D01*
X034752Y012582D01*
X034752Y010613D02*
X034754Y010634D01*
X034760Y010654D01*
X034769Y010674D01*
X034781Y010691D01*
X034796Y010705D01*
X034814Y010717D01*
X034834Y010725D01*
X034854Y010730D01*
X034875Y010731D01*
X034896Y010728D01*
X034916Y010722D01*
X034935Y010711D01*
X034952Y010698D01*
X034965Y010682D01*
X034976Y010664D01*
X034984Y010644D01*
X034988Y010624D01*
X034988Y010602D01*
X034984Y010582D01*
X034976Y010562D01*
X034965Y010544D01*
X034952Y010528D01*
X034935Y010515D01*
X034916Y010504D01*
X034896Y010498D01*
X034875Y010495D01*
X034854Y010496D01*
X034834Y010501D01*
X034814Y010509D01*
X034796Y010521D01*
X034781Y010535D01*
X034769Y010552D01*
X034760Y010572D01*
X034754Y010592D01*
X034752Y010613D01*
X036721Y010613D02*
X036723Y010634D01*
X036729Y010654D01*
X036738Y010674D01*
X036750Y010691D01*
X036765Y010705D01*
X036783Y010717D01*
X036803Y010725D01*
X036823Y010730D01*
X036844Y010731D01*
X036865Y010728D01*
X036885Y010722D01*
X036904Y010711D01*
X036921Y010698D01*
X036934Y010682D01*
X036945Y010664D01*
X036953Y010644D01*
X036957Y010624D01*
X036957Y010602D01*
X036953Y010582D01*
X036945Y010562D01*
X036934Y010544D01*
X036921Y010528D01*
X036904Y010515D01*
X036885Y010504D01*
X036865Y010498D01*
X036844Y010495D01*
X036823Y010496D01*
X036803Y010501D01*
X036783Y010509D01*
X036765Y010521D01*
X036750Y010535D01*
X036738Y010552D01*
X036729Y010572D01*
X036723Y010592D01*
X036721Y010613D01*
X040264Y010613D02*
X040266Y010634D01*
X040272Y010654D01*
X040281Y010674D01*
X040293Y010691D01*
X040308Y010705D01*
X040326Y010717D01*
X040346Y010725D01*
X040366Y010730D01*
X040387Y010731D01*
X040408Y010728D01*
X040428Y010722D01*
X040447Y010711D01*
X040464Y010698D01*
X040477Y010682D01*
X040488Y010664D01*
X040496Y010644D01*
X040500Y010624D01*
X040500Y010602D01*
X040496Y010582D01*
X040488Y010562D01*
X040477Y010544D01*
X040464Y010528D01*
X040447Y010515D01*
X040428Y010504D01*
X040408Y010498D01*
X040387Y010495D01*
X040366Y010496D01*
X040346Y010501D01*
X040326Y010509D01*
X040308Y010521D01*
X040293Y010535D01*
X040281Y010552D01*
X040272Y010572D01*
X040266Y010592D01*
X040264Y010613D01*
X040264Y007070D02*
X040266Y007091D01*
X040272Y007111D01*
X040281Y007131D01*
X040293Y007148D01*
X040308Y007162D01*
X040326Y007174D01*
X040346Y007182D01*
X040366Y007187D01*
X040387Y007188D01*
X040408Y007185D01*
X040428Y007179D01*
X040447Y007168D01*
X040464Y007155D01*
X040477Y007139D01*
X040488Y007121D01*
X040496Y007101D01*
X040500Y007081D01*
X040500Y007059D01*
X040496Y007039D01*
X040488Y007019D01*
X040477Y007001D01*
X040464Y006985D01*
X040447Y006972D01*
X040428Y006961D01*
X040408Y006955D01*
X040387Y006952D01*
X040366Y006953D01*
X040346Y006958D01*
X040326Y006966D01*
X040308Y006978D01*
X040293Y006992D01*
X040281Y007009D01*
X040272Y007029D01*
X040266Y007049D01*
X040264Y007070D01*
X036721Y007070D02*
X036723Y007091D01*
X036729Y007111D01*
X036738Y007131D01*
X036750Y007148D01*
X036765Y007162D01*
X036783Y007174D01*
X036803Y007182D01*
X036823Y007187D01*
X036844Y007188D01*
X036865Y007185D01*
X036885Y007179D01*
X036904Y007168D01*
X036921Y007155D01*
X036934Y007139D01*
X036945Y007121D01*
X036953Y007101D01*
X036957Y007081D01*
X036957Y007059D01*
X036953Y007039D01*
X036945Y007019D01*
X036934Y007001D01*
X036921Y006985D01*
X036904Y006972D01*
X036885Y006961D01*
X036865Y006955D01*
X036844Y006952D01*
X036823Y006953D01*
X036803Y006958D01*
X036783Y006966D01*
X036765Y006978D01*
X036750Y006992D01*
X036738Y007009D01*
X036729Y007029D01*
X036723Y007049D01*
X036721Y007070D01*
X034752Y007070D02*
X034754Y007091D01*
X034760Y007111D01*
X034769Y007131D01*
X034781Y007148D01*
X034796Y007162D01*
X034814Y007174D01*
X034834Y007182D01*
X034854Y007187D01*
X034875Y007188D01*
X034896Y007185D01*
X034916Y007179D01*
X034935Y007168D01*
X034952Y007155D01*
X034965Y007139D01*
X034976Y007121D01*
X034984Y007101D01*
X034988Y007081D01*
X034988Y007059D01*
X034984Y007039D01*
X034976Y007019D01*
X034965Y007001D01*
X034952Y006985D01*
X034935Y006972D01*
X034916Y006961D01*
X034896Y006955D01*
X034875Y006952D01*
X034854Y006953D01*
X034834Y006958D01*
X034814Y006966D01*
X034796Y006978D01*
X034781Y006992D01*
X034769Y007009D01*
X034760Y007029D01*
X034754Y007049D01*
X034752Y007070D01*
X034752Y005101D02*
X034754Y005122D01*
X034760Y005142D01*
X034769Y005162D01*
X034781Y005179D01*
X034796Y005193D01*
X034814Y005205D01*
X034834Y005213D01*
X034854Y005218D01*
X034875Y005219D01*
X034896Y005216D01*
X034916Y005210D01*
X034935Y005199D01*
X034952Y005186D01*
X034965Y005170D01*
X034976Y005152D01*
X034984Y005132D01*
X034988Y005112D01*
X034988Y005090D01*
X034984Y005070D01*
X034976Y005050D01*
X034965Y005032D01*
X034952Y005016D01*
X034935Y005003D01*
X034916Y004992D01*
X034896Y004986D01*
X034875Y004983D01*
X034854Y004984D01*
X034834Y004989D01*
X034814Y004997D01*
X034796Y005009D01*
X034781Y005023D01*
X034769Y005040D01*
X034760Y005060D01*
X034754Y005080D01*
X034752Y005101D01*
X031209Y005101D02*
X031211Y005122D01*
X031217Y005142D01*
X031226Y005162D01*
X031238Y005179D01*
X031253Y005193D01*
X031271Y005205D01*
X031291Y005213D01*
X031311Y005218D01*
X031332Y005219D01*
X031353Y005216D01*
X031373Y005210D01*
X031392Y005199D01*
X031409Y005186D01*
X031422Y005170D01*
X031433Y005152D01*
X031441Y005132D01*
X031445Y005112D01*
X031445Y005090D01*
X031441Y005070D01*
X031433Y005050D01*
X031422Y005032D01*
X031409Y005016D01*
X031392Y005003D01*
X031373Y004992D01*
X031353Y004986D01*
X031332Y004983D01*
X031311Y004984D01*
X031291Y004989D01*
X031271Y004997D01*
X031253Y005009D01*
X031238Y005023D01*
X031226Y005040D01*
X031217Y005060D01*
X031211Y005080D01*
X031209Y005101D01*
X031209Y007070D02*
X031211Y007091D01*
X031217Y007111D01*
X031226Y007131D01*
X031238Y007148D01*
X031253Y007162D01*
X031271Y007174D01*
X031291Y007182D01*
X031311Y007187D01*
X031332Y007188D01*
X031353Y007185D01*
X031373Y007179D01*
X031392Y007168D01*
X031409Y007155D01*
X031422Y007139D01*
X031433Y007121D01*
X031441Y007101D01*
X031445Y007081D01*
X031445Y007059D01*
X031441Y007039D01*
X031433Y007019D01*
X031422Y007001D01*
X031409Y006985D01*
X031392Y006972D01*
X031373Y006961D01*
X031353Y006955D01*
X031332Y006952D01*
X031311Y006953D01*
X031291Y006958D01*
X031271Y006966D01*
X031253Y006978D01*
X031238Y006992D01*
X031226Y007009D01*
X031217Y007029D01*
X031211Y007049D01*
X031209Y007070D01*
X029240Y007070D02*
X029242Y007091D01*
X029248Y007111D01*
X029257Y007131D01*
X029269Y007148D01*
X029284Y007162D01*
X029302Y007174D01*
X029322Y007182D01*
X029342Y007187D01*
X029363Y007188D01*
X029384Y007185D01*
X029404Y007179D01*
X029423Y007168D01*
X029440Y007155D01*
X029453Y007139D01*
X029464Y007121D01*
X029472Y007101D01*
X029476Y007081D01*
X029476Y007059D01*
X029472Y007039D01*
X029464Y007019D01*
X029453Y007001D01*
X029440Y006985D01*
X029423Y006972D01*
X029404Y006961D01*
X029384Y006955D01*
X029363Y006952D01*
X029342Y006953D01*
X029322Y006958D01*
X029302Y006966D01*
X029284Y006978D01*
X029269Y006992D01*
X029257Y007009D01*
X029248Y007029D01*
X029242Y007049D01*
X029240Y007070D01*
X025697Y007070D02*
X025699Y007091D01*
X025705Y007111D01*
X025714Y007131D01*
X025726Y007148D01*
X025741Y007162D01*
X025759Y007174D01*
X025779Y007182D01*
X025799Y007187D01*
X025820Y007188D01*
X025841Y007185D01*
X025861Y007179D01*
X025880Y007168D01*
X025897Y007155D01*
X025910Y007139D01*
X025921Y007121D01*
X025929Y007101D01*
X025933Y007081D01*
X025933Y007059D01*
X025929Y007039D01*
X025921Y007019D01*
X025910Y007001D01*
X025897Y006985D01*
X025880Y006972D01*
X025861Y006961D01*
X025841Y006955D01*
X025820Y006952D01*
X025799Y006953D01*
X025779Y006958D01*
X025759Y006966D01*
X025741Y006978D01*
X025726Y006992D01*
X025714Y007009D01*
X025705Y007029D01*
X025699Y007049D01*
X025697Y007070D01*
X025697Y010613D02*
X025699Y010634D01*
X025705Y010654D01*
X025714Y010674D01*
X025726Y010691D01*
X025741Y010705D01*
X025759Y010717D01*
X025779Y010725D01*
X025799Y010730D01*
X025820Y010731D01*
X025841Y010728D01*
X025861Y010722D01*
X025880Y010711D01*
X025897Y010698D01*
X025910Y010682D01*
X025921Y010664D01*
X025929Y010644D01*
X025933Y010624D01*
X025933Y010602D01*
X025929Y010582D01*
X025921Y010562D01*
X025910Y010544D01*
X025897Y010528D01*
X025880Y010515D01*
X025861Y010504D01*
X025841Y010498D01*
X025820Y010495D01*
X025799Y010496D01*
X025779Y010501D01*
X025759Y010509D01*
X025741Y010521D01*
X025726Y010535D01*
X025714Y010552D01*
X025705Y010572D01*
X025699Y010592D01*
X025697Y010613D01*
X029240Y010613D02*
X029242Y010634D01*
X029248Y010654D01*
X029257Y010674D01*
X029269Y010691D01*
X029284Y010705D01*
X029302Y010717D01*
X029322Y010725D01*
X029342Y010730D01*
X029363Y010731D01*
X029384Y010728D01*
X029404Y010722D01*
X029423Y010711D01*
X029440Y010698D01*
X029453Y010682D01*
X029464Y010664D01*
X029472Y010644D01*
X029476Y010624D01*
X029476Y010602D01*
X029472Y010582D01*
X029464Y010562D01*
X029453Y010544D01*
X029440Y010528D01*
X029423Y010515D01*
X029404Y010504D01*
X029384Y010498D01*
X029363Y010495D01*
X029342Y010496D01*
X029322Y010501D01*
X029302Y010509D01*
X029284Y010521D01*
X029269Y010535D01*
X029257Y010552D01*
X029248Y010572D01*
X029242Y010592D01*
X029240Y010613D01*
X031209Y010613D02*
X031211Y010634D01*
X031217Y010654D01*
X031226Y010674D01*
X031238Y010691D01*
X031253Y010705D01*
X031271Y010717D01*
X031291Y010725D01*
X031311Y010730D01*
X031332Y010731D01*
X031353Y010728D01*
X031373Y010722D01*
X031392Y010711D01*
X031409Y010698D01*
X031422Y010682D01*
X031433Y010664D01*
X031441Y010644D01*
X031445Y010624D01*
X031445Y010602D01*
X031441Y010582D01*
X031433Y010562D01*
X031422Y010544D01*
X031409Y010528D01*
X031392Y010515D01*
X031373Y010504D01*
X031353Y010498D01*
X031332Y010495D01*
X031311Y010496D01*
X031291Y010501D01*
X031271Y010509D01*
X031253Y010521D01*
X031238Y010535D01*
X031226Y010552D01*
X031217Y010572D01*
X031211Y010592D01*
X031209Y010613D01*
X031209Y012582D02*
X031211Y012603D01*
X031217Y012623D01*
X031226Y012643D01*
X031238Y012660D01*
X031253Y012674D01*
X031271Y012686D01*
X031291Y012694D01*
X031311Y012699D01*
X031332Y012700D01*
X031353Y012697D01*
X031373Y012691D01*
X031392Y012680D01*
X031409Y012667D01*
X031422Y012651D01*
X031433Y012633D01*
X031441Y012613D01*
X031445Y012593D01*
X031445Y012571D01*
X031441Y012551D01*
X031433Y012531D01*
X031422Y012513D01*
X031409Y012497D01*
X031392Y012484D01*
X031373Y012473D01*
X031353Y012467D01*
X031332Y012464D01*
X031311Y012465D01*
X031291Y012470D01*
X031271Y012478D01*
X031253Y012490D01*
X031238Y012504D01*
X031226Y012521D01*
X031217Y012541D01*
X031211Y012561D01*
X031209Y012582D01*
X031209Y001558D02*
X031211Y001579D01*
X031217Y001599D01*
X031226Y001619D01*
X031238Y001636D01*
X031253Y001650D01*
X031271Y001662D01*
X031291Y001670D01*
X031311Y001675D01*
X031332Y001676D01*
X031353Y001673D01*
X031373Y001667D01*
X031392Y001656D01*
X031409Y001643D01*
X031422Y001627D01*
X031433Y001609D01*
X031441Y001589D01*
X031445Y001569D01*
X031445Y001547D01*
X031441Y001527D01*
X031433Y001507D01*
X031422Y001489D01*
X031409Y001473D01*
X031392Y001460D01*
X031373Y001449D01*
X031353Y001443D01*
X031332Y001440D01*
X031311Y001441D01*
X031291Y001446D01*
X031271Y001454D01*
X031253Y001466D01*
X031238Y001480D01*
X031226Y001497D01*
X031217Y001517D01*
X031211Y001537D01*
X031209Y001558D01*
X034752Y001558D02*
X034754Y001579D01*
X034760Y001599D01*
X034769Y001619D01*
X034781Y001636D01*
X034796Y001650D01*
X034814Y001662D01*
X034834Y001670D01*
X034854Y001675D01*
X034875Y001676D01*
X034896Y001673D01*
X034916Y001667D01*
X034935Y001656D01*
X034952Y001643D01*
X034965Y001627D01*
X034976Y001609D01*
X034984Y001589D01*
X034988Y001569D01*
X034988Y001547D01*
X034984Y001527D01*
X034976Y001507D01*
X034965Y001489D01*
X034952Y001473D01*
X034935Y001460D01*
X034916Y001449D01*
X034896Y001443D01*
X034875Y001440D01*
X034854Y001441D01*
X034834Y001446D01*
X034814Y001454D01*
X034796Y001466D01*
X034781Y001480D01*
X034769Y001497D01*
X034760Y001517D01*
X034754Y001537D01*
X034752Y001558D01*
D21*
X024981Y008236D02*
X024920Y008175D01*
X024799Y008175D01*
X024738Y008236D01*
X024981Y008478D01*
X024981Y008236D01*
X024981Y008478D02*
X024920Y008539D01*
X024799Y008539D01*
X024738Y008478D01*
X024738Y008236D01*
X024618Y008175D02*
X024375Y008175D01*
X024618Y008418D01*
X024618Y008478D01*
X024557Y008539D01*
X024436Y008539D01*
X024375Y008478D01*
X024256Y008478D02*
X024195Y008539D01*
X024074Y008539D01*
X024013Y008478D01*
X024013Y008236D01*
X024074Y008175D01*
X024195Y008175D01*
X024256Y008236D01*
X024243Y008947D02*
X024122Y009069D01*
X024182Y009069D02*
X024000Y009069D01*
X024000Y008947D02*
X024000Y009311D01*
X024182Y009311D01*
X024243Y009251D01*
X024243Y009129D01*
X024182Y009069D01*
X024363Y009190D02*
X024484Y009311D01*
X024484Y008947D01*
X024363Y008947D02*
X024606Y008947D01*
X024725Y009008D02*
X024968Y009251D01*
X024968Y009008D01*
X024907Y008947D01*
X024786Y008947D01*
X024725Y009008D01*
X024725Y009251D01*
X024786Y009311D01*
X024907Y009311D01*
X024968Y009251D01*
X024981Y009947D02*
X024738Y009947D01*
X024618Y009947D02*
X024375Y009947D01*
X024256Y009947D02*
X024134Y010068D01*
X024195Y010068D02*
X024013Y010068D01*
X024013Y009947D02*
X024013Y010311D01*
X024195Y010311D01*
X024256Y010250D01*
X024256Y010129D01*
X024195Y010068D01*
X024375Y010189D02*
X024497Y010311D01*
X024497Y009947D01*
X024738Y010189D02*
X024859Y010311D01*
X024859Y009947D01*
X024514Y010719D02*
X024392Y010719D01*
X024332Y010780D01*
X024332Y010901D01*
X024514Y010901D01*
X024574Y010840D01*
X024574Y010780D01*
X024514Y010719D01*
X024332Y010901D02*
X024453Y011022D01*
X024574Y011083D01*
X024212Y011022D02*
X024212Y010901D01*
X024151Y010840D01*
X023969Y010840D01*
X023969Y010719D02*
X023969Y011083D01*
X024151Y011083D01*
X024212Y011022D01*
X024090Y010840D02*
X024212Y010719D01*
X024212Y011605D02*
X024090Y011726D01*
X024151Y011726D02*
X023969Y011726D01*
X023969Y011605D02*
X023969Y011969D01*
X024151Y011969D01*
X024212Y011908D01*
X024212Y011787D01*
X024151Y011726D01*
X024332Y011787D02*
X024574Y011787D01*
X024514Y011969D02*
X024332Y011787D01*
X024514Y011605D02*
X024514Y011969D01*
X024514Y012491D02*
X024392Y012491D01*
X024332Y012551D01*
X024212Y012491D02*
X024090Y012612D01*
X024151Y012612D02*
X023969Y012612D01*
X023969Y012491D02*
X023969Y012855D01*
X024151Y012855D01*
X024212Y012794D01*
X024212Y012673D01*
X024151Y012612D01*
X024332Y012794D02*
X024392Y012855D01*
X024514Y012855D01*
X024574Y012794D01*
X024574Y012733D01*
X024514Y012673D01*
X024574Y012612D01*
X024574Y012551D01*
X024514Y012491D01*
X024514Y012673D02*
X024453Y012673D01*
X024392Y013376D02*
X024332Y013437D01*
X024392Y013376D02*
X024514Y013376D01*
X024574Y013437D01*
X024574Y013558D01*
X024514Y013619D01*
X024453Y013619D01*
X024332Y013558D01*
X024332Y013740D01*
X024574Y013740D01*
X024212Y013680D02*
X024212Y013558D01*
X024151Y013498D01*
X023969Y013498D01*
X024090Y013498D02*
X024212Y013376D01*
X023969Y013376D02*
X023969Y013740D01*
X024151Y013740D01*
X024212Y013680D01*
X025232Y014126D02*
X025232Y014308D01*
X025292Y014369D01*
X025414Y014369D01*
X025474Y014308D01*
X025474Y014126D01*
X025474Y014247D02*
X025596Y014369D01*
X025535Y014489D02*
X025596Y014549D01*
X025596Y014671D01*
X025535Y014731D01*
X025292Y014731D01*
X025232Y014671D01*
X025232Y014549D01*
X025292Y014489D01*
X025353Y014489D01*
X025414Y014549D01*
X025414Y014731D01*
X025596Y014126D02*
X025232Y014126D01*
X026501Y013621D02*
X026683Y013439D01*
X026683Y013681D01*
X026865Y013621D02*
X026501Y013621D01*
X026501Y013319D02*
X026805Y013319D01*
X026865Y013258D01*
X026865Y013137D01*
X026805Y013076D01*
X026501Y013076D01*
X025596Y012997D02*
X025596Y012876D01*
X025535Y012815D01*
X025474Y012815D01*
X025414Y012876D01*
X025414Y012997D01*
X025474Y013058D01*
X025535Y013058D01*
X025596Y012997D01*
X025414Y012997D02*
X025353Y013058D01*
X025292Y013058D01*
X025232Y012997D01*
X025232Y012876D01*
X025292Y012815D01*
X025353Y012815D01*
X025414Y012876D01*
X025414Y012695D02*
X025292Y012695D01*
X025232Y012635D01*
X025232Y012453D01*
X025596Y012453D01*
X025474Y012453D02*
X025474Y012635D01*
X025414Y012695D01*
X025474Y012574D02*
X025596Y012695D01*
X023208Y014207D02*
X023147Y014145D01*
X023023Y014145D01*
X022962Y014207D01*
X022962Y014269D01*
X023023Y014331D01*
X023147Y014331D01*
X023208Y014269D01*
X023208Y014207D01*
X023147Y014331D02*
X023208Y014392D01*
X023208Y014454D01*
X023147Y014516D01*
X023023Y014516D01*
X022962Y014454D01*
X022962Y014392D01*
X023023Y014331D01*
X022840Y014145D02*
X022593Y014145D01*
X022717Y014145D02*
X022717Y014516D01*
X022593Y014392D01*
X022472Y014454D02*
X022410Y014516D01*
X022287Y014516D01*
X022225Y014454D01*
X022225Y014207D01*
X022287Y014145D01*
X022410Y014145D01*
X022472Y014207D01*
X021893Y012535D02*
X021954Y012474D01*
X021954Y012353D01*
X021893Y012292D01*
X021954Y012172D02*
X021954Y011929D01*
X021954Y012051D02*
X021590Y012051D01*
X021711Y011929D01*
X021650Y011810D02*
X021590Y011749D01*
X021590Y011628D01*
X021650Y011567D01*
X021893Y011567D01*
X021954Y011628D01*
X021954Y011749D01*
X021893Y011810D01*
X021650Y012292D02*
X021590Y012353D01*
X021590Y012474D01*
X021650Y012535D01*
X021711Y012535D01*
X021772Y012474D01*
X021832Y012535D01*
X021893Y012535D01*
X021772Y012474D02*
X021772Y012413D01*
X021726Y010750D02*
X021666Y010750D01*
X021605Y010690D01*
X021605Y010568D01*
X021666Y010508D01*
X021605Y010267D02*
X021969Y010267D01*
X021969Y010388D02*
X021969Y010145D01*
X021908Y010025D02*
X021969Y009965D01*
X021969Y009843D01*
X021908Y009783D01*
X021666Y009783D01*
X021605Y009843D01*
X021605Y009965D01*
X021666Y010025D01*
X021726Y010145D02*
X021605Y010267D01*
X021969Y010508D02*
X021726Y010750D01*
X021969Y010750D02*
X021969Y010508D01*
X021969Y008880D02*
X021969Y008638D01*
X021969Y008518D02*
X021969Y008275D01*
X021969Y008397D02*
X021605Y008397D01*
X021726Y008275D01*
X021666Y008155D02*
X021605Y008095D01*
X021605Y007973D01*
X021666Y007913D01*
X021908Y007913D01*
X021969Y007973D01*
X021969Y008095D01*
X021908Y008155D01*
X021726Y008638D02*
X021605Y008759D01*
X021969Y008759D01*
X021908Y007502D02*
X021666Y007502D01*
X021908Y007260D01*
X021969Y007320D01*
X021969Y007442D01*
X021908Y007502D01*
X021908Y007260D02*
X021666Y007260D01*
X021605Y007320D01*
X021605Y007442D01*
X021666Y007502D01*
X021969Y007140D02*
X021969Y006897D01*
X021969Y007019D02*
X021605Y007019D01*
X021726Y006897D01*
X021666Y006777D02*
X021605Y006717D01*
X021605Y006595D01*
X021666Y006535D01*
X021908Y006535D01*
X021969Y006595D01*
X021969Y006717D01*
X021908Y006777D01*
X018116Y008160D02*
X018116Y008524D01*
X017934Y008342D01*
X018177Y008342D01*
X017814Y008463D02*
X017754Y008524D01*
X017632Y008524D01*
X017572Y008463D01*
X017572Y008221D01*
X017632Y008160D01*
X017754Y008160D01*
X017814Y008221D01*
X015661Y007888D02*
X015661Y007645D01*
X015601Y007584D01*
X015479Y007584D01*
X015419Y007645D01*
X015299Y007645D02*
X015238Y007584D01*
X015117Y007584D01*
X015056Y007645D01*
X015056Y007888D01*
X015117Y007948D01*
X015238Y007948D01*
X015299Y007888D01*
X015419Y007888D02*
X015419Y007827D01*
X015479Y007766D01*
X015661Y007766D01*
X015661Y007888D02*
X015601Y007948D01*
X015479Y007948D01*
X015419Y007888D01*
X013441Y009694D02*
X013380Y009633D01*
X013077Y009633D01*
X013077Y009876D02*
X013380Y009876D01*
X013441Y009815D01*
X013441Y009694D01*
X013441Y009995D02*
X013198Y010238D01*
X013138Y010238D01*
X013077Y010177D01*
X013077Y010056D01*
X013138Y009995D01*
X013441Y009995D02*
X013441Y010238D01*
X012210Y009370D02*
X012149Y009370D01*
X011906Y009613D01*
X011846Y009613D01*
X011846Y009370D01*
X011906Y009251D02*
X011846Y009190D01*
X011846Y009069D01*
X011906Y009008D01*
X012149Y009008D01*
X012210Y009069D01*
X012210Y009190D01*
X012149Y009251D01*
X006849Y011575D02*
X006788Y011514D01*
X006666Y011514D01*
X006606Y011575D01*
X006606Y011635D01*
X006666Y011696D01*
X006788Y011696D01*
X006849Y011635D01*
X006849Y011575D01*
X006788Y011696D02*
X006849Y011757D01*
X006849Y011817D01*
X006788Y011878D01*
X006666Y011878D01*
X006606Y011817D01*
X006606Y011757D01*
X006666Y011696D01*
X006486Y011817D02*
X006425Y011878D01*
X006304Y011878D01*
X006243Y011817D01*
X006243Y011575D01*
X006304Y011514D01*
X006425Y011514D01*
X006486Y011575D01*
X003563Y009664D02*
X003320Y009664D01*
X003320Y009482D01*
X003442Y009542D01*
X003502Y009542D01*
X003563Y009482D01*
X003563Y009360D01*
X003502Y009300D01*
X003381Y009300D01*
X003320Y009360D01*
X003201Y009360D02*
X003201Y009664D01*
X002958Y009664D02*
X002958Y009360D01*
X003019Y009300D01*
X003140Y009300D01*
X003201Y009360D01*
X003495Y005979D02*
X003433Y005917D01*
X003433Y005794D01*
X003495Y005732D01*
X003619Y005732D01*
X003680Y005794D01*
X003680Y005917D01*
X003619Y005979D01*
X003495Y005979D01*
X003433Y005610D02*
X003433Y005549D01*
X003557Y005425D01*
X003680Y005425D02*
X003433Y005425D01*
X003433Y005304D02*
X003433Y005119D01*
X003495Y005057D01*
X003619Y005057D01*
X003680Y005119D01*
X003680Y005304D01*
X003680Y004935D02*
X003680Y004811D01*
X003680Y004873D02*
X003433Y004873D01*
X003433Y004811D01*
X003495Y004690D02*
X003680Y004690D01*
X003680Y004567D02*
X003495Y004567D01*
X003433Y004628D01*
X003495Y004690D01*
X003495Y004567D02*
X003433Y004505D01*
X003433Y004443D01*
X003680Y004443D01*
X003129Y004782D02*
X003067Y004720D01*
X002759Y004720D01*
X002759Y004967D02*
X003067Y004967D01*
X003129Y004905D01*
X003129Y004782D01*
X003248Y004873D02*
X003310Y004873D01*
X003067Y005088D02*
X003129Y005150D01*
X003129Y005273D01*
X003067Y005335D01*
X003006Y005335D01*
X002944Y005273D01*
X002944Y005150D01*
X002882Y005088D01*
X002820Y005088D01*
X002759Y005150D01*
X002759Y005273D01*
X002820Y005335D01*
X002759Y005457D02*
X002759Y005642D01*
X002820Y005703D01*
X002882Y005703D01*
X002944Y005642D01*
X002944Y005457D01*
X002944Y005642D02*
X003006Y005703D01*
X003067Y005703D01*
X003129Y005642D01*
X003129Y005457D01*
X002759Y005457D01*
X004274Y004441D02*
X004336Y004503D01*
X004398Y004503D01*
X004460Y004441D01*
X004521Y004503D01*
X004583Y004503D01*
X004645Y004441D01*
X004645Y004318D01*
X004583Y004256D01*
X004645Y004134D02*
X004274Y004134D01*
X004336Y004256D02*
X004274Y004318D01*
X004274Y004441D01*
X004460Y004441D02*
X004460Y004379D01*
X004645Y004134D02*
X004274Y003888D01*
X004645Y003888D01*
X004583Y003766D02*
X004645Y003704D01*
X004645Y003581D01*
X004583Y003519D01*
X004336Y003519D01*
X004274Y003581D01*
X004274Y003704D01*
X004336Y003766D01*
X006834Y003738D02*
X007016Y003738D01*
X007077Y003799D01*
X007077Y003860D01*
X007016Y003920D01*
X006834Y003920D01*
X006834Y003738D02*
X006834Y004102D01*
X007016Y004102D01*
X007077Y004042D01*
X007077Y003981D01*
X007016Y003920D01*
X007196Y003799D02*
X007196Y004102D01*
X007439Y004102D02*
X007439Y003799D01*
X007378Y003738D01*
X007257Y003738D01*
X007196Y003799D01*
X007559Y003738D02*
X007802Y003981D01*
X007802Y004042D01*
X007741Y004102D01*
X007620Y004102D01*
X007559Y004042D01*
X007559Y003738D02*
X007802Y003738D01*
X014806Y004102D02*
X014867Y004041D01*
X015109Y004041D01*
X015170Y004102D01*
X015170Y004223D01*
X015109Y004284D01*
X015170Y004404D02*
X014806Y004404D01*
X015170Y004647D01*
X014806Y004647D01*
X014867Y004766D02*
X014806Y004827D01*
X014806Y004948D01*
X014867Y005009D01*
X014927Y005009D01*
X015170Y004766D01*
X015170Y005009D01*
X014867Y004284D02*
X014806Y004223D01*
X014806Y004102D01*
X011664Y013982D02*
X011542Y013982D01*
X011482Y014043D01*
X011482Y014164D01*
X011664Y014164D01*
X011724Y014103D01*
X011724Y014043D01*
X011664Y013982D01*
X011482Y014164D02*
X011603Y014285D01*
X011724Y014346D01*
X011362Y014285D02*
X011301Y014346D01*
X011180Y014346D01*
X011119Y014285D01*
X011119Y014043D01*
X011180Y013982D01*
X011301Y013982D01*
X011362Y014043D01*
X009651Y014520D02*
X009651Y014762D01*
X009651Y014882D02*
X009651Y015125D01*
X009651Y015004D02*
X009287Y015004D01*
X009408Y014882D01*
X009287Y014520D02*
X009651Y014520D01*
X007599Y014870D02*
X007599Y015112D01*
X007417Y015232D02*
X007417Y015475D01*
X007599Y015414D02*
X007235Y015414D01*
X007417Y015232D01*
X007235Y014870D02*
X007599Y014870D01*
X005764Y016821D02*
X005517Y016821D01*
X005456Y016882D01*
X005456Y017006D01*
X005517Y017067D01*
X005517Y017189D02*
X005456Y017251D01*
X005456Y017374D01*
X005517Y017436D01*
X005579Y017436D01*
X005641Y017374D01*
X005702Y017436D01*
X005764Y017436D01*
X005826Y017374D01*
X005826Y017251D01*
X005764Y017189D01*
X005764Y017067D02*
X005826Y017006D01*
X005826Y016882D01*
X005764Y016821D01*
X005641Y017312D02*
X005641Y017374D01*
X006056Y017374D02*
X006056Y017617D01*
X006116Y017677D01*
X006238Y017677D01*
X006298Y017617D01*
X006418Y017617D02*
X006479Y017677D01*
X006600Y017677D01*
X006661Y017617D01*
X006661Y017556D01*
X006418Y017313D01*
X006661Y017313D01*
X006298Y017374D02*
X006238Y017313D01*
X006116Y017313D01*
X006056Y017374D01*
X006432Y019343D02*
X006432Y019525D01*
X006493Y019585D01*
X006614Y019585D01*
X006675Y019525D01*
X006675Y019343D01*
X006675Y019464D02*
X006796Y019585D01*
X006796Y019705D02*
X006796Y019948D01*
X006796Y019826D02*
X006432Y019826D01*
X006554Y019705D01*
X006432Y019343D02*
X006796Y019343D01*
X007417Y019343D02*
X007417Y019525D01*
X007477Y019585D01*
X007599Y019585D01*
X007659Y019525D01*
X007659Y019343D01*
X007659Y019464D02*
X007781Y019585D01*
X007781Y019705D02*
X007538Y019948D01*
X007477Y019948D01*
X007417Y019887D01*
X007417Y019766D01*
X007477Y019705D01*
X007781Y019705D02*
X007781Y019948D01*
X007781Y019343D02*
X007417Y019343D01*
X005963Y022341D02*
X005720Y022341D01*
X005963Y022583D01*
X005963Y022644D01*
X005902Y022705D01*
X005781Y022705D01*
X005720Y022644D01*
X005600Y022341D02*
X005357Y022341D01*
X005357Y022705D01*
X003965Y024703D02*
X003718Y024703D01*
X003841Y024703D02*
X003841Y025073D01*
X003718Y024950D01*
X003596Y025011D02*
X003535Y025073D01*
X003411Y025073D01*
X003350Y025011D01*
X003350Y024765D01*
X003411Y024703D01*
X003535Y024703D01*
X003596Y024765D01*
X002997Y017682D02*
X002754Y017682D01*
X002997Y017440D01*
X003057Y017500D01*
X003057Y017622D01*
X002997Y017682D01*
X002997Y017440D02*
X002754Y017440D01*
X002693Y017500D01*
X002693Y017622D01*
X002754Y017682D01*
X003057Y017320D02*
X003057Y017077D01*
X003057Y017199D02*
X002693Y017199D01*
X002815Y017077D01*
X002754Y016957D02*
X002997Y016957D01*
X003057Y016897D01*
X003057Y016715D01*
X002693Y016715D01*
X002693Y016897D01*
X002754Y016957D01*
X003235Y014811D02*
X003356Y014811D01*
X003295Y014811D02*
X003295Y014508D01*
X003235Y014447D01*
X003174Y014447D01*
X003113Y014508D01*
X003476Y014447D02*
X003719Y014447D01*
X003597Y014447D02*
X003597Y014811D01*
X003476Y014690D01*
X004294Y014508D02*
X004355Y014447D01*
X004416Y014447D01*
X004477Y014508D01*
X004477Y014811D01*
X004537Y014811D02*
X004416Y014811D01*
X004657Y014750D02*
X004718Y014811D01*
X004839Y014811D01*
X004900Y014750D01*
X004900Y014690D01*
X004657Y014447D01*
X004900Y014447D01*
X019048Y014566D02*
X019048Y014323D01*
X019109Y014262D01*
X019230Y014262D01*
X019291Y014323D01*
X019410Y014323D02*
X019471Y014262D01*
X019592Y014262D01*
X019653Y014323D01*
X019653Y014444D01*
X019592Y014505D01*
X019532Y014505D01*
X019410Y014444D01*
X019410Y014626D01*
X019653Y014626D01*
X019291Y014566D02*
X019230Y014626D01*
X019109Y014626D01*
X019048Y014566D01*
X024164Y016536D02*
X024225Y016476D01*
X024467Y016476D01*
X024528Y016536D01*
X024528Y016658D01*
X024467Y016718D01*
X024528Y016838D02*
X024528Y017081D01*
X024528Y016959D02*
X024164Y016959D01*
X024285Y016838D01*
X024225Y016718D02*
X024164Y016658D01*
X024164Y016536D01*
X024346Y017201D02*
X024346Y017383D01*
X024407Y017443D01*
X024467Y017443D01*
X024528Y017383D01*
X024528Y017261D01*
X024467Y017201D01*
X024346Y017201D01*
X024225Y017322D01*
X024164Y017443D01*
X024210Y018063D02*
X024452Y018063D01*
X024513Y018124D01*
X024513Y018245D01*
X024452Y018306D01*
X024513Y018426D02*
X024513Y018668D01*
X024513Y018788D02*
X024452Y018788D01*
X024210Y019031D01*
X024149Y019031D01*
X024149Y018788D01*
X024149Y018547D02*
X024513Y018547D01*
X024270Y018426D02*
X024149Y018547D01*
X024210Y018306D02*
X024149Y018245D01*
X024149Y018124D01*
X024210Y018063D01*
X026135Y017185D02*
X026135Y016821D01*
X026377Y016821D01*
X026497Y016882D02*
X026558Y016821D01*
X026679Y016821D01*
X026740Y016882D01*
X026740Y016943D01*
X026679Y017003D01*
X026618Y017003D01*
X026679Y017003D02*
X026740Y017064D01*
X026740Y017125D01*
X026679Y017185D01*
X026558Y017185D01*
X026497Y017125D01*
X027556Y017140D02*
X027556Y016897D01*
X027617Y016836D01*
X027738Y016836D01*
X027799Y016897D01*
X027919Y016836D02*
X028161Y016836D01*
X028040Y016836D02*
X028040Y017200D01*
X027919Y017079D01*
X027799Y017140D02*
X027738Y017200D01*
X027617Y017200D01*
X027556Y017140D01*
X028281Y017140D02*
X028281Y017079D01*
X028342Y017018D01*
X028524Y017018D01*
X028524Y016897D02*
X028524Y017140D01*
X028463Y017200D01*
X028342Y017200D01*
X028281Y017140D01*
X028281Y016897D02*
X028342Y016836D01*
X028463Y016836D01*
X028524Y016897D01*
X023009Y020733D02*
X023009Y020854D01*
X022948Y020915D01*
X022645Y020915D01*
X022706Y021035D02*
X022645Y021096D01*
X022645Y021217D01*
X022706Y021278D01*
X022766Y021278D01*
X022827Y021217D01*
X022888Y021278D01*
X022948Y021278D01*
X023009Y021217D01*
X023009Y021096D01*
X022948Y021035D01*
X022827Y021156D02*
X022827Y021217D01*
X023009Y020733D02*
X022948Y020672D01*
X022645Y020672D01*
X038961Y025642D02*
X039022Y025581D01*
X039143Y025581D01*
X039204Y025642D01*
X039323Y025581D02*
X039566Y025581D01*
X039445Y025581D02*
X039445Y025945D01*
X039323Y025824D01*
X039204Y025884D02*
X039143Y025945D01*
X039022Y025945D01*
X038961Y025884D01*
X038961Y025642D01*
X039686Y025763D02*
X039929Y025763D01*
X039868Y025581D02*
X039868Y025945D01*
X039686Y025763D01*
X039747Y026467D02*
X039686Y026528D01*
X039747Y026467D02*
X039868Y026467D01*
X039929Y026528D01*
X039929Y026649D01*
X039868Y026710D01*
X039807Y026710D01*
X039686Y026649D01*
X039686Y026831D01*
X039929Y026831D01*
X039445Y026831D02*
X039445Y026467D01*
X039566Y026467D02*
X039323Y026467D01*
X039204Y026528D02*
X039143Y026467D01*
X039022Y026467D01*
X038961Y026528D01*
X038961Y026770D01*
X039022Y026831D01*
X039143Y026831D01*
X039204Y026770D01*
X039323Y026710D02*
X039445Y026831D01*
X039367Y027368D02*
X039367Y027732D01*
X039549Y027732D01*
X039610Y027671D01*
X039610Y027550D01*
X039549Y027489D01*
X039367Y027489D01*
X039489Y027489D02*
X039610Y027368D01*
X039730Y027368D02*
X039730Y027429D01*
X039972Y027671D01*
X039972Y027732D01*
X039730Y027732D01*
D22*
X024712Y022322D02*
X024712Y022086D01*
X024712Y022204D02*
X024358Y022204D01*
X024476Y022086D01*
X024358Y021960D02*
X024712Y021960D01*
X024358Y021724D01*
X024712Y021724D01*
X024712Y021597D02*
X024594Y021479D01*
X024594Y021538D02*
X024594Y021361D01*
X024712Y021361D02*
X024358Y021361D01*
X024358Y021538D01*
X024417Y021597D01*
X024535Y021597D01*
X024594Y021538D01*
X024476Y020448D02*
X024417Y020448D01*
X024358Y020389D01*
X024358Y020270D01*
X024417Y020211D01*
X024358Y020085D02*
X024712Y020085D01*
X024358Y019849D01*
X024712Y019849D01*
X024712Y019722D02*
X024594Y019604D01*
X024594Y019663D02*
X024594Y019486D01*
X024712Y019486D02*
X024358Y019486D01*
X024358Y019663D01*
X024417Y019722D01*
X024535Y019722D01*
X024594Y019663D01*
X024712Y020211D02*
X024476Y020448D01*
X024712Y020448D02*
X024712Y020211D01*
X024535Y015771D02*
X023315Y015771D01*
X023315Y015278D01*
X023315Y014609D02*
X023315Y014117D01*
X024535Y014117D01*
X024968Y014550D01*
X024831Y014589D02*
X024806Y014542D01*
X024778Y014496D01*
X024747Y014453D01*
X024712Y014412D01*
X024675Y014373D01*
X024635Y014337D01*
X024593Y014304D01*
X024549Y014274D01*
X024502Y014247D01*
X024454Y014224D01*
X024405Y014203D01*
X024354Y014187D01*
X024302Y014174D01*
X024249Y014164D01*
X024196Y014159D01*
X024142Y014157D01*
X024088Y014159D01*
X024035Y014164D01*
X023982Y014174D01*
X023930Y014187D01*
X023879Y014203D01*
X023830Y014224D01*
X023782Y014247D01*
X023735Y014274D01*
X023691Y014304D01*
X023649Y014337D01*
X023609Y014373D01*
X023572Y014412D01*
X023537Y014453D01*
X023506Y014496D01*
X023478Y014542D01*
X023453Y014589D01*
X023453Y015299D02*
X023478Y015346D01*
X023506Y015392D01*
X023537Y015435D01*
X023572Y015476D01*
X023609Y015515D01*
X023649Y015551D01*
X023691Y015584D01*
X023735Y015614D01*
X023782Y015641D01*
X023830Y015664D01*
X023879Y015685D01*
X023930Y015701D01*
X023982Y015714D01*
X024035Y015724D01*
X024088Y015729D01*
X024142Y015731D01*
X024196Y015729D01*
X024249Y015724D01*
X024302Y015714D01*
X024354Y015701D01*
X024405Y015685D01*
X024454Y015664D01*
X024502Y015641D01*
X024549Y015614D01*
X024593Y015584D01*
X024635Y015551D01*
X024675Y015515D01*
X024712Y015476D01*
X024747Y015435D01*
X024778Y015392D01*
X024806Y015346D01*
X024831Y015299D01*
X024968Y015337D02*
X024535Y015771D01*
X020571Y013546D02*
X020571Y013192D01*
X020453Y013192D02*
X020689Y013192D01*
X020453Y013428D02*
X020571Y013546D01*
X020326Y013546D02*
X020090Y013192D01*
X020326Y013192D02*
X020090Y013546D01*
X005382Y015298D02*
X003866Y015298D01*
X003335Y015830D01*
X003335Y015948D01*
X003335Y016696D02*
X003335Y016814D01*
X003866Y017345D01*
X005382Y017345D01*
X005382Y016696D01*
X005382Y015948D02*
X005382Y015298D01*
X005264Y015967D02*
X005241Y015909D01*
X005214Y015854D01*
X005183Y015800D01*
X005150Y015748D01*
X005112Y015699D01*
X005072Y015652D01*
X005029Y015607D01*
X004983Y015566D01*
X004935Y015527D01*
X004884Y015492D01*
X004831Y015460D01*
X004777Y015431D01*
X004720Y015406D01*
X004662Y015385D01*
X004603Y015368D01*
X004542Y015354D01*
X004481Y015344D01*
X004420Y015338D01*
X004358Y015336D01*
X004296Y015338D01*
X004235Y015344D01*
X004174Y015354D01*
X004113Y015368D01*
X004054Y015385D01*
X003996Y015406D01*
X003939Y015431D01*
X003885Y015460D01*
X003832Y015492D01*
X003781Y015527D01*
X003733Y015566D01*
X003687Y015607D01*
X003644Y015652D01*
X003604Y015699D01*
X003566Y015748D01*
X003533Y015800D01*
X003502Y015854D01*
X003475Y015909D01*
X003452Y015967D01*
X003452Y016676D02*
X003475Y016734D01*
X003502Y016789D01*
X003533Y016843D01*
X003566Y016895D01*
X003604Y016944D01*
X003644Y016991D01*
X003687Y017036D01*
X003733Y017077D01*
X003781Y017116D01*
X003832Y017151D01*
X003885Y017183D01*
X003939Y017212D01*
X003996Y017237D01*
X004054Y017258D01*
X004113Y017275D01*
X004174Y017289D01*
X004235Y017299D01*
X004296Y017305D01*
X004358Y017307D01*
X004420Y017305D01*
X004481Y017299D01*
X004542Y017289D01*
X004603Y017275D01*
X004662Y017258D01*
X004720Y017237D01*
X004777Y017212D01*
X004831Y017183D01*
X004884Y017151D01*
X004935Y017116D01*
X004983Y017077D01*
X005029Y017036D01*
X005072Y016991D01*
X005112Y016944D01*
X005150Y016895D01*
X005183Y016843D01*
X005214Y016789D01*
X005241Y016734D01*
X005264Y016676D01*
X004170Y017907D02*
X003875Y017907D01*
X003684Y017770D02*
X003064Y017770D01*
X003064Y018810D01*
X003684Y018810D01*
X003684Y017770D01*
X003875Y018143D02*
X004170Y018143D01*
X004229Y018084D01*
X004229Y017966D01*
X004170Y017907D01*
X004229Y018270D02*
X004229Y018506D01*
X004229Y018388D02*
X003875Y018388D01*
X003993Y018270D01*
X003335Y022582D02*
X003335Y023231D01*
X003335Y022582D02*
X004850Y022582D01*
X005382Y023113D01*
X005382Y023231D01*
X005264Y023251D02*
X005241Y023193D01*
X005214Y023138D01*
X005183Y023084D01*
X005150Y023032D01*
X005112Y022983D01*
X005072Y022936D01*
X005029Y022891D01*
X004983Y022850D01*
X004935Y022811D01*
X004884Y022776D01*
X004831Y022744D01*
X004777Y022715D01*
X004720Y022690D01*
X004662Y022669D01*
X004603Y022652D01*
X004542Y022638D01*
X004481Y022628D01*
X004420Y022622D01*
X004358Y022620D01*
X004296Y022622D01*
X004235Y022628D01*
X004174Y022638D01*
X004113Y022652D01*
X004054Y022669D01*
X003996Y022690D01*
X003939Y022715D01*
X003885Y022744D01*
X003832Y022776D01*
X003781Y022811D01*
X003733Y022850D01*
X003687Y022891D01*
X003644Y022936D01*
X003604Y022983D01*
X003566Y023032D01*
X003533Y023084D01*
X003502Y023138D01*
X003475Y023193D01*
X003452Y023251D01*
X003452Y023960D02*
X003475Y024018D01*
X003502Y024073D01*
X003533Y024127D01*
X003566Y024179D01*
X003604Y024228D01*
X003644Y024275D01*
X003687Y024320D01*
X003733Y024361D01*
X003781Y024400D01*
X003832Y024435D01*
X003885Y024467D01*
X003939Y024496D01*
X003996Y024521D01*
X004054Y024542D01*
X004113Y024559D01*
X004174Y024573D01*
X004235Y024583D01*
X004296Y024589D01*
X004358Y024591D01*
X004420Y024589D01*
X004481Y024583D01*
X004542Y024573D01*
X004603Y024559D01*
X004662Y024542D01*
X004720Y024521D01*
X004777Y024496D01*
X004831Y024467D01*
X004884Y024435D01*
X004935Y024400D01*
X004983Y024361D01*
X005029Y024320D01*
X005072Y024275D01*
X005112Y024228D01*
X005150Y024179D01*
X005183Y024127D01*
X005214Y024073D01*
X005241Y024018D01*
X005264Y023960D01*
X005382Y023979D02*
X005382Y024097D01*
X004850Y024629D01*
X003335Y024629D01*
X003335Y023979D01*
D23*
X006327Y016519D03*
X011839Y013566D03*
X006524Y010613D03*
X012626Y009727D03*
X015776Y008448D03*
X017842Y009334D03*
X020795Y008152D03*
X020795Y007267D03*
X023157Y008251D03*
X021091Y010318D03*
X021091Y011991D03*
X018236Y014452D03*
X023650Y016715D03*
X023650Y018290D03*
X028079Y016322D03*
X040776Y025771D03*
X040776Y026656D03*
D24*
X005146Y018034D03*
D25*
X005396Y017784D03*
D26*
X004949Y014334D02*
X004161Y014334D01*
X004161Y012601D01*
X004949Y012601D01*
X004949Y014334D01*
X003768Y014334D02*
X003768Y012601D01*
X002980Y012601D01*
X002980Y014334D01*
X003768Y014334D01*
X006799Y009471D02*
X006799Y004274D01*
X006839Y004274D02*
X011720Y004274D01*
X011720Y009471D01*
X006839Y009471D01*
X008256Y007463D02*
X010303Y007463D01*
X008098Y006873D02*
X008100Y006942D01*
X008106Y007010D01*
X008116Y007078D01*
X008130Y007145D01*
X008148Y007212D01*
X008169Y007277D01*
X008195Y007341D01*
X008224Y007403D01*
X008256Y007463D01*
X008292Y007522D01*
X008332Y007578D01*
X008374Y007632D01*
X008420Y007683D01*
X008469Y007732D01*
X008520Y007778D01*
X008574Y007820D01*
X008630Y007860D01*
X008688Y007896D01*
X008749Y007928D01*
X008811Y007957D01*
X008875Y007983D01*
X008940Y008004D01*
X009007Y008022D01*
X009074Y008036D01*
X009142Y008046D01*
X009210Y008052D01*
X009279Y008054D01*
X009348Y008052D01*
X009416Y008046D01*
X009484Y008036D01*
X009551Y008022D01*
X009618Y008004D01*
X009683Y007983D01*
X009747Y007957D01*
X009809Y007928D01*
X009869Y007896D01*
X009928Y007860D01*
X009984Y007820D01*
X010038Y007778D01*
X010089Y007732D01*
X010138Y007683D01*
X010184Y007632D01*
X010226Y007578D01*
X010266Y007522D01*
X010302Y007463D01*
X010334Y007403D01*
X010363Y007341D01*
X010389Y007277D01*
X010410Y007212D01*
X010428Y007145D01*
X010442Y007078D01*
X010452Y007010D01*
X010458Y006942D01*
X010460Y006873D01*
X010458Y006804D01*
X010452Y006736D01*
X010442Y006668D01*
X010428Y006601D01*
X010410Y006534D01*
X010389Y006469D01*
X010363Y006405D01*
X010334Y006343D01*
X010302Y006282D01*
X010266Y006224D01*
X010226Y006168D01*
X010184Y006114D01*
X010138Y006063D01*
X010089Y006014D01*
X010038Y005968D01*
X009984Y005926D01*
X009928Y005886D01*
X009870Y005850D01*
X009809Y005818D01*
X009747Y005789D01*
X009683Y005763D01*
X009618Y005742D01*
X009551Y005724D01*
X009484Y005710D01*
X009416Y005700D01*
X009348Y005694D01*
X009279Y005692D01*
X009210Y005694D01*
X009142Y005700D01*
X009074Y005710D01*
X009007Y005724D01*
X008940Y005742D01*
X008875Y005763D01*
X008811Y005789D01*
X008749Y005818D01*
X008688Y005850D01*
X008630Y005886D01*
X008574Y005926D01*
X008520Y005968D01*
X008469Y006014D01*
X008420Y006063D01*
X008374Y006114D01*
X008332Y006168D01*
X008292Y006224D01*
X008256Y006282D01*
X008224Y006343D01*
X008195Y006405D01*
X008169Y006469D01*
X008148Y006534D01*
X008130Y006601D01*
X008116Y006668D01*
X008106Y006736D01*
X008100Y006804D01*
X008098Y006873D01*
X004181Y006794D02*
X004181Y005948D01*
X004181Y006794D02*
X003531Y006794D01*
X003531Y007109D01*
X002606Y007109D01*
X002606Y006794D01*
X002488Y006794D01*
X004181Y004668D02*
X004181Y003822D01*
X003512Y003822D01*
X003512Y003487D01*
X002606Y003487D01*
X002606Y003822D01*
X002508Y003822D01*
D27*
X013794Y010416D02*
X013796Y010436D01*
X013801Y010456D01*
X013811Y010474D01*
X013823Y010491D01*
X013838Y010505D01*
X013856Y010515D01*
X013875Y010523D01*
X013895Y010527D01*
X013915Y010527D01*
X013935Y010523D01*
X013954Y010515D01*
X013972Y010505D01*
X013987Y010491D01*
X013999Y010474D01*
X014009Y010456D01*
X014014Y010436D01*
X014016Y010416D01*
X014014Y010396D01*
X014009Y010376D01*
X013999Y010358D01*
X013987Y010341D01*
X013972Y010327D01*
X013954Y010317D01*
X013935Y010309D01*
X013915Y010305D01*
X013895Y010305D01*
X013875Y010309D01*
X013856Y010317D01*
X013838Y010327D01*
X013823Y010341D01*
X013811Y010358D01*
X013801Y010376D01*
X013796Y010396D01*
X013794Y010416D01*
D28*
X023433Y020475D03*
X023433Y022247D03*
D29*
X023650Y021007D03*
X023650Y019235D03*
D30*
X023650Y020751D03*
X023650Y022523D03*
D31*
X023905Y022483D03*
X023394Y022483D03*
X023394Y020711D03*
X023905Y020711D03*
D32*
X027230Y013511D03*
D33*
X026980Y012961D03*
M02*
