G75*
G70*
%OFA0B0*%
%FSLAX24Y24*%
%IPPOS*%
%LPD*%
%AMOC8*
5,1,8,0,0,1.08239X$1,22.5*
%
%ADD10R,0.0748X0.0039*%
%ADD11R,0.1260X0.0039*%
%ADD12R,0.3504X0.0039*%
%ADD13R,0.5669X0.0039*%
%ADD14R,0.3150X0.0039*%
%ADD15R,0.1614X0.0039*%
%ADD16R,0.3740X0.0039*%
%ADD17R,0.1890X0.0039*%
%ADD18R,0.3937X0.0039*%
%ADD19R,0.2126X0.0039*%
%ADD20R,0.4055X0.0039*%
%ADD21R,0.2323X0.0039*%
%ADD22R,0.4173X0.0039*%
%ADD23R,0.2520X0.0039*%
%ADD24R,0.4291X0.0039*%
%ADD25R,0.2677X0.0039*%
%ADD26R,0.4370X0.0039*%
%ADD27R,0.2835X0.0039*%
%ADD28R,0.4449X0.0039*%
%ADD29R,0.2992X0.0039*%
%ADD30R,0.4528X0.0039*%
%ADD31R,0.3110X0.0039*%
%ADD32R,0.4606X0.0039*%
%ADD33R,0.3228X0.0039*%
%ADD34R,0.4685X0.0039*%
%ADD35R,0.3346X0.0039*%
%ADD36R,0.4724X0.0039*%
%ADD37R,0.3465X0.0039*%
%ADD38R,0.4803X0.0039*%
%ADD39R,0.3583X0.0039*%
%ADD40R,0.4843X0.0039*%
%ADD41R,0.3661X0.0039*%
%ADD42R,0.4921X0.0039*%
%ADD43R,0.3780X0.0039*%
%ADD44R,0.4961X0.0039*%
%ADD45R,0.3898X0.0039*%
%ADD46R,0.5000X0.0039*%
%ADD47R,0.3976X0.0039*%
%ADD48R,0.5039X0.0039*%
%ADD49R,0.5118X0.0039*%
%ADD50R,0.1929X0.0039*%
%ADD51R,0.5157X0.0039*%
%ADD52R,0.1850X0.0039*%
%ADD53R,0.1811X0.0039*%
%ADD54R,0.1772X0.0039*%
%ADD55R,0.1969X0.0039*%
%ADD56R,0.2008X0.0039*%
%ADD57R,0.2047X0.0039*%
%ADD58R,0.2087X0.0039*%
%ADD59R,0.3268X0.0039*%
%ADD60R,0.3425X0.0039*%
%ADD61R,0.3543X0.0039*%
%ADD62R,0.3858X0.0039*%
%ADD63R,0.4016X0.0039*%
%ADD64R,0.4094X0.0039*%
%ADD65R,0.4252X0.0039*%
%ADD66R,0.4331X0.0039*%
%ADD67R,0.4409X0.0039*%
%ADD68R,0.4488X0.0039*%
%ADD69R,0.4567X0.0039*%
%ADD70R,0.4646X0.0039*%
%ADD71R,0.4134X0.0039*%
%ADD72R,0.4213X0.0039*%
%ADD73R,0.5079X0.0039*%
%ADD74R,0.2953X0.0039*%
%ADD75C,0.0180*%
%ADD76C,0.0000*%
%ADD77C,0.0040*%
D10*
X006720Y003802D03*
X013059Y003802D03*
X013059Y019038D03*
X006720Y019038D03*
D11*
X006740Y018999D03*
X013079Y018999D03*
X013079Y003841D03*
X006740Y003841D03*
D12*
X020579Y018920D03*
X039201Y018920D03*
X039201Y003881D03*
D13*
X031701Y003881D03*
X031701Y003920D03*
X031701Y003960D03*
X031701Y003999D03*
X031701Y004038D03*
X031701Y004078D03*
X031701Y004117D03*
X031701Y004156D03*
X031701Y004196D03*
X031701Y004235D03*
X031701Y004274D03*
X031701Y004314D03*
X031701Y004353D03*
X031701Y004393D03*
X031701Y004432D03*
X031701Y004471D03*
X031701Y004511D03*
X031701Y004550D03*
X031701Y004589D03*
X031701Y004629D03*
X025598Y004629D03*
X025598Y004589D03*
X025598Y004550D03*
X025598Y004511D03*
X025598Y004471D03*
X025598Y004432D03*
X025598Y004393D03*
X025598Y004353D03*
X025598Y004314D03*
X025598Y004274D03*
X025598Y004235D03*
X025598Y004196D03*
X025598Y004156D03*
X025598Y004117D03*
X025598Y004078D03*
X025598Y004038D03*
X025598Y003999D03*
X025598Y003960D03*
X025598Y003920D03*
X025598Y003881D03*
X025598Y018172D03*
X025598Y018211D03*
X025598Y018251D03*
X025598Y018290D03*
X025598Y018330D03*
X025598Y018369D03*
X025598Y018408D03*
X025598Y018448D03*
X025598Y018487D03*
X025598Y018526D03*
X025598Y018566D03*
X025598Y018605D03*
X025598Y018645D03*
X025598Y018684D03*
X025598Y018723D03*
X025598Y018763D03*
X025598Y018802D03*
X025598Y018841D03*
X025598Y018881D03*
X025598Y018920D03*
X031701Y018920D03*
X031701Y018881D03*
X031701Y018841D03*
X031701Y018802D03*
X031701Y018763D03*
X031701Y018723D03*
X031701Y018684D03*
X031701Y018645D03*
X031701Y018605D03*
X031701Y018566D03*
X031701Y018526D03*
X031701Y018487D03*
X031701Y018448D03*
X031701Y018408D03*
X031701Y018369D03*
X031701Y018330D03*
X031701Y018290D03*
X031701Y018251D03*
X031701Y018211D03*
X031701Y018172D03*
D14*
X020756Y004629D03*
X020756Y004589D03*
X020756Y004550D03*
X020756Y004511D03*
X020756Y004471D03*
X020756Y004432D03*
X020756Y004393D03*
X020756Y004353D03*
X020756Y004314D03*
X020756Y004274D03*
X020756Y004235D03*
X020756Y004196D03*
X020756Y004156D03*
X020756Y004117D03*
X020756Y004078D03*
X020756Y004038D03*
X020756Y003999D03*
X020756Y003960D03*
X020756Y003920D03*
X020756Y003881D03*
D15*
X013059Y003881D03*
X006720Y003881D03*
X006720Y018960D03*
X013059Y018960D03*
D16*
X020461Y018881D03*
X039083Y018881D03*
X039083Y003920D03*
D17*
X036268Y005219D03*
X036268Y005259D03*
X036268Y010889D03*
X036268Y010928D03*
X036307Y010967D03*
X036307Y012660D03*
X036268Y012739D03*
X036268Y012778D03*
X036268Y017542D03*
X036268Y017582D03*
X017646Y017582D03*
X017646Y017542D03*
X014614Y017660D03*
X014614Y017700D03*
X014181Y018251D03*
X013079Y018920D03*
X011504Y017700D03*
X011504Y017660D03*
X008276Y017660D03*
X008276Y017700D03*
X007842Y018251D03*
X006740Y018920D03*
X005165Y017700D03*
X005165Y017660D03*
X017646Y011519D03*
X017646Y011479D03*
X014614Y005180D03*
X014614Y005141D03*
X014181Y004589D03*
X013079Y003920D03*
X011504Y005141D03*
X011504Y005180D03*
X008276Y005180D03*
X008276Y005141D03*
X007842Y004589D03*
X006740Y003920D03*
X005165Y005141D03*
X005165Y005180D03*
D18*
X019850Y010416D03*
X020362Y018841D03*
X038984Y018841D03*
X038984Y003960D03*
D19*
X039378Y004668D03*
X039378Y004708D03*
X039378Y004747D03*
X039378Y004786D03*
X039378Y004826D03*
X039378Y004865D03*
X039378Y004904D03*
X039378Y004944D03*
X039378Y004983D03*
X039378Y005023D03*
X039378Y005062D03*
X039378Y005101D03*
X039378Y005141D03*
X039378Y005180D03*
X039378Y005219D03*
X039378Y005259D03*
X039378Y005298D03*
X039378Y005337D03*
X039378Y005377D03*
X039378Y005416D03*
X039378Y005456D03*
X039378Y005495D03*
X039378Y005534D03*
X039378Y005574D03*
X039378Y005613D03*
X039378Y005652D03*
X039378Y005692D03*
X039378Y005731D03*
X039378Y005771D03*
X039378Y005810D03*
X039378Y005849D03*
X039378Y005889D03*
X039378Y005928D03*
X039378Y005967D03*
X039378Y006007D03*
X039378Y006046D03*
X039378Y006086D03*
X039378Y006125D03*
X039378Y006164D03*
X039378Y006204D03*
X039378Y006243D03*
X039378Y006282D03*
X039378Y006322D03*
X039378Y006361D03*
X039378Y006400D03*
X039378Y006440D03*
X039378Y006479D03*
X039378Y006519D03*
X039378Y006558D03*
X039378Y006597D03*
X039378Y006637D03*
X039378Y006676D03*
X039378Y006715D03*
X039378Y006755D03*
X039378Y006794D03*
X039378Y006834D03*
X039378Y006873D03*
X039378Y006912D03*
X039378Y006952D03*
X039378Y006991D03*
X039378Y007030D03*
X039378Y007070D03*
X039378Y007109D03*
X039378Y007149D03*
X039378Y007188D03*
X039378Y007227D03*
X039378Y007267D03*
X039378Y007306D03*
X039378Y007345D03*
X039378Y007385D03*
X039378Y007424D03*
X039378Y007463D03*
X039378Y007503D03*
X039378Y007542D03*
X039378Y007582D03*
X039378Y007621D03*
X039378Y007660D03*
X039378Y007700D03*
X039378Y007739D03*
X039378Y007778D03*
X039378Y007818D03*
X039378Y007857D03*
X039378Y007897D03*
X039378Y007936D03*
X039378Y007975D03*
X039378Y008015D03*
X039378Y008054D03*
X039378Y008093D03*
X039378Y008133D03*
X039378Y008172D03*
X039378Y008211D03*
X039378Y008251D03*
X039378Y008290D03*
X039378Y008330D03*
X039378Y008369D03*
X039378Y008408D03*
X039378Y008448D03*
X039378Y008487D03*
X039378Y008526D03*
X039378Y008566D03*
X039378Y008605D03*
X039378Y008645D03*
X039378Y008684D03*
X039378Y008723D03*
X039378Y008763D03*
X039378Y008802D03*
X039378Y008841D03*
X039378Y008881D03*
X039378Y008920D03*
X039378Y008960D03*
X039378Y008999D03*
X039378Y009038D03*
X039378Y009078D03*
X039378Y009117D03*
X039378Y009156D03*
X039378Y009196D03*
X039378Y009235D03*
X039378Y009274D03*
X039378Y009314D03*
X039378Y009353D03*
X039378Y009393D03*
X039378Y009432D03*
X039378Y009471D03*
X039378Y009511D03*
X039378Y009550D03*
X039378Y009589D03*
X039378Y009629D03*
X039378Y009668D03*
X039378Y009708D03*
X039378Y009747D03*
X039378Y009786D03*
X039378Y009826D03*
X039378Y009865D03*
X039378Y009904D03*
X039378Y009944D03*
X039378Y009983D03*
X039378Y010023D03*
X039378Y010062D03*
X039378Y010101D03*
X039378Y010141D03*
X039378Y010180D03*
X039378Y010219D03*
X039378Y010259D03*
X039378Y010298D03*
X039378Y010337D03*
X039378Y010377D03*
X039378Y010416D03*
X039378Y010456D03*
X039378Y010495D03*
X039378Y010534D03*
X039378Y010574D03*
X039378Y010613D03*
X039378Y010652D03*
X039378Y010692D03*
X039378Y010731D03*
X039378Y010771D03*
X039378Y010810D03*
X039378Y010849D03*
X039378Y010889D03*
X039378Y010928D03*
X039378Y010967D03*
X039378Y011007D03*
X039378Y011046D03*
X039378Y011086D03*
X039378Y011125D03*
X039378Y011164D03*
X039378Y011204D03*
X039378Y011243D03*
X039378Y011282D03*
X039378Y011322D03*
X039378Y011361D03*
X039378Y011400D03*
X039378Y012227D03*
X039378Y012267D03*
X039378Y012306D03*
X039378Y012345D03*
X039378Y012385D03*
X039378Y012424D03*
X039378Y012463D03*
X039378Y012503D03*
X039378Y012542D03*
X039378Y012582D03*
X039378Y012621D03*
X039378Y012660D03*
X039378Y012700D03*
X039378Y012739D03*
X039378Y012778D03*
X039378Y012818D03*
X039378Y012857D03*
X039378Y012897D03*
X039378Y012936D03*
X039378Y012975D03*
X039378Y013015D03*
X039378Y013054D03*
X039378Y013093D03*
X039378Y013133D03*
X039378Y013172D03*
X039378Y013211D03*
X039378Y013251D03*
X039378Y013290D03*
X039378Y013330D03*
X039378Y013369D03*
X039378Y013408D03*
X039378Y013448D03*
X039378Y013487D03*
X039378Y013526D03*
X039378Y013566D03*
X039378Y013605D03*
X039378Y013645D03*
X039378Y013684D03*
X039378Y013723D03*
X039378Y013763D03*
X039378Y013802D03*
X039378Y013841D03*
X039378Y013881D03*
X039378Y013920D03*
X039378Y013960D03*
X039378Y013999D03*
X039378Y014038D03*
X039378Y014078D03*
X039378Y014117D03*
X039378Y014156D03*
X039378Y014196D03*
X039378Y014235D03*
X039378Y014274D03*
X039378Y014314D03*
X039378Y014353D03*
X039378Y014393D03*
X039378Y014432D03*
X039378Y014471D03*
X039378Y014511D03*
X039378Y014550D03*
X039378Y014589D03*
X039378Y014629D03*
X039378Y014668D03*
X039378Y014708D03*
X039378Y014747D03*
X039378Y014786D03*
X039378Y014826D03*
X039378Y014865D03*
X039378Y014904D03*
X039378Y014944D03*
X039378Y014983D03*
X039378Y015023D03*
X039378Y015062D03*
X039378Y015101D03*
X039378Y015141D03*
X039378Y015180D03*
X039378Y015219D03*
X039378Y015259D03*
X039378Y015298D03*
X039378Y015337D03*
X039378Y015377D03*
X039378Y015416D03*
X039378Y015456D03*
X039378Y015495D03*
X039378Y015534D03*
X039378Y015574D03*
X039378Y015613D03*
X039378Y015652D03*
X039378Y015692D03*
X039378Y015731D03*
X039378Y015771D03*
X039378Y015810D03*
X039378Y015849D03*
X039378Y015889D03*
X039378Y015928D03*
X039378Y015967D03*
X039378Y016007D03*
X039378Y016046D03*
X039378Y016086D03*
X039378Y016125D03*
X039378Y016164D03*
X039378Y016204D03*
X039378Y016243D03*
X039378Y016282D03*
X039378Y016322D03*
X039378Y016361D03*
X039378Y016400D03*
X039378Y016440D03*
X039378Y016479D03*
X039378Y016519D03*
X039378Y016558D03*
X039378Y016597D03*
X039378Y016637D03*
X039378Y016676D03*
X039378Y016715D03*
X039378Y016755D03*
X039378Y016794D03*
X039378Y016834D03*
X039378Y016873D03*
X039378Y016912D03*
X039378Y016952D03*
X039378Y016991D03*
X039378Y017030D03*
X039378Y017070D03*
X039378Y017109D03*
X039378Y017149D03*
X039378Y017188D03*
X039378Y017227D03*
X039378Y017267D03*
X039378Y017306D03*
X039378Y017345D03*
X039378Y017385D03*
X039378Y017424D03*
X039378Y017463D03*
X039378Y017503D03*
X039378Y017542D03*
X039378Y017582D03*
X039378Y017621D03*
X039378Y017660D03*
X039378Y017700D03*
X039378Y017739D03*
X039378Y017778D03*
X039378Y017818D03*
X039378Y017857D03*
X039378Y017897D03*
X039378Y017936D03*
X039378Y017975D03*
X039378Y018015D03*
X039378Y018054D03*
X039378Y018093D03*
X039378Y018133D03*
X036150Y016873D03*
X036150Y016834D03*
X036150Y016794D03*
X036150Y016755D03*
X036150Y016715D03*
X036150Y016676D03*
X036150Y016637D03*
X036150Y016597D03*
X036150Y016558D03*
X036150Y016519D03*
X036150Y016479D03*
X036150Y016440D03*
X036150Y016400D03*
X036150Y016361D03*
X036150Y016322D03*
X036150Y016282D03*
X036150Y016243D03*
X036150Y016204D03*
X036150Y016164D03*
X036150Y016125D03*
X036150Y016086D03*
X036150Y016046D03*
X036150Y016007D03*
X036150Y015967D03*
X036150Y015928D03*
X036150Y015889D03*
X036150Y015849D03*
X036150Y015810D03*
X036150Y015771D03*
X036150Y015731D03*
X036150Y015692D03*
X036150Y015652D03*
X036150Y015613D03*
X036150Y015574D03*
X036150Y015534D03*
X036150Y015495D03*
X036150Y015456D03*
X036150Y015416D03*
X036150Y015377D03*
X036150Y015337D03*
X036150Y015298D03*
X036150Y015259D03*
X036150Y015219D03*
X036150Y015180D03*
X036150Y015141D03*
X036150Y015101D03*
X036150Y015062D03*
X036150Y015023D03*
X036150Y014983D03*
X036150Y014944D03*
X036150Y014904D03*
X036150Y014865D03*
X036150Y014826D03*
X036150Y014786D03*
X036150Y014747D03*
X036150Y014708D03*
X036150Y014668D03*
X036150Y014629D03*
X036150Y014589D03*
X036150Y014550D03*
X036150Y014511D03*
X036150Y014471D03*
X036150Y014432D03*
X036150Y014393D03*
X036150Y014353D03*
X036150Y014314D03*
X036150Y014274D03*
X036150Y014235D03*
X036150Y014196D03*
X036150Y014156D03*
X036150Y014117D03*
X036150Y014078D03*
X036150Y014038D03*
X036150Y013999D03*
X036150Y013960D03*
X036150Y013920D03*
X036150Y013881D03*
X036150Y013841D03*
X036150Y013802D03*
X036150Y013763D03*
X036150Y013723D03*
X036150Y013684D03*
X036150Y013645D03*
X036150Y013605D03*
X036150Y013566D03*
X036150Y013526D03*
X036150Y013487D03*
X036150Y013448D03*
X032961Y013448D03*
X032961Y013487D03*
X032961Y013526D03*
X032961Y013566D03*
X032961Y013605D03*
X032961Y013645D03*
X032961Y013684D03*
X032961Y013723D03*
X032961Y013763D03*
X032961Y013802D03*
X032961Y013841D03*
X032961Y013881D03*
X032961Y013920D03*
X032961Y013960D03*
X032961Y013999D03*
X032961Y014038D03*
X032961Y014078D03*
X032961Y014117D03*
X032961Y014156D03*
X032961Y014196D03*
X032961Y014235D03*
X032961Y014274D03*
X032961Y014314D03*
X032961Y014353D03*
X032961Y014393D03*
X032961Y014432D03*
X032961Y014471D03*
X032961Y014511D03*
X032961Y014550D03*
X032961Y014589D03*
X032961Y014629D03*
X032961Y014668D03*
X032961Y014708D03*
X032961Y014747D03*
X032961Y014786D03*
X032961Y014826D03*
X032961Y014865D03*
X032961Y014904D03*
X032961Y014944D03*
X032961Y014983D03*
X032961Y015023D03*
X032961Y015062D03*
X032961Y015101D03*
X032961Y015141D03*
X032961Y015180D03*
X032961Y015219D03*
X032961Y015259D03*
X032961Y015298D03*
X032961Y015337D03*
X032961Y015377D03*
X032961Y015416D03*
X032961Y015456D03*
X032961Y015495D03*
X032961Y015534D03*
X032961Y015574D03*
X032961Y015613D03*
X032961Y015652D03*
X032961Y015692D03*
X032961Y015731D03*
X032961Y015771D03*
X032961Y015810D03*
X032961Y015849D03*
X032961Y015889D03*
X032961Y015928D03*
X032961Y015967D03*
X032961Y016007D03*
X032961Y016046D03*
X032961Y016086D03*
X032961Y016125D03*
X032961Y016164D03*
X032961Y016204D03*
X032961Y016243D03*
X032961Y016282D03*
X032961Y016322D03*
X032961Y016361D03*
X032961Y016400D03*
X032961Y016440D03*
X032961Y016479D03*
X032961Y016519D03*
X032961Y016558D03*
X032961Y016597D03*
X032961Y016637D03*
X032961Y016676D03*
X032961Y016715D03*
X032961Y016755D03*
X032961Y016794D03*
X032961Y016834D03*
X032961Y016873D03*
X032961Y016912D03*
X032961Y016952D03*
X032961Y016991D03*
X032961Y017030D03*
X032961Y017070D03*
X032961Y017109D03*
X032961Y017149D03*
X032961Y017188D03*
X032961Y017227D03*
X032961Y017267D03*
X032961Y017306D03*
X032961Y017345D03*
X032961Y017385D03*
X032961Y017424D03*
X032961Y017463D03*
X032961Y017503D03*
X032961Y017542D03*
X032961Y017582D03*
X032961Y017621D03*
X032961Y017660D03*
X032961Y017700D03*
X032961Y017739D03*
X032961Y017778D03*
X032961Y017818D03*
X032961Y017857D03*
X032961Y017897D03*
X032961Y017936D03*
X032961Y017975D03*
X032961Y018015D03*
X032961Y018054D03*
X032961Y018093D03*
X032961Y018133D03*
X029929Y018133D03*
X029929Y018093D03*
X029929Y018054D03*
X029929Y018015D03*
X029929Y017975D03*
X029929Y017936D03*
X029929Y017897D03*
X029929Y017857D03*
X029929Y017818D03*
X029929Y017778D03*
X029929Y017739D03*
X029929Y017700D03*
X029929Y017660D03*
X029929Y017621D03*
X029929Y017582D03*
X029929Y017542D03*
X029929Y017503D03*
X029929Y017463D03*
X029929Y017424D03*
X029929Y017385D03*
X029929Y017345D03*
X029929Y017306D03*
X029929Y017267D03*
X029929Y017227D03*
X029929Y017188D03*
X029929Y017149D03*
X029929Y017109D03*
X029929Y017070D03*
X029929Y017030D03*
X029929Y016991D03*
X029929Y016952D03*
X029929Y016912D03*
X029929Y016873D03*
X029929Y016834D03*
X029929Y016794D03*
X029929Y016755D03*
X029929Y016715D03*
X029929Y016676D03*
X029929Y016637D03*
X029929Y016597D03*
X029929Y016558D03*
X029929Y016519D03*
X029929Y016479D03*
X029929Y016440D03*
X029929Y016400D03*
X029929Y016361D03*
X029929Y016322D03*
X029929Y016282D03*
X029929Y016243D03*
X029929Y016204D03*
X029929Y016164D03*
X029929Y016125D03*
X029929Y016086D03*
X029929Y016046D03*
X029929Y016007D03*
X029929Y015967D03*
X029929Y015928D03*
X029929Y015889D03*
X029929Y015849D03*
X029929Y015810D03*
X029929Y015771D03*
X029929Y015731D03*
X029929Y015692D03*
X029929Y015652D03*
X029929Y015613D03*
X029929Y015574D03*
X029929Y015534D03*
X029929Y015495D03*
X029929Y015456D03*
X029929Y015416D03*
X029929Y015377D03*
X029929Y015337D03*
X029929Y015298D03*
X029929Y015259D03*
X029929Y015219D03*
X029929Y015180D03*
X029929Y015141D03*
X029929Y015101D03*
X029929Y015062D03*
X029929Y015023D03*
X029929Y014983D03*
X029929Y014944D03*
X029929Y014904D03*
X029929Y014865D03*
X029929Y014826D03*
X029929Y014786D03*
X029929Y014747D03*
X029929Y014708D03*
X029929Y014668D03*
X029929Y014629D03*
X029929Y014589D03*
X029929Y014550D03*
X029929Y014511D03*
X029929Y014471D03*
X029929Y014432D03*
X029929Y014393D03*
X029929Y014353D03*
X029929Y014314D03*
X029929Y014274D03*
X029929Y014235D03*
X029929Y014196D03*
X029929Y014156D03*
X026858Y014156D03*
X026858Y014117D03*
X026858Y014078D03*
X026858Y014038D03*
X026858Y013999D03*
X026858Y013960D03*
X026858Y013920D03*
X026858Y013881D03*
X026858Y013841D03*
X026858Y013802D03*
X026858Y013763D03*
X026858Y013723D03*
X026858Y013684D03*
X026858Y013645D03*
X026858Y013605D03*
X026858Y013566D03*
X026858Y013526D03*
X026858Y013487D03*
X026858Y013448D03*
X026858Y013408D03*
X026858Y013369D03*
X026858Y013330D03*
X026858Y013290D03*
X026858Y013251D03*
X026858Y013211D03*
X026858Y013172D03*
X026858Y013133D03*
X026858Y013093D03*
X026858Y013054D03*
X026858Y013015D03*
X026858Y012975D03*
X026858Y012936D03*
X026858Y012897D03*
X026858Y012857D03*
X026858Y012818D03*
X026858Y012778D03*
X026858Y012739D03*
X026858Y012700D03*
X026858Y012660D03*
X026858Y012621D03*
X026858Y012582D03*
X026858Y012542D03*
X026858Y012503D03*
X026858Y012463D03*
X026858Y012424D03*
X026858Y012385D03*
X026858Y012345D03*
X026858Y012306D03*
X026858Y012267D03*
X026858Y012227D03*
X026858Y011400D03*
X026858Y011361D03*
X026858Y011322D03*
X026858Y011282D03*
X026858Y011243D03*
X026858Y011204D03*
X026858Y011164D03*
X026858Y011125D03*
X026858Y011086D03*
X026858Y011046D03*
X026858Y011007D03*
X026858Y010967D03*
X026858Y010928D03*
X026858Y010889D03*
X026858Y010849D03*
X026858Y010810D03*
X026858Y010771D03*
X026858Y010731D03*
X026858Y010692D03*
X026858Y010652D03*
X026858Y010613D03*
X026858Y010574D03*
X026858Y010534D03*
X026858Y010495D03*
X026858Y010456D03*
X026858Y010416D03*
X026858Y010377D03*
X026858Y010337D03*
X026858Y010298D03*
X026858Y010259D03*
X026858Y010219D03*
X026858Y010180D03*
X026858Y010141D03*
X026858Y010101D03*
X026858Y010062D03*
X026858Y010023D03*
X026858Y009983D03*
X026858Y009944D03*
X026858Y009904D03*
X026858Y009865D03*
X026858Y009826D03*
X026858Y009786D03*
X026858Y009747D03*
X026858Y009708D03*
X026858Y009668D03*
X026858Y009629D03*
X026858Y009589D03*
X026858Y009550D03*
X026858Y009511D03*
X026858Y009471D03*
X026858Y009432D03*
X026858Y009393D03*
X026858Y009353D03*
X026858Y009314D03*
X026858Y009274D03*
X026858Y009235D03*
X026858Y009196D03*
X026858Y009156D03*
X026858Y009117D03*
X026858Y009078D03*
X026858Y009038D03*
X026858Y008999D03*
X026858Y008960D03*
X026858Y008920D03*
X026858Y008881D03*
X026858Y008841D03*
X026858Y008802D03*
X026858Y008763D03*
X026858Y008723D03*
X026858Y008684D03*
X026858Y008645D03*
X026858Y008605D03*
X026858Y008566D03*
X026858Y008526D03*
X026858Y008487D03*
X026858Y008448D03*
X026858Y008408D03*
X026858Y008369D03*
X026858Y008330D03*
X026858Y008290D03*
X026858Y008251D03*
X026858Y008211D03*
X026858Y008172D03*
X026858Y008133D03*
X026858Y008093D03*
X026858Y008054D03*
X026858Y008015D03*
X026858Y007975D03*
X026858Y007936D03*
X026858Y007897D03*
X026858Y007857D03*
X026858Y007818D03*
X026858Y007778D03*
X026858Y007739D03*
X026858Y007700D03*
X026858Y007660D03*
X026858Y007621D03*
X026858Y007582D03*
X026858Y007542D03*
X026858Y007503D03*
X026858Y007463D03*
X026858Y007424D03*
X026858Y007385D03*
X026858Y007345D03*
X026858Y007306D03*
X026858Y007267D03*
X026858Y007227D03*
X026858Y007188D03*
X026858Y007149D03*
X026858Y007109D03*
X026858Y007070D03*
X026858Y007030D03*
X026858Y006991D03*
X026858Y006952D03*
X026858Y006912D03*
X026858Y006873D03*
X026858Y006834D03*
X026858Y006794D03*
X026858Y006755D03*
X026858Y006715D03*
X026858Y006676D03*
X026858Y006637D03*
X026858Y006597D03*
X026858Y006558D03*
X026858Y006519D03*
X026858Y006479D03*
X026858Y006440D03*
X026858Y006400D03*
X026858Y006361D03*
X026858Y006322D03*
X026858Y006282D03*
X026858Y006243D03*
X026858Y006204D03*
X026858Y006164D03*
X026858Y006125D03*
X026858Y006086D03*
X026858Y006046D03*
X026858Y006007D03*
X026858Y005967D03*
X026858Y005928D03*
X026858Y005889D03*
X026858Y005849D03*
X026858Y005810D03*
X026858Y005771D03*
X026858Y005731D03*
X026858Y005692D03*
X026858Y005652D03*
X026858Y005613D03*
X026858Y005574D03*
X026858Y005534D03*
X026858Y005495D03*
X026858Y005456D03*
X026858Y005416D03*
X026858Y005377D03*
X026858Y005337D03*
X026858Y005298D03*
X026858Y005259D03*
X026858Y005219D03*
X026858Y005180D03*
X026858Y005141D03*
X026858Y005101D03*
X026858Y005062D03*
X026858Y005023D03*
X026858Y004983D03*
X026858Y004944D03*
X026858Y004904D03*
X026858Y004865D03*
X026858Y004826D03*
X026858Y004786D03*
X026858Y004747D03*
X026858Y004708D03*
X026858Y004668D03*
X029929Y004668D03*
X029929Y004708D03*
X029929Y004747D03*
X029929Y004786D03*
X029929Y004826D03*
X029929Y004865D03*
X029929Y004904D03*
X029929Y004944D03*
X029929Y004983D03*
X029929Y005023D03*
X029929Y005062D03*
X029929Y005101D03*
X029929Y005141D03*
X029929Y005180D03*
X029929Y005219D03*
X029929Y005259D03*
X029929Y005298D03*
X029929Y005337D03*
X029929Y005377D03*
X029929Y005416D03*
X029929Y005456D03*
X029929Y005495D03*
X029929Y005534D03*
X029929Y005574D03*
X029929Y005613D03*
X029929Y005652D03*
X029929Y005692D03*
X029929Y005731D03*
X029929Y005771D03*
X029929Y005810D03*
X029929Y005849D03*
X029929Y005889D03*
X029929Y005928D03*
X029929Y005967D03*
X029929Y006007D03*
X029929Y006046D03*
X029929Y006086D03*
X029929Y006125D03*
X029929Y006164D03*
X029929Y006204D03*
X029929Y006243D03*
X029929Y006282D03*
X029929Y006322D03*
X029929Y006361D03*
X029929Y006400D03*
X029929Y006440D03*
X029929Y006479D03*
X029929Y006519D03*
X029929Y006558D03*
X029929Y006597D03*
X029929Y006637D03*
X029929Y006676D03*
X029929Y006715D03*
X029929Y006755D03*
X029929Y006794D03*
X029929Y006834D03*
X029929Y006873D03*
X029929Y006912D03*
X029929Y006952D03*
X029929Y006991D03*
X029929Y007030D03*
X029929Y007070D03*
X029929Y007109D03*
X029929Y007149D03*
X029929Y007188D03*
X029929Y007227D03*
X029929Y007267D03*
X029929Y007306D03*
X029929Y007345D03*
X029929Y007385D03*
X029929Y007424D03*
X029929Y007463D03*
X029929Y007503D03*
X029929Y007542D03*
X029929Y007582D03*
X029929Y007621D03*
X029929Y007660D03*
X029929Y007700D03*
X029929Y007739D03*
X029929Y007778D03*
X029929Y007818D03*
X029929Y007857D03*
X029929Y007897D03*
X029929Y007936D03*
X029929Y007975D03*
X029929Y008015D03*
X029929Y008054D03*
X029929Y008093D03*
X029929Y008133D03*
X029929Y008172D03*
X029929Y008211D03*
X029929Y008251D03*
X029929Y008290D03*
X029929Y008330D03*
X029929Y008369D03*
X029929Y008408D03*
X029929Y008448D03*
X029929Y008487D03*
X029929Y008526D03*
X029929Y008566D03*
X029929Y008605D03*
X029929Y008645D03*
X032961Y008645D03*
X032961Y008684D03*
X032961Y008723D03*
X032961Y008763D03*
X032961Y008802D03*
X032961Y008841D03*
X032961Y008881D03*
X032961Y008920D03*
X032961Y008960D03*
X032961Y008999D03*
X032961Y009038D03*
X032961Y009078D03*
X032961Y009117D03*
X032961Y009156D03*
X032961Y009196D03*
X032961Y009235D03*
X032961Y009274D03*
X032961Y009314D03*
X032961Y009353D03*
X032961Y009393D03*
X032961Y009432D03*
X032961Y009471D03*
X032961Y009511D03*
X032961Y009550D03*
X032961Y009589D03*
X032961Y009629D03*
X032961Y009668D03*
X032961Y009708D03*
X032961Y009747D03*
X032961Y009786D03*
X032961Y009826D03*
X032961Y009865D03*
X032961Y009904D03*
X032961Y009944D03*
X032961Y009983D03*
X032961Y010023D03*
X032961Y010062D03*
X032961Y010101D03*
X032961Y010141D03*
X032961Y010180D03*
X032961Y010219D03*
X032961Y010259D03*
X032961Y010298D03*
X032961Y010337D03*
X032961Y010377D03*
X032961Y010416D03*
X032961Y010456D03*
X032961Y010495D03*
X032961Y010534D03*
X032961Y010574D03*
X032961Y010613D03*
X032961Y010652D03*
X032961Y010692D03*
X032961Y010731D03*
X032961Y010771D03*
X032961Y010810D03*
X032961Y010849D03*
X032961Y010889D03*
X032961Y010928D03*
X032961Y010967D03*
X032961Y011007D03*
X032961Y011046D03*
X032961Y011086D03*
X032961Y011125D03*
X032961Y011164D03*
X032961Y011204D03*
X032961Y011243D03*
X032961Y011282D03*
X032961Y011322D03*
X032961Y011361D03*
X032961Y011400D03*
X032961Y012227D03*
X032961Y012267D03*
X032961Y012306D03*
X032961Y012345D03*
X032961Y012385D03*
X032961Y012424D03*
X032961Y012463D03*
X032961Y012503D03*
X032961Y012542D03*
X032961Y012582D03*
X032961Y012621D03*
X032961Y012660D03*
X032961Y012700D03*
X032961Y012739D03*
X032961Y012778D03*
X032961Y012818D03*
X032961Y012857D03*
X032961Y012897D03*
X032961Y012936D03*
X032961Y012975D03*
X032961Y013015D03*
X032961Y013054D03*
X032961Y013093D03*
X032961Y013133D03*
X032961Y013172D03*
X032961Y013211D03*
X032961Y013251D03*
X032961Y013290D03*
X032961Y013330D03*
X032961Y013369D03*
X032961Y013408D03*
X036150Y010180D03*
X036150Y010141D03*
X036150Y010101D03*
X036150Y010062D03*
X036150Y010023D03*
X036150Y009983D03*
X036150Y009944D03*
X036150Y009904D03*
X036150Y009865D03*
X036150Y009826D03*
X036150Y009786D03*
X036150Y009747D03*
X036150Y009708D03*
X036150Y009668D03*
X036150Y009629D03*
X036150Y009589D03*
X036150Y009550D03*
X036150Y009511D03*
X036150Y009471D03*
X036150Y009432D03*
X036150Y009393D03*
X036150Y009353D03*
X036150Y009314D03*
X036150Y009274D03*
X036150Y009235D03*
X036150Y009196D03*
X036150Y009156D03*
X036150Y009117D03*
X036150Y009078D03*
X036150Y009038D03*
X036150Y008999D03*
X036150Y008960D03*
X036150Y008920D03*
X036150Y008881D03*
X036150Y008841D03*
X036150Y008802D03*
X036150Y008763D03*
X036150Y008723D03*
X036150Y008684D03*
X036150Y008645D03*
X036150Y008605D03*
X036150Y008566D03*
X036150Y008526D03*
X036150Y008487D03*
X036150Y008448D03*
X036150Y008408D03*
X036150Y008369D03*
X036150Y008330D03*
X036150Y008290D03*
X036150Y008251D03*
X036150Y008211D03*
X036150Y008172D03*
X036150Y008133D03*
X036150Y008093D03*
X036150Y008054D03*
X036150Y008015D03*
X036150Y007975D03*
X036150Y007936D03*
X036150Y007897D03*
X036150Y007857D03*
X036150Y007818D03*
X036150Y007778D03*
X036150Y007739D03*
X036150Y007700D03*
X036150Y007660D03*
X036150Y007621D03*
X036150Y007582D03*
X036150Y007542D03*
X036150Y007503D03*
X036150Y007463D03*
X036150Y007424D03*
X036150Y007385D03*
X036150Y007345D03*
X036150Y007306D03*
X036150Y007267D03*
X036150Y007227D03*
X036150Y007188D03*
X036150Y007149D03*
X036150Y007109D03*
X036150Y007070D03*
X036150Y007030D03*
X036150Y006991D03*
X036150Y006952D03*
X036150Y006912D03*
X036150Y006873D03*
X036150Y006834D03*
X036150Y006794D03*
X036150Y006755D03*
X036150Y006715D03*
X036150Y006676D03*
X036150Y006637D03*
X036150Y006597D03*
X036150Y006558D03*
X036150Y006519D03*
X036150Y006479D03*
X036150Y006440D03*
X036150Y006400D03*
X036150Y006361D03*
X036150Y006322D03*
X036150Y006282D03*
X036150Y006243D03*
X036150Y006204D03*
X036150Y006164D03*
X036150Y006125D03*
X036150Y006086D03*
X036150Y006046D03*
X036150Y006007D03*
X036150Y005967D03*
X036150Y005928D03*
X032961Y005928D03*
X032961Y005889D03*
X032961Y005849D03*
X032961Y005810D03*
X032961Y005771D03*
X032961Y005731D03*
X032961Y005692D03*
X032961Y005652D03*
X032961Y005613D03*
X032961Y005574D03*
X032961Y005534D03*
X032961Y005495D03*
X032961Y005456D03*
X032961Y005416D03*
X032961Y005377D03*
X032961Y005337D03*
X032961Y005298D03*
X032961Y005259D03*
X032961Y005219D03*
X032961Y005180D03*
X032961Y005141D03*
X032961Y005101D03*
X032961Y005062D03*
X032961Y005023D03*
X032961Y004983D03*
X032961Y004944D03*
X032961Y004904D03*
X032961Y004865D03*
X032961Y004826D03*
X032961Y004786D03*
X032961Y004747D03*
X032961Y004708D03*
X032961Y004668D03*
X032961Y005967D03*
X032961Y006007D03*
X032961Y006046D03*
X032961Y006086D03*
X032961Y006125D03*
X032961Y006164D03*
X032961Y006204D03*
X032961Y006243D03*
X032961Y006282D03*
X032961Y006322D03*
X032961Y006361D03*
X032961Y006400D03*
X032961Y006440D03*
X032961Y006479D03*
X032961Y006519D03*
X032961Y006558D03*
X032961Y006597D03*
X032961Y006637D03*
X032961Y006676D03*
X032961Y006715D03*
X032961Y006755D03*
X032961Y006794D03*
X032961Y006834D03*
X032961Y006873D03*
X032961Y006912D03*
X032961Y006952D03*
X032961Y006991D03*
X032961Y007030D03*
X032961Y007070D03*
X032961Y007109D03*
X032961Y007149D03*
X032961Y007188D03*
X032961Y007227D03*
X032961Y007267D03*
X032961Y007306D03*
X032961Y007345D03*
X032961Y007385D03*
X032961Y007424D03*
X032961Y007463D03*
X032961Y007503D03*
X032961Y007542D03*
X032961Y007582D03*
X032961Y007621D03*
X032961Y007660D03*
X032961Y007700D03*
X032961Y007739D03*
X032961Y007778D03*
X032961Y007818D03*
X032961Y007857D03*
X032961Y007897D03*
X032961Y007936D03*
X032961Y007975D03*
X032961Y008015D03*
X032961Y008054D03*
X032961Y008093D03*
X032961Y008133D03*
X032961Y008172D03*
X032961Y008211D03*
X032961Y008251D03*
X032961Y008290D03*
X032961Y008330D03*
X032961Y008369D03*
X032961Y008408D03*
X032961Y008448D03*
X032961Y008487D03*
X032961Y008526D03*
X032961Y008566D03*
X032961Y008605D03*
X026858Y014196D03*
X026858Y014235D03*
X026858Y014274D03*
X026858Y014314D03*
X026858Y014353D03*
X026858Y014393D03*
X026858Y014432D03*
X026858Y014471D03*
X026858Y014511D03*
X026858Y014550D03*
X026858Y014589D03*
X026858Y014629D03*
X026858Y014668D03*
X026858Y014708D03*
X026858Y014747D03*
X026858Y014786D03*
X026858Y014826D03*
X026858Y014865D03*
X026858Y014904D03*
X026858Y014944D03*
X026858Y014983D03*
X026858Y015023D03*
X026858Y015062D03*
X026858Y015101D03*
X026858Y015141D03*
X026858Y015180D03*
X026858Y015219D03*
X026858Y015259D03*
X026858Y015298D03*
X026858Y015337D03*
X026858Y015377D03*
X026858Y015416D03*
X026858Y015456D03*
X026858Y015495D03*
X026858Y015534D03*
X026858Y015574D03*
X026858Y015613D03*
X026858Y015652D03*
X026858Y015692D03*
X026858Y015731D03*
X026858Y015771D03*
X026858Y015810D03*
X026858Y015849D03*
X026858Y015889D03*
X026858Y015928D03*
X026858Y015967D03*
X026858Y016007D03*
X026858Y016046D03*
X026858Y016086D03*
X026858Y016125D03*
X026858Y016164D03*
X026858Y016204D03*
X026858Y016243D03*
X026858Y016282D03*
X026858Y016322D03*
X026858Y016361D03*
X026858Y016400D03*
X026858Y016440D03*
X026858Y016479D03*
X026858Y016519D03*
X026858Y016558D03*
X026858Y016597D03*
X026858Y016637D03*
X026858Y016676D03*
X026858Y016715D03*
X026858Y016755D03*
X026858Y016794D03*
X026858Y016834D03*
X026858Y016873D03*
X026858Y016912D03*
X026858Y016952D03*
X026858Y016991D03*
X026858Y017030D03*
X026858Y017070D03*
X026858Y017109D03*
X026858Y017149D03*
X026858Y017188D03*
X026858Y017227D03*
X026858Y017267D03*
X026858Y017306D03*
X026858Y017345D03*
X026858Y017385D03*
X026858Y017424D03*
X026858Y017463D03*
X026858Y017503D03*
X026858Y017542D03*
X026858Y017582D03*
X026858Y017621D03*
X026858Y017660D03*
X026858Y017700D03*
X026858Y017739D03*
X026858Y017778D03*
X026858Y017818D03*
X026858Y017857D03*
X026858Y017897D03*
X026858Y017936D03*
X026858Y017975D03*
X026858Y018015D03*
X026858Y018054D03*
X026858Y018093D03*
X026858Y018133D03*
X023827Y018133D03*
X023827Y018093D03*
X023827Y018054D03*
X023827Y018015D03*
X023827Y017975D03*
X023827Y017936D03*
X023827Y017897D03*
X023827Y017857D03*
X023827Y017818D03*
X023827Y017778D03*
X023827Y017739D03*
X023827Y017700D03*
X023827Y017660D03*
X023827Y017621D03*
X023827Y017582D03*
X023827Y017542D03*
X023827Y017503D03*
X023827Y017463D03*
X023827Y017424D03*
X023827Y017385D03*
X023827Y017345D03*
X023827Y017306D03*
X023827Y017267D03*
X023827Y017227D03*
X023827Y017188D03*
X023827Y017149D03*
X023827Y017109D03*
X023827Y017070D03*
X023827Y017030D03*
X023827Y016991D03*
X023827Y016952D03*
X023827Y016912D03*
X023827Y016873D03*
X023827Y016834D03*
X023827Y016794D03*
X023827Y016755D03*
X023827Y016715D03*
X023827Y016676D03*
X023827Y016637D03*
X023827Y016597D03*
X023827Y016558D03*
X023827Y016519D03*
X023827Y016479D03*
X023827Y016440D03*
X023827Y016400D03*
X023827Y016361D03*
X023827Y016322D03*
X023827Y016282D03*
X023827Y016243D03*
X023827Y016204D03*
X023827Y016164D03*
X023827Y016125D03*
X023827Y016086D03*
X023827Y016046D03*
X023827Y016007D03*
X023827Y015967D03*
X023827Y015928D03*
X023827Y015889D03*
X023827Y015849D03*
X023827Y015810D03*
X023827Y015771D03*
X023827Y015731D03*
X023827Y015692D03*
X023827Y015652D03*
X023827Y015613D03*
X023827Y015574D03*
X023827Y015534D03*
X023827Y015495D03*
X023827Y015456D03*
X023827Y015416D03*
X023827Y015377D03*
X023827Y015337D03*
X023827Y015298D03*
X023827Y015259D03*
X023827Y015219D03*
X023827Y015180D03*
X023827Y015141D03*
X023827Y015101D03*
X023827Y015062D03*
X023827Y015023D03*
X023827Y014983D03*
X023827Y014944D03*
X023827Y014904D03*
X023827Y014865D03*
X023827Y014826D03*
X023827Y014786D03*
X023827Y014747D03*
X023827Y014708D03*
X023827Y014668D03*
X023827Y014629D03*
X023827Y014589D03*
X023827Y014550D03*
X023827Y014511D03*
X023827Y014471D03*
X023827Y014432D03*
X023827Y014393D03*
X023827Y014353D03*
X023827Y014314D03*
X023827Y014274D03*
X023827Y014235D03*
X023827Y014196D03*
X023827Y014156D03*
X020756Y014156D03*
X020756Y014117D03*
X020756Y014078D03*
X020756Y014038D03*
X020756Y013999D03*
X020756Y013960D03*
X020756Y013920D03*
X020756Y013881D03*
X020756Y013841D03*
X020756Y013802D03*
X020756Y013763D03*
X020756Y013723D03*
X020756Y013684D03*
X020756Y013645D03*
X020756Y013605D03*
X020756Y013566D03*
X020756Y013526D03*
X020756Y013487D03*
X020756Y013448D03*
X020756Y013408D03*
X020756Y013369D03*
X020756Y013330D03*
X020756Y013290D03*
X020756Y013251D03*
X020756Y013211D03*
X020756Y013172D03*
X020756Y013133D03*
X020756Y013093D03*
X020756Y013054D03*
X020756Y013015D03*
X020756Y012975D03*
X020756Y012936D03*
X020756Y012897D03*
X020756Y012857D03*
X020756Y012818D03*
X020756Y012778D03*
X020756Y012739D03*
X020756Y012700D03*
X020756Y012660D03*
X020756Y012621D03*
X020756Y012582D03*
X020756Y012542D03*
X020756Y012503D03*
X020756Y012463D03*
X020756Y012424D03*
X020756Y012385D03*
X020756Y012345D03*
X020756Y012306D03*
X020756Y012267D03*
X020756Y012227D03*
X020756Y012188D03*
X020756Y012149D03*
X020756Y012109D03*
X020756Y012070D03*
X020756Y012030D03*
X020756Y011991D03*
X020756Y011952D03*
X020756Y011912D03*
X020756Y011873D03*
X020756Y011834D03*
X020756Y011794D03*
X020756Y011755D03*
X020756Y011715D03*
X020756Y011676D03*
X020756Y011637D03*
X020756Y011597D03*
X020756Y011558D03*
X020756Y011519D03*
X020756Y011479D03*
X020756Y011440D03*
X020756Y011400D03*
X020756Y011361D03*
X020756Y011322D03*
X020756Y011282D03*
X020756Y011243D03*
X020756Y011204D03*
X020756Y011164D03*
X020756Y011125D03*
X020756Y011086D03*
X020756Y011046D03*
X020756Y011007D03*
X020756Y010967D03*
X020756Y010928D03*
X020756Y010101D03*
X020756Y010062D03*
X020756Y010023D03*
X020756Y009983D03*
X020756Y009944D03*
X020756Y009904D03*
X020756Y009865D03*
X020756Y009826D03*
X020756Y009786D03*
X020756Y009747D03*
X020756Y009708D03*
X020756Y009668D03*
X020756Y009629D03*
X020756Y009589D03*
X020756Y009550D03*
X020756Y009511D03*
X020756Y009471D03*
X020756Y009432D03*
X020756Y009393D03*
X020756Y009353D03*
X020756Y009314D03*
X020756Y009274D03*
X020756Y009235D03*
X020756Y009196D03*
X020756Y009156D03*
X020756Y009117D03*
X020756Y009078D03*
X020756Y009038D03*
X020756Y008999D03*
X020756Y008960D03*
X020756Y008920D03*
X020756Y008881D03*
X020756Y008841D03*
X020756Y008802D03*
X020756Y008763D03*
X020756Y008723D03*
X020756Y008684D03*
X020756Y008645D03*
X020756Y008605D03*
X020756Y008566D03*
X020756Y008526D03*
X020756Y008487D03*
X020756Y008448D03*
X020756Y008408D03*
X020756Y008369D03*
X020756Y008330D03*
X020756Y008290D03*
X020756Y008251D03*
X020756Y008211D03*
X020756Y008172D03*
X020756Y008133D03*
X020756Y008093D03*
X020756Y008054D03*
X020756Y008015D03*
X020756Y007975D03*
X020756Y007936D03*
X020756Y007897D03*
X020756Y007857D03*
X020756Y007818D03*
X020756Y007778D03*
X020756Y007739D03*
X020756Y007700D03*
X020756Y007660D03*
X020756Y007621D03*
X020756Y007582D03*
X020756Y007542D03*
X020756Y007503D03*
X020756Y007463D03*
X020756Y007424D03*
X020756Y007385D03*
X020756Y007345D03*
X020756Y007306D03*
X020756Y007267D03*
X020756Y007227D03*
X020756Y007188D03*
X020756Y007149D03*
X020756Y007109D03*
X020756Y007070D03*
X020756Y007030D03*
X020756Y006991D03*
X020756Y006952D03*
X020756Y006912D03*
X020756Y006873D03*
X020756Y006834D03*
X020756Y006794D03*
X020756Y006755D03*
X020756Y006715D03*
X020756Y006676D03*
X020756Y006637D03*
X020756Y006597D03*
X020756Y006558D03*
X020756Y006519D03*
X020756Y006479D03*
X020756Y006440D03*
X020756Y006400D03*
X020756Y006361D03*
X020756Y006322D03*
X020756Y006282D03*
X020756Y006243D03*
X020756Y006204D03*
X020756Y006164D03*
X020756Y006125D03*
X020756Y006086D03*
X020756Y006046D03*
X020756Y006007D03*
X020756Y005967D03*
X020756Y005928D03*
X020756Y005889D03*
X020756Y005849D03*
X020756Y005810D03*
X020756Y005771D03*
X020756Y005731D03*
X020756Y005692D03*
X020756Y005652D03*
X020756Y005613D03*
X020756Y005574D03*
X020756Y005534D03*
X020756Y005495D03*
X020756Y005456D03*
X020756Y005416D03*
X020756Y005377D03*
X020756Y005337D03*
X020756Y005298D03*
X020756Y005259D03*
X020756Y005219D03*
X020756Y005180D03*
X020756Y005141D03*
X020756Y005101D03*
X020756Y005062D03*
X020756Y005023D03*
X020756Y004983D03*
X020756Y004944D03*
X020756Y004904D03*
X020756Y004865D03*
X020756Y004826D03*
X020756Y004786D03*
X020756Y004747D03*
X020756Y004708D03*
X020756Y004668D03*
X023827Y004668D03*
X023827Y004708D03*
X023827Y004747D03*
X023827Y004786D03*
X023827Y004826D03*
X023827Y004865D03*
X023827Y004904D03*
X023827Y004944D03*
X023827Y004983D03*
X023827Y005023D03*
X023827Y005062D03*
X023827Y005101D03*
X023827Y005141D03*
X023827Y005180D03*
X023827Y005219D03*
X023827Y005259D03*
X023827Y005298D03*
X023827Y005337D03*
X023827Y005377D03*
X023827Y005416D03*
X023827Y005456D03*
X023827Y005495D03*
X023827Y005534D03*
X023827Y005574D03*
X023827Y005613D03*
X023827Y005652D03*
X023827Y005692D03*
X023827Y005731D03*
X023827Y005771D03*
X023827Y005810D03*
X023827Y005849D03*
X023827Y005889D03*
X023827Y005928D03*
X023827Y005967D03*
X023827Y006007D03*
X023827Y006046D03*
X023827Y006086D03*
X023827Y006125D03*
X023827Y006164D03*
X023827Y006204D03*
X023827Y006243D03*
X023827Y006282D03*
X023827Y006322D03*
X023827Y006361D03*
X023827Y006400D03*
X023827Y006440D03*
X023827Y006479D03*
X023827Y006519D03*
X023827Y006558D03*
X023827Y006597D03*
X023827Y006637D03*
X023827Y006676D03*
X023827Y006715D03*
X023827Y006755D03*
X023827Y006794D03*
X023827Y006834D03*
X023827Y006873D03*
X023827Y006912D03*
X023827Y006952D03*
X023827Y006991D03*
X023827Y007030D03*
X023827Y007070D03*
X023827Y007109D03*
X023827Y007149D03*
X023827Y007188D03*
X023827Y007227D03*
X023827Y007267D03*
X023827Y007306D03*
X023827Y007345D03*
X023827Y007385D03*
X023827Y007424D03*
X023827Y007463D03*
X023827Y007503D03*
X023827Y007542D03*
X023827Y007582D03*
X023827Y007621D03*
X023827Y007660D03*
X023827Y007700D03*
X023827Y007739D03*
X023827Y007778D03*
X023827Y007818D03*
X023827Y007857D03*
X023827Y007897D03*
X023827Y007936D03*
X023827Y007975D03*
X023827Y008015D03*
X023827Y008054D03*
X023827Y008093D03*
X023827Y008133D03*
X023827Y008172D03*
X023827Y008211D03*
X023827Y008251D03*
X023827Y008290D03*
X023827Y008330D03*
X023827Y008369D03*
X023827Y008408D03*
X023827Y008448D03*
X023827Y008487D03*
X023827Y008526D03*
X023827Y008566D03*
X023827Y008605D03*
X023827Y008645D03*
X017528Y012188D03*
X017528Y012227D03*
X017528Y012267D03*
X017528Y012306D03*
X017528Y012345D03*
X017528Y012385D03*
X017528Y012424D03*
X017528Y012463D03*
X017528Y012503D03*
X017528Y012542D03*
X017528Y012582D03*
X017528Y012621D03*
X017528Y012660D03*
X017528Y012700D03*
X017528Y012739D03*
X017528Y012778D03*
X017528Y012818D03*
X017528Y012857D03*
X017528Y012897D03*
X017528Y012936D03*
X017528Y012975D03*
X017528Y013015D03*
X017528Y013054D03*
X017528Y013093D03*
X017528Y013133D03*
X017528Y013172D03*
X017528Y013211D03*
X017528Y013251D03*
X017528Y013290D03*
X017528Y013330D03*
X017528Y013369D03*
X017528Y013408D03*
X017528Y013448D03*
X017528Y013487D03*
X017528Y013526D03*
X017528Y013566D03*
X017528Y013605D03*
X017528Y013645D03*
X017528Y013684D03*
X017528Y013723D03*
X017528Y013763D03*
X017528Y013802D03*
X017528Y013841D03*
X017528Y013881D03*
X017528Y013920D03*
X017528Y013960D03*
X017528Y013999D03*
X017528Y014038D03*
X017528Y014078D03*
X017528Y014117D03*
X017528Y014156D03*
X017528Y014196D03*
X017528Y014235D03*
X017528Y014274D03*
X017528Y014314D03*
X017528Y014353D03*
X017528Y014393D03*
X017528Y014432D03*
X017528Y014471D03*
X017528Y014511D03*
X017528Y014550D03*
X017528Y014589D03*
X017528Y014629D03*
X017528Y014668D03*
X017528Y014708D03*
X017528Y014747D03*
X017528Y014786D03*
X017528Y014826D03*
X017528Y014865D03*
X017528Y014904D03*
X017528Y014944D03*
X017528Y014983D03*
X017528Y015023D03*
X017528Y015062D03*
X017528Y015101D03*
X017528Y015141D03*
X017528Y015180D03*
X017528Y015219D03*
X017528Y015259D03*
X017528Y015298D03*
X017528Y015337D03*
X017528Y015377D03*
X017528Y015416D03*
X017528Y015456D03*
X017528Y015495D03*
X017528Y015534D03*
X017528Y015574D03*
X017528Y015613D03*
X017528Y015652D03*
X017528Y015692D03*
X017528Y015731D03*
X017528Y015771D03*
X017528Y015810D03*
X017528Y015849D03*
X017528Y015889D03*
X017528Y015928D03*
X017528Y015967D03*
X017528Y016007D03*
X017528Y016046D03*
X017528Y016086D03*
X017528Y016125D03*
X017528Y016164D03*
X017528Y016204D03*
X017528Y016243D03*
X017528Y016282D03*
X017528Y016322D03*
X017528Y016361D03*
X017528Y016400D03*
X017528Y016440D03*
X017528Y016479D03*
X017528Y016519D03*
X017528Y016558D03*
X017528Y016597D03*
X017528Y016637D03*
X017528Y016676D03*
X017528Y016715D03*
X017528Y016755D03*
X017528Y016794D03*
X017528Y016834D03*
X017528Y016873D03*
X014732Y016873D03*
X014732Y016912D03*
X014732Y016952D03*
X014732Y016991D03*
X014732Y016834D03*
X014732Y016794D03*
X014732Y016755D03*
X014732Y016715D03*
X014732Y016676D03*
X014732Y016637D03*
X014732Y016597D03*
X014732Y016558D03*
X014732Y016519D03*
X014732Y016479D03*
X014732Y016440D03*
X014732Y016400D03*
X014732Y016361D03*
X014732Y016322D03*
X014732Y016282D03*
X014732Y016243D03*
X014732Y016204D03*
X014732Y016164D03*
X014732Y016125D03*
X014732Y016086D03*
X014732Y016046D03*
X014732Y016007D03*
X014732Y015967D03*
X014732Y015928D03*
X014732Y015889D03*
X014732Y015849D03*
X014732Y015810D03*
X014732Y015771D03*
X014732Y015731D03*
X014732Y015692D03*
X014732Y015652D03*
X014732Y015613D03*
X014732Y015574D03*
X014732Y015534D03*
X014732Y015495D03*
X014732Y015456D03*
X014732Y015416D03*
X014732Y015377D03*
X014732Y015337D03*
X014732Y015298D03*
X014732Y015259D03*
X014732Y015219D03*
X014732Y015180D03*
X014732Y015141D03*
X014732Y015101D03*
X014732Y015062D03*
X014732Y015023D03*
X014732Y014983D03*
X014732Y014944D03*
X014732Y014904D03*
X014732Y014865D03*
X014732Y014826D03*
X014732Y014786D03*
X014732Y014747D03*
X014732Y014708D03*
X014732Y014668D03*
X014732Y014629D03*
X014732Y014589D03*
X014732Y014550D03*
X014732Y014511D03*
X014732Y014471D03*
X014732Y014432D03*
X014732Y014393D03*
X014732Y014353D03*
X014732Y014314D03*
X014732Y014274D03*
X014732Y014235D03*
X014732Y014196D03*
X014732Y014156D03*
X014732Y014117D03*
X014732Y014078D03*
X014732Y014038D03*
X014732Y013999D03*
X014732Y013960D03*
X014732Y013920D03*
X014732Y013881D03*
X014732Y013841D03*
X014732Y013802D03*
X014732Y013763D03*
X014732Y013723D03*
X014732Y013684D03*
X014732Y013645D03*
X014732Y013605D03*
X014732Y013566D03*
X014732Y013526D03*
X014732Y013487D03*
X014732Y013448D03*
X014732Y013408D03*
X014732Y013369D03*
X014732Y013330D03*
X014732Y013290D03*
X014732Y013251D03*
X014732Y013211D03*
X014732Y013172D03*
X014732Y013133D03*
X014732Y013093D03*
X014732Y013054D03*
X014732Y013015D03*
X014732Y012975D03*
X014732Y012936D03*
X014732Y012897D03*
X014732Y012857D03*
X014732Y012818D03*
X014732Y012778D03*
X014732Y012739D03*
X014732Y012700D03*
X014732Y012660D03*
X014732Y012621D03*
X014732Y012582D03*
X014732Y012542D03*
X014732Y012503D03*
X014732Y012463D03*
X014732Y012424D03*
X014732Y012385D03*
X014732Y012345D03*
X014732Y012306D03*
X014732Y012267D03*
X014732Y012227D03*
X014732Y012188D03*
X014732Y012149D03*
X014732Y012109D03*
X014732Y012070D03*
X014732Y012030D03*
X014732Y011991D03*
X014732Y011952D03*
X014732Y011912D03*
X014732Y011873D03*
X014732Y011834D03*
X014732Y011794D03*
X014732Y011755D03*
X014732Y011715D03*
X014732Y011676D03*
X014732Y011637D03*
X014732Y011597D03*
X014732Y011558D03*
X014732Y011519D03*
X014732Y011479D03*
X014732Y011440D03*
X014732Y011400D03*
X014732Y011361D03*
X014732Y011322D03*
X014732Y011282D03*
X014732Y011243D03*
X014732Y011204D03*
X014732Y011164D03*
X014732Y011125D03*
X014732Y011086D03*
X014732Y011046D03*
X014732Y011007D03*
X014732Y010967D03*
X014732Y010928D03*
X014732Y010889D03*
X014732Y010849D03*
X014732Y010810D03*
X014732Y010771D03*
X014732Y010731D03*
X014732Y010692D03*
X014732Y010652D03*
X014732Y010613D03*
X014732Y010574D03*
X014732Y010534D03*
X014732Y010495D03*
X014732Y010456D03*
X014732Y010416D03*
X014732Y010377D03*
X014732Y010337D03*
X014732Y010298D03*
X014732Y010259D03*
X014732Y010219D03*
X014732Y010180D03*
X014732Y010141D03*
X014732Y010101D03*
X014732Y010062D03*
X014732Y010023D03*
X014732Y009983D03*
X014732Y009944D03*
X014732Y009904D03*
X014732Y009865D03*
X014732Y009826D03*
X014732Y009786D03*
X014732Y009747D03*
X014732Y009708D03*
X014732Y009668D03*
X014732Y009629D03*
X014732Y009589D03*
X014732Y009550D03*
X014732Y009511D03*
X014732Y009471D03*
X014732Y009432D03*
X014732Y009393D03*
X014732Y009353D03*
X014732Y009314D03*
X014732Y009274D03*
X014732Y009235D03*
X014732Y009196D03*
X014732Y009156D03*
X014732Y009117D03*
X014732Y009078D03*
X014732Y009038D03*
X014732Y008999D03*
X014732Y008960D03*
X014732Y008920D03*
X014732Y008881D03*
X014732Y008841D03*
X014732Y008802D03*
X014732Y008763D03*
X014732Y008723D03*
X014732Y008684D03*
X014732Y008645D03*
X014732Y008605D03*
X014732Y008566D03*
X014732Y008526D03*
X014732Y008487D03*
X014732Y008448D03*
X014732Y008408D03*
X014732Y008369D03*
X014732Y008330D03*
X014732Y008290D03*
X014732Y008251D03*
X014732Y008211D03*
X014732Y008172D03*
X014732Y008133D03*
X014732Y008093D03*
X014732Y008054D03*
X014732Y008015D03*
X014732Y007975D03*
X014732Y007936D03*
X014732Y007897D03*
X014732Y007857D03*
X014732Y007818D03*
X014732Y007778D03*
X014732Y007739D03*
X014732Y007700D03*
X014732Y007660D03*
X014732Y007621D03*
X014732Y007582D03*
X014732Y007542D03*
X014732Y007503D03*
X014732Y007463D03*
X014732Y007424D03*
X014732Y007385D03*
X014732Y007345D03*
X014732Y007306D03*
X014732Y007267D03*
X014732Y007227D03*
X014732Y007188D03*
X014732Y007149D03*
X014732Y007109D03*
X014732Y007070D03*
X014732Y007030D03*
X014732Y006991D03*
X014732Y006952D03*
X014732Y006912D03*
X014732Y006873D03*
X014732Y006834D03*
X014732Y006794D03*
X014732Y006755D03*
X014732Y006715D03*
X014732Y006676D03*
X014732Y006637D03*
X014732Y006597D03*
X014732Y006558D03*
X014732Y006519D03*
X014732Y006479D03*
X014732Y006440D03*
X014732Y006400D03*
X014732Y006361D03*
X014732Y006322D03*
X014732Y006282D03*
X014732Y006243D03*
X014732Y006204D03*
X014732Y006164D03*
X014732Y006125D03*
X014732Y006086D03*
X014732Y006046D03*
X014732Y006007D03*
X014732Y005967D03*
X014732Y005928D03*
X014732Y005889D03*
X014732Y005849D03*
X013079Y003960D03*
X011386Y005849D03*
X011386Y005889D03*
X011386Y005928D03*
X011386Y005967D03*
X011386Y006007D03*
X011386Y006046D03*
X011386Y006086D03*
X011386Y006125D03*
X011386Y006164D03*
X011386Y006204D03*
X011386Y006243D03*
X011386Y006282D03*
X011386Y006322D03*
X011386Y006361D03*
X011386Y006400D03*
X011386Y006440D03*
X011386Y006479D03*
X011386Y006519D03*
X011386Y006558D03*
X011386Y006597D03*
X011386Y006637D03*
X011386Y006676D03*
X011386Y006715D03*
X011386Y006755D03*
X011386Y006794D03*
X011386Y006834D03*
X011386Y006873D03*
X011386Y006912D03*
X011386Y006952D03*
X011386Y006991D03*
X011386Y007030D03*
X011386Y007070D03*
X011386Y007109D03*
X011386Y007149D03*
X011386Y007188D03*
X011386Y007227D03*
X011386Y007267D03*
X011386Y007306D03*
X011386Y007345D03*
X011386Y007385D03*
X011386Y007424D03*
X011386Y007463D03*
X011386Y007503D03*
X011386Y007542D03*
X011386Y007582D03*
X011386Y007621D03*
X011386Y007660D03*
X011386Y007700D03*
X011386Y007739D03*
X011386Y007778D03*
X011386Y007818D03*
X011386Y007857D03*
X011386Y007897D03*
X011386Y007936D03*
X011386Y007975D03*
X011386Y008015D03*
X011386Y008054D03*
X011386Y008093D03*
X011386Y008133D03*
X011386Y008172D03*
X011386Y008211D03*
X011386Y008251D03*
X011386Y008290D03*
X011386Y008330D03*
X011386Y008369D03*
X011386Y008408D03*
X011386Y008448D03*
X011386Y008487D03*
X011386Y008526D03*
X011386Y008566D03*
X011386Y008605D03*
X011386Y008645D03*
X011386Y008684D03*
X011386Y008723D03*
X011386Y008763D03*
X011386Y008802D03*
X011386Y008841D03*
X011386Y008881D03*
X011386Y008920D03*
X011386Y008960D03*
X011386Y008999D03*
X011386Y009038D03*
X011386Y009078D03*
X011386Y009117D03*
X011386Y009156D03*
X011386Y009196D03*
X011386Y009235D03*
X011386Y009274D03*
X011386Y009314D03*
X011386Y009353D03*
X011386Y009393D03*
X011386Y009432D03*
X011386Y009471D03*
X011386Y009511D03*
X011386Y009550D03*
X011386Y009589D03*
X011386Y009629D03*
X011386Y009668D03*
X011386Y009708D03*
X011386Y009747D03*
X011386Y009786D03*
X011386Y009826D03*
X011386Y009865D03*
X011386Y009904D03*
X011386Y009944D03*
X011386Y009983D03*
X011386Y010023D03*
X011386Y010062D03*
X011386Y010101D03*
X011386Y010141D03*
X011386Y010180D03*
X011386Y010219D03*
X011386Y010259D03*
X011386Y010298D03*
X011386Y010337D03*
X011386Y010377D03*
X011386Y010416D03*
X011386Y010456D03*
X011386Y010495D03*
X011386Y010534D03*
X011386Y010574D03*
X011386Y010613D03*
X011386Y010652D03*
X011386Y010692D03*
X011386Y010731D03*
X011386Y010771D03*
X011386Y010810D03*
X011386Y010849D03*
X011386Y010889D03*
X011386Y010928D03*
X011386Y010967D03*
X011386Y011007D03*
X011386Y011046D03*
X011386Y011086D03*
X011386Y011125D03*
X011386Y011164D03*
X011386Y011204D03*
X011386Y011243D03*
X011386Y011282D03*
X011386Y011322D03*
X011386Y011361D03*
X011386Y011400D03*
X011386Y011440D03*
X011386Y011479D03*
X011386Y011519D03*
X011386Y011558D03*
X011386Y011597D03*
X011386Y011637D03*
X011386Y011676D03*
X011386Y011715D03*
X011386Y011755D03*
X011386Y011794D03*
X011386Y011834D03*
X011386Y011873D03*
X011386Y011912D03*
X011386Y011952D03*
X011386Y011991D03*
X011386Y012030D03*
X011386Y012070D03*
X011386Y012109D03*
X011386Y012149D03*
X011386Y012188D03*
X011386Y012227D03*
X011386Y012267D03*
X011386Y012306D03*
X011386Y012345D03*
X011386Y012385D03*
X011386Y012424D03*
X011386Y012463D03*
X011386Y012503D03*
X011386Y012542D03*
X011386Y012582D03*
X011386Y012621D03*
X011386Y012660D03*
X011386Y012700D03*
X011386Y012739D03*
X011386Y012778D03*
X011386Y012818D03*
X011386Y012857D03*
X011386Y012897D03*
X011386Y012936D03*
X011386Y012975D03*
X011386Y013015D03*
X011386Y013054D03*
X011386Y013093D03*
X011386Y013133D03*
X011386Y013172D03*
X011386Y013211D03*
X011386Y013251D03*
X011386Y013290D03*
X011386Y013330D03*
X011386Y013369D03*
X011386Y013408D03*
X011386Y013448D03*
X011386Y013487D03*
X011386Y013526D03*
X011386Y013566D03*
X011386Y013605D03*
X011386Y013645D03*
X011386Y013684D03*
X011386Y013723D03*
X011386Y013763D03*
X011386Y013802D03*
X011386Y013841D03*
X011386Y013881D03*
X011386Y013920D03*
X011386Y013960D03*
X011386Y013999D03*
X011386Y014038D03*
X011386Y014078D03*
X011386Y014117D03*
X011386Y014156D03*
X011386Y014196D03*
X011386Y014235D03*
X011386Y014274D03*
X011386Y014314D03*
X011386Y014353D03*
X011386Y014393D03*
X011386Y014432D03*
X011386Y014471D03*
X011386Y014511D03*
X011386Y014550D03*
X011386Y014589D03*
X011386Y014629D03*
X011386Y014668D03*
X011386Y014708D03*
X011386Y014747D03*
X011386Y014786D03*
X011386Y014826D03*
X011386Y014865D03*
X011386Y014904D03*
X011386Y014944D03*
X011386Y014983D03*
X011386Y015023D03*
X011386Y015062D03*
X011386Y015101D03*
X011386Y015141D03*
X011386Y015180D03*
X011386Y015219D03*
X011386Y015259D03*
X011386Y015298D03*
X011386Y015337D03*
X011386Y015377D03*
X011386Y015416D03*
X011386Y015456D03*
X011386Y015495D03*
X011386Y015534D03*
X011386Y015574D03*
X011386Y015613D03*
X011386Y015652D03*
X011386Y015692D03*
X011386Y015731D03*
X011386Y015771D03*
X011386Y015810D03*
X011386Y015849D03*
X011386Y015889D03*
X011386Y015928D03*
X011386Y015967D03*
X011386Y016007D03*
X011386Y016046D03*
X011386Y016086D03*
X011386Y016125D03*
X011386Y016164D03*
X011386Y016204D03*
X011386Y016243D03*
X011386Y016282D03*
X011386Y016322D03*
X011386Y016361D03*
X011386Y016400D03*
X011386Y016440D03*
X011386Y016479D03*
X011386Y016519D03*
X011386Y016558D03*
X011386Y016597D03*
X011386Y016637D03*
X011386Y016676D03*
X011386Y016715D03*
X011386Y016755D03*
X011386Y016794D03*
X011386Y016834D03*
X011386Y016873D03*
X011386Y016912D03*
X011386Y016952D03*
X011386Y016991D03*
X013079Y018881D03*
X008394Y016991D03*
X008394Y016952D03*
X008394Y016912D03*
X008394Y016873D03*
X008394Y016834D03*
X008394Y016794D03*
X008394Y016755D03*
X008394Y016715D03*
X008394Y016676D03*
X008394Y016637D03*
X008394Y016597D03*
X008394Y016558D03*
X008394Y016519D03*
X008394Y016479D03*
X008394Y016440D03*
X008394Y016400D03*
X008394Y016361D03*
X008394Y016322D03*
X008394Y016282D03*
X008394Y016243D03*
X008394Y016204D03*
X008394Y016164D03*
X008394Y016125D03*
X008394Y016086D03*
X008394Y016046D03*
X008394Y016007D03*
X008394Y015967D03*
X008394Y015928D03*
X008394Y015889D03*
X008394Y015849D03*
X008394Y015810D03*
X008394Y015771D03*
X008394Y015731D03*
X008394Y015692D03*
X008394Y015652D03*
X008394Y015613D03*
X008394Y015574D03*
X008394Y015534D03*
X008394Y015495D03*
X008394Y015456D03*
X008394Y015416D03*
X008394Y015377D03*
X008394Y015337D03*
X008394Y015298D03*
X008394Y015259D03*
X008394Y015219D03*
X008394Y015180D03*
X008394Y015141D03*
X008394Y015101D03*
X008394Y015062D03*
X008394Y015023D03*
X008394Y014983D03*
X008394Y014944D03*
X008394Y014904D03*
X008394Y014865D03*
X008394Y014826D03*
X008394Y014786D03*
X008394Y014747D03*
X008394Y014708D03*
X008394Y014668D03*
X008394Y014629D03*
X008394Y014589D03*
X008394Y014550D03*
X008394Y014511D03*
X008394Y014471D03*
X008394Y014432D03*
X008394Y014393D03*
X008394Y014353D03*
X008394Y014314D03*
X008394Y014274D03*
X008394Y014235D03*
X008394Y014196D03*
X008394Y014156D03*
X008394Y014117D03*
X008394Y014078D03*
X008394Y014038D03*
X008394Y013999D03*
X008394Y013960D03*
X008394Y013920D03*
X008394Y013881D03*
X008394Y013841D03*
X008394Y013802D03*
X008394Y013763D03*
X008394Y013723D03*
X008394Y013684D03*
X008394Y013645D03*
X008394Y013605D03*
X008394Y013566D03*
X008394Y013526D03*
X008394Y013487D03*
X008394Y013448D03*
X008394Y013408D03*
X008394Y013369D03*
X008394Y013330D03*
X008394Y013290D03*
X008394Y013251D03*
X008394Y013211D03*
X008394Y013172D03*
X008394Y013133D03*
X008394Y013093D03*
X008394Y013054D03*
X008394Y013015D03*
X008394Y012975D03*
X008394Y012936D03*
X008394Y012897D03*
X008394Y012857D03*
X008394Y012818D03*
X008394Y012778D03*
X008394Y012739D03*
X008394Y012700D03*
X008394Y012660D03*
X008394Y012621D03*
X008394Y012582D03*
X008394Y012542D03*
X008394Y012503D03*
X008394Y012463D03*
X008394Y012424D03*
X008394Y012385D03*
X008394Y012345D03*
X008394Y012306D03*
X008394Y012267D03*
X008394Y012227D03*
X008394Y012188D03*
X008394Y012149D03*
X008394Y012109D03*
X008394Y012070D03*
X008394Y012030D03*
X008394Y011991D03*
X008394Y011952D03*
X008394Y011912D03*
X008394Y011873D03*
X008394Y011834D03*
X008394Y011794D03*
X008394Y011755D03*
X008394Y011715D03*
X008394Y011676D03*
X008394Y011637D03*
X008394Y011597D03*
X008394Y011558D03*
X008394Y011519D03*
X008394Y011479D03*
X008394Y011440D03*
X008394Y011400D03*
X008394Y011361D03*
X008394Y011322D03*
X008394Y011282D03*
X008394Y011243D03*
X008394Y011204D03*
X008394Y011164D03*
X008394Y011125D03*
X008394Y011086D03*
X008394Y011046D03*
X008394Y011007D03*
X008394Y010967D03*
X008394Y010928D03*
X008394Y010889D03*
X008394Y010849D03*
X008394Y010810D03*
X008394Y010771D03*
X008394Y010731D03*
X008394Y010692D03*
X008394Y010652D03*
X008394Y010613D03*
X008394Y010574D03*
X008394Y010534D03*
X008394Y010495D03*
X008394Y010456D03*
X008394Y010416D03*
X008394Y010377D03*
X008394Y010337D03*
X008394Y010298D03*
X008394Y010259D03*
X008394Y010219D03*
X008394Y010180D03*
X008394Y010141D03*
X008394Y010101D03*
X008394Y010062D03*
X008394Y010023D03*
X008394Y009983D03*
X008394Y009944D03*
X008394Y009904D03*
X008394Y009865D03*
X008394Y009826D03*
X008394Y009786D03*
X008394Y009747D03*
X008394Y009708D03*
X008394Y009668D03*
X008394Y009629D03*
X008394Y009589D03*
X008394Y009550D03*
X008394Y009511D03*
X008394Y009471D03*
X008394Y009432D03*
X008394Y009393D03*
X008394Y009353D03*
X008394Y009314D03*
X008394Y009274D03*
X008394Y009235D03*
X008394Y009196D03*
X008394Y009156D03*
X008394Y009117D03*
X008394Y009078D03*
X008394Y009038D03*
X008394Y008999D03*
X008394Y008960D03*
X008394Y008920D03*
X008394Y008881D03*
X008394Y008841D03*
X008394Y008802D03*
X008394Y008763D03*
X008394Y008723D03*
X008394Y008684D03*
X008394Y008645D03*
X008394Y008605D03*
X008394Y008566D03*
X008394Y008526D03*
X008394Y008487D03*
X008394Y008448D03*
X008394Y008408D03*
X008394Y008369D03*
X008394Y008330D03*
X008394Y008290D03*
X008394Y008251D03*
X008394Y008211D03*
X008394Y008172D03*
X008394Y008133D03*
X008394Y008093D03*
X008394Y008054D03*
X008394Y008015D03*
X008394Y007975D03*
X008394Y007936D03*
X008394Y007897D03*
X008394Y007857D03*
X008394Y007818D03*
X008394Y007778D03*
X008394Y007739D03*
X008394Y007700D03*
X008394Y007660D03*
X008394Y007621D03*
X008394Y007582D03*
X008394Y007542D03*
X008394Y007503D03*
X008394Y007463D03*
X008394Y007424D03*
X008394Y007385D03*
X008394Y007345D03*
X008394Y007306D03*
X008394Y007267D03*
X008394Y007227D03*
X008394Y007188D03*
X008394Y007149D03*
X008394Y007109D03*
X008394Y007070D03*
X008394Y007030D03*
X008394Y006991D03*
X008394Y006952D03*
X008394Y006912D03*
X008394Y006873D03*
X008394Y006834D03*
X008394Y006794D03*
X008394Y006755D03*
X008394Y006715D03*
X008394Y006676D03*
X008394Y006637D03*
X008394Y006597D03*
X008394Y006558D03*
X008394Y006519D03*
X008394Y006479D03*
X008394Y006440D03*
X008394Y006400D03*
X008394Y006361D03*
X008394Y006322D03*
X008394Y006282D03*
X008394Y006243D03*
X008394Y006204D03*
X008394Y006164D03*
X008394Y006125D03*
X008394Y006086D03*
X008394Y006046D03*
X008394Y006007D03*
X008394Y005967D03*
X008394Y005928D03*
X008394Y005889D03*
X008394Y005849D03*
X006740Y003960D03*
X005047Y005849D03*
X005047Y005889D03*
X005047Y005928D03*
X005047Y005967D03*
X005047Y006007D03*
X005047Y006046D03*
X005047Y006086D03*
X005047Y006125D03*
X005047Y006164D03*
X005047Y006204D03*
X005047Y006243D03*
X005047Y006282D03*
X005047Y006322D03*
X005047Y006361D03*
X005047Y006400D03*
X005047Y006440D03*
X005047Y006479D03*
X005047Y006519D03*
X005047Y006558D03*
X005047Y006597D03*
X005047Y006637D03*
X005047Y006676D03*
X005047Y006715D03*
X005047Y006755D03*
X005047Y006794D03*
X005047Y006834D03*
X005047Y006873D03*
X005047Y006912D03*
X005047Y006952D03*
X005047Y006991D03*
X005047Y007030D03*
X005047Y007070D03*
X005047Y007109D03*
X005047Y007149D03*
X005047Y007188D03*
X005047Y007227D03*
X005047Y007267D03*
X005047Y007306D03*
X005047Y007345D03*
X005047Y007385D03*
X005047Y007424D03*
X005047Y007463D03*
X005047Y007503D03*
X005047Y007542D03*
X005047Y007582D03*
X005047Y007621D03*
X005047Y007660D03*
X005047Y007700D03*
X005047Y007739D03*
X005047Y007778D03*
X005047Y007818D03*
X005047Y007857D03*
X005047Y007897D03*
X005047Y007936D03*
X005047Y007975D03*
X005047Y008015D03*
X005047Y008054D03*
X005047Y008093D03*
X005047Y008133D03*
X005047Y008172D03*
X005047Y008211D03*
X005047Y008251D03*
X005047Y008290D03*
X005047Y008330D03*
X005047Y008369D03*
X005047Y008408D03*
X005047Y008448D03*
X005047Y008487D03*
X005047Y008526D03*
X005047Y008566D03*
X005047Y008605D03*
X005047Y008645D03*
X005047Y008684D03*
X005047Y008723D03*
X005047Y008763D03*
X005047Y008802D03*
X005047Y008841D03*
X005047Y008881D03*
X005047Y008920D03*
X005047Y008960D03*
X005047Y008999D03*
X005047Y009038D03*
X005047Y009078D03*
X005047Y009117D03*
X005047Y009156D03*
X005047Y009196D03*
X005047Y009235D03*
X005047Y009274D03*
X005047Y009314D03*
X005047Y009353D03*
X005047Y009393D03*
X005047Y009432D03*
X005047Y009471D03*
X005047Y009511D03*
X005047Y009550D03*
X005047Y009589D03*
X005047Y009629D03*
X005047Y009668D03*
X005047Y009708D03*
X005047Y009747D03*
X005047Y009786D03*
X005047Y009826D03*
X005047Y009865D03*
X005047Y009904D03*
X005047Y009944D03*
X005047Y009983D03*
X005047Y010023D03*
X005047Y010062D03*
X005047Y010101D03*
X005047Y010141D03*
X005047Y010180D03*
X005047Y010219D03*
X005047Y010259D03*
X005047Y010298D03*
X005047Y010337D03*
X005047Y010377D03*
X005047Y010416D03*
X005047Y010456D03*
X005047Y010495D03*
X005047Y010534D03*
X005047Y010574D03*
X005047Y010613D03*
X005047Y010652D03*
X005047Y010692D03*
X005047Y010731D03*
X005047Y010771D03*
X005047Y010810D03*
X005047Y010849D03*
X005047Y010889D03*
X005047Y010928D03*
X005047Y010967D03*
X005047Y011007D03*
X005047Y011046D03*
X005047Y011086D03*
X005047Y011125D03*
X005047Y011164D03*
X005047Y011204D03*
X005047Y011243D03*
X005047Y011282D03*
X005047Y011322D03*
X005047Y011361D03*
X005047Y011400D03*
X005047Y011440D03*
X005047Y011479D03*
X005047Y011519D03*
X005047Y011558D03*
X005047Y011597D03*
X005047Y011637D03*
X005047Y011676D03*
X005047Y011715D03*
X005047Y011755D03*
X005047Y011794D03*
X005047Y011834D03*
X005047Y011873D03*
X005047Y011912D03*
X005047Y011952D03*
X005047Y011991D03*
X005047Y012030D03*
X005047Y012070D03*
X005047Y012109D03*
X005047Y012149D03*
X005047Y012188D03*
X005047Y012227D03*
X005047Y012267D03*
X005047Y012306D03*
X005047Y012345D03*
X005047Y012385D03*
X005047Y012424D03*
X005047Y012463D03*
X005047Y012503D03*
X005047Y012542D03*
X005047Y012582D03*
X005047Y012621D03*
X005047Y012660D03*
X005047Y012700D03*
X005047Y012739D03*
X005047Y012778D03*
X005047Y012818D03*
X005047Y012857D03*
X005047Y012897D03*
X005047Y012936D03*
X005047Y012975D03*
X005047Y013015D03*
X005047Y013054D03*
X005047Y013093D03*
X005047Y013133D03*
X005047Y013172D03*
X005047Y013211D03*
X005047Y013251D03*
X005047Y013290D03*
X005047Y013330D03*
X005047Y013369D03*
X005047Y013408D03*
X005047Y013448D03*
X005047Y013487D03*
X005047Y013526D03*
X005047Y013566D03*
X005047Y013605D03*
X005047Y013645D03*
X005047Y013684D03*
X005047Y013723D03*
X005047Y013763D03*
X005047Y013802D03*
X005047Y013841D03*
X005047Y013881D03*
X005047Y013920D03*
X005047Y013960D03*
X005047Y013999D03*
X005047Y014038D03*
X005047Y014078D03*
X005047Y014117D03*
X005047Y014156D03*
X005047Y014196D03*
X005047Y014235D03*
X005047Y014274D03*
X005047Y014314D03*
X005047Y014353D03*
X005047Y014393D03*
X005047Y014432D03*
X005047Y014471D03*
X005047Y014511D03*
X005047Y014550D03*
X005047Y014589D03*
X005047Y014629D03*
X005047Y014668D03*
X005047Y014708D03*
X005047Y014747D03*
X005047Y014786D03*
X005047Y014826D03*
X005047Y014865D03*
X005047Y014904D03*
X005047Y014944D03*
X005047Y014983D03*
X005047Y015023D03*
X005047Y015062D03*
X005047Y015101D03*
X005047Y015141D03*
X005047Y015180D03*
X005047Y015219D03*
X005047Y015259D03*
X005047Y015298D03*
X005047Y015337D03*
X005047Y015377D03*
X005047Y015416D03*
X005047Y015456D03*
X005047Y015495D03*
X005047Y015534D03*
X005047Y015574D03*
X005047Y015613D03*
X005047Y015652D03*
X005047Y015692D03*
X005047Y015731D03*
X005047Y015771D03*
X005047Y015810D03*
X005047Y015849D03*
X005047Y015889D03*
X005047Y015928D03*
X005047Y015967D03*
X005047Y016007D03*
X005047Y016046D03*
X005047Y016086D03*
X005047Y016125D03*
X005047Y016164D03*
X005047Y016204D03*
X005047Y016243D03*
X005047Y016282D03*
X005047Y016322D03*
X005047Y016361D03*
X005047Y016400D03*
X005047Y016440D03*
X005047Y016479D03*
X005047Y016519D03*
X005047Y016558D03*
X005047Y016597D03*
X005047Y016637D03*
X005047Y016676D03*
X005047Y016715D03*
X005047Y016755D03*
X005047Y016794D03*
X005047Y016834D03*
X005047Y016873D03*
X005047Y016912D03*
X005047Y016952D03*
X005047Y016991D03*
X006740Y018881D03*
X020756Y018133D03*
X020756Y018093D03*
X020756Y018054D03*
X020756Y018015D03*
X020756Y017975D03*
X020756Y017936D03*
X020756Y017897D03*
X020756Y017857D03*
X020756Y017818D03*
X020756Y017778D03*
X020756Y017739D03*
X020756Y017700D03*
X020756Y017660D03*
X020756Y017621D03*
X020756Y017582D03*
X020756Y017542D03*
X020756Y017503D03*
X020756Y017463D03*
X020756Y017424D03*
X020756Y017385D03*
X020756Y017345D03*
X020756Y017306D03*
X020756Y017267D03*
X020756Y017227D03*
X020756Y017188D03*
X020756Y017149D03*
X020756Y017109D03*
X020756Y017070D03*
X020756Y017030D03*
X020756Y016991D03*
X020756Y016952D03*
X020756Y016912D03*
X020756Y016873D03*
X020756Y016834D03*
X020756Y016794D03*
X020756Y016755D03*
X020756Y016715D03*
X020756Y016676D03*
X020756Y016637D03*
X020756Y016597D03*
X020756Y016558D03*
X020756Y016519D03*
X020756Y016479D03*
X020756Y016440D03*
X020756Y016400D03*
X020756Y016361D03*
X020756Y016322D03*
X020756Y016282D03*
X020756Y016243D03*
X020756Y016204D03*
X020756Y016164D03*
X020756Y016125D03*
X020756Y016086D03*
X020756Y016046D03*
X020756Y016007D03*
X020756Y015967D03*
X020756Y015928D03*
X020756Y015889D03*
X020756Y015849D03*
X020756Y015810D03*
X020756Y015771D03*
X020756Y015731D03*
X020756Y015692D03*
X020756Y015652D03*
X020756Y015613D03*
X020756Y015574D03*
X020756Y015534D03*
X020756Y015495D03*
X020756Y015456D03*
X020756Y015416D03*
X020756Y015377D03*
X020756Y015337D03*
X020756Y015298D03*
X020756Y015259D03*
X020756Y015219D03*
X020756Y015180D03*
X020756Y015141D03*
X020756Y015101D03*
X020756Y015062D03*
X020756Y015023D03*
X020756Y014983D03*
X020756Y014944D03*
X020756Y014904D03*
X020756Y014865D03*
X020756Y014826D03*
X020756Y014786D03*
X020756Y014747D03*
X020756Y014708D03*
X020756Y014668D03*
X020756Y014629D03*
X020756Y014589D03*
X020756Y014550D03*
X020756Y014511D03*
X020756Y014471D03*
X020756Y014432D03*
X020756Y014393D03*
X020756Y014353D03*
X020756Y014314D03*
X020756Y014274D03*
X020756Y014235D03*
X020756Y014196D03*
D20*
X020303Y018802D03*
X013059Y018290D03*
X006720Y018290D03*
X006720Y004550D03*
X013059Y004550D03*
X038925Y003999D03*
X038925Y018802D03*
D21*
X013059Y018841D03*
X006720Y018841D03*
X006720Y003999D03*
X013059Y003999D03*
D22*
X019732Y010534D03*
X020244Y018763D03*
X038354Y011715D03*
X038866Y018763D03*
X038866Y004038D03*
D23*
X013079Y004038D03*
X006740Y004038D03*
X006740Y018802D03*
X013079Y018802D03*
D24*
X020185Y018723D03*
X019673Y010613D03*
X038295Y011991D03*
X038807Y018723D03*
X038807Y004078D03*
D25*
X013079Y004078D03*
X006740Y004078D03*
X006740Y018763D03*
X013079Y018763D03*
D26*
X020146Y018684D03*
X038256Y012030D03*
X038768Y018684D03*
X038768Y004117D03*
D27*
X013079Y004117D03*
X006740Y004117D03*
X006740Y018723D03*
X013079Y018723D03*
D28*
X020106Y018645D03*
X019594Y010731D03*
X038217Y012070D03*
X038728Y018645D03*
X038728Y004156D03*
D29*
X020323Y010141D03*
X013079Y004156D03*
X006740Y004156D03*
D30*
X020067Y018605D03*
X038177Y012109D03*
X038177Y011519D03*
X038689Y018605D03*
X038689Y004196D03*
D31*
X013059Y004196D03*
X006720Y004196D03*
X006720Y018645D03*
X013059Y018645D03*
D32*
X020028Y018566D03*
X019516Y010849D03*
X038138Y011479D03*
X038650Y018566D03*
X038650Y004235D03*
D33*
X013079Y004235D03*
X006740Y004235D03*
X006740Y018605D03*
X013079Y018605D03*
D34*
X019988Y018526D03*
X038610Y018526D03*
X038610Y004274D03*
D35*
X013059Y004274D03*
X006720Y004274D03*
X006720Y018566D03*
X013059Y018566D03*
D36*
X019968Y018487D03*
X038591Y018487D03*
X038591Y004314D03*
D37*
X013079Y004314D03*
X006740Y004314D03*
X006740Y018526D03*
X013079Y018526D03*
D38*
X019929Y018448D03*
X038551Y018448D03*
X038551Y004353D03*
D39*
X013059Y004353D03*
X006720Y004353D03*
X006720Y018487D03*
X013059Y018487D03*
D40*
X019909Y018408D03*
X038531Y018408D03*
X038531Y004393D03*
D41*
X019988Y010298D03*
X013059Y004393D03*
X006720Y004393D03*
X006720Y018448D03*
X013059Y018448D03*
D42*
X019870Y018369D03*
X038492Y018369D03*
X038492Y004432D03*
D43*
X019929Y010337D03*
X013079Y004432D03*
X006740Y004432D03*
X006740Y018408D03*
X013079Y018408D03*
D44*
X019850Y018330D03*
X038472Y018330D03*
X038472Y004471D03*
D45*
X038492Y011834D03*
X013059Y004471D03*
X006720Y004471D03*
D46*
X019831Y018290D03*
X038453Y018290D03*
X038453Y004511D03*
D47*
X038453Y011794D03*
X013059Y018330D03*
X006720Y018330D03*
X006720Y004511D03*
X013059Y004511D03*
D48*
X019811Y018251D03*
X038433Y004550D03*
D49*
X038394Y004589D03*
X038394Y018211D03*
X019772Y018211D03*
D50*
X018098Y018133D03*
X017626Y017503D03*
X017626Y017463D03*
X014634Y017582D03*
X014634Y017621D03*
X011957Y018251D03*
X011484Y017621D03*
X011484Y017582D03*
X008295Y017582D03*
X008295Y017621D03*
X005618Y018251D03*
X005146Y017621D03*
X005146Y017582D03*
X017626Y011597D03*
X017626Y011558D03*
X018098Y010928D03*
X014634Y005259D03*
X014634Y005219D03*
X011957Y004589D03*
X011484Y005219D03*
X011484Y005259D03*
X008295Y005259D03*
X008295Y005219D03*
X005618Y004589D03*
X005146Y005219D03*
X005146Y005259D03*
X036248Y005298D03*
X036248Y005337D03*
X036720Y004668D03*
X036248Y010810D03*
X036248Y010849D03*
X036720Y011400D03*
X036720Y012227D03*
X036248Y012818D03*
X036248Y012857D03*
X036248Y017463D03*
X036248Y017503D03*
X036720Y018133D03*
D51*
X038374Y018172D03*
X019752Y018172D03*
X038374Y004629D03*
D52*
X036642Y004708D03*
X036327Y005101D03*
X036287Y005141D03*
X036287Y005180D03*
X036327Y011007D03*
X036327Y011046D03*
X036366Y011086D03*
X036484Y011243D03*
X036524Y011282D03*
X036563Y011322D03*
X036642Y011361D03*
X036642Y012267D03*
X036366Y012542D03*
X036327Y012621D03*
X036287Y012700D03*
X036287Y017621D03*
X036287Y017660D03*
X036327Y017700D03*
X036642Y018093D03*
X018020Y018093D03*
X017705Y017700D03*
X017665Y017621D03*
X014594Y017739D03*
X014594Y017778D03*
X014555Y017818D03*
X014240Y018211D03*
X011878Y018211D03*
X011563Y017818D03*
X011524Y017778D03*
X011524Y017739D03*
X008256Y017739D03*
X008256Y017778D03*
X008217Y017818D03*
X007902Y018211D03*
X005539Y018211D03*
X005224Y017818D03*
X005185Y017778D03*
X005185Y017739D03*
X017665Y011440D03*
X017665Y011400D03*
X017705Y011361D03*
X018020Y010967D03*
X014594Y005101D03*
X014594Y005062D03*
X014555Y005023D03*
X014240Y004629D03*
X011878Y004629D03*
X011563Y005023D03*
X011524Y005062D03*
X011524Y005101D03*
X008256Y005101D03*
X008256Y005062D03*
X008217Y005023D03*
X007902Y004629D03*
X005539Y004629D03*
X005224Y005023D03*
X005185Y005062D03*
X005185Y005101D03*
D53*
X005244Y004983D03*
X005244Y004944D03*
X005283Y004904D03*
X005362Y004786D03*
X005402Y004747D03*
X005441Y004708D03*
X005480Y004668D03*
X007961Y004668D03*
X008000Y004708D03*
X008039Y004747D03*
X008079Y004786D03*
X008118Y004826D03*
X008157Y004904D03*
X008197Y004944D03*
X008197Y004983D03*
X011583Y004983D03*
X011583Y004944D03*
X011622Y004904D03*
X011701Y004786D03*
X011740Y004747D03*
X011779Y004708D03*
X011819Y004668D03*
X014299Y004668D03*
X014339Y004708D03*
X014378Y004747D03*
X014417Y004786D03*
X014457Y004826D03*
X014496Y004904D03*
X014535Y004944D03*
X014535Y004983D03*
X017961Y011007D03*
X017921Y011046D03*
X017882Y011086D03*
X017842Y011125D03*
X017764Y011243D03*
X017724Y011282D03*
X017724Y011322D03*
X017685Y017660D03*
X017724Y017739D03*
X017724Y017778D03*
X017764Y017818D03*
X017803Y017857D03*
X017882Y017975D03*
X017921Y018015D03*
X017961Y018054D03*
X014535Y017897D03*
X014535Y017857D03*
X014496Y017936D03*
X014457Y018015D03*
X014417Y018054D03*
X014378Y018093D03*
X014339Y018133D03*
X014299Y018172D03*
X011819Y018172D03*
X011779Y018133D03*
X011740Y018093D03*
X011622Y017936D03*
X011583Y017897D03*
X011583Y017857D03*
X008197Y017857D03*
X008197Y017897D03*
X008157Y017936D03*
X008118Y018015D03*
X008079Y018054D03*
X008039Y018093D03*
X008000Y018133D03*
X007961Y018172D03*
X005480Y018172D03*
X005441Y018133D03*
X005402Y018093D03*
X005283Y017936D03*
X005244Y017897D03*
X005244Y017857D03*
X036346Y017778D03*
X036346Y017739D03*
X036386Y017818D03*
X036465Y017936D03*
X036504Y017975D03*
X036543Y018015D03*
X036583Y018054D03*
X036346Y012582D03*
X036386Y012503D03*
X036425Y012463D03*
X036465Y012424D03*
X036504Y012385D03*
X036543Y012345D03*
X036583Y012306D03*
X036465Y011204D03*
X036425Y011164D03*
X036386Y011125D03*
X036346Y005062D03*
X036346Y005023D03*
X036386Y004983D03*
X036465Y004865D03*
X036504Y004826D03*
X036543Y004786D03*
X036583Y004747D03*
D54*
X036445Y004904D03*
X036405Y004944D03*
X017823Y011164D03*
X017783Y011204D03*
X014476Y004865D03*
X011681Y004826D03*
X011642Y004865D03*
X008138Y004865D03*
X005342Y004826D03*
X005303Y004865D03*
X005303Y017975D03*
X005342Y018015D03*
X005382Y018054D03*
X008138Y017975D03*
X011642Y017975D03*
X011681Y018015D03*
X011720Y018054D03*
X014476Y017975D03*
X017823Y017897D03*
X017862Y017936D03*
X036405Y017857D03*
X036445Y017897D03*
D55*
X036228Y017424D03*
X036228Y017385D03*
X036228Y012936D03*
X036228Y012897D03*
X036228Y010771D03*
X036228Y010731D03*
X036228Y010692D03*
X036228Y005416D03*
X036228Y005377D03*
X017606Y011637D03*
X017606Y011676D03*
X017606Y017345D03*
X017606Y017385D03*
X017606Y017424D03*
X014654Y017503D03*
X014654Y017542D03*
X011465Y017542D03*
X011465Y017503D03*
X008315Y017503D03*
X008315Y017542D03*
X005126Y017542D03*
X005126Y017503D03*
X005126Y005337D03*
X005126Y005298D03*
X008315Y005298D03*
X008315Y005337D03*
X011465Y005337D03*
X011465Y005298D03*
X014654Y005298D03*
X014654Y005337D03*
D56*
X014673Y005377D03*
X014673Y005416D03*
X014673Y005456D03*
X011445Y005456D03*
X011445Y005416D03*
X011445Y005377D03*
X008335Y005377D03*
X008335Y005416D03*
X008335Y005456D03*
X005106Y005456D03*
X005106Y005416D03*
X005106Y005377D03*
X017587Y011715D03*
X017587Y011755D03*
X017587Y011794D03*
X017587Y017267D03*
X017587Y017306D03*
X014673Y017385D03*
X014673Y017424D03*
X014673Y017463D03*
X011445Y017463D03*
X011445Y017424D03*
X011445Y017385D03*
X008335Y017385D03*
X008335Y017424D03*
X008335Y017463D03*
X005106Y017463D03*
X005106Y017424D03*
X005106Y017385D03*
X036209Y017345D03*
X036209Y017306D03*
X036209Y017267D03*
X036209Y013054D03*
X036209Y013015D03*
X036209Y012975D03*
X036209Y010652D03*
X036209Y010613D03*
X036209Y010574D03*
X036209Y005534D03*
X036209Y005495D03*
X036209Y005456D03*
D57*
X036189Y005574D03*
X036189Y005613D03*
X036189Y005652D03*
X036189Y005692D03*
X036189Y010456D03*
X036189Y010495D03*
X036189Y010534D03*
X036189Y013093D03*
X036189Y013133D03*
X036189Y013172D03*
X036189Y013211D03*
X036189Y017109D03*
X036189Y017149D03*
X036189Y017188D03*
X036189Y017227D03*
X017567Y017227D03*
X017567Y017188D03*
X017567Y017149D03*
X017567Y017109D03*
X014693Y017227D03*
X014693Y017267D03*
X014693Y017306D03*
X014693Y017345D03*
X011425Y017345D03*
X011425Y017306D03*
X011425Y017267D03*
X011425Y017227D03*
X008354Y017227D03*
X008354Y017267D03*
X008354Y017306D03*
X008354Y017345D03*
X005087Y017345D03*
X005087Y017306D03*
X005087Y017267D03*
X005087Y017227D03*
X017567Y011952D03*
X017567Y011912D03*
X017567Y011873D03*
X017567Y011834D03*
X014693Y005574D03*
X014693Y005534D03*
X014693Y005495D03*
X011425Y005495D03*
X011425Y005534D03*
X011425Y005574D03*
X011425Y005613D03*
X008354Y005574D03*
X008354Y005534D03*
X008354Y005495D03*
X005087Y005495D03*
X005087Y005534D03*
X005087Y005574D03*
X005087Y005613D03*
D58*
X005067Y005652D03*
X005067Y005692D03*
X005067Y005731D03*
X005067Y005771D03*
X005067Y005810D03*
X008374Y005810D03*
X008374Y005771D03*
X008374Y005731D03*
X008374Y005692D03*
X008374Y005652D03*
X008374Y005613D03*
X011405Y005652D03*
X011405Y005692D03*
X011405Y005731D03*
X011405Y005771D03*
X011405Y005810D03*
X014713Y005810D03*
X014713Y005771D03*
X014713Y005731D03*
X014713Y005692D03*
X014713Y005652D03*
X014713Y005613D03*
X017547Y011991D03*
X017547Y012030D03*
X017547Y012070D03*
X017547Y012109D03*
X017547Y012149D03*
X017547Y016912D03*
X017547Y016952D03*
X017547Y016991D03*
X017547Y017030D03*
X017547Y017070D03*
X014713Y017070D03*
X014713Y017109D03*
X014713Y017149D03*
X014713Y017188D03*
X014713Y017030D03*
X011405Y017030D03*
X011405Y017070D03*
X011405Y017109D03*
X011405Y017149D03*
X011405Y017188D03*
X008374Y017188D03*
X008374Y017149D03*
X008374Y017109D03*
X008374Y017070D03*
X008374Y017030D03*
X005067Y017030D03*
X005067Y017070D03*
X005067Y017109D03*
X005067Y017149D03*
X005067Y017188D03*
X036169Y017070D03*
X036169Y017030D03*
X036169Y016991D03*
X036169Y016952D03*
X036169Y016912D03*
X036169Y013408D03*
X036169Y013369D03*
X036169Y013330D03*
X036169Y013290D03*
X036169Y013251D03*
X036169Y010416D03*
X036169Y010377D03*
X036169Y010337D03*
X036169Y010298D03*
X036169Y010259D03*
X036169Y010219D03*
X036169Y005889D03*
X036169Y005849D03*
X036169Y005810D03*
X036169Y005771D03*
X036169Y005731D03*
D59*
X020185Y010180D03*
D60*
X020106Y010219D03*
D61*
X020047Y010259D03*
D62*
X019890Y010377D03*
X013079Y018369D03*
X006740Y018369D03*
D63*
X019811Y010456D03*
X038433Y011873D03*
D64*
X038394Y011755D03*
X031976Y011755D03*
X031976Y011794D03*
X031976Y011834D03*
X031976Y011873D03*
X031976Y011912D03*
X031976Y011952D03*
X031976Y011991D03*
X031976Y012030D03*
X031976Y012070D03*
X031976Y012109D03*
X031976Y012149D03*
X031976Y012188D03*
X031976Y011715D03*
X031976Y011676D03*
X031976Y011637D03*
X031976Y011597D03*
X031976Y011558D03*
X031976Y011519D03*
X031976Y011479D03*
X031976Y011440D03*
X025874Y011440D03*
X025874Y011479D03*
X025874Y011519D03*
X025874Y011558D03*
X025874Y011597D03*
X025874Y011637D03*
X025874Y011676D03*
X025874Y011715D03*
X025874Y011755D03*
X025874Y011794D03*
X025874Y011834D03*
X025874Y011873D03*
X025874Y011912D03*
X025874Y011952D03*
X025874Y011991D03*
X025874Y012030D03*
X025874Y012070D03*
X025874Y012109D03*
X025874Y012149D03*
X025874Y012188D03*
X019772Y010495D03*
D65*
X019693Y010574D03*
X038315Y011676D03*
D66*
X038276Y011637D03*
X019654Y010652D03*
D67*
X019614Y010692D03*
X038236Y011597D03*
D68*
X038197Y011558D03*
X019575Y010771D03*
D69*
X019535Y010810D03*
X038157Y012149D03*
D70*
X038118Y012188D03*
X038118Y011440D03*
X019496Y010889D03*
D71*
X038374Y011912D03*
D72*
X038335Y011952D03*
D73*
X038413Y018251D03*
D74*
X013059Y018684D03*
X006720Y018684D03*
D75*
X007315Y022829D02*
X007148Y022996D01*
X007148Y023664D01*
X007315Y023831D01*
X007649Y023831D01*
X007816Y023664D01*
X007816Y022996D01*
X007649Y022829D01*
X007315Y022829D01*
X005641Y022829D02*
X005641Y023831D01*
X005307Y023497D01*
X004973Y023831D01*
X004973Y022829D01*
X009323Y022996D02*
X009490Y022829D01*
X009824Y022829D01*
X009991Y022996D01*
X009991Y023664D01*
X009824Y023831D01*
X009490Y023831D01*
X009323Y023664D01*
X011455Y022996D02*
X011455Y022829D01*
X011622Y022829D01*
X011622Y022996D01*
X011455Y022996D01*
X013129Y022996D02*
X013296Y022829D01*
X013630Y022829D01*
X013797Y022996D01*
X013630Y023330D02*
X013296Y023330D01*
X013129Y023163D01*
X013129Y022996D01*
X013630Y023330D02*
X013797Y023497D01*
X013797Y023664D01*
X013630Y023831D01*
X013296Y023831D01*
X013129Y023664D01*
X015304Y023664D02*
X015304Y023497D01*
X015471Y023330D01*
X015972Y023330D01*
X015471Y023330D02*
X015304Y023163D01*
X015304Y022996D01*
X015471Y022829D01*
X015972Y022829D01*
X015972Y023831D01*
X015471Y023831D01*
X015304Y023664D01*
X017479Y023497D02*
X017479Y022829D01*
X017479Y023330D02*
X018147Y023330D01*
X018147Y023497D02*
X017813Y023831D01*
X017479Y023497D01*
X018147Y023497D02*
X018147Y022829D01*
X019654Y022829D02*
X020322Y022829D01*
X020322Y023831D01*
X021829Y023831D02*
X021829Y022829D01*
X022497Y022829D02*
X022497Y023831D01*
X022163Y023497D01*
X021829Y023831D01*
X024005Y023664D02*
X024005Y022996D01*
X024172Y022829D01*
X024506Y022829D01*
X024673Y022996D01*
X024673Y023664D01*
X024506Y023831D01*
X024172Y023831D01*
X024005Y023664D01*
X026180Y023664D02*
X026180Y022996D01*
X026347Y022829D01*
X026681Y022829D01*
X026848Y022996D01*
X026848Y023664D01*
X026681Y023831D01*
X026347Y023831D01*
X026180Y023664D01*
X028355Y023664D02*
X028355Y023330D01*
X028522Y023163D01*
X029023Y023163D01*
X029023Y022829D02*
X029023Y023831D01*
X028522Y023831D01*
X028355Y023664D01*
X028689Y023163D02*
X028355Y022829D01*
X030530Y022829D02*
X031198Y022829D01*
X031198Y023831D01*
X032705Y022829D02*
X033373Y022829D01*
X033373Y023831D01*
X034880Y023497D02*
X034880Y022829D01*
X035548Y022829D02*
X035548Y023497D01*
X035214Y023831D01*
X034880Y023497D01*
X034880Y023330D02*
X035548Y023330D01*
X037055Y023831D02*
X037055Y022829D01*
X037723Y022829D02*
X037723Y023831D01*
X037389Y023497D01*
X037055Y023831D01*
X039230Y023664D02*
X039397Y023831D01*
X039731Y023831D01*
X039898Y023664D01*
X039898Y023497D01*
X039731Y023330D01*
X039397Y023330D01*
X039230Y023163D01*
X039230Y022996D01*
X039397Y022829D01*
X039731Y022829D01*
X039898Y022996D01*
D76*
X002587Y030101D02*
X002587Y001755D01*
X003531Y001755D02*
X003533Y001805D01*
X003539Y001855D01*
X003549Y001904D01*
X003563Y001952D01*
X003580Y001999D01*
X003601Y002044D01*
X003626Y002088D01*
X003654Y002129D01*
X003686Y002168D01*
X003720Y002205D01*
X003757Y002239D01*
X003797Y002269D01*
X003839Y002296D01*
X003883Y002320D01*
X003929Y002341D01*
X003976Y002357D01*
X004024Y002370D01*
X004074Y002379D01*
X004123Y002384D01*
X004174Y002385D01*
X004224Y002382D01*
X004273Y002375D01*
X004322Y002364D01*
X004370Y002349D01*
X004416Y002331D01*
X004461Y002309D01*
X004504Y002283D01*
X004545Y002254D01*
X004584Y002222D01*
X004620Y002187D01*
X004652Y002149D01*
X004682Y002109D01*
X004709Y002066D01*
X004732Y002022D01*
X004751Y001976D01*
X004767Y001928D01*
X004779Y001879D01*
X004787Y001830D01*
X004791Y001780D01*
X004791Y001730D01*
X004787Y001680D01*
X004779Y001631D01*
X004767Y001582D01*
X004751Y001534D01*
X004732Y001488D01*
X004709Y001444D01*
X004682Y001401D01*
X004652Y001361D01*
X004620Y001323D01*
X004584Y001288D01*
X004545Y001256D01*
X004504Y001227D01*
X004461Y001201D01*
X004416Y001179D01*
X004370Y001161D01*
X004322Y001146D01*
X004273Y001135D01*
X004224Y001128D01*
X004174Y001125D01*
X004123Y001126D01*
X004074Y001131D01*
X004024Y001140D01*
X003976Y001153D01*
X003929Y001169D01*
X003883Y001190D01*
X003839Y001214D01*
X003797Y001241D01*
X003757Y001271D01*
X003720Y001305D01*
X003686Y001342D01*
X003654Y001381D01*
X003626Y001422D01*
X003601Y001466D01*
X003580Y001511D01*
X003563Y001558D01*
X003549Y001606D01*
X003539Y001655D01*
X003533Y001705D01*
X003531Y001755D01*
X002586Y001755D02*
X002588Y001678D01*
X002594Y001601D01*
X002603Y001524D01*
X002616Y001448D01*
X002633Y001372D01*
X002654Y001298D01*
X002678Y001224D01*
X002706Y001152D01*
X002737Y001082D01*
X002772Y001013D01*
X002810Y000945D01*
X002851Y000880D01*
X002896Y000817D01*
X002944Y000756D01*
X002994Y000697D01*
X003047Y000641D01*
X003103Y000588D01*
X003162Y000538D01*
X003223Y000490D01*
X003286Y000445D01*
X003351Y000404D01*
X003419Y000366D01*
X003488Y000331D01*
X003558Y000300D01*
X003630Y000272D01*
X003704Y000248D01*
X003778Y000227D01*
X003854Y000210D01*
X003930Y000197D01*
X004007Y000188D01*
X004084Y000182D01*
X004161Y000180D01*
X040382Y000180D01*
X039752Y001755D02*
X039754Y001805D01*
X039760Y001855D01*
X039770Y001904D01*
X039784Y001952D01*
X039801Y001999D01*
X039822Y002044D01*
X039847Y002088D01*
X039875Y002129D01*
X039907Y002168D01*
X039941Y002205D01*
X039978Y002239D01*
X040018Y002269D01*
X040060Y002296D01*
X040104Y002320D01*
X040150Y002341D01*
X040197Y002357D01*
X040245Y002370D01*
X040295Y002379D01*
X040344Y002384D01*
X040395Y002385D01*
X040445Y002382D01*
X040494Y002375D01*
X040543Y002364D01*
X040591Y002349D01*
X040637Y002331D01*
X040682Y002309D01*
X040725Y002283D01*
X040766Y002254D01*
X040805Y002222D01*
X040841Y002187D01*
X040873Y002149D01*
X040903Y002109D01*
X040930Y002066D01*
X040953Y002022D01*
X040972Y001976D01*
X040988Y001928D01*
X041000Y001879D01*
X041008Y001830D01*
X041012Y001780D01*
X041012Y001730D01*
X041008Y001680D01*
X041000Y001631D01*
X040988Y001582D01*
X040972Y001534D01*
X040953Y001488D01*
X040930Y001444D01*
X040903Y001401D01*
X040873Y001361D01*
X040841Y001323D01*
X040805Y001288D01*
X040766Y001256D01*
X040725Y001227D01*
X040682Y001201D01*
X040637Y001179D01*
X040591Y001161D01*
X040543Y001146D01*
X040494Y001135D01*
X040445Y001128D01*
X040395Y001125D01*
X040344Y001126D01*
X040295Y001131D01*
X040245Y001140D01*
X040197Y001153D01*
X040150Y001169D01*
X040104Y001190D01*
X040060Y001214D01*
X040018Y001241D01*
X039978Y001271D01*
X039941Y001305D01*
X039907Y001342D01*
X039875Y001381D01*
X039847Y001422D01*
X039822Y001466D01*
X039801Y001511D01*
X039784Y001558D01*
X039770Y001606D01*
X039760Y001655D01*
X039754Y001705D01*
X039752Y001755D01*
X040382Y000180D02*
X040459Y000182D01*
X040536Y000188D01*
X040613Y000197D01*
X040689Y000210D01*
X040765Y000227D01*
X040839Y000248D01*
X040913Y000272D01*
X040985Y000300D01*
X041055Y000331D01*
X041124Y000366D01*
X041192Y000404D01*
X041257Y000445D01*
X041320Y000490D01*
X041381Y000538D01*
X041440Y000588D01*
X041496Y000641D01*
X041549Y000697D01*
X041599Y000756D01*
X041647Y000817D01*
X041692Y000880D01*
X041733Y000945D01*
X041771Y001013D01*
X041806Y001082D01*
X041837Y001152D01*
X041865Y001224D01*
X041889Y001298D01*
X041910Y001372D01*
X041927Y001448D01*
X041940Y001524D01*
X041949Y001601D01*
X041955Y001678D01*
X041957Y001755D01*
X041957Y030101D01*
X039752Y030101D02*
X039754Y030151D01*
X039760Y030201D01*
X039770Y030250D01*
X039784Y030298D01*
X039801Y030345D01*
X039822Y030390D01*
X039847Y030434D01*
X039875Y030475D01*
X039907Y030514D01*
X039941Y030551D01*
X039978Y030585D01*
X040018Y030615D01*
X040060Y030642D01*
X040104Y030666D01*
X040150Y030687D01*
X040197Y030703D01*
X040245Y030716D01*
X040295Y030725D01*
X040344Y030730D01*
X040395Y030731D01*
X040445Y030728D01*
X040494Y030721D01*
X040543Y030710D01*
X040591Y030695D01*
X040637Y030677D01*
X040682Y030655D01*
X040725Y030629D01*
X040766Y030600D01*
X040805Y030568D01*
X040841Y030533D01*
X040873Y030495D01*
X040903Y030455D01*
X040930Y030412D01*
X040953Y030368D01*
X040972Y030322D01*
X040988Y030274D01*
X041000Y030225D01*
X041008Y030176D01*
X041012Y030126D01*
X041012Y030076D01*
X041008Y030026D01*
X041000Y029977D01*
X040988Y029928D01*
X040972Y029880D01*
X040953Y029834D01*
X040930Y029790D01*
X040903Y029747D01*
X040873Y029707D01*
X040841Y029669D01*
X040805Y029634D01*
X040766Y029602D01*
X040725Y029573D01*
X040682Y029547D01*
X040637Y029525D01*
X040591Y029507D01*
X040543Y029492D01*
X040494Y029481D01*
X040445Y029474D01*
X040395Y029471D01*
X040344Y029472D01*
X040295Y029477D01*
X040245Y029486D01*
X040197Y029499D01*
X040150Y029515D01*
X040104Y029536D01*
X040060Y029560D01*
X040018Y029587D01*
X039978Y029617D01*
X039941Y029651D01*
X039907Y029688D01*
X039875Y029727D01*
X039847Y029768D01*
X039822Y029812D01*
X039801Y029857D01*
X039784Y029904D01*
X039770Y029952D01*
X039760Y030001D01*
X039754Y030051D01*
X039752Y030101D01*
X040382Y031676D02*
X040459Y031674D01*
X040536Y031668D01*
X040613Y031659D01*
X040689Y031646D01*
X040765Y031629D01*
X040839Y031608D01*
X040913Y031584D01*
X040985Y031556D01*
X041055Y031525D01*
X041124Y031490D01*
X041192Y031452D01*
X041257Y031411D01*
X041320Y031366D01*
X041381Y031318D01*
X041440Y031268D01*
X041496Y031215D01*
X041549Y031159D01*
X041599Y031100D01*
X041647Y031039D01*
X041692Y030976D01*
X041733Y030911D01*
X041771Y030843D01*
X041806Y030774D01*
X041837Y030704D01*
X041865Y030632D01*
X041889Y030558D01*
X041910Y030484D01*
X041927Y030408D01*
X041940Y030332D01*
X041949Y030255D01*
X041955Y030178D01*
X041957Y030101D01*
X040382Y031676D02*
X004161Y031676D01*
X003531Y030101D02*
X003533Y030151D01*
X003539Y030201D01*
X003549Y030250D01*
X003563Y030298D01*
X003580Y030345D01*
X003601Y030390D01*
X003626Y030434D01*
X003654Y030475D01*
X003686Y030514D01*
X003720Y030551D01*
X003757Y030585D01*
X003797Y030615D01*
X003839Y030642D01*
X003883Y030666D01*
X003929Y030687D01*
X003976Y030703D01*
X004024Y030716D01*
X004074Y030725D01*
X004123Y030730D01*
X004174Y030731D01*
X004224Y030728D01*
X004273Y030721D01*
X004322Y030710D01*
X004370Y030695D01*
X004416Y030677D01*
X004461Y030655D01*
X004504Y030629D01*
X004545Y030600D01*
X004584Y030568D01*
X004620Y030533D01*
X004652Y030495D01*
X004682Y030455D01*
X004709Y030412D01*
X004732Y030368D01*
X004751Y030322D01*
X004767Y030274D01*
X004779Y030225D01*
X004787Y030176D01*
X004791Y030126D01*
X004791Y030076D01*
X004787Y030026D01*
X004779Y029977D01*
X004767Y029928D01*
X004751Y029880D01*
X004732Y029834D01*
X004709Y029790D01*
X004682Y029747D01*
X004652Y029707D01*
X004620Y029669D01*
X004584Y029634D01*
X004545Y029602D01*
X004504Y029573D01*
X004461Y029547D01*
X004416Y029525D01*
X004370Y029507D01*
X004322Y029492D01*
X004273Y029481D01*
X004224Y029474D01*
X004174Y029471D01*
X004123Y029472D01*
X004074Y029477D01*
X004024Y029486D01*
X003976Y029499D01*
X003929Y029515D01*
X003883Y029536D01*
X003839Y029560D01*
X003797Y029587D01*
X003757Y029617D01*
X003720Y029651D01*
X003686Y029688D01*
X003654Y029727D01*
X003626Y029768D01*
X003601Y029812D01*
X003580Y029857D01*
X003563Y029904D01*
X003549Y029952D01*
X003539Y030001D01*
X003533Y030051D01*
X003531Y030101D01*
X002586Y030101D02*
X002588Y030178D01*
X002594Y030255D01*
X002603Y030332D01*
X002616Y030408D01*
X002633Y030484D01*
X002654Y030558D01*
X002678Y030632D01*
X002706Y030704D01*
X002737Y030774D01*
X002772Y030843D01*
X002810Y030911D01*
X002851Y030976D01*
X002896Y031039D01*
X002944Y031100D01*
X002994Y031159D01*
X003047Y031215D01*
X003103Y031268D01*
X003162Y031318D01*
X003223Y031366D01*
X003286Y031411D01*
X003351Y031452D01*
X003419Y031490D01*
X003488Y031525D01*
X003558Y031556D01*
X003630Y031584D01*
X003704Y031608D01*
X003778Y031629D01*
X003854Y031646D01*
X003930Y031659D01*
X004007Y031668D01*
X004084Y031674D01*
X004161Y031676D01*
X006929Y029758D02*
X006931Y029791D01*
X006937Y029823D01*
X006946Y029854D01*
X006959Y029884D01*
X006976Y029912D01*
X006996Y029938D01*
X007019Y029962D01*
X007044Y029982D01*
X007072Y030000D01*
X007101Y030014D01*
X007132Y030024D01*
X007164Y030031D01*
X007197Y030034D01*
X007230Y030033D01*
X007262Y030028D01*
X007293Y030019D01*
X007324Y030007D01*
X007352Y029991D01*
X007379Y029972D01*
X007403Y029950D01*
X007424Y029925D01*
X007443Y029898D01*
X007458Y029869D01*
X007469Y029839D01*
X007477Y029807D01*
X007481Y029774D01*
X007481Y029742D01*
X007477Y029709D01*
X007469Y029677D01*
X007458Y029647D01*
X007443Y029618D01*
X007424Y029591D01*
X007403Y029566D01*
X007379Y029544D01*
X007352Y029525D01*
X007324Y029509D01*
X007293Y029497D01*
X007262Y029488D01*
X007230Y029483D01*
X007197Y029482D01*
X007164Y029485D01*
X007132Y029492D01*
X007101Y029502D01*
X007072Y029516D01*
X007044Y029534D01*
X007019Y029554D01*
X006996Y029578D01*
X006976Y029604D01*
X006959Y029632D01*
X006946Y029662D01*
X006937Y029693D01*
X006931Y029725D01*
X006929Y029758D01*
X003236Y027149D02*
X003238Y027172D01*
X003244Y027195D01*
X003254Y027216D01*
X003267Y027236D01*
X003283Y027253D01*
X003302Y027267D01*
X003323Y027277D01*
X003345Y027284D01*
X003368Y027287D01*
X003392Y027286D01*
X003414Y027281D01*
X003436Y027272D01*
X003456Y027260D01*
X003474Y027244D01*
X003488Y027226D01*
X003500Y027206D01*
X003508Y027184D01*
X003512Y027161D01*
X003512Y027137D01*
X003508Y027114D01*
X003500Y027092D01*
X003488Y027072D01*
X003474Y027054D01*
X003456Y027038D01*
X003436Y027026D01*
X003414Y027017D01*
X003392Y027012D01*
X003368Y027011D01*
X003345Y027014D01*
X003323Y027021D01*
X003302Y027031D01*
X003283Y027045D01*
X003267Y027062D01*
X003254Y027082D01*
X003244Y027103D01*
X003238Y027126D01*
X003236Y027149D01*
X003236Y025967D02*
X003238Y025990D01*
X003244Y026013D01*
X003254Y026034D01*
X003267Y026054D01*
X003283Y026071D01*
X003302Y026085D01*
X003323Y026095D01*
X003345Y026102D01*
X003368Y026105D01*
X003392Y026104D01*
X003414Y026099D01*
X003436Y026090D01*
X003456Y026078D01*
X003474Y026062D01*
X003488Y026044D01*
X003500Y026024D01*
X003508Y026002D01*
X003512Y025979D01*
X003512Y025955D01*
X003508Y025932D01*
X003500Y025910D01*
X003488Y025890D01*
X003474Y025872D01*
X003456Y025856D01*
X003436Y025844D01*
X003414Y025835D01*
X003392Y025830D01*
X003368Y025829D01*
X003345Y025832D01*
X003323Y025839D01*
X003302Y025849D01*
X003283Y025863D01*
X003267Y025880D01*
X003254Y025900D01*
X003244Y025921D01*
X003238Y025944D01*
X003236Y025967D01*
X003807Y006086D02*
X003809Y006105D01*
X003814Y006124D01*
X003824Y006140D01*
X003836Y006155D01*
X003851Y006167D01*
X003867Y006177D01*
X003886Y006182D01*
X003905Y006184D01*
X003924Y006182D01*
X003943Y006177D01*
X003959Y006167D01*
X003974Y006155D01*
X003986Y006140D01*
X003996Y006124D01*
X004001Y006105D01*
X004003Y006086D01*
X004001Y006067D01*
X003996Y006048D01*
X003986Y006032D01*
X003974Y006017D01*
X003959Y006005D01*
X003943Y005995D01*
X003924Y005990D01*
X003905Y005988D01*
X003886Y005990D01*
X003867Y005995D01*
X003851Y006005D01*
X003836Y006017D01*
X003824Y006032D01*
X003814Y006048D01*
X003809Y006067D01*
X003807Y006086D01*
X003807Y004511D02*
X003809Y004530D01*
X003814Y004549D01*
X003824Y004565D01*
X003836Y004580D01*
X003851Y004592D01*
X003867Y004602D01*
X003886Y004607D01*
X003905Y004609D01*
X003924Y004607D01*
X003943Y004602D01*
X003959Y004592D01*
X003974Y004580D01*
X003986Y004565D01*
X003996Y004549D01*
X004001Y004530D01*
X004003Y004511D01*
X004001Y004492D01*
X003996Y004473D01*
X003986Y004457D01*
X003974Y004442D01*
X003959Y004430D01*
X003943Y004420D01*
X003924Y004415D01*
X003905Y004413D01*
X003886Y004415D01*
X003867Y004420D01*
X003851Y004430D01*
X003836Y004442D01*
X003824Y004457D01*
X003814Y004473D01*
X003809Y004492D01*
X003807Y004511D01*
X016295Y001834D02*
X016297Y001861D01*
X016303Y001888D01*
X016312Y001914D01*
X016325Y001938D01*
X016341Y001961D01*
X016360Y001980D01*
X016382Y001997D01*
X016406Y002011D01*
X016431Y002021D01*
X016458Y002028D01*
X016485Y002031D01*
X016513Y002030D01*
X016540Y002025D01*
X016566Y002017D01*
X016590Y002005D01*
X016613Y001989D01*
X016634Y001971D01*
X016651Y001950D01*
X016666Y001926D01*
X016677Y001901D01*
X016685Y001875D01*
X016689Y001848D01*
X016689Y001820D01*
X016685Y001793D01*
X016677Y001767D01*
X016666Y001742D01*
X016651Y001718D01*
X016634Y001697D01*
X016613Y001679D01*
X016591Y001663D01*
X016566Y001651D01*
X016540Y001643D01*
X016513Y001638D01*
X016485Y001637D01*
X016458Y001640D01*
X016431Y001647D01*
X016406Y001657D01*
X016382Y001671D01*
X016360Y001688D01*
X016341Y001707D01*
X016325Y001730D01*
X016312Y001754D01*
X016303Y001780D01*
X016297Y001807D01*
X016295Y001834D01*
X019445Y001834D02*
X019447Y001861D01*
X019453Y001888D01*
X019462Y001914D01*
X019475Y001938D01*
X019491Y001961D01*
X019510Y001980D01*
X019532Y001997D01*
X019556Y002011D01*
X019581Y002021D01*
X019608Y002028D01*
X019635Y002031D01*
X019663Y002030D01*
X019690Y002025D01*
X019716Y002017D01*
X019740Y002005D01*
X019763Y001989D01*
X019784Y001971D01*
X019801Y001950D01*
X019816Y001926D01*
X019827Y001901D01*
X019835Y001875D01*
X019839Y001848D01*
X019839Y001820D01*
X019835Y001793D01*
X019827Y001767D01*
X019816Y001742D01*
X019801Y001718D01*
X019784Y001697D01*
X019763Y001679D01*
X019741Y001663D01*
X019716Y001651D01*
X019690Y001643D01*
X019663Y001638D01*
X019635Y001637D01*
X019608Y001640D01*
X019581Y001647D01*
X019556Y001657D01*
X019532Y001671D01*
X019510Y001688D01*
X019491Y001707D01*
X019475Y001730D01*
X019462Y001754D01*
X019453Y001780D01*
X019447Y001807D01*
X019445Y001834D01*
X036425Y015416D02*
X036427Y015445D01*
X036433Y015473D01*
X036442Y015501D01*
X036455Y015527D01*
X036472Y015550D01*
X036491Y015572D01*
X036513Y015591D01*
X036538Y015606D01*
X036564Y015619D01*
X036592Y015627D01*
X036620Y015632D01*
X036649Y015633D01*
X036678Y015630D01*
X036706Y015623D01*
X036733Y015613D01*
X036759Y015599D01*
X036782Y015582D01*
X036803Y015562D01*
X036821Y015539D01*
X036836Y015514D01*
X036847Y015487D01*
X036855Y015459D01*
X036859Y015430D01*
X036859Y015402D01*
X036855Y015373D01*
X036847Y015345D01*
X036836Y015318D01*
X036821Y015293D01*
X036803Y015270D01*
X036782Y015250D01*
X036759Y015233D01*
X036733Y015219D01*
X036706Y015209D01*
X036678Y015202D01*
X036649Y015199D01*
X036620Y015200D01*
X036592Y015205D01*
X036564Y015213D01*
X036538Y015226D01*
X036513Y015241D01*
X036491Y015260D01*
X036472Y015282D01*
X036455Y015305D01*
X036442Y015331D01*
X036433Y015359D01*
X036427Y015387D01*
X036425Y015416D01*
X039181Y015416D02*
X039183Y015445D01*
X039189Y015473D01*
X039198Y015501D01*
X039211Y015527D01*
X039228Y015550D01*
X039247Y015572D01*
X039269Y015591D01*
X039294Y015606D01*
X039320Y015619D01*
X039348Y015627D01*
X039376Y015632D01*
X039405Y015633D01*
X039434Y015630D01*
X039462Y015623D01*
X039489Y015613D01*
X039515Y015599D01*
X039538Y015582D01*
X039559Y015562D01*
X039577Y015539D01*
X039592Y015514D01*
X039603Y015487D01*
X039611Y015459D01*
X039615Y015430D01*
X039615Y015402D01*
X039611Y015373D01*
X039603Y015345D01*
X039592Y015318D01*
X039577Y015293D01*
X039559Y015270D01*
X039538Y015250D01*
X039515Y015233D01*
X039489Y015219D01*
X039462Y015209D01*
X039434Y015202D01*
X039405Y015199D01*
X039376Y015200D01*
X039348Y015205D01*
X039320Y015213D01*
X039294Y015226D01*
X039269Y015241D01*
X039247Y015260D01*
X039228Y015282D01*
X039211Y015305D01*
X039198Y015331D01*
X039189Y015359D01*
X039183Y015387D01*
X039181Y015416D01*
D77*
X038787Y030515D02*
X038787Y030987D01*
X038551Y030987D01*
X038472Y030908D01*
X038472Y030751D01*
X038551Y030672D01*
X038787Y030672D01*
X038630Y030672D02*
X038472Y030515D01*
X038316Y030594D02*
X038316Y030751D01*
X038237Y030830D01*
X038080Y030830D01*
X038001Y030751D01*
X038001Y030672D01*
X038316Y030672D01*
X038316Y030594D02*
X038237Y030515D01*
X038080Y030515D01*
X037687Y030515D02*
X037530Y030830D01*
X037373Y030830D02*
X037216Y030987D01*
X037216Y030515D01*
X037373Y030515D02*
X037058Y030515D01*
X037687Y030515D02*
X037845Y030830D01*
M02*
