G75*
G70*
%OFA0B0*%
%FSLAX24Y24*%
%IPPOS*%
%LPD*%
%AMOC8*
5,1,8,0,0,1.08239X$1,22.5*
%
%ADD10C,0.0150*%
%ADD11C,0.0000*%
%ADD12C,0.1300*%
%ADD13OC8,0.0867*%
%ADD14C,0.0591*%
%ADD15C,0.0890*%
%ADD16R,0.0316X0.1457*%
%ADD17R,0.1024X0.1024*%
%ADD18R,0.0709X0.0886*%
%ADD19R,0.0709X0.1378*%
%ADD20R,0.0748X0.1378*%
%ADD21C,0.0434*%
%ADD22R,0.0690X0.0690*%
%ADD23C,0.0473*%
%ADD24R,0.0355X0.0670*%
%ADD25R,0.0620X0.0540*%
%ADD26R,0.0631X0.0316*%
%ADD27C,0.0177*%
%ADD28C,0.0316*%
%ADD29R,0.1221X0.1418*%
%ADD30R,0.0394X0.0276*%
%ADD31R,0.1064X0.0591*%
%ADD32R,0.0965X0.0197*%
%ADD33C,0.0197*%
%ADD34C,0.0237*%
%ADD35R,0.0237X0.0631*%
%ADD36R,0.0631X0.0237*%
%ADD37R,0.0540X0.0620*%
%ADD38R,0.0540X0.0540*%
%ADD39R,0.0493X0.0213*%
%ADD40R,0.0493X0.0288*%
%ADD41R,0.0634X0.0634*%
%ADD42R,0.0984X0.1575*%
%ADD43R,0.0560X0.0560*%
%ADD44C,0.0560*%
%ADD45R,0.0276X0.0906*%
%ADD46R,0.0906X0.0591*%
%ADD47R,0.0520X0.0920*%
%ADD48R,0.1457X0.0906*%
%ADD49R,0.0631X0.0434*%
%ADD50C,0.0690*%
D10*
X022839Y001338D02*
X023394Y001338D01*
X023579Y001523D01*
X023579Y001708D01*
X023394Y001893D01*
X022839Y001893D01*
X023394Y001893D02*
X023579Y002078D01*
X023579Y002263D01*
X023394Y002448D01*
X022839Y002448D01*
X022839Y001338D01*
X023999Y001338D02*
X024739Y001338D01*
X025159Y001338D02*
X025899Y001338D01*
X026319Y001338D02*
X026319Y002448D01*
X026874Y002448D01*
X027059Y002263D01*
X027059Y001893D01*
X026874Y001708D01*
X026319Y001708D01*
X025529Y001893D02*
X025159Y001893D01*
X025159Y002448D02*
X025159Y001338D01*
X024369Y001893D02*
X023999Y001893D01*
X023999Y002448D02*
X023999Y001338D01*
X023999Y002448D02*
X024739Y002448D01*
X025159Y002448D02*
X025899Y002448D01*
X027479Y002263D02*
X027479Y001523D01*
X027664Y001338D01*
X028034Y001338D01*
X028219Y001523D01*
X028219Y002263D01*
X028034Y002448D01*
X027664Y002448D01*
X027479Y002263D01*
X028639Y002263D02*
X028639Y001523D01*
X028824Y001338D01*
X029194Y001338D01*
X029380Y001523D01*
X029380Y002263D01*
X029194Y002448D01*
X028824Y002448D01*
X028639Y002263D01*
D11*
X002587Y001755D02*
X002587Y030101D01*
X003531Y030101D02*
X003533Y030151D01*
X003539Y030201D01*
X003549Y030250D01*
X003563Y030298D01*
X003580Y030345D01*
X003601Y030390D01*
X003626Y030434D01*
X003654Y030475D01*
X003686Y030514D01*
X003720Y030551D01*
X003757Y030585D01*
X003797Y030615D01*
X003839Y030642D01*
X003883Y030666D01*
X003929Y030687D01*
X003976Y030703D01*
X004024Y030716D01*
X004074Y030725D01*
X004123Y030730D01*
X004174Y030731D01*
X004224Y030728D01*
X004273Y030721D01*
X004322Y030710D01*
X004370Y030695D01*
X004416Y030677D01*
X004461Y030655D01*
X004504Y030629D01*
X004545Y030600D01*
X004584Y030568D01*
X004620Y030533D01*
X004652Y030495D01*
X004682Y030455D01*
X004709Y030412D01*
X004732Y030368D01*
X004751Y030322D01*
X004767Y030274D01*
X004779Y030225D01*
X004787Y030176D01*
X004791Y030126D01*
X004791Y030076D01*
X004787Y030026D01*
X004779Y029977D01*
X004767Y029928D01*
X004751Y029880D01*
X004732Y029834D01*
X004709Y029790D01*
X004682Y029747D01*
X004652Y029707D01*
X004620Y029669D01*
X004584Y029634D01*
X004545Y029602D01*
X004504Y029573D01*
X004461Y029547D01*
X004416Y029525D01*
X004370Y029507D01*
X004322Y029492D01*
X004273Y029481D01*
X004224Y029474D01*
X004174Y029471D01*
X004123Y029472D01*
X004074Y029477D01*
X004024Y029486D01*
X003976Y029499D01*
X003929Y029515D01*
X003883Y029536D01*
X003839Y029560D01*
X003797Y029587D01*
X003757Y029617D01*
X003720Y029651D01*
X003686Y029688D01*
X003654Y029727D01*
X003626Y029768D01*
X003601Y029812D01*
X003580Y029857D01*
X003563Y029904D01*
X003549Y029952D01*
X003539Y030001D01*
X003533Y030051D01*
X003531Y030101D01*
X002586Y030101D02*
X002588Y030178D01*
X002594Y030255D01*
X002603Y030332D01*
X002616Y030408D01*
X002633Y030484D01*
X002654Y030558D01*
X002678Y030632D01*
X002706Y030704D01*
X002737Y030774D01*
X002772Y030843D01*
X002810Y030911D01*
X002851Y030976D01*
X002896Y031039D01*
X002944Y031100D01*
X002994Y031159D01*
X003047Y031215D01*
X003103Y031268D01*
X003162Y031318D01*
X003223Y031366D01*
X003286Y031411D01*
X003351Y031452D01*
X003419Y031490D01*
X003488Y031525D01*
X003558Y031556D01*
X003630Y031584D01*
X003704Y031608D01*
X003778Y031629D01*
X003854Y031646D01*
X003930Y031659D01*
X004007Y031668D01*
X004084Y031674D01*
X004161Y031676D01*
X040382Y031676D01*
X039752Y030101D02*
X039754Y030151D01*
X039760Y030201D01*
X039770Y030250D01*
X039784Y030298D01*
X039801Y030345D01*
X039822Y030390D01*
X039847Y030434D01*
X039875Y030475D01*
X039907Y030514D01*
X039941Y030551D01*
X039978Y030585D01*
X040018Y030615D01*
X040060Y030642D01*
X040104Y030666D01*
X040150Y030687D01*
X040197Y030703D01*
X040245Y030716D01*
X040295Y030725D01*
X040344Y030730D01*
X040395Y030731D01*
X040445Y030728D01*
X040494Y030721D01*
X040543Y030710D01*
X040591Y030695D01*
X040637Y030677D01*
X040682Y030655D01*
X040725Y030629D01*
X040766Y030600D01*
X040805Y030568D01*
X040841Y030533D01*
X040873Y030495D01*
X040903Y030455D01*
X040930Y030412D01*
X040953Y030368D01*
X040972Y030322D01*
X040988Y030274D01*
X041000Y030225D01*
X041008Y030176D01*
X041012Y030126D01*
X041012Y030076D01*
X041008Y030026D01*
X041000Y029977D01*
X040988Y029928D01*
X040972Y029880D01*
X040953Y029834D01*
X040930Y029790D01*
X040903Y029747D01*
X040873Y029707D01*
X040841Y029669D01*
X040805Y029634D01*
X040766Y029602D01*
X040725Y029573D01*
X040682Y029547D01*
X040637Y029525D01*
X040591Y029507D01*
X040543Y029492D01*
X040494Y029481D01*
X040445Y029474D01*
X040395Y029471D01*
X040344Y029472D01*
X040295Y029477D01*
X040245Y029486D01*
X040197Y029499D01*
X040150Y029515D01*
X040104Y029536D01*
X040060Y029560D01*
X040018Y029587D01*
X039978Y029617D01*
X039941Y029651D01*
X039907Y029688D01*
X039875Y029727D01*
X039847Y029768D01*
X039822Y029812D01*
X039801Y029857D01*
X039784Y029904D01*
X039770Y029952D01*
X039760Y030001D01*
X039754Y030051D01*
X039752Y030101D01*
X040382Y031676D02*
X040459Y031674D01*
X040536Y031668D01*
X040613Y031659D01*
X040689Y031646D01*
X040765Y031629D01*
X040839Y031608D01*
X040913Y031584D01*
X040985Y031556D01*
X041055Y031525D01*
X041124Y031490D01*
X041192Y031452D01*
X041257Y031411D01*
X041320Y031366D01*
X041381Y031318D01*
X041440Y031268D01*
X041496Y031215D01*
X041549Y031159D01*
X041599Y031100D01*
X041647Y031039D01*
X041692Y030976D01*
X041733Y030911D01*
X041771Y030843D01*
X041806Y030774D01*
X041837Y030704D01*
X041865Y030632D01*
X041889Y030558D01*
X041910Y030484D01*
X041927Y030408D01*
X041940Y030332D01*
X041949Y030255D01*
X041955Y030178D01*
X041957Y030101D01*
X041957Y001755D01*
X039752Y001755D02*
X039754Y001805D01*
X039760Y001855D01*
X039770Y001904D01*
X039784Y001952D01*
X039801Y001999D01*
X039822Y002044D01*
X039847Y002088D01*
X039875Y002129D01*
X039907Y002168D01*
X039941Y002205D01*
X039978Y002239D01*
X040018Y002269D01*
X040060Y002296D01*
X040104Y002320D01*
X040150Y002341D01*
X040197Y002357D01*
X040245Y002370D01*
X040295Y002379D01*
X040344Y002384D01*
X040395Y002385D01*
X040445Y002382D01*
X040494Y002375D01*
X040543Y002364D01*
X040591Y002349D01*
X040637Y002331D01*
X040682Y002309D01*
X040725Y002283D01*
X040766Y002254D01*
X040805Y002222D01*
X040841Y002187D01*
X040873Y002149D01*
X040903Y002109D01*
X040930Y002066D01*
X040953Y002022D01*
X040972Y001976D01*
X040988Y001928D01*
X041000Y001879D01*
X041008Y001830D01*
X041012Y001780D01*
X041012Y001730D01*
X041008Y001680D01*
X041000Y001631D01*
X040988Y001582D01*
X040972Y001534D01*
X040953Y001488D01*
X040930Y001444D01*
X040903Y001401D01*
X040873Y001361D01*
X040841Y001323D01*
X040805Y001288D01*
X040766Y001256D01*
X040725Y001227D01*
X040682Y001201D01*
X040637Y001179D01*
X040591Y001161D01*
X040543Y001146D01*
X040494Y001135D01*
X040445Y001128D01*
X040395Y001125D01*
X040344Y001126D01*
X040295Y001131D01*
X040245Y001140D01*
X040197Y001153D01*
X040150Y001169D01*
X040104Y001190D01*
X040060Y001214D01*
X040018Y001241D01*
X039978Y001271D01*
X039941Y001305D01*
X039907Y001342D01*
X039875Y001381D01*
X039847Y001422D01*
X039822Y001466D01*
X039801Y001511D01*
X039784Y001558D01*
X039770Y001606D01*
X039760Y001655D01*
X039754Y001705D01*
X039752Y001755D01*
X040382Y000180D02*
X040459Y000182D01*
X040536Y000188D01*
X040613Y000197D01*
X040689Y000210D01*
X040765Y000227D01*
X040839Y000248D01*
X040913Y000272D01*
X040985Y000300D01*
X041055Y000331D01*
X041124Y000366D01*
X041192Y000404D01*
X041257Y000445D01*
X041320Y000490D01*
X041381Y000538D01*
X041440Y000588D01*
X041496Y000641D01*
X041549Y000697D01*
X041599Y000756D01*
X041647Y000817D01*
X041692Y000880D01*
X041733Y000945D01*
X041771Y001013D01*
X041806Y001082D01*
X041837Y001152D01*
X041865Y001224D01*
X041889Y001298D01*
X041910Y001372D01*
X041927Y001448D01*
X041940Y001524D01*
X041949Y001601D01*
X041955Y001678D01*
X041957Y001755D01*
X040382Y000180D02*
X004161Y000180D01*
X003531Y001755D02*
X003533Y001805D01*
X003539Y001855D01*
X003549Y001904D01*
X003563Y001952D01*
X003580Y001999D01*
X003601Y002044D01*
X003626Y002088D01*
X003654Y002129D01*
X003686Y002168D01*
X003720Y002205D01*
X003757Y002239D01*
X003797Y002269D01*
X003839Y002296D01*
X003883Y002320D01*
X003929Y002341D01*
X003976Y002357D01*
X004024Y002370D01*
X004074Y002379D01*
X004123Y002384D01*
X004174Y002385D01*
X004224Y002382D01*
X004273Y002375D01*
X004322Y002364D01*
X004370Y002349D01*
X004416Y002331D01*
X004461Y002309D01*
X004504Y002283D01*
X004545Y002254D01*
X004584Y002222D01*
X004620Y002187D01*
X004652Y002149D01*
X004682Y002109D01*
X004709Y002066D01*
X004732Y002022D01*
X004751Y001976D01*
X004767Y001928D01*
X004779Y001879D01*
X004787Y001830D01*
X004791Y001780D01*
X004791Y001730D01*
X004787Y001680D01*
X004779Y001631D01*
X004767Y001582D01*
X004751Y001534D01*
X004732Y001488D01*
X004709Y001444D01*
X004682Y001401D01*
X004652Y001361D01*
X004620Y001323D01*
X004584Y001288D01*
X004545Y001256D01*
X004504Y001227D01*
X004461Y001201D01*
X004416Y001179D01*
X004370Y001161D01*
X004322Y001146D01*
X004273Y001135D01*
X004224Y001128D01*
X004174Y001125D01*
X004123Y001126D01*
X004074Y001131D01*
X004024Y001140D01*
X003976Y001153D01*
X003929Y001169D01*
X003883Y001190D01*
X003839Y001214D01*
X003797Y001241D01*
X003757Y001271D01*
X003720Y001305D01*
X003686Y001342D01*
X003654Y001381D01*
X003626Y001422D01*
X003601Y001466D01*
X003580Y001511D01*
X003563Y001558D01*
X003549Y001606D01*
X003539Y001655D01*
X003533Y001705D01*
X003531Y001755D01*
X002586Y001755D02*
X002588Y001678D01*
X002594Y001601D01*
X002603Y001524D01*
X002616Y001448D01*
X002633Y001372D01*
X002654Y001298D01*
X002678Y001224D01*
X002706Y001152D01*
X002737Y001082D01*
X002772Y001013D01*
X002810Y000945D01*
X002851Y000880D01*
X002896Y000817D01*
X002944Y000756D01*
X002994Y000697D01*
X003047Y000641D01*
X003103Y000588D01*
X003162Y000538D01*
X003223Y000490D01*
X003286Y000445D01*
X003351Y000404D01*
X003419Y000366D01*
X003488Y000331D01*
X003558Y000300D01*
X003630Y000272D01*
X003704Y000248D01*
X003778Y000227D01*
X003854Y000210D01*
X003930Y000197D01*
X004007Y000188D01*
X004084Y000182D01*
X004161Y000180D01*
X003807Y004511D02*
X003809Y004530D01*
X003814Y004549D01*
X003824Y004565D01*
X003836Y004580D01*
X003851Y004592D01*
X003867Y004602D01*
X003886Y004607D01*
X003905Y004609D01*
X003924Y004607D01*
X003943Y004602D01*
X003959Y004592D01*
X003974Y004580D01*
X003986Y004565D01*
X003996Y004549D01*
X004001Y004530D01*
X004003Y004511D01*
X004001Y004492D01*
X003996Y004473D01*
X003986Y004457D01*
X003974Y004442D01*
X003959Y004430D01*
X003943Y004420D01*
X003924Y004415D01*
X003905Y004413D01*
X003886Y004415D01*
X003867Y004420D01*
X003851Y004430D01*
X003836Y004442D01*
X003824Y004457D01*
X003814Y004473D01*
X003809Y004492D01*
X003807Y004511D01*
X003807Y006086D02*
X003809Y006105D01*
X003814Y006124D01*
X003824Y006140D01*
X003836Y006155D01*
X003851Y006167D01*
X003867Y006177D01*
X003886Y006182D01*
X003905Y006184D01*
X003924Y006182D01*
X003943Y006177D01*
X003959Y006167D01*
X003974Y006155D01*
X003986Y006140D01*
X003996Y006124D01*
X004001Y006105D01*
X004003Y006086D01*
X004001Y006067D01*
X003996Y006048D01*
X003986Y006032D01*
X003974Y006017D01*
X003959Y006005D01*
X003943Y005995D01*
X003924Y005990D01*
X003905Y005988D01*
X003886Y005990D01*
X003867Y005995D01*
X003851Y006005D01*
X003836Y006017D01*
X003824Y006032D01*
X003814Y006048D01*
X003809Y006067D01*
X003807Y006086D01*
X016295Y001834D02*
X016297Y001861D01*
X016303Y001888D01*
X016312Y001914D01*
X016325Y001938D01*
X016341Y001961D01*
X016360Y001980D01*
X016382Y001997D01*
X016406Y002011D01*
X016431Y002021D01*
X016458Y002028D01*
X016485Y002031D01*
X016513Y002030D01*
X016540Y002025D01*
X016566Y002017D01*
X016590Y002005D01*
X016613Y001989D01*
X016634Y001971D01*
X016651Y001950D01*
X016666Y001926D01*
X016677Y001901D01*
X016685Y001875D01*
X016689Y001848D01*
X016689Y001820D01*
X016685Y001793D01*
X016677Y001767D01*
X016666Y001742D01*
X016651Y001718D01*
X016634Y001697D01*
X016613Y001679D01*
X016591Y001663D01*
X016566Y001651D01*
X016540Y001643D01*
X016513Y001638D01*
X016485Y001637D01*
X016458Y001640D01*
X016431Y001647D01*
X016406Y001657D01*
X016382Y001671D01*
X016360Y001688D01*
X016341Y001707D01*
X016325Y001730D01*
X016312Y001754D01*
X016303Y001780D01*
X016297Y001807D01*
X016295Y001834D01*
X019445Y001834D02*
X019447Y001861D01*
X019453Y001888D01*
X019462Y001914D01*
X019475Y001938D01*
X019491Y001961D01*
X019510Y001980D01*
X019532Y001997D01*
X019556Y002011D01*
X019581Y002021D01*
X019608Y002028D01*
X019635Y002031D01*
X019663Y002030D01*
X019690Y002025D01*
X019716Y002017D01*
X019740Y002005D01*
X019763Y001989D01*
X019784Y001971D01*
X019801Y001950D01*
X019816Y001926D01*
X019827Y001901D01*
X019835Y001875D01*
X019839Y001848D01*
X019839Y001820D01*
X019835Y001793D01*
X019827Y001767D01*
X019816Y001742D01*
X019801Y001718D01*
X019784Y001697D01*
X019763Y001679D01*
X019741Y001663D01*
X019716Y001651D01*
X019690Y001643D01*
X019663Y001638D01*
X019635Y001637D01*
X019608Y001640D01*
X019581Y001647D01*
X019556Y001657D01*
X019532Y001671D01*
X019510Y001688D01*
X019491Y001707D01*
X019475Y001730D01*
X019462Y001754D01*
X019453Y001780D01*
X019447Y001807D01*
X019445Y001834D01*
X036425Y015416D02*
X036427Y015445D01*
X036433Y015473D01*
X036442Y015501D01*
X036455Y015527D01*
X036472Y015550D01*
X036491Y015572D01*
X036513Y015591D01*
X036538Y015606D01*
X036564Y015619D01*
X036592Y015627D01*
X036620Y015632D01*
X036649Y015633D01*
X036678Y015630D01*
X036706Y015623D01*
X036733Y015613D01*
X036759Y015599D01*
X036782Y015582D01*
X036803Y015562D01*
X036821Y015539D01*
X036836Y015514D01*
X036847Y015487D01*
X036855Y015459D01*
X036859Y015430D01*
X036859Y015402D01*
X036855Y015373D01*
X036847Y015345D01*
X036836Y015318D01*
X036821Y015293D01*
X036803Y015270D01*
X036782Y015250D01*
X036759Y015233D01*
X036733Y015219D01*
X036706Y015209D01*
X036678Y015202D01*
X036649Y015199D01*
X036620Y015200D01*
X036592Y015205D01*
X036564Y015213D01*
X036538Y015226D01*
X036513Y015241D01*
X036491Y015260D01*
X036472Y015282D01*
X036455Y015305D01*
X036442Y015331D01*
X036433Y015359D01*
X036427Y015387D01*
X036425Y015416D01*
X039181Y015416D02*
X039183Y015445D01*
X039189Y015473D01*
X039198Y015501D01*
X039211Y015527D01*
X039228Y015550D01*
X039247Y015572D01*
X039269Y015591D01*
X039294Y015606D01*
X039320Y015619D01*
X039348Y015627D01*
X039376Y015632D01*
X039405Y015633D01*
X039434Y015630D01*
X039462Y015623D01*
X039489Y015613D01*
X039515Y015599D01*
X039538Y015582D01*
X039559Y015562D01*
X039577Y015539D01*
X039592Y015514D01*
X039603Y015487D01*
X039611Y015459D01*
X039615Y015430D01*
X039615Y015402D01*
X039611Y015373D01*
X039603Y015345D01*
X039592Y015318D01*
X039577Y015293D01*
X039559Y015270D01*
X039538Y015250D01*
X039515Y015233D01*
X039489Y015219D01*
X039462Y015209D01*
X039434Y015202D01*
X039405Y015199D01*
X039376Y015200D01*
X039348Y015205D01*
X039320Y015213D01*
X039294Y015226D01*
X039269Y015241D01*
X039247Y015260D01*
X039228Y015282D01*
X039211Y015305D01*
X039198Y015331D01*
X039189Y015359D01*
X039183Y015387D01*
X039181Y015416D01*
X006929Y029758D02*
X006931Y029791D01*
X006937Y029823D01*
X006946Y029854D01*
X006959Y029884D01*
X006976Y029912D01*
X006996Y029938D01*
X007019Y029962D01*
X007044Y029982D01*
X007072Y030000D01*
X007101Y030014D01*
X007132Y030024D01*
X007164Y030031D01*
X007197Y030034D01*
X007230Y030033D01*
X007262Y030028D01*
X007293Y030019D01*
X007324Y030007D01*
X007352Y029991D01*
X007379Y029972D01*
X007403Y029950D01*
X007424Y029925D01*
X007443Y029898D01*
X007458Y029869D01*
X007469Y029839D01*
X007477Y029807D01*
X007481Y029774D01*
X007481Y029742D01*
X007477Y029709D01*
X007469Y029677D01*
X007458Y029647D01*
X007443Y029618D01*
X007424Y029591D01*
X007403Y029566D01*
X007379Y029544D01*
X007352Y029525D01*
X007324Y029509D01*
X007293Y029497D01*
X007262Y029488D01*
X007230Y029483D01*
X007197Y029482D01*
X007164Y029485D01*
X007132Y029492D01*
X007101Y029502D01*
X007072Y029516D01*
X007044Y029534D01*
X007019Y029554D01*
X006996Y029578D01*
X006976Y029604D01*
X006959Y029632D01*
X006946Y029662D01*
X006937Y029693D01*
X006931Y029725D01*
X006929Y029758D01*
X003236Y027149D02*
X003238Y027172D01*
X003244Y027195D01*
X003254Y027216D01*
X003267Y027236D01*
X003283Y027253D01*
X003302Y027267D01*
X003323Y027277D01*
X003345Y027284D01*
X003368Y027287D01*
X003392Y027286D01*
X003414Y027281D01*
X003436Y027272D01*
X003456Y027260D01*
X003474Y027244D01*
X003488Y027226D01*
X003500Y027206D01*
X003508Y027184D01*
X003512Y027161D01*
X003512Y027137D01*
X003508Y027114D01*
X003500Y027092D01*
X003488Y027072D01*
X003474Y027054D01*
X003456Y027038D01*
X003436Y027026D01*
X003414Y027017D01*
X003392Y027012D01*
X003368Y027011D01*
X003345Y027014D01*
X003323Y027021D01*
X003302Y027031D01*
X003283Y027045D01*
X003267Y027062D01*
X003254Y027082D01*
X003244Y027103D01*
X003238Y027126D01*
X003236Y027149D01*
X003236Y025967D02*
X003238Y025990D01*
X003244Y026013D01*
X003254Y026034D01*
X003267Y026054D01*
X003283Y026071D01*
X003302Y026085D01*
X003323Y026095D01*
X003345Y026102D01*
X003368Y026105D01*
X003392Y026104D01*
X003414Y026099D01*
X003436Y026090D01*
X003456Y026078D01*
X003474Y026062D01*
X003488Y026044D01*
X003500Y026024D01*
X003508Y026002D01*
X003512Y025979D01*
X003512Y025955D01*
X003508Y025932D01*
X003500Y025910D01*
X003488Y025890D01*
X003474Y025872D01*
X003456Y025856D01*
X003436Y025844D01*
X003414Y025835D01*
X003392Y025830D01*
X003368Y025829D01*
X003345Y025832D01*
X003323Y025839D01*
X003302Y025849D01*
X003283Y025863D01*
X003267Y025880D01*
X003254Y025900D01*
X003244Y025921D01*
X003238Y025944D01*
X003236Y025967D01*
D12*
X004161Y030101D03*
X040382Y030101D03*
X040382Y001755D03*
X004161Y001755D03*
D13*
X007205Y026558D03*
X022165Y026558D03*
D14*
X007205Y029758D03*
D15*
X030638Y015337D03*
X030638Y013369D03*
X032114Y011302D03*
X034083Y011302D03*
X035559Y013369D03*
X037626Y011302D03*
X039594Y011302D03*
X035559Y015337D03*
X028571Y011302D03*
X026602Y011302D03*
X026602Y006381D03*
X028571Y006381D03*
X030638Y004314D03*
X030638Y002345D03*
X035559Y002345D03*
X035559Y004314D03*
X034083Y006381D03*
X032114Y006381D03*
X037626Y006381D03*
X039594Y006381D03*
D16*
X019307Y006361D03*
X018874Y006361D03*
X018441Y006361D03*
X018008Y006361D03*
X017575Y006361D03*
X017142Y006361D03*
X016709Y006361D03*
X016276Y006361D03*
X015842Y006361D03*
D17*
X021295Y005790D03*
D18*
X015213Y005643D03*
D19*
X015252Y001952D03*
D20*
X021610Y001952D03*
D21*
X019642Y001834D03*
X016492Y001834D03*
D22*
X036563Y014550D03*
X037154Y016322D03*
X038728Y016322D03*
X039909Y016322D03*
X039909Y014156D03*
D23*
X039398Y015416D03*
X036642Y015416D03*
D24*
X003374Y017621D03*
X003374Y018960D03*
D25*
X006327Y018871D03*
X007311Y018871D03*
X007311Y018103D03*
X006327Y018103D03*
X006327Y016903D03*
X006327Y016135D03*
X006524Y010997D03*
X006524Y010229D03*
X012626Y010111D03*
X012626Y009343D03*
X017842Y009718D03*
X017842Y008950D03*
X021091Y009934D03*
X021091Y010702D03*
X021091Y011607D03*
X021091Y012375D03*
X026012Y012788D03*
X026012Y013556D03*
X026012Y014461D03*
X026012Y015229D03*
X023650Y016331D03*
X023650Y017099D03*
X023650Y017906D03*
X023650Y018674D03*
D26*
X004063Y025672D03*
X004063Y026263D03*
X004063Y027444D03*
D27*
X003718Y027846D02*
X003718Y028104D01*
X003896Y028104D01*
X003896Y027846D01*
X003718Y027846D01*
X003718Y028022D02*
X003896Y028022D01*
X002852Y028104D02*
X002852Y027846D01*
X002852Y028104D02*
X003030Y028104D01*
X003030Y027846D01*
X002852Y027846D01*
X002852Y028022D02*
X003030Y028022D01*
X002852Y025270D02*
X002852Y025012D01*
X002852Y025270D02*
X003030Y025270D01*
X003030Y025012D01*
X002852Y025012D01*
X002852Y025188D02*
X003030Y025188D01*
X003718Y025270D02*
X003718Y025012D01*
X003718Y025270D02*
X003896Y025270D01*
X003896Y025012D01*
X003718Y025012D01*
X003718Y025188D02*
X003896Y025188D01*
D28*
X003374Y025967D03*
X003374Y027149D03*
D29*
X003413Y020849D03*
X006091Y020849D03*
D30*
X005402Y018861D03*
X005402Y018487D03*
X005402Y018113D03*
X004496Y018113D03*
X004496Y018487D03*
X004496Y018861D03*
D31*
X005165Y016322D03*
X003551Y016322D03*
X003551Y023605D03*
X005165Y023605D03*
D32*
X004299Y005810D03*
X004299Y005554D03*
X004299Y005298D03*
X004299Y005042D03*
X004299Y004786D03*
D33*
X002763Y004236D02*
X002763Y003644D01*
X002763Y004236D02*
X003355Y004236D01*
X003355Y003644D01*
X002763Y003644D01*
X002763Y003840D02*
X003355Y003840D01*
X003355Y004036D02*
X002763Y004036D01*
X002763Y004232D02*
X003355Y004232D01*
X002763Y006360D02*
X002763Y006952D01*
X003355Y006952D01*
X003355Y006360D01*
X002763Y006360D01*
X002763Y006556D02*
X003355Y006556D01*
X003355Y006752D02*
X002763Y006752D01*
X002763Y006948D02*
X003355Y006948D01*
D34*
X003905Y006086D03*
X003905Y004511D03*
D35*
X013905Y009708D03*
X014220Y009708D03*
X014535Y009708D03*
X014850Y009708D03*
X015165Y009708D03*
X015480Y009708D03*
X015795Y009708D03*
X016110Y009708D03*
X016425Y009708D03*
X016740Y009708D03*
X017055Y009708D03*
X017055Y014274D03*
X016740Y014274D03*
X016425Y014274D03*
X016110Y014274D03*
X015795Y014274D03*
X015480Y014274D03*
X015165Y014274D03*
X014850Y014274D03*
X014535Y014274D03*
X014220Y014274D03*
X013905Y014274D03*
D36*
X013197Y013566D03*
X013197Y013251D03*
X013197Y012936D03*
X013197Y012621D03*
X013197Y012306D03*
X013197Y011991D03*
X013197Y011676D03*
X013197Y011361D03*
X013197Y011046D03*
X013197Y010731D03*
X013197Y010416D03*
X017764Y010416D03*
X017764Y010731D03*
X017764Y011046D03*
X017764Y011361D03*
X017764Y011676D03*
X017764Y011991D03*
X017764Y012306D03*
X017764Y012621D03*
X017764Y012936D03*
X017764Y013251D03*
X017764Y013566D03*
D37*
X017852Y014452D03*
X018620Y014452D03*
X022773Y013566D03*
X023541Y013566D03*
X023541Y012680D03*
X022773Y012680D03*
X022773Y011794D03*
X023541Y011794D03*
X023541Y010908D03*
X022773Y010908D03*
X022773Y010023D03*
X023541Y010023D03*
X023541Y009137D03*
X022773Y009137D03*
X022773Y008251D03*
X023541Y008251D03*
X021179Y008152D03*
X020411Y008152D03*
X020411Y007267D03*
X021179Y007267D03*
X016160Y008448D03*
X015392Y008448D03*
X012223Y013566D03*
X011455Y013566D03*
X008876Y014747D03*
X008108Y014747D03*
X006809Y015141D03*
X006041Y015141D03*
X026021Y016322D03*
X026789Y016322D03*
X027695Y016322D03*
X028463Y016322D03*
X040392Y025771D03*
X041160Y025771D03*
X041160Y026656D03*
X040392Y026656D03*
X040392Y027542D03*
X041160Y027542D03*
D38*
X041356Y023999D03*
X040588Y023999D03*
X040588Y023113D03*
X041356Y023113D03*
X041356Y022227D03*
X040588Y022227D03*
X040588Y021341D03*
X041356Y021341D03*
X041356Y020456D03*
X040588Y020456D03*
X040588Y019570D03*
X041356Y019570D03*
X041356Y018684D03*
X040588Y018684D03*
X040588Y017798D03*
X041356Y017798D03*
D39*
X024033Y019806D03*
X024033Y020121D03*
X023266Y020121D03*
X023266Y019806D03*
X023266Y021578D03*
X023266Y021893D03*
X024033Y021893D03*
X024033Y021578D03*
D40*
X024033Y021225D03*
X024033Y020473D03*
X023266Y020473D03*
X023266Y021225D03*
X023266Y022245D03*
X024033Y022245D03*
X024033Y019454D03*
X023266Y019454D03*
D41*
X010264Y009629D03*
X008295Y009629D03*
X008295Y003920D03*
X009279Y003920D03*
X010264Y003920D03*
D42*
X011740Y006873D03*
X006819Y006873D03*
D43*
X021980Y021782D03*
D44*
X020980Y021782D03*
X019980Y021782D03*
X018980Y021782D03*
X017980Y021782D03*
X016980Y021782D03*
X015980Y021782D03*
X014980Y021782D03*
X013980Y021782D03*
X012980Y021782D03*
X011980Y021782D03*
X010980Y021782D03*
X009980Y021782D03*
X008980Y021782D03*
X008980Y015782D03*
X009980Y015782D03*
X010980Y015782D03*
X011980Y015782D03*
X012980Y015782D03*
X013980Y015782D03*
X014980Y015782D03*
X015980Y015782D03*
X016980Y015782D03*
X017980Y015782D03*
X018980Y015782D03*
X019980Y015782D03*
X020980Y015782D03*
X021980Y015782D03*
D45*
X027230Y014885D03*
X027730Y014885D03*
X028230Y014885D03*
X028730Y014885D03*
X028730Y012837D03*
X028230Y012837D03*
X027730Y012837D03*
X027230Y012837D03*
D46*
X024772Y014944D03*
X023512Y014944D03*
D47*
X005367Y011735D03*
X004457Y011735D03*
X003547Y011735D03*
D48*
X004457Y009295D03*
D49*
X004555Y012916D03*
X004555Y013467D03*
X004555Y014019D03*
X003374Y014019D03*
X003374Y013467D03*
X003374Y012916D03*
D50*
X019516Y012007D03*
X019516Y010007D03*
M02*
