%
M48
M72
T01C0.0120
T02C0.0197
T03C0.0276
T04C0.0320
T05C0.0394
T06C0.0433
T07C0.0472
T08C0.0551
T09C0.1260
%
T01
X4358Y4215
X4358Y4511
X5047Y4806
X6524Y1853
X12626Y2542
X12626Y2936
X12626Y3330
X12626Y3723
X12626Y4117
X14299Y4117
X14299Y3723
X14299Y3330
X14299Y2936
X14299Y2542
X17547Y2345
X18433Y2345
X17547Y4019
X17154Y5495
X18433Y5495
X17154Y7267
X16760Y7660
X16169Y7857
X17055Y8546
X17350Y8940
X18433Y8940
X16071Y9137
X15185Y9137
X13610Y9727
X13118Y9334
X12783Y10711
X13709Y10711
X15185Y10318
X17154Y11400
X18335Y11302
X15579Y12877
X15579Y13763
X15087Y13763
X13709Y13271
X12724Y13271
X12035Y12975
X11839Y12680
X11445Y13074
X10953Y13566
X7902Y16223
X8787Y16715
X8787Y17109
X9083Y17109
X7311Y17109
X7016Y17109
X5146Y16814
X4457Y16322
X5146Y15830
X4949Y18881
X5342Y19274
X7213Y19471
X3571Y23015
X4260Y23605
X3571Y24196
X13020Y17404
X15972Y20160
X14988Y20456
X19909Y19865
X19909Y19570
X20500Y19373
X21484Y19373
X21976Y19373
X24240Y18782
X22961Y16715
X24240Y16420
X21091Y16715
X17409Y14255
X17055Y13861
X18630Y13861
X22272Y10908
X22173Y8743
X21169Y8704
X21169Y6696
X21287Y4904
X14102Y7267
X5342Y10908
X5342Y12483
X28669Y13566
X29063Y16322
X32705Y18979
X33000Y18782
X33295Y18979
X39791Y26164
X41169Y28133
X30874Y26971
X30894Y29570
X29594Y29609
T02
X3905Y6086
X3905Y4511
T03
X19516Y10007
X19516Y12007
X3374Y25967
X3374Y27149
T04
X8980Y21782
X9980Y21782
X10980Y21782
X11980Y21782
X12980Y21782
X13980Y21782
X14980Y21782
X15980Y21782
X16980Y21782
X17980Y21782
X18980Y21782
X19980Y21782
X20980Y21782
X21980Y21782
X21980Y15782
X20980Y15782
X19980Y15782
X18980Y15782
X17980Y15782
X16980Y15782
X15980Y15782
X14980Y15782
X13980Y15782
X12980Y15782
X11980Y15782
X10980Y15782
X9980Y15782
X8980Y15782
T05
X8295Y9629
X10264Y9629
X10264Y3920
X9279Y3920
X8295Y3920
X16492Y1834
X19642Y1834
T06
X36563Y14550
X36642Y15416
X37154Y16322
X38728Y16322
X39398Y15416
X39909Y16322
X39909Y14156
T07
X39594Y11302
X37626Y11302
X35559Y13369
X34083Y11302
X32114Y11302
X30638Y13369
X28571Y11302
X26602Y11302
X30638Y15337
X35559Y15337
X34083Y6381
X32114Y6381
X30638Y4314
X30638Y2345
X35559Y2345
X35559Y4314
X37626Y6381
X39594Y6381
X28571Y6381
X26602Y6381
T08
X22165Y26558
X7205Y26558
X7205Y29758
T09
X4161Y1755
X40382Y1755
X40382Y30101
X4161Y30101
M30
